<svg width="1320" height="140" viewBox="0 0 1320 140" fill="none" xmlns="http://www.w3.org/2000/svg">
<mask id="mask0_127_24476" style="mask-type:alpha" maskUnits="userSpaceOnUse" x="0" y="0" width="1320" height="140">
<rect width="1320" height="140" fill="#D9D9D9"/>
</mask>
<g mask="url(#mask0_127_24476)">
<rect x="-3335" y="70" width="1" height="5650" transform="rotate(-45 -3335 70)" fill="#ECECEC"/>
<rect x="-3330.05" y="65.0498" width="1" height="5650" transform="rotate(-45 -3330.05 65.0498)" fill="#ECECEC"/>
<rect x="-3325.1" y="60.1006" width="1" height="5650" transform="rotate(-45 -3325.1 60.1006)" fill="#ECECEC"/>
<rect x="-3320.15" y="55.1504" width="1" height="5650" transform="rotate(-45 -3320.15 55.1504)" fill="#ECECEC"/>
<rect x="-3315.2" y="50.2012" width="1" height="5650" transform="rotate(-45 -3315.2 50.2012)" fill="#ECECEC"/>
<rect x="-3310.25" y="45.251" width="1" height="5650" transform="rotate(-45 -3310.25 45.251)" fill="#ECECEC"/>
<rect x="-3305.3" y="40.3018" width="1" height="5650" transform="rotate(-45 -3305.3 40.3018)" fill="#ECECEC"/>
<rect x="-3300.35" y="35.3516" width="1" height="5650" transform="rotate(-45 -3300.35 35.3516)" fill="#ECECEC"/>
<rect x="-3295.4" y="30.4023" width="1" height="5650" transform="rotate(-45 -3295.4 30.4023)" fill="#ECECEC"/>
<rect x="-3290.45" y="25.4521" width="1" height="5650" transform="rotate(-45 -3290.45 25.4521)" fill="#ECECEC"/>
<rect x="-3285.5" y="20.5029" width="1" height="5650" transform="rotate(-45 -3285.5 20.5029)" fill="#ECECEC"/>
<rect x="-3280.55" y="15.5527" width="1" height="5650" transform="rotate(-45 -3280.55 15.5527)" fill="#ECECEC"/>
<rect x="-3275.6" y="10.6035" width="1" height="5650" transform="rotate(-45 -3275.6 10.6035)" fill="#ECECEC"/>
<rect x="-3270.65" y="5.65332" width="1" height="5650" transform="rotate(-45 -3270.65 5.65332)" fill="#ECECEC"/>
<rect x="-3265.7" y="0.703125" width="1" height="5650" transform="rotate(-45 -3265.7 0.703125)" fill="#ECECEC"/>
<rect x="-3260.75" y="-4.24609" width="1" height="5650" transform="rotate(-45 -3260.75 -4.24609)" fill="#ECECEC"/>
<rect x="-3255.8" y="-9.19629" width="1" height="5650" transform="rotate(-45 -3255.8 -9.19629)" fill="#ECECEC"/>
<rect x="-3250.85" y="-14.1455" width="1" height="5650" transform="rotate(-45 -3250.85 -14.1455)" fill="#ECECEC"/>
<rect x="-3245.9" y="-19.0957" width="1" height="5650" transform="rotate(-45 -3245.9 -19.0957)" fill="#ECECEC"/>
<rect x="-3240.95" y="-24.0449" width="1" height="5650" transform="rotate(-45 -3240.95 -24.0449)" fill="#ECECEC"/>
<rect x="-3236.01" y="-28.9951" width="1" height="5650" transform="rotate(-45 -3236.01 -28.9951)" fill="#ECECEC"/>
<rect x="-3231.06" y="-33.9443" width="1" height="5650" transform="rotate(-45 -3231.06 -33.9443)" fill="#ECECEC"/>
<rect x="-3226.11" y="-38.8945" width="1" height="5650" transform="rotate(-45 -3226.11 -38.8945)" fill="#ECECEC"/>
<rect x="-3221.16" y="-43.8438" width="1" height="5650" transform="rotate(-45 -3221.16 -43.8438)" fill="#ECECEC"/>
<rect x="-3216.21" y="-48.7939" width="1" height="5650" transform="rotate(-45 -3216.21 -48.7939)" fill="#ECECEC"/>
<rect x="-3211.26" y="-53.7441" width="1" height="5650" transform="rotate(-45 -3211.26 -53.7441)" fill="#ECECEC"/>
<rect x="-3206.31" y="-58.6934" width="1" height="5650" transform="rotate(-45 -3206.31 -58.6934)" fill="#ECECEC"/>
<rect x="-3201.36" y="-63.6436" width="1" height="5650" transform="rotate(-45 -3201.36 -63.6436)" fill="#ECECEC"/>
<rect x="-3196.41" y="-68.5928" width="1" height="5650" transform="rotate(-45 -3196.41 -68.5928)" fill="#ECECEC"/>
<rect x="-3191.46" y="-73.543" width="1" height="5650" transform="rotate(-45 -3191.46 -73.543)" fill="#ECECEC"/>
<rect x="-3186.51" y="-78.4922" width="1" height="5650" transform="rotate(-45 -3186.51 -78.4922)" fill="#ECECEC"/>
<rect x="-3181.56" y="-83.4424" width="1" height="5650" transform="rotate(-45 -3181.56 -83.4424)" fill="#ECECEC"/>
<rect x="-3176.61" y="-88.3916" width="1" height="5650" transform="rotate(-45 -3176.61 -88.3916)" fill="#ECECEC"/>
<rect x="-3171.66" y="-93.3418" width="1" height="5650" transform="rotate(-45 -3171.66 -93.3418)" fill="#ECECEC"/>
<rect x="-3166.71" y="-98.291" width="1" height="5650" transform="rotate(-45 -3166.71 -98.291)" fill="#ECECEC"/>
<rect x="-3161.76" y="-103.241" width="1" height="5650" transform="rotate(-45 -3161.76 -103.241)" fill="#ECECEC"/>
<rect x="-3156.81" y="-108.19" width="1" height="5650" transform="rotate(-45 -3156.81 -108.19)" fill="#ECECEC"/>
<rect x="-3151.86" y="-113.141" width="1" height="5650" transform="rotate(-45 -3151.86 -113.141)" fill="#ECECEC"/>
<rect x="-3146.91" y="-118.091" width="1" height="5650" transform="rotate(-45 -3146.91 -118.091)" fill="#ECECEC"/>
<rect x="-3141.96" y="-123.04" width="1" height="5650" transform="rotate(-45 -3141.96 -123.04)" fill="#ECECEC"/>
<rect x="-3137.01" y="-127.99" width="1" height="5650" transform="rotate(-45 -3137.01 -127.99)" fill="#ECECEC"/>
<rect x="-3132.06" y="-132.939" width="1" height="5650" transform="rotate(-45 -3132.06 -132.939)" fill="#ECECEC"/>
<rect x="-3127.11" y="-137.89" width="1" height="5650" transform="rotate(-45 -3127.11 -137.89)" fill="#ECECEC"/>
<rect x="-3122.16" y="-142.839" width="1" height="5650" transform="rotate(-45 -3122.16 -142.839)" fill="#ECECEC"/>
<rect x="-3117.21" y="-147.789" width="1" height="5650" transform="rotate(-45 -3117.21 -147.789)" fill="#ECECEC"/>
<rect x="-3112.26" y="-152.738" width="1" height="5650" transform="rotate(-45 -3112.26 -152.738)" fill="#ECECEC"/>
<rect x="-3107.31" y="-157.688" width="1" height="5650" transform="rotate(-45 -3107.31 -157.688)" fill="#ECECEC"/>
<rect x="-3102.36" y="-162.638" width="1" height="5650" transform="rotate(-45 -3102.36 -162.638)" fill="#ECECEC"/>
<rect x="-3097.41" y="-167.588" width="1" height="5650" transform="rotate(-45 -3097.41 -167.588)" fill="#ECECEC"/>
<rect x="-3092.46" y="-172.538" width="1" height="5650" transform="rotate(-45 -3092.46 -172.538)" fill="#ECECEC"/>
<rect x="-3087.51" y="-177.487" width="1" height="5650" transform="rotate(-45 -3087.51 -177.487)" fill="#ECECEC"/>
<rect x="-3082.56" y="-182.438" width="1" height="5650" transform="rotate(-45 -3082.56 -182.438)" fill="#ECECEC"/>
<rect x="-3077.61" y="-187.387" width="1" height="5650" transform="rotate(-45 -3077.61 -187.387)" fill="#ECECEC"/>
<rect x="-3072.66" y="-192.337" width="1" height="5650" transform="rotate(-45 -3072.66 -192.337)" fill="#ECECEC"/>
<rect x="-3067.71" y="-197.286" width="1" height="5650" transform="rotate(-45 -3067.71 -197.286)" fill="#ECECEC"/>
<rect x="-3062.76" y="-202.236" width="1" height="5650" transform="rotate(-45 -3062.76 -202.236)" fill="#ECECEC"/>
<rect x="-3057.81" y="-207.186" width="1" height="5650" transform="rotate(-45 -3057.81 -207.186)" fill="#ECECEC"/>
<rect x="-3052.86" y="-212.136" width="1" height="5650" transform="rotate(-45 -3052.86 -212.136)" fill="#ECECEC"/>
<rect x="-3047.91" y="-217.085" width="1" height="5650" transform="rotate(-45 -3047.91 -217.085)" fill="#ECECEC"/>
<rect x="-3042.96" y="-222.035" width="1" height="5650" transform="rotate(-45 -3042.96 -222.035)" fill="#ECECEC"/>
<rect x="-3038.02" y="-226.984" width="1" height="5650" transform="rotate(-45 -3038.02 -226.984)" fill="#ECECEC"/>
<rect x="-3033.07" y="-231.935" width="1" height="5650" transform="rotate(-45 -3033.07 -231.935)" fill="#ECECEC"/>
<rect x="-3028.12" y="-236.885" width="1" height="5650" transform="rotate(-45 -3028.12 -236.885)" fill="#ECECEC"/>
<rect x="-3023.17" y="-241.834" width="1" height="5650" transform="rotate(-45 -3023.17 -241.834)" fill="#ECECEC"/>
<rect x="-3018.22" y="-246.784" width="1" height="5650" transform="rotate(-45 -3018.22 -246.784)" fill="#ECECEC"/>
<rect x="-3013.27" y="-251.733" width="1" height="5650" transform="rotate(-45 -3013.27 -251.733)" fill="#ECECEC"/>
<rect x="-3008.32" y="-256.684" width="1" height="5650" transform="rotate(-45 -3008.32 -256.684)" fill="#ECECEC"/>
<rect x="-3003.37" y="-261.633" width="1" height="5650" transform="rotate(-45 -3003.37 -261.633)" fill="#ECECEC"/>
<rect x="-2998.42" y="-266.583" width="1" height="5650" transform="rotate(-45 -2998.42 -266.583)" fill="#ECECEC"/>
<rect x="-2993.47" y="-271.532" width="1" height="5650" transform="rotate(-45 -2993.47 -271.532)" fill="#ECECEC"/>
<rect x="-2988.52" y="-276.482" width="1" height="5650" transform="rotate(-45 -2988.52 -276.482)" fill="#ECECEC"/>
<rect x="-2983.57" y="-281.432" width="1" height="5650" transform="rotate(-45 -2983.57 -281.432)" fill="#ECECEC"/>
<rect x="-2978.62" y="-286.382" width="1" height="5650" transform="rotate(-45 -2978.62 -286.382)" fill="#ECECEC"/>
<rect x="-2973.67" y="-291.332" width="1" height="5650" transform="rotate(-45 -2973.67 -291.332)" fill="#ECECEC"/>
<rect x="-2968.72" y="-296.281" width="1" height="5650" transform="rotate(-45 -2968.72 -296.281)" fill="#ECECEC"/>
<rect x="-2963.77" y="-301.231" width="1" height="5650" transform="rotate(-45 -2963.77 -301.231)" fill="#ECECEC"/>
<rect x="-2958.82" y="-306.181" width="1" height="5650" transform="rotate(-45 -2958.82 -306.181)" fill="#ECECEC"/>
<rect x="-2953.87" y="-311.131" width="1" height="5650" transform="rotate(-45 -2953.87 -311.131)" fill="#ECECEC"/>
<rect x="-2948.92" y="-316.08" width="1" height="5650" transform="rotate(-45 -2948.92 -316.08)" fill="#ECECEC"/>
<rect x="-2943.97" y="-321.03" width="1" height="5650" transform="rotate(-45 -2943.97 -321.03)" fill="#ECECEC"/>
<rect x="-2939.02" y="-325.979" width="1" height="5650" transform="rotate(-45 -2939.02 -325.979)" fill="#ECECEC"/>
<rect x="-2934.07" y="-330.93" width="1" height="5650" transform="rotate(-45 -2934.07 -330.93)" fill="#ECECEC"/>
<rect x="-2929.12" y="-335.879" width="1" height="5650" transform="rotate(-45 -2929.12 -335.879)" fill="#ECECEC"/>
<rect x="-2924.17" y="-340.829" width="1" height="5650" transform="rotate(-45 -2924.17 -340.829)" fill="#ECECEC"/>
<rect x="-2919.22" y="-345.778" width="1" height="5650" transform="rotate(-45 -2919.22 -345.778)" fill="#ECECEC"/>
<rect x="-2914.27" y="-350.729" width="1" height="5650" transform="rotate(-45 -2914.27 -350.729)" fill="#ECECEC"/>
<rect x="-2909.32" y="-355.679" width="1" height="5650" transform="rotate(-45 -2909.32 -355.679)" fill="#ECECEC"/>
<rect x="-2904.37" y="-360.628" width="1" height="5650" transform="rotate(-45 -2904.37 -360.628)" fill="#ECECEC"/>
<rect x="-2899.42" y="-365.578" width="1" height="5650" transform="rotate(-45 -2899.42 -365.578)" fill="#ECECEC"/>
<rect x="-2894.47" y="-370.527" width="1" height="5650" transform="rotate(-45 -2894.47 -370.527)" fill="#ECECEC"/>
<rect x="-2889.52" y="-375.478" width="1" height="5650" transform="rotate(-45 -2889.52 -375.478)" fill="#ECECEC"/>
<rect x="-2884.57" y="-380.427" width="1" height="5650" transform="rotate(-45 -2884.57 -380.427)" fill="#ECECEC"/>
<rect x="-2879.62" y="-385.377" width="1" height="5650" transform="rotate(-45 -2879.62 -385.377)" fill="#ECECEC"/>
<rect x="-2874.67" y="-390.326" width="1" height="5650" transform="rotate(-45 -2874.67 -390.326)" fill="#ECECEC"/>
<rect x="-2869.72" y="-395.276" width="1" height="5650" transform="rotate(-45 -2869.72 -395.276)" fill="#ECECEC"/>
<rect x="-2864.77" y="-400.226" width="1" height="5650" transform="rotate(-45 -2864.77 -400.226)" fill="#ECECEC"/>
<rect x="-2859.82" y="-405.176" width="1" height="5650" transform="rotate(-45 -2859.82 -405.176)" fill="#ECECEC"/>
<rect x="-2854.87" y="-410.126" width="1" height="5650" transform="rotate(-45 -2854.87 -410.126)" fill="#ECECEC"/>
<rect x="-2849.92" y="-415.075" width="1" height="5650" transform="rotate(-45 -2849.92 -415.075)" fill="#ECECEC"/>
<rect x="-2844.98" y="-420.025" width="1" height="5650" transform="rotate(-45 -2844.98 -420.025)" fill="#ECECEC"/>
<rect x="-2840.03" y="-424.975" width="1" height="5650" transform="rotate(-45 -2840.03 -424.975)" fill="#ECECEC"/>
<rect x="-2835.08" y="-429.925" width="1" height="5650" transform="rotate(-45 -2835.08 -429.925)" fill="#ECECEC"/>
<rect x="-2830.13" y="-434.874" width="1" height="5650" transform="rotate(-45 -2830.13 -434.874)" fill="#ECECEC"/>
<rect x="-2825.18" y="-439.824" width="1" height="5650" transform="rotate(-45 -2825.18 -439.824)" fill="#ECECEC"/>
<rect x="-2820.23" y="-444.773" width="1" height="5650" transform="rotate(-45 -2820.23 -444.773)" fill="#ECECEC"/>
<rect x="-2815.28" y="-449.724" width="1" height="5650" transform="rotate(-45 -2815.28 -449.724)" fill="#ECECEC"/>
<rect x="-2810.33" y="-454.673" width="1" height="5650" transform="rotate(-45 -2810.33 -454.673)" fill="#ECECEC"/>
<rect x="-2805.38" y="-459.623" width="1" height="5650" transform="rotate(-45 -2805.38 -459.623)" fill="#ECECEC"/>
<rect x="-2800.43" y="-464.572" width="1" height="5650" transform="rotate(-45 -2800.43 -464.572)" fill="#ECECEC"/>
<rect x="-2795.48" y="-469.522" width="1" height="5650" transform="rotate(-45 -2795.48 -469.522)" fill="#ECECEC"/>
<rect x="-2790.53" y="-474.473" width="1" height="5650" transform="rotate(-45 -2790.53 -474.473)" fill="#ECECEC"/>
<rect x="-2785.58" y="-479.422" width="1" height="5650" transform="rotate(-45 -2785.58 -479.422)" fill="#ECECEC"/>
<rect x="-2780.63" y="-484.372" width="1" height="5650" transform="rotate(-45 -2780.63 -484.372)" fill="#ECECEC"/>
<rect x="-2775.68" y="-489.321" width="1" height="5650" transform="rotate(-45 -2775.68 -489.321)" fill="#ECECEC"/>
<rect x="-2770.73" y="-494.271" width="1" height="5650" transform="rotate(-45 -2770.73 -494.271)" fill="#ECECEC"/>
<rect x="-2765.78" y="-499.221" width="1" height="5650" transform="rotate(-45 -2765.78 -499.221)" fill="#ECECEC"/>
<rect x="-2760.83" y="-504.171" width="1" height="5650" transform="rotate(-45 -2760.83 -504.171)" fill="#ECECEC"/>
<rect x="-2755.88" y="-509.12" width="1" height="5650" transform="rotate(-45 -2755.88 -509.12)" fill="#ECECEC"/>
<rect x="-2750.93" y="-514.07" width="1" height="5650" transform="rotate(-45 -2750.93 -514.07)" fill="#ECECEC"/>
<rect x="-2745.98" y="-519.02" width="1" height="5650" transform="rotate(-45 -2745.98 -519.02)" fill="#ECECEC"/>
<rect x="-2741.03" y="-523.97" width="1" height="5650" transform="rotate(-45 -2741.03 -523.97)" fill="#ECECEC"/>
<rect x="-2736.08" y="-528.919" width="1" height="5650" transform="rotate(-45 -2736.08 -528.919)" fill="#ECECEC"/>
<rect x="-2731.13" y="-533.869" width="1" height="5650" transform="rotate(-45 -2731.13 -533.869)" fill="#ECECEC"/>
<rect x="-2726.18" y="-538.819" width="1" height="5650" transform="rotate(-45 -2726.18 -538.819)" fill="#ECECEC"/>
<rect x="-2721.23" y="-543.769" width="1" height="5650" transform="rotate(-45 -2721.23 -543.769)" fill="#ECECEC"/>
<rect x="-2716.28" y="-548.719" width="1" height="5650" transform="rotate(-45 -2716.28 -548.719)" fill="#ECECEC"/>
<rect x="-2711.33" y="-553.668" width="1" height="5650" transform="rotate(-45 -2711.33 -553.668)" fill="#ECECEC"/>
<rect x="-2706.38" y="-558.618" width="1" height="5650" transform="rotate(-45 -2706.38 -558.618)" fill="#ECECEC"/>
<rect x="-2701.43" y="-563.567" width="1" height="5650" transform="rotate(-45 -2701.43 -563.567)" fill="#ECECEC"/>
<rect x="-2696.48" y="-568.518" width="1" height="5650" transform="rotate(-45 -2696.48 -568.518)" fill="#ECECEC"/>
<rect x="-2691.53" y="-573.467" width="1" height="5650" transform="rotate(-45 -2691.53 -573.467)" fill="#ECECEC"/>
<rect x="-2686.58" y="-578.417" width="1" height="5650" transform="rotate(-45 -2686.58 -578.417)" fill="#ECECEC"/>
<rect x="-2681.63" y="-583.366" width="1" height="5650" transform="rotate(-45 -2681.63 -583.366)" fill="#ECECEC"/>
<rect x="-2676.68" y="-588.316" width="1" height="5650" transform="rotate(-45 -2676.68 -588.316)" fill="#ECECEC"/>
<rect x="-2671.73" y="-593.267" width="1" height="5650" transform="rotate(-45 -2671.73 -593.267)" fill="#ECECEC"/>
<rect x="-2666.78" y="-598.216" width="1" height="5650" transform="rotate(-45 -2666.78 -598.216)" fill="#ECECEC"/>
<rect x="-2661.83" y="-603.166" width="1" height="5650" transform="rotate(-45 -2661.83 -603.166)" fill="#ECECEC"/>
<rect x="-2656.88" y="-608.115" width="1" height="5650" transform="rotate(-45 -2656.88 -608.115)" fill="#ECECEC"/>
<rect x="-2651.93" y="-613.065" width="1" height="5650" transform="rotate(-45 -2651.93 -613.065)" fill="#ECECEC"/>
<rect x="-2646.99" y="-618.015" width="1" height="5650" transform="rotate(-45 -2646.99 -618.015)" fill="#ECECEC"/>
<rect x="-2642.04" y="-622.965" width="1" height="5650" transform="rotate(-45 -2642.04 -622.965)" fill="#ECECEC"/>
<rect x="-2637.09" y="-627.914" width="1" height="5650" transform="rotate(-45 -2637.09 -627.914)" fill="#ECECEC"/>
<rect x="-2632.14" y="-632.864" width="1" height="5650" transform="rotate(-45 -2632.14 -632.864)" fill="#ECECEC"/>
<rect x="-2627.19" y="-637.813" width="1" height="5650" transform="rotate(-45 -2627.19 -637.813)" fill="#ECECEC"/>
<rect x="-2622.24" y="-642.764" width="1" height="5650" transform="rotate(-45 -2622.24 -642.764)" fill="#ECECEC"/>
<rect x="-2617.29" y="-647.713" width="1" height="5650" transform="rotate(-45 -2617.29 -647.713)" fill="#ECECEC"/>
<rect x="-2612.34" y="-652.663" width="1" height="5650" transform="rotate(-45 -2612.34 -652.663)" fill="#ECECEC"/>
<rect x="-2607.39" y="-657.613" width="1" height="5650" transform="rotate(-45 -2607.39 -657.613)" fill="#ECECEC"/>
<rect x="-2602.44" y="-662.562" width="1" height="5650" transform="rotate(-45 -2602.44 -662.562)" fill="#ECECEC"/>
<rect x="-2597.49" y="-667.513" width="1" height="5650" transform="rotate(-45 -2597.49 -667.513)" fill="#ECECEC"/>
<rect x="-2592.54" y="-672.462" width="1" height="5650" transform="rotate(-45 -2592.54 -672.462)" fill="#ECECEC"/>
<rect x="-2587.59" y="-677.412" width="1" height="5650" transform="rotate(-45 -2587.59 -677.412)" fill="#ECECEC"/>
<rect x="-2582.64" y="-682.361" width="1" height="5650" transform="rotate(-45 -2582.64 -682.361)" fill="#ECECEC"/>
<rect x="-2577.69" y="-687.312" width="1" height="5650" transform="rotate(-45 -2577.69 -687.312)" fill="#ECECEC"/>
<rect x="-2572.74" y="-692.261" width="1" height="5650" transform="rotate(-45 -2572.74 -692.261)" fill="#ECECEC"/>
<rect x="-2567.79" y="-697.211" width="1" height="5650" transform="rotate(-45 -2567.79 -697.211)" fill="#ECECEC"/>
<rect x="-2562.84" y="-702.16" width="1" height="5650" transform="rotate(-45 -2562.84 -702.16)" fill="#ECECEC"/>
<rect x="-2557.89" y="-707.11" width="1" height="5650" transform="rotate(-45 -2557.89 -707.11)" fill="#ECECEC"/>
<rect x="-2552.94" y="-712.061" width="1" height="5650" transform="rotate(-45 -2552.94 -712.061)" fill="#ECECEC"/>
<rect x="-2547.99" y="-717.01" width="1" height="5650" transform="rotate(-45 -2547.99 -717.01)" fill="#ECECEC"/>
<rect x="-2543.04" y="-721.96" width="1" height="5650" transform="rotate(-45 -2543.04 -721.96)" fill="#ECECEC"/>
<rect x="-2538.09" y="-726.909" width="1" height="5650" transform="rotate(-45 -2538.09 -726.909)" fill="#ECECEC"/>
<rect x="-2533.14" y="-731.859" width="1" height="5650" transform="rotate(-45 -2533.14 -731.859)" fill="#ECECEC"/>
<rect x="-2528.19" y="-736.809" width="1" height="5650" transform="rotate(-45 -2528.19 -736.809)" fill="#ECECEC"/>
<rect x="-2523.24" y="-741.759" width="1" height="5650" transform="rotate(-45 -2523.24 -741.759)" fill="#ECECEC"/>
<rect x="-2518.29" y="-746.708" width="1" height="5650" transform="rotate(-45 -2518.29 -746.708)" fill="#ECECEC"/>
<rect x="-2513.34" y="-751.658" width="1" height="5650" transform="rotate(-45 -2513.34 -751.658)" fill="#ECECEC"/>
<rect x="-2508.39" y="-756.607" width="1" height="5650" transform="rotate(-45 -2508.39 -756.607)" fill="#ECECEC"/>
<rect x="-2503.44" y="-761.558" width="1" height="5650" transform="rotate(-45 -2503.44 -761.558)" fill="#ECECEC"/>
<rect x="-2498.49" y="-766.507" width="1" height="5650" transform="rotate(-45 -2498.49 -766.507)" fill="#ECECEC"/>
<rect x="-2493.54" y="-771.457" width="1" height="5650" transform="rotate(-45 -2493.54 -771.457)" fill="#ECECEC"/>
<rect x="-2488.59" y="-776.407" width="1" height="5650" transform="rotate(-45 -2488.59 -776.407)" fill="#ECECEC"/>
<rect x="-2483.64" y="-781.356" width="1" height="5650" transform="rotate(-45 -2483.64 -781.356)" fill="#ECECEC"/>
<rect x="-2478.69" y="-786.307" width="1" height="5650" transform="rotate(-45 -2478.69 -786.307)" fill="#ECECEC"/>
<rect x="-2473.74" y="-791.256" width="1" height="5650" transform="rotate(-45 -2473.74 -791.256)" fill="#ECECEC"/>
<rect x="-2468.79" y="-796.206" width="1" height="5650" transform="rotate(-45 -2468.79 -796.206)" fill="#ECECEC"/>
<rect x="-2463.84" y="-801.155" width="1" height="5650" transform="rotate(-45 -2463.84 -801.155)" fill="#ECECEC"/>
<rect x="-2458.89" y="-806.105" width="1" height="5650" transform="rotate(-45 -2458.89 -806.105)" fill="#ECECEC"/>
<rect x="-2453.95" y="-811.055" width="1" height="5650" transform="rotate(-45 -2453.95 -811.055)" fill="#ECECEC"/>
<rect x="-2449" y="-816.005" width="1" height="5650" transform="rotate(-45 -2449 -816.005)" fill="#ECECEC"/>
<rect x="-2444.05" y="-820.954" width="1" height="5650" transform="rotate(-45 -2444.05 -820.954)" fill="#ECECEC"/>
<rect x="-2439.1" y="-825.904" width="1" height="5650" transform="rotate(-45 -2439.1 -825.904)" fill="#ECECEC"/>
<rect x="-2434.15" y="-830.854" width="1" height="5650" transform="rotate(-45 -2434.15 -830.854)" fill="#ECECEC"/>
<rect x="-2429.2" y="-835.804" width="1" height="5650" transform="rotate(-45 -2429.2 -835.804)" fill="#ECECEC"/>
<rect x="-2424.25" y="-840.754" width="1" height="5650" transform="rotate(-45 -2424.25 -840.754)" fill="#ECECEC"/>
<rect x="-2419.3" y="-845.703" width="1" height="5650" transform="rotate(-45 -2419.3 -845.703)" fill="#ECECEC"/>
<rect x="-2414.35" y="-850.653" width="1" height="5650" transform="rotate(-45 -2414.35 -850.653)" fill="#ECECEC"/>
<rect x="-2409.4" y="-855.603" width="1" height="5650" transform="rotate(-45 -2409.4 -855.603)" fill="#ECECEC"/>
<rect x="-2404.45" y="-860.553" width="1" height="5650" transform="rotate(-45 -2404.45 -860.553)" fill="#ECECEC"/>
<rect x="-2399.5" y="-865.502" width="1" height="5650" transform="rotate(-45 -2399.5 -865.502)" fill="#ECECEC"/>
<rect x="-2394.55" y="-870.452" width="1" height="5650" transform="rotate(-45 -2394.55 -870.452)" fill="#ECECEC"/>
<rect x="-2389.6" y="-875.401" width="1" height="5650" transform="rotate(-45 -2389.6 -875.401)" fill="#ECECEC"/>
<rect x="-2384.65" y="-880.352" width="1" height="5650" transform="rotate(-45 -2384.65 -880.352)" fill="#ECECEC"/>
<rect x="-2379.7" y="-885.301" width="1" height="5650" transform="rotate(-45 -2379.7 -885.301)" fill="#ECECEC"/>
<rect x="-2374.75" y="-890.251" width="1" height="5650" transform="rotate(-45 -2374.75 -890.251)" fill="#ECECEC"/>
<rect x="-2369.8" y="-895.201" width="1" height="5650" transform="rotate(-45 -2369.8 -895.201)" fill="#ECECEC"/>
<rect x="-2364.85" y="-900.15" width="1" height="5650" transform="rotate(-45 -2364.85 -900.15)" fill="#ECECEC"/>
<rect x="-2359.9" y="-905.101" width="1" height="5650" transform="rotate(-45 -2359.9 -905.101)" fill="#ECECEC"/>
<rect x="-2354.95" y="-910.05" width="1" height="5650" transform="rotate(-45 -2354.95 -910.05)" fill="#ECECEC"/>
<rect x="-2350" y="-915" width="1" height="5650" transform="rotate(-45 -2350 -915)" fill="#ECECEC"/>
<rect x="-2345.05" y="-919.949" width="1" height="5650" transform="rotate(-45 -2345.05 -919.949)" fill="#ECECEC"/>
<rect x="-2340.1" y="-924.899" width="1" height="5650" transform="rotate(-45 -2340.1 -924.899)" fill="#ECECEC"/>
<rect x="-2335.15" y="-929.849" width="1" height="5650" transform="rotate(-45 -2335.15 -929.849)" fill="#ECECEC"/>
<rect x="-2330.2" y="-934.799" width="1" height="5650" transform="rotate(-45 -2330.2 -934.799)" fill="#ECECEC"/>
<rect x="-2325.25" y="-939.748" width="1" height="5650" transform="rotate(-45 -2325.25 -939.748)" fill="#ECECEC"/>
<rect x="-2320.3" y="-944.698" width="1" height="5650" transform="rotate(-45 -2320.3 -944.698)" fill="#ECECEC"/>
<rect x="-2315.35" y="-949.648" width="1" height="5650" transform="rotate(-45 -2315.35 -949.648)" fill="#ECECEC"/>
<rect x="-2310.4" y="-954.598" width="1" height="5650" transform="rotate(-45 -2310.4 -954.598)" fill="#ECECEC"/>
<rect x="-2305.45" y="-959.548" width="1" height="5650" transform="rotate(-45 -2305.45 -959.548)" fill="#ECECEC"/>
<rect x="-2300.5" y="-964.497" width="1" height="5650" transform="rotate(-45 -2300.5 -964.497)" fill="#ECECEC"/>
<rect x="-2295.55" y="-969.447" width="1" height="5650" transform="rotate(-45 -2295.55 -969.447)" fill="#ECECEC"/>
<rect x="-2290.6" y="-974.396" width="1" height="5650" transform="rotate(-45 -2290.6 -974.396)" fill="#ECECEC"/>
<rect x="-2285.65" y="-979.347" width="1" height="5650" transform="rotate(-45 -2285.65 -979.347)" fill="#ECECEC"/>
<rect x="-2280.7" y="-984.296" width="1" height="5650" transform="rotate(-45 -2280.7 -984.296)" fill="#ECECEC"/>
<rect x="-2275.75" y="-989.246" width="1" height="5650" transform="rotate(-45 -2275.75 -989.246)" fill="#ECECEC"/>
<rect x="-2270.8" y="-994.195" width="1" height="5650" transform="rotate(-45 -2270.8 -994.195)" fill="#ECECEC"/>
<rect x="-2265.85" y="-999.146" width="1" height="5650" transform="rotate(-45 -2265.85 -999.146)" fill="#ECECEC"/>
<rect x="-2260.9" y="-1004.09" width="1" height="5650" transform="rotate(-45 -2260.9 -1004.09)" fill="#ECECEC"/>
<rect x="-2255.96" y="-1009.04" width="1" height="5650" transform="rotate(-45 -2255.96 -1009.04)" fill="#ECECEC"/>
<rect x="-2251.01" y="-1014" width="1" height="5650" transform="rotate(-45 -2251.01 -1014)" fill="#ECECEC"/>
<rect x="-2246.06" y="-1018.94" width="1" height="5650" transform="rotate(-45 -2246.06 -1018.94)" fill="#ECECEC"/>
<rect x="-2241.11" y="-1023.89" width="1" height="5650" transform="rotate(-45 -2241.11 -1023.89)" fill="#ECECEC"/>
<rect x="-2236.16" y="-1028.84" width="1" height="5650" transform="rotate(-45 -2236.16 -1028.84)" fill="#ECECEC"/>
<rect x="-2231.21" y="-1033.79" width="1" height="5650" transform="rotate(-45 -2231.21 -1033.79)" fill="#ECECEC"/>
<rect x="-2226.26" y="-1038.74" width="1" height="5650" transform="rotate(-45 -2226.26 -1038.74)" fill="#ECECEC"/>
<rect x="-2221.31" y="-1043.69" width="1" height="5650" transform="rotate(-45 -2221.31 -1043.69)" fill="#ECECEC"/>
<rect x="-2216.36" y="-1048.64" width="1" height="5650" transform="rotate(-45 -2216.36 -1048.64)" fill="#ECECEC"/>
<rect x="-2211.41" y="-1053.59" width="1" height="5650" transform="rotate(-45 -2211.41 -1053.59)" fill="#ECECEC"/>
<rect x="-2206.46" y="-1058.54" width="1" height="5650" transform="rotate(-45 -2206.46 -1058.54)" fill="#ECECEC"/>
<rect x="-2201.51" y="-1063.49" width="1" height="5650" transform="rotate(-45 -2201.51 -1063.49)" fill="#ECECEC"/>
<rect x="-2196.56" y="-1068.44" width="1" height="5650" transform="rotate(-45 -2196.56 -1068.44)" fill="#ECECEC"/>
<rect x="-2191.61" y="-1073.39" width="1" height="5650" transform="rotate(-45 -2191.61 -1073.39)" fill="#ECECEC"/>
<rect x="-2186.66" y="-1078.34" width="1" height="5650" transform="rotate(-45 -2186.66 -1078.34)" fill="#ECECEC"/>
<rect x="-2181.71" y="-1083.29" width="1" height="5650" transform="rotate(-45 -2181.71 -1083.29)" fill="#ECECEC"/>
<rect x="-2176.76" y="-1088.24" width="1" height="5650" transform="rotate(-45 -2176.76 -1088.24)" fill="#ECECEC"/>
<rect x="-2171.81" y="-1093.19" width="1" height="5650" transform="rotate(-45 -2171.81 -1093.19)" fill="#ECECEC"/>
<rect x="-2166.86" y="-1098.14" width="1" height="5650" transform="rotate(-45 -2166.86 -1098.14)" fill="#ECECEC"/>
<rect x="-2161.91" y="-1103.09" width="1" height="5650" transform="rotate(-45 -2161.91 -1103.09)" fill="#ECECEC"/>
<rect x="-2156.96" y="-1108.04" width="1" height="5650" transform="rotate(-45 -2156.96 -1108.04)" fill="#ECECEC"/>
<rect x="-2152.01" y="-1112.99" width="1" height="5650" transform="rotate(-45 -2152.01 -1112.99)" fill="#ECECEC"/>
<rect x="-2147.06" y="-1117.94" width="1" height="5650" transform="rotate(-45 -2147.06 -1117.94)" fill="#ECECEC"/>
<rect x="-2142.11" y="-1122.89" width="1" height="5650" transform="rotate(-45 -2142.11 -1122.89)" fill="#ECECEC"/>
<rect x="-2137.16" y="-1127.84" width="1" height="5650" transform="rotate(-45 -2137.16 -1127.84)" fill="#ECECEC"/>
<rect x="-2132.21" y="-1132.79" width="1" height="5650" transform="rotate(-45 -2132.21 -1132.79)" fill="#ECECEC"/>
<rect x="-2127.26" y="-1137.74" width="1" height="5650" transform="rotate(-45 -2127.26 -1137.74)" fill="#ECECEC"/>
<rect x="-2122.31" y="-1142.69" width="1" height="5650" transform="rotate(-45 -2122.31 -1142.69)" fill="#ECECEC"/>
<rect x="-2117.36" y="-1147.64" width="1" height="5650" transform="rotate(-45 -2117.36 -1147.64)" fill="#ECECEC"/>
<rect x="-2112.41" y="-1152.59" width="1" height="5650" transform="rotate(-45 -2112.41 -1152.59)" fill="#ECECEC"/>
<rect x="-2107.46" y="-1157.54" width="1" height="5650" transform="rotate(-45 -2107.46 -1157.54)" fill="#ECECEC"/>
<rect x="-2102.51" y="-1162.49" width="1" height="5650" transform="rotate(-45 -2102.51 -1162.49)" fill="#ECECEC"/>
<rect x="-2097.56" y="-1167.44" width="1" height="5650" transform="rotate(-45 -2097.56 -1167.44)" fill="#ECECEC"/>
<rect x="-2092.61" y="-1172.39" width="1" height="5650" transform="rotate(-45 -2092.61 -1172.39)" fill="#ECECEC"/>
<rect x="-2087.66" y="-1177.34" width="1" height="5650" transform="rotate(-45 -2087.66 -1177.34)" fill="#ECECEC"/>
<rect x="-2082.71" y="-1182.29" width="1" height="5650" transform="rotate(-45 -2082.71 -1182.29)" fill="#ECECEC"/>
<rect x="-2077.76" y="-1187.24" width="1" height="5650" transform="rotate(-45 -2077.76 -1187.24)" fill="#ECECEC"/>
<rect x="-2072.81" y="-1192.19" width="1" height="5650" transform="rotate(-45 -2072.81 -1192.19)" fill="#ECECEC"/>
<rect x="-2067.86" y="-1197.14" width="1" height="5650" transform="rotate(-45 -2067.86 -1197.14)" fill="#ECECEC"/>
<rect x="-2062.92" y="-1202.08" width="1" height="5650" transform="rotate(-45 -2062.92 -1202.08)" fill="#ECECEC"/>
<rect x="-2057.97" y="-1207.04" width="1" height="5650" transform="rotate(-45 -2057.97 -1207.04)" fill="#ECECEC"/>
<rect x="-2053.02" y="-1211.98" width="1" height="5650" transform="rotate(-45 -2053.02 -1211.98)" fill="#ECECEC"/>
<rect x="-2048.07" y="-1216.93" width="1" height="5650" transform="rotate(-45 -2048.07 -1216.93)" fill="#ECECEC"/>
<rect x="-2043.12" y="-1221.88" width="1" height="5650" transform="rotate(-45 -2043.12 -1221.88)" fill="#ECECEC"/>
<rect x="-2038.17" y="-1226.83" width="1" height="5650" transform="rotate(-45 -2038.17 -1226.83)" fill="#ECECEC"/>
<rect x="-2033.22" y="-1231.78" width="1" height="5650" transform="rotate(-45 -2033.22 -1231.78)" fill="#ECECEC"/>
<rect x="-2028.27" y="-1236.73" width="1" height="5650" transform="rotate(-45 -2028.27 -1236.73)" fill="#ECECEC"/>
<rect x="-2023.32" y="-1241.68" width="1" height="5650" transform="rotate(-45 -2023.32 -1241.68)" fill="#ECECEC"/>
<rect x="-2018.37" y="-1246.63" width="1" height="5650" transform="rotate(-45 -2018.37 -1246.63)" fill="#ECECEC"/>
<rect x="-2013.42" y="-1251.58" width="1" height="5650" transform="rotate(-45 -2013.42 -1251.58)" fill="#ECECEC"/>
<rect x="-2008.47" y="-1256.53" width="1" height="5650" transform="rotate(-45 -2008.47 -1256.53)" fill="#ECECEC"/>
<rect x="-2003.52" y="-1261.48" width="1" height="5650" transform="rotate(-45 -2003.52 -1261.48)" fill="#ECECEC"/>
<rect x="-1998.57" y="-1266.43" width="1" height="5650" transform="rotate(-45 -1998.57 -1266.43)" fill="#ECECEC"/>
<rect x="-1993.62" y="-1271.38" width="1" height="5650" transform="rotate(-45 -1993.62 -1271.38)" fill="#ECECEC"/>
<rect x="-1988.67" y="-1276.33" width="1" height="5650" transform="rotate(-45 -1988.67 -1276.33)" fill="#ECECEC"/>
<rect x="-1983.72" y="-1281.28" width="1" height="5650" transform="rotate(-45 -1983.72 -1281.28)" fill="#ECECEC"/>
<rect x="-1978.77" y="-1286.23" width="1" height="5650" transform="rotate(-45 -1978.77 -1286.23)" fill="#ECECEC"/>
<rect x="-1973.82" y="-1291.18" width="1" height="5650" transform="rotate(-45 -1973.82 -1291.18)" fill="#ECECEC"/>
<rect x="-1968.87" y="-1296.13" width="1" height="5650" transform="rotate(-45 -1968.87 -1296.13)" fill="#ECECEC"/>
<rect x="-1963.92" y="-1301.08" width="1" height="5650" transform="rotate(-45 -1963.92 -1301.08)" fill="#ECECEC"/>
<rect x="-1958.97" y="-1306.03" width="1" height="5650" transform="rotate(-45 -1958.97 -1306.03)" fill="#ECECEC"/>
<rect x="-1954.02" y="-1310.98" width="1" height="5650" transform="rotate(-45 -1954.02 -1310.98)" fill="#ECECEC"/>
<rect x="-1949.07" y="-1315.93" width="1" height="5650" transform="rotate(-45 -1949.07 -1315.93)" fill="#ECECEC"/>
<rect x="-1944.12" y="-1320.88" width="1" height="5650" transform="rotate(-45 -1944.12 -1320.88)" fill="#ECECEC"/>
<rect x="-1939.17" y="-1325.83" width="1" height="5650" transform="rotate(-45 -1939.17 -1325.83)" fill="#ECECEC"/>
<rect x="-1934.22" y="-1330.78" width="1" height="5650" transform="rotate(-45 -1934.22 -1330.78)" fill="#ECECEC"/>
<rect x="-1929.27" y="-1335.73" width="1" height="5650" transform="rotate(-45 -1929.27 -1335.73)" fill="#ECECEC"/>
<rect x="-1924.32" y="-1340.68" width="1" height="5650" transform="rotate(-45 -1924.32 -1340.68)" fill="#ECECEC"/>
<rect x="-1919.37" y="-1345.63" width="1" height="5650" transform="rotate(-45 -1919.37 -1345.63)" fill="#ECECEC"/>
<rect x="-1914.42" y="-1350.58" width="1" height="5650" transform="rotate(-45 -1914.42 -1350.58)" fill="#ECECEC"/>
<rect x="-1909.47" y="-1355.53" width="1" height="5650" transform="rotate(-45 -1909.47 -1355.53)" fill="#ECECEC"/>
<rect x="-1904.52" y="-1360.48" width="1" height="5650" transform="rotate(-45 -1904.52 -1360.48)" fill="#ECECEC"/>
<rect x="-1899.57" y="-1365.43" width="1" height="5650" transform="rotate(-45 -1899.57 -1365.43)" fill="#ECECEC"/>
<rect x="-1894.62" y="-1370.38" width="1" height="5650" transform="rotate(-45 -1894.62 -1370.38)" fill="#ECECEC"/>
<rect x="-1889.67" y="-1375.33" width="1" height="5650" transform="rotate(-45 -1889.67 -1375.33)" fill="#ECECEC"/>
<rect x="-1884.72" y="-1380.28" width="1" height="5650" transform="rotate(-45 -1884.72 -1380.28)" fill="#ECECEC"/>
<rect x="-1879.77" y="-1385.23" width="1" height="5650" transform="rotate(-45 -1879.77 -1385.23)" fill="#ECECEC"/>
<rect x="-1874.82" y="-1390.18" width="1" height="5650" transform="rotate(-45 -1874.82 -1390.18)" fill="#ECECEC"/>
<rect x="-1869.87" y="-1395.12" width="1" height="5650" transform="rotate(-45 -1869.87 -1395.12)" fill="#ECECEC"/>
<rect x="-1864.93" y="-1400.08" width="1" height="5650" transform="rotate(-45 -1864.93 -1400.08)" fill="#ECECEC"/>
<rect x="-1859.98" y="-1405.02" width="1" height="5650" transform="rotate(-45 -1859.98 -1405.02)" fill="#ECECEC"/>
<rect x="-1855.03" y="-1409.97" width="1" height="5650" transform="rotate(-45 -1855.03 -1409.97)" fill="#ECECEC"/>
<rect x="-1850.08" y="-1414.92" width="1" height="5650" transform="rotate(-45 -1850.08 -1414.92)" fill="#ECECEC"/>
<rect x="-1845.13" y="-1419.87" width="1" height="5650" transform="rotate(-45 -1845.13 -1419.87)" fill="#ECECEC"/>
<rect x="-1840.18" y="-1424.82" width="1" height="5650" transform="rotate(-45 -1840.18 -1424.82)" fill="#ECECEC"/>
<rect x="-1835.23" y="-1429.77" width="1" height="5650" transform="rotate(-45 -1835.23 -1429.77)" fill="#ECECEC"/>
<rect x="-1830.28" y="-1434.72" width="1" height="5650" transform="rotate(-45 -1830.28 -1434.72)" fill="#ECECEC"/>
<rect x="-1825.33" y="-1439.67" width="1" height="5650" transform="rotate(-45 -1825.33 -1439.67)" fill="#ECECEC"/>
<rect x="-1820.38" y="-1444.62" width="1" height="5650" transform="rotate(-45 -1820.38 -1444.62)" fill="#ECECEC"/>
<rect x="-1815.43" y="-1449.57" width="1" height="5650" transform="rotate(-45 -1815.43 -1449.57)" fill="#ECECEC"/>
<rect x="-1810.48" y="-1454.52" width="1" height="5650" transform="rotate(-45 -1810.48 -1454.52)" fill="#ECECEC"/>
<rect x="-1805.53" y="-1459.47" width="1" height="5650" transform="rotate(-45 -1805.53 -1459.47)" fill="#ECECEC"/>
<rect x="-1800.58" y="-1464.42" width="1" height="5650" transform="rotate(-45 -1800.58 -1464.42)" fill="#ECECEC"/>
<rect x="-1795.63" y="-1469.37" width="1" height="5650" transform="rotate(-45 -1795.63 -1469.37)" fill="#ECECEC"/>
<rect x="-1790.68" y="-1474.32" width="1" height="5650" transform="rotate(-45 -1790.68 -1474.32)" fill="#ECECEC"/>
<rect x="-1785.73" y="-1479.27" width="1" height="5650" transform="rotate(-45 -1785.73 -1479.27)" fill="#ECECEC"/>
<rect x="-1780.78" y="-1484.22" width="1" height="5650" transform="rotate(-45 -1780.78 -1484.22)" fill="#ECECEC"/>
<rect x="-1775.83" y="-1489.17" width="1" height="5650" transform="rotate(-45 -1775.83 -1489.17)" fill="#ECECEC"/>
<rect x="-1770.88" y="-1494.12" width="1" height="5650" transform="rotate(-45 -1770.88 -1494.12)" fill="#ECECEC"/>
<rect x="-1765.93" y="-1499.07" width="1" height="5650" transform="rotate(-45 -1765.93 -1499.07)" fill="#ECECEC"/>
<rect x="-1760.98" y="-1504.02" width="1" height="5650" transform="rotate(-45 -1760.98 -1504.02)" fill="#ECECEC"/>
<rect x="-1756.03" y="-1508.97" width="1" height="5650" transform="rotate(-45 -1756.03 -1508.97)" fill="#ECECEC"/>
<rect x="-1751.08" y="-1513.92" width="1" height="5650" transform="rotate(-45 -1751.08 -1513.92)" fill="#ECECEC"/>
<rect x="-1746.13" y="-1518.87" width="1" height="5650" transform="rotate(-45 -1746.13 -1518.87)" fill="#ECECEC"/>
<rect x="-1741.18" y="-1523.82" width="1" height="5650" transform="rotate(-45 -1741.18 -1523.82)" fill="#ECECEC"/>
<rect x="-1736.23" y="-1528.77" width="1" height="5650" transform="rotate(-45 -1736.23 -1528.77)" fill="#ECECEC"/>
<rect x="-1731.28" y="-1533.72" width="1" height="5650" transform="rotate(-45 -1731.28 -1533.72)" fill="#ECECEC"/>
<rect x="-1726.33" y="-1538.67" width="1" height="5650" transform="rotate(-45 -1726.33 -1538.67)" fill="#ECECEC"/>
<rect x="-1721.38" y="-1543.62" width="1" height="5650" transform="rotate(-45 -1721.38 -1543.62)" fill="#ECECEC"/>
<rect x="-1716.43" y="-1548.57" width="1" height="5650" transform="rotate(-45 -1716.43 -1548.57)" fill="#ECECEC"/>
<rect x="-1711.48" y="-1553.52" width="1" height="5650" transform="rotate(-45 -1711.48 -1553.52)" fill="#ECECEC"/>
<rect x="-1706.53" y="-1558.47" width="1" height="5650" transform="rotate(-45 -1706.53 -1558.47)" fill="#ECECEC"/>
<rect x="-1701.58" y="-1563.42" width="1" height="5650" transform="rotate(-45 -1701.58 -1563.42)" fill="#ECECEC"/>
<rect x="-1696.63" y="-1568.37" width="1" height="5650" transform="rotate(-45 -1696.63 -1568.37)" fill="#ECECEC"/>
<rect x="-1691.68" y="-1573.32" width="1" height="5650" transform="rotate(-45 -1691.68 -1573.32)" fill="#ECECEC"/>
<rect x="-1686.73" y="-1578.27" width="1" height="5650" transform="rotate(-45 -1686.73 -1578.27)" fill="#ECECEC"/>
<rect x="-1681.78" y="-1583.22" width="1" height="5650" transform="rotate(-45 -1681.78 -1583.22)" fill="#ECECEC"/>
<rect x="-1676.83" y="-1588.17" width="1" height="5650" transform="rotate(-45 -1676.83 -1588.17)" fill="#ECECEC"/>
<rect x="-1671.88" y="-1593.12" width="1" height="5650" transform="rotate(-45 -1671.88 -1593.12)" fill="#ECECEC"/>
<rect x="-1666.94" y="-1598.06" width="1" height="5650" transform="rotate(-45 -1666.94 -1598.06)" fill="#ECECEC"/>
<rect x="-1661.99" y="-1603.01" width="1" height="5650" transform="rotate(-45 -1661.99 -1603.01)" fill="#ECECEC"/>
<rect x="-1657.04" y="-1607.96" width="1" height="5650" transform="rotate(-45 -1657.04 -1607.96)" fill="#ECECEC"/>
<rect x="-1652.09" y="-1612.91" width="1" height="5650" transform="rotate(-45 -1652.09 -1612.91)" fill="#ECECEC"/>
<rect x="-1647.14" y="-1617.86" width="1" height="5650" transform="rotate(-45 -1647.14 -1617.86)" fill="#ECECEC"/>
<rect x="-1642.19" y="-1622.81" width="1" height="5650" transform="rotate(-45 -1642.19 -1622.81)" fill="#ECECEC"/>
<rect x="-1637.24" y="-1627.76" width="1" height="5650" transform="rotate(-45 -1637.24 -1627.76)" fill="#ECECEC"/>
<rect x="-1632.29" y="-1632.71" width="1" height="5650" transform="rotate(-45 -1632.29 -1632.71)" fill="#ECECEC"/>
<rect x="-1627.34" y="-1637.66" width="1" height="5650" transform="rotate(-45 -1627.34 -1637.66)" fill="#ECECEC"/>
<rect x="-1622.39" y="-1642.61" width="1" height="5650" transform="rotate(-45 -1622.39 -1642.61)" fill="#ECECEC"/>
<rect x="-1617.44" y="-1647.56" width="1" height="5650" transform="rotate(-45 -1617.44 -1647.56)" fill="#ECECEC"/>
<rect x="-1612.49" y="-1652.51" width="1" height="5650" transform="rotate(-45 -1612.49 -1652.51)" fill="#ECECEC"/>
<rect x="-1607.54" y="-1657.46" width="1" height="5650" transform="rotate(-45 -1607.54 -1657.46)" fill="#ECECEC"/>
<rect x="-1602.59" y="-1662.41" width="1" height="5650" transform="rotate(-45 -1602.59 -1662.41)" fill="#ECECEC"/>
<rect x="-1597.64" y="-1667.36" width="1" height="5650" transform="rotate(-45 -1597.64 -1667.36)" fill="#ECECEC"/>
<rect x="-1592.69" y="-1672.31" width="1" height="5650" transform="rotate(-45 -1592.69 -1672.31)" fill="#ECECEC"/>
<rect x="-1587.74" y="-1677.26" width="1" height="5650" transform="rotate(-45 -1587.74 -1677.26)" fill="#ECECEC"/>
<rect x="-1582.79" y="-1682.21" width="1" height="5650" transform="rotate(-45 -1582.79 -1682.21)" fill="#ECECEC"/>
<rect x="-1577.84" y="-1687.16" width="1" height="5650" transform="rotate(-45 -1577.84 -1687.16)" fill="#ECECEC"/>
<rect x="-1572.89" y="-1692.11" width="1" height="5650" transform="rotate(-45 -1572.89 -1692.11)" fill="#ECECEC"/>
<rect x="-1567.94" y="-1697.06" width="1" height="5650" transform="rotate(-45 -1567.94 -1697.06)" fill="#ECECEC"/>
<rect x="-1562.99" y="-1702.01" width="1" height="5650" transform="rotate(-45 -1562.99 -1702.01)" fill="#ECECEC"/>
<rect x="-1558.04" y="-1706.96" width="1" height="5650" transform="rotate(-45 -1558.04 -1706.96)" fill="#ECECEC"/>
<rect x="-1553.09" y="-1711.91" width="1" height="5650" transform="rotate(-45 -1553.09 -1711.91)" fill="#ECECEC"/>
<rect x="-1548.14" y="-1716.86" width="1" height="5650" transform="rotate(-45 -1548.14 -1716.86)" fill="#ECECEC"/>
<rect x="-1543.19" y="-1721.81" width="1" height="5650" transform="rotate(-45 -1543.19 -1721.81)" fill="#ECECEC"/>
<rect x="-1538.24" y="-1726.76" width="1" height="5650" transform="rotate(-45 -1538.24 -1726.76)" fill="#ECECEC"/>
<rect x="-1533.29" y="-1731.71" width="1" height="5650" transform="rotate(-45 -1533.29 -1731.71)" fill="#ECECEC"/>
<rect x="-1528.34" y="-1736.66" width="1" height="5650" transform="rotate(-45 -1528.34 -1736.66)" fill="#ECECEC"/>
<rect x="-1523.39" y="-1741.61" width="1" height="5650" transform="rotate(-45 -1523.39 -1741.61)" fill="#ECECEC"/>
<rect x="-1518.44" y="-1746.56" width="1" height="5650" transform="rotate(-45 -1518.44 -1746.56)" fill="#ECECEC"/>
<rect x="-1513.49" y="-1751.51" width="1" height="5650" transform="rotate(-45 -1513.49 -1751.51)" fill="#ECECEC"/>
<rect x="-1508.54" y="-1756.46" width="1" height="5650" transform="rotate(-45 -1508.54 -1756.46)" fill="#ECECEC"/>
<rect x="-1503.59" y="-1761.41" width="1" height="5650" transform="rotate(-45 -1503.59 -1761.41)" fill="#ECECEC"/>
<rect x="-1498.64" y="-1766.36" width="1" height="5650" transform="rotate(-45 -1498.64 -1766.36)" fill="#ECECEC"/>
<rect x="-1493.69" y="-1771.31" width="1" height="5650" transform="rotate(-45 -1493.69 -1771.31)" fill="#ECECEC"/>
<rect x="-1488.74" y="-1776.26" width="1" height="5650" transform="rotate(-45 -1488.74 -1776.26)" fill="#ECECEC"/>
<rect x="-1483.79" y="-1781.21" width="1" height="5650" transform="rotate(-45 -1483.79 -1781.21)" fill="#ECECEC"/>
<rect x="-1478.84" y="-1786.16" width="1" height="5650" transform="rotate(-45 -1478.84 -1786.16)" fill="#ECECEC"/>
<rect x="-1473.9" y="-1791.11" width="1" height="5650" transform="rotate(-45 -1473.9 -1791.11)" fill="#ECECEC"/>
<rect x="-1468.95" y="-1796.05" width="1" height="5650" transform="rotate(-45 -1468.95 -1796.05)" fill="#ECECEC"/>
<rect x="-1464" y="-1801" width="1" height="5650" transform="rotate(-45 -1464 -1801)" fill="#ECECEC"/>
<rect x="-1459.05" y="-1805.95" width="1" height="5650" transform="rotate(-45 -1459.05 -1805.95)" fill="#ECECEC"/>
<rect x="-1454.1" y="-1810.9" width="1" height="5650" transform="rotate(-45 -1454.1 -1810.9)" fill="#ECECEC"/>
<rect x="-1449.15" y="-1815.85" width="1" height="5650" transform="rotate(-45 -1449.15 -1815.85)" fill="#ECECEC"/>
<rect x="-1444.2" y="-1820.8" width="1" height="5650" transform="rotate(-45 -1444.2 -1820.8)" fill="#ECECEC"/>
<rect x="-1439.25" y="-1825.75" width="1" height="5650" transform="rotate(-45 -1439.25 -1825.75)" fill="#ECECEC"/>
<rect x="-1434.3" y="-1830.7" width="1" height="5650" transform="rotate(-45 -1434.3 -1830.7)" fill="#ECECEC"/>
<rect x="-1429.35" y="-1835.65" width="1" height="5650" transform="rotate(-45 -1429.35 -1835.65)" fill="#ECECEC"/>
<rect x="-1424.4" y="-1840.6" width="1" height="5650" transform="rotate(-45 -1424.4 -1840.6)" fill="#ECECEC"/>
<rect x="-1419.45" y="-1845.55" width="1" height="5650" transform="rotate(-45 -1419.45 -1845.55)" fill="#ECECEC"/>
<rect x="-1414.5" y="-1850.5" width="1" height="5650" transform="rotate(-45 -1414.5 -1850.5)" fill="#ECECEC"/>
<rect x="-1409.55" y="-1855.45" width="1" height="5650" transform="rotate(-45 -1409.55 -1855.45)" fill="#ECECEC"/>
<rect x="-1404.6" y="-1860.4" width="1" height="5650" transform="rotate(-45 -1404.6 -1860.4)" fill="#ECECEC"/>
<rect x="-1399.65" y="-1865.35" width="1" height="5650" transform="rotate(-45 -1399.65 -1865.35)" fill="#ECECEC"/>
<rect x="-1394.7" y="-1870.3" width="1" height="5650" transform="rotate(-45 -1394.7 -1870.3)" fill="#ECECEC"/>
<rect x="-1389.75" y="-1875.25" width="1" height="5650" transform="rotate(-45 -1389.75 -1875.25)" fill="#ECECEC"/>
<rect x="-1384.8" y="-1880.2" width="1" height="5650" transform="rotate(-45 -1384.8 -1880.2)" fill="#ECECEC"/>
<rect x="-1379.85" y="-1885.15" width="1" height="5650" transform="rotate(-45 -1379.85 -1885.15)" fill="#ECECEC"/>
<rect x="-1374.9" y="-1890.1" width="1" height="5650" transform="rotate(-45 -1374.9 -1890.1)" fill="#ECECEC"/>
<rect x="-1369.95" y="-1895.05" width="1" height="5650" transform="rotate(-45 -1369.95 -1895.05)" fill="#ECECEC"/>
<rect x="-1365" y="-1900" width="1" height="5650" transform="rotate(-45 -1365 -1900)" fill="#ECECEC"/>
<rect x="-1360.05" y="-1904.95" width="1" height="5650" transform="rotate(-45 -1360.05 -1904.95)" fill="#ECECEC"/>
<rect x="-1355.1" y="-1909.9" width="1" height="5650" transform="rotate(-45 -1355.1 -1909.9)" fill="#ECECEC"/>
<rect x="-1350.15" y="-1914.85" width="1" height="5650" transform="rotate(-45 -1350.15 -1914.85)" fill="#ECECEC"/>
<rect x="-1345.2" y="-1919.8" width="1" height="5650" transform="rotate(-45 -1345.2 -1919.8)" fill="#ECECEC"/>
<rect x="-1340.25" y="-1924.75" width="1" height="5650" transform="rotate(-45 -1340.25 -1924.75)" fill="#ECECEC"/>
<rect x="-1335.3" y="-1929.7" width="1" height="5650" transform="rotate(-45 -1335.3 -1929.7)" fill="#ECECEC"/>
<rect x="-1330.35" y="-1934.65" width="1" height="5650" transform="rotate(-45 -1330.35 -1934.65)" fill="#ECECEC"/>
<rect x="-1325.4" y="-1939.6" width="1" height="5650" transform="rotate(-45 -1325.4 -1939.6)" fill="#ECECEC"/>
<rect x="-1320.45" y="-1944.55" width="1" height="5650" transform="rotate(-45 -1320.45 -1944.55)" fill="#ECECEC"/>
<rect x="-1315.5" y="-1949.5" width="1" height="5650" transform="rotate(-45 -1315.5 -1949.5)" fill="#ECECEC"/>
<rect x="-1310.55" y="-1954.45" width="1" height="5650" transform="rotate(-45 -1310.55 -1954.45)" fill="#ECECEC"/>
<rect x="-1305.6" y="-1959.4" width="1" height="5650" transform="rotate(-45 -1305.6 -1959.4)" fill="#ECECEC"/>
<rect x="-1300.65" y="-1964.35" width="1" height="5650" transform="rotate(-45 -1300.65 -1964.35)" fill="#ECECEC"/>
<rect x="-1295.7" y="-1969.3" width="1" height="5650" transform="rotate(-45 -1295.7 -1969.3)" fill="#ECECEC"/>
<rect x="-1290.75" y="-1974.25" width="1" height="5650" transform="rotate(-45 -1290.75 -1974.25)" fill="#ECECEC"/>
<rect x="-1285.8" y="-1979.2" width="1" height="5650" transform="rotate(-45 -1285.8 -1979.2)" fill="#ECECEC"/>
<rect x="-1280.85" y="-1984.15" width="1" height="5650" transform="rotate(-45 -1280.85 -1984.15)" fill="#ECECEC"/>
<rect x="-1275.91" y="-1989.09" width="1" height="5650" transform="rotate(-45 -1275.91 -1989.09)" fill="#ECECEC"/>
<rect x="-1270.96" y="-1994.04" width="1" height="5650" transform="rotate(-45 -1270.96 -1994.04)" fill="#ECECEC"/>
<rect x="-1266.01" y="-1998.99" width="1" height="5650" transform="rotate(-45 -1266.01 -1998.99)" fill="#ECECEC"/>
<rect x="-1261.06" y="-2003.94" width="1" height="5650" transform="rotate(-45 -1261.06 -2003.94)" fill="#ECECEC"/>
<rect x="-1256.11" y="-2008.89" width="1" height="5650" transform="rotate(-45 -1256.11 -2008.89)" fill="#ECECEC"/>
<rect x="-1251.16" y="-2013.84" width="1" height="5650" transform="rotate(-45 -1251.16 -2013.84)" fill="#ECECEC"/>
<rect x="-1246.21" y="-2018.79" width="1" height="5650" transform="rotate(-45 -1246.21 -2018.79)" fill="#ECECEC"/>
<rect x="-1241.26" y="-2023.74" width="1" height="5650" transform="rotate(-45 -1241.26 -2023.74)" fill="#ECECEC"/>
<rect x="-1236.31" y="-2028.69" width="1" height="5650" transform="rotate(-45 -1236.31 -2028.69)" fill="#ECECEC"/>
<rect x="-1231.36" y="-2033.64" width="1" height="5650" transform="rotate(-45 -1231.36 -2033.64)" fill="#ECECEC"/>
<rect x="-1226.41" y="-2038.59" width="1" height="5650" transform="rotate(-45 -1226.41 -2038.59)" fill="#ECECEC"/>
<rect x="-1221.46" y="-2043.54" width="1" height="5650" transform="rotate(-45 -1221.46 -2043.54)" fill="#ECECEC"/>
<rect x="-1216.51" y="-2048.49" width="1" height="5650" transform="rotate(-45 -1216.51 -2048.49)" fill="#ECECEC"/>
<rect x="-1211.56" y="-2053.44" width="1" height="5650" transform="rotate(-45 -1211.56 -2053.44)" fill="#ECECEC"/>
<rect x="-1206.61" y="-2058.39" width="1" height="5650" transform="rotate(-45 -1206.61 -2058.39)" fill="#ECECEC"/>
<rect x="-1201.66" y="-2063.34" width="1" height="5650" transform="rotate(-45 -1201.66 -2063.34)" fill="#ECECEC"/>
<rect x="-1196.71" y="-2068.29" width="1" height="5650" transform="rotate(-45 -1196.71 -2068.29)" fill="#ECECEC"/>
<rect x="-1191.76" y="-2073.24" width="1" height="5650" transform="rotate(-45 -1191.76 -2073.24)" fill="#ECECEC"/>
<rect x="-1186.81" y="-2078.19" width="1" height="5650" transform="rotate(-45 -1186.81 -2078.19)" fill="#ECECEC"/>
<rect x="-1181.86" y="-2083.14" width="1" height="5650" transform="rotate(-45 -1181.86 -2083.14)" fill="#ECECEC"/>
<rect x="-1176.91" y="-2088.09" width="1" height="5650" transform="rotate(-45 -1176.91 -2088.09)" fill="#ECECEC"/>
<rect x="-1171.96" y="-2093.04" width="1" height="5650" transform="rotate(-45 -1171.96 -2093.04)" fill="#ECECEC"/>
<rect x="-1167.01" y="-2097.99" width="1" height="5650" transform="rotate(-45 -1167.01 -2097.99)" fill="#ECECEC"/>
<rect x="-1162.06" y="-2102.94" width="1" height="5650" transform="rotate(-45 -1162.06 -2102.94)" fill="#ECECEC"/>
<rect x="-1157.11" y="-2107.89" width="1" height="5650" transform="rotate(-45 -1157.11 -2107.89)" fill="#ECECEC"/>
<rect x="-1152.16" y="-2112.84" width="1" height="5650" transform="rotate(-45 -1152.16 -2112.84)" fill="#ECECEC"/>
<rect x="-1147.21" y="-2117.79" width="1" height="5650" transform="rotate(-45 -1147.21 -2117.79)" fill="#ECECEC"/>
<rect x="-1142.26" y="-2122.74" width="1" height="5650" transform="rotate(-45 -1142.26 -2122.74)" fill="#ECECEC"/>
<rect x="-1137.31" y="-2127.69" width="1" height="5650" transform="rotate(-45 -1137.31 -2127.69)" fill="#ECECEC"/>
<rect x="-1132.36" y="-2132.64" width="1" height="5650" transform="rotate(-45 -1132.36 -2132.64)" fill="#ECECEC"/>
<rect x="-1127.41" y="-2137.59" width="1" height="5650" transform="rotate(-45 -1127.41 -2137.59)" fill="#ECECEC"/>
<rect x="-1122.46" y="-2142.54" width="1" height="5650" transform="rotate(-45 -1122.46 -2142.54)" fill="#ECECEC"/>
<rect x="-1117.51" y="-2147.49" width="1" height="5650" transform="rotate(-45 -1117.51 -2147.49)" fill="#ECECEC"/>
<rect x="-1112.56" y="-2152.44" width="1" height="5650" transform="rotate(-45 -1112.56 -2152.44)" fill="#ECECEC"/>
<rect x="-1107.61" y="-2157.39" width="1" height="5650" transform="rotate(-45 -1107.61 -2157.39)" fill="#ECECEC"/>
<rect x="-1102.66" y="-2162.34" width="1" height="5650" transform="rotate(-45 -1102.66 -2162.34)" fill="#ECECEC"/>
<rect x="-1097.71" y="-2167.29" width="1" height="5650" transform="rotate(-45 -1097.71 -2167.29)" fill="#ECECEC"/>
<rect x="-1092.76" y="-2172.24" width="1" height="5650" transform="rotate(-45 -1092.76 -2172.24)" fill="#ECECEC"/>
<rect x="-1087.81" y="-2177.19" width="1" height="5650" transform="rotate(-45 -1087.81 -2177.19)" fill="#ECECEC"/>
<rect x="-1082.86" y="-2182.13" width="1" height="5650" transform="rotate(-45 -1082.86 -2182.13)" fill="#ECECEC"/>
<rect x="-1077.92" y="-2187.08" width="1" height="5650" transform="rotate(-45 -1077.92 -2187.08)" fill="#ECECEC"/>
<rect x="-1072.97" y="-2192.03" width="1" height="5650" transform="rotate(-45 -1072.97 -2192.03)" fill="#ECECEC"/>
<rect x="-1068.02" y="-2196.98" width="1" height="5650" transform="rotate(-45 -1068.02 -2196.98)" fill="#ECECEC"/>
<rect x="-1063.07" y="-2201.93" width="1" height="5650" transform="rotate(-45 -1063.07 -2201.93)" fill="#ECECEC"/>
<rect x="-1058.12" y="-2206.88" width="1" height="5650" transform="rotate(-45 -1058.12 -2206.88)" fill="#ECECEC"/>
<rect x="-1053.17" y="-2211.83" width="1" height="5650" transform="rotate(-45 -1053.17 -2211.83)" fill="#ECECEC"/>
<rect x="-1048.22" y="-2216.78" width="1" height="5650" transform="rotate(-45 -1048.22 -2216.78)" fill="#ECECEC"/>
<rect x="-1043.27" y="-2221.73" width="1" height="5650" transform="rotate(-45 -1043.27 -2221.73)" fill="#ECECEC"/>
<rect x="-1038.32" y="-2226.68" width="1" height="5650" transform="rotate(-45 -1038.32 -2226.68)" fill="#ECECEC"/>
<rect x="-1033.37" y="-2231.63" width="1" height="5650" transform="rotate(-45 -1033.37 -2231.63)" fill="#ECECEC"/>
<rect x="-1028.42" y="-2236.58" width="1" height="5650" transform="rotate(-45 -1028.42 -2236.58)" fill="#ECECEC"/>
<rect x="-1023.47" y="-2241.53" width="1" height="5650" transform="rotate(-45 -1023.47 -2241.53)" fill="#ECECEC"/>
<rect x="-1018.52" y="-2246.48" width="1" height="5650" transform="rotate(-45 -1018.52 -2246.48)" fill="#ECECEC"/>
<rect x="-1013.57" y="-2251.43" width="1" height="5650" transform="rotate(-45 -1013.57 -2251.43)" fill="#ECECEC"/>
<rect x="-1008.62" y="-2256.38" width="1" height="5650" transform="rotate(-45 -1008.62 -2256.38)" fill="#ECECEC"/>
<rect x="-1003.67" y="-2261.33" width="1" height="5650" transform="rotate(-45 -1003.67 -2261.33)" fill="#ECECEC"/>
<rect x="-998.719" y="-2266.28" width="1" height="5650" transform="rotate(-45 -998.719 -2266.28)" fill="#ECECEC"/>
<rect x="-993.77" y="-2271.23" width="1" height="5650" transform="rotate(-45 -993.77 -2271.23)" fill="#ECECEC"/>
<rect x="-988.82" y="-2276.18" width="1" height="5650" transform="rotate(-45 -988.82 -2276.18)" fill="#ECECEC"/>
<rect x="-983.87" y="-2281.13" width="1" height="5650" transform="rotate(-45 -983.87 -2281.13)" fill="#ECECEC"/>
<rect x="-978.92" y="-2286.08" width="1" height="5650" transform="rotate(-45 -978.92 -2286.08)" fill="#ECECEC"/>
<rect x="-973.971" y="-2291.03" width="1" height="5650" transform="rotate(-45 -973.971 -2291.03)" fill="#ECECEC"/>
<rect x="-969.021" y="-2295.98" width="1" height="5650" transform="rotate(-45 -969.021 -2295.98)" fill="#ECECEC"/>
<rect x="-964.071" y="-2300.93" width="1" height="5650" transform="rotate(-45 -964.071 -2300.93)" fill="#ECECEC"/>
<rect x="-959.121" y="-2305.88" width="1" height="5650" transform="rotate(-45 -959.121 -2305.88)" fill="#ECECEC"/>
<rect x="-954.171" y="-2310.83" width="1" height="5650" transform="rotate(-45 -954.171 -2310.83)" fill="#ECECEC"/>
<rect x="-949.222" y="-2315.78" width="1" height="5650" transform="rotate(-45 -949.222 -2315.78)" fill="#ECECEC"/>
<rect x="-944.272" y="-2320.73" width="1" height="5650" transform="rotate(-45 -944.272 -2320.73)" fill="#ECECEC"/>
<rect x="-939.322" y="-2325.68" width="1" height="5650" transform="rotate(-45 -939.322 -2325.68)" fill="#ECECEC"/>
<rect x="-934.373" y="-2330.63" width="1" height="5650" transform="rotate(-45 -934.373 -2330.63)" fill="#ECECEC"/>
<rect x="-929.423" y="-2335.58" width="1" height="5650" transform="rotate(-45 -929.423 -2335.58)" fill="#ECECEC"/>
<rect x="-924.473" y="-2340.53" width="1" height="5650" transform="rotate(-45 -924.473 -2340.53)" fill="#ECECEC"/>
<rect x="-919.523" y="-2345.48" width="1" height="5650" transform="rotate(-45 -919.523 -2345.48)" fill="#ECECEC"/>
<rect x="-914.574" y="-2350.43" width="1" height="5650" transform="rotate(-45 -914.574 -2350.43)" fill="#ECECEC"/>
<rect x="-909.624" y="-2355.38" width="1" height="5650" transform="rotate(-45 -909.624 -2355.38)" fill="#ECECEC"/>
<rect x="-904.674" y="-2360.33" width="1" height="5650" transform="rotate(-45 -904.674 -2360.33)" fill="#ECECEC"/>
<rect x="-899.724" y="-2365.28" width="1" height="5650" transform="rotate(-45 -899.724 -2365.28)" fill="#ECECEC"/>
<rect x="-894.774" y="-2370.23" width="1" height="5650" transform="rotate(-45 -894.774 -2370.23)" fill="#ECECEC"/>
<rect x="-889.825" y="-2375.17" width="1" height="5650" transform="rotate(-45 -889.825 -2375.17)" fill="#ECECEC"/>
<rect x="-884.875" y="-2380.12" width="1" height="5650" transform="rotate(-45 -884.875 -2380.12)" fill="#ECECEC"/>
<rect x="-879.925" y="-2385.07" width="1" height="5650" transform="rotate(-45 -879.925 -2385.07)" fill="#ECECEC"/>
<rect x="-874.976" y="-2390.02" width="1" height="5650" transform="rotate(-45 -874.976 -2390.02)" fill="#ECECEC"/>
<rect x="-870.026" y="-2394.97" width="1" height="5650" transform="rotate(-45 -870.026 -2394.97)" fill="#ECECEC"/>
<rect x="-865.076" y="-2399.92" width="1" height="5650" transform="rotate(-45 -865.076 -2399.92)" fill="#ECECEC"/>
<rect x="-860.126" y="-2404.87" width="1" height="5650" transform="rotate(-45 -860.126 -2404.87)" fill="#ECECEC"/>
<rect x="-855.177" y="-2409.82" width="1" height="5650" transform="rotate(-45 -855.177 -2409.82)" fill="#ECECEC"/>
<rect x="-850.227" y="-2414.77" width="1" height="5650" transform="rotate(-45 -850.227 -2414.77)" fill="#ECECEC"/>
<rect x="-845.277" y="-2419.72" width="1" height="5650" transform="rotate(-45 -845.277 -2419.72)" fill="#ECECEC"/>
<rect x="-840.327" y="-2424.67" width="1" height="5650" transform="rotate(-45 -840.327 -2424.67)" fill="#ECECEC"/>
<rect x="-835.377" y="-2429.62" width="1" height="5650" transform="rotate(-45 -835.377 -2429.62)" fill="#ECECEC"/>
<rect x="-830.428" y="-2434.57" width="1" height="5650" transform="rotate(-45 -830.428 -2434.57)" fill="#ECECEC"/>
<rect x="-825.478" y="-2439.52" width="1" height="5650" transform="rotate(-45 -825.478 -2439.52)" fill="#ECECEC"/>
<rect x="-820.528" y="-2444.47" width="1" height="5650" transform="rotate(-45 -820.528 -2444.47)" fill="#ECECEC"/>
<rect x="-815.579" y="-2449.42" width="1" height="5650" transform="rotate(-45 -815.579 -2449.42)" fill="#ECECEC"/>
<rect x="-810.629" y="-2454.37" width="1" height="5650" transform="rotate(-45 -810.629 -2454.37)" fill="#ECECEC"/>
<rect x="-805.679" y="-2459.32" width="1" height="5650" transform="rotate(-45 -805.679 -2459.32)" fill="#ECECEC"/>
<rect x="-800.729" y="-2464.27" width="1" height="5650" transform="rotate(-45 -800.729 -2464.27)" fill="#ECECEC"/>
<rect x="-795.78" y="-2469.22" width="1" height="5650" transform="rotate(-45 -795.78 -2469.22)" fill="#ECECEC"/>
<rect x="-790.83" y="-2474.17" width="1" height="5650" transform="rotate(-45 -790.83 -2474.17)" fill="#ECECEC"/>
<rect x="-785.88" y="-2479.12" width="1" height="5650" transform="rotate(-45 -785.88 -2479.12)" fill="#ECECEC"/>
<rect x="-780.93" y="-2484.07" width="1" height="5650" transform="rotate(-45 -780.93 -2484.07)" fill="#ECECEC"/>
<rect x="-775.98" y="-2489.02" width="1" height="5650" transform="rotate(-45 -775.98 -2489.02)" fill="#ECECEC"/>
<rect x="-771.031" y="-2493.97" width="1" height="5650" transform="rotate(-45 -771.031 -2493.97)" fill="#ECECEC"/>
<rect x="-766.081" y="-2498.92" width="1" height="5650" transform="rotate(-45 -766.081 -2498.92)" fill="#ECECEC"/>
<rect x="-761.131" y="-2503.87" width="1" height="5650" transform="rotate(-45 -761.131 -2503.87)" fill="#ECECEC"/>
<rect x="-756.182" y="-2508.82" width="1" height="5650" transform="rotate(-45 -756.182 -2508.82)" fill="#ECECEC"/>
<rect x="-751.232" y="-2513.77" width="1" height="5650" transform="rotate(-45 -751.232 -2513.77)" fill="#ECECEC"/>
<rect x="-746.282" y="-2518.72" width="1" height="5650" transform="rotate(-45 -746.282 -2518.72)" fill="#ECECEC"/>
<rect x="-741.333" y="-2523.67" width="1" height="5650" transform="rotate(-45 -741.333 -2523.67)" fill="#ECECEC"/>
<rect x="-736.383" y="-2528.62" width="1" height="5650" transform="rotate(-45 -736.383 -2528.62)" fill="#ECECEC"/>
<rect x="-731.433" y="-2533.57" width="1" height="5650" transform="rotate(-45 -731.433 -2533.57)" fill="#ECECEC"/>
<rect x="-726.483" y="-2538.52" width="1" height="5650" transform="rotate(-45 -726.483 -2538.52)" fill="#ECECEC"/>
<rect x="-721.533" y="-2543.47" width="1" height="5650" transform="rotate(-45 -721.533 -2543.47)" fill="#ECECEC"/>
<rect x="-716.583" y="-2548.42" width="1" height="5650" transform="rotate(-45 -716.583 -2548.42)" fill="#ECECEC"/>
<rect x="-711.634" y="-2553.37" width="1" height="5650" transform="rotate(-45 -711.634 -2553.37)" fill="#ECECEC"/>
<rect x="-706.684" y="-2558.32" width="1" height="5650" transform="rotate(-45 -706.684 -2558.32)" fill="#ECECEC"/>
<rect x="-701.734" y="-2563.27" width="1" height="5650" transform="rotate(-45 -701.734 -2563.27)" fill="#ECECEC"/>
<rect x="-696.785" y="-2568.22" width="1" height="5650" transform="rotate(-45 -696.785 -2568.22)" fill="#ECECEC"/>
<rect x="-691.835" y="-2573.17" width="1" height="5650" transform="rotate(-45 -691.835 -2573.17)" fill="#ECECEC"/>
<rect x="-686.885" y="-2578.12" width="1" height="5650" transform="rotate(-45 -686.885 -2578.12)" fill="#ECECEC"/>
<rect x="-681.936" y="-2583.06" width="1" height="5650" transform="rotate(-45 -681.936 -2583.06)" fill="#ECECEC"/>
<rect x="-676.986" y="-2588.01" width="1" height="5650" transform="rotate(-45 -676.986 -2588.01)" fill="#ECECEC"/>
<rect x="-672.036" y="-2592.96" width="1" height="5650" transform="rotate(-45 -672.036 -2592.96)" fill="#ECECEC"/>
<rect x="-667.086" y="-2597.91" width="1" height="5650" transform="rotate(-45 -667.086 -2597.91)" fill="#ECECEC"/>
<rect x="-662.136" y="-2602.86" width="1" height="5650" transform="rotate(-45 -662.136 -2602.86)" fill="#ECECEC"/>
<rect x="-657.187" y="-2607.81" width="1" height="5650" transform="rotate(-45 -657.187 -2607.81)" fill="#ECECEC"/>
<rect x="-652.237" y="-2612.76" width="1" height="5650" transform="rotate(-45 -652.237 -2612.76)" fill="#ECECEC"/>
<rect x="-647.287" y="-2617.71" width="1" height="5650" transform="rotate(-45 -647.287 -2617.71)" fill="#ECECEC"/>
<rect x="-642.337" y="-2622.66" width="1" height="5650" transform="rotate(-45 -642.337 -2622.66)" fill="#ECECEC"/>
<rect x="-637.388" y="-2627.61" width="1" height="5650" transform="rotate(-45 -637.388 -2627.61)" fill="#ECECEC"/>
<rect x="-632.438" y="-2632.56" width="1" height="5650" transform="rotate(-45 -632.438 -2632.56)" fill="#ECECEC"/>
<rect x="-627.488" y="-2637.51" width="1" height="5650" transform="rotate(-45 -627.488 -2637.51)" fill="#ECECEC"/>
<rect x="-622.539" y="-2642.46" width="1" height="5650" transform="rotate(-45 -622.539 -2642.46)" fill="#ECECEC"/>
<rect x="-617.589" y="-2647.41" width="1" height="5650" transform="rotate(-45 -617.589 -2647.41)" fill="#ECECEC"/>
<rect x="-612.639" y="-2652.36" width="1" height="5650" transform="rotate(-45 -612.639 -2652.36)" fill="#ECECEC"/>
<rect x="-607.689" y="-2657.31" width="1" height="5650" transform="rotate(-45 -607.689 -2657.31)" fill="#ECECEC"/>
<rect x="-602.739" y="-2662.26" width="1" height="5650" transform="rotate(-45 -602.739 -2662.26)" fill="#ECECEC"/>
<rect x="-597.79" y="-2667.21" width="1" height="5650" transform="rotate(-45 -597.79 -2667.21)" fill="#ECECEC"/>
<rect x="-592.84" y="-2672.16" width="1" height="5650" transform="rotate(-45 -592.84 -2672.16)" fill="#ECECEC"/>
<rect x="-587.89" y="-2677.11" width="1" height="5650" transform="rotate(-45 -587.89 -2677.11)" fill="#ECECEC"/>
<rect x="-582.94" y="-2682.06" width="1" height="5650" transform="rotate(-45 -582.94 -2682.06)" fill="#ECECEC"/>
<rect x="-577.991" y="-2687.01" width="1" height="5650" transform="rotate(-45 -577.991 -2687.01)" fill="#ECECEC"/>
<rect x="-573.041" y="-2691.96" width="1" height="5650" transform="rotate(-45 -573.041 -2691.96)" fill="#ECECEC"/>
<rect x="-568.091" y="-2696.91" width="1" height="5650" transform="rotate(-45 -568.091 -2696.91)" fill="#ECECEC"/>
<rect x="-563.142" y="-2701.86" width="1" height="5650" transform="rotate(-45 -563.142 -2701.86)" fill="#ECECEC"/>
<rect x="-558.192" y="-2706.81" width="1" height="5650" transform="rotate(-45 -558.192 -2706.81)" fill="#ECECEC"/>
<rect x="-553.242" y="-2711.76" width="1" height="5650" transform="rotate(-45 -553.242 -2711.76)" fill="#ECECEC"/>
<rect x="-548.292" y="-2716.71" width="1" height="5650" transform="rotate(-45 -548.292 -2716.71)" fill="#ECECEC"/>
<rect x="-543.342" y="-2721.66" width="1" height="5650" transform="rotate(-45 -543.342 -2721.66)" fill="#ECECEC"/>
<rect x="-538.393" y="-2726.61" width="1" height="5650" transform="rotate(-45 -538.393 -2726.61)" fill="#ECECEC"/>
<rect x="-533.443" y="-2731.56" width="1" height="5650" transform="rotate(-45 -533.443 -2731.56)" fill="#ECECEC"/>
<rect x="-528.493" y="-2736.51" width="1" height="5650" transform="rotate(-45 -528.493 -2736.51)" fill="#ECECEC"/>
<rect x="-523.543" y="-2741.46" width="1" height="5650" transform="rotate(-45 -523.543 -2741.46)" fill="#ECECEC"/>
<rect x="-518.594" y="-2746.41" width="1" height="5650" transform="rotate(-45 -518.594 -2746.41)" fill="#ECECEC"/>
<rect x="-513.644" y="-2751.36" width="1" height="5650" transform="rotate(-45 -513.644 -2751.36)" fill="#ECECEC"/>
<rect x="-508.694" y="-2756.31" width="1" height="5650" transform="rotate(-45 -508.694 -2756.31)" fill="#ECECEC"/>
<rect x="-503.745" y="-2761.26" width="1" height="5650" transform="rotate(-45 -503.745 -2761.26)" fill="#ECECEC"/>
<rect x="-498.795" y="-2766.21" width="1" height="5650" transform="rotate(-45 -498.795 -2766.21)" fill="#ECECEC"/>
<rect x="-493.845" y="-2771.15" width="1" height="5650" transform="rotate(-45 -493.845 -2771.15)" fill="#ECECEC"/>
<rect x="-488.895" y="-2776.1" width="1" height="5650" transform="rotate(-45 -488.895 -2776.1)" fill="#ECECEC"/>
<rect x="-483.945" y="-2781.05" width="1" height="5650" transform="rotate(-45 -483.945 -2781.05)" fill="#ECECEC"/>
<rect x="-478.996" y="-2786" width="1" height="5650" transform="rotate(-45 -478.996 -2786)" fill="#ECECEC"/>
<rect x="-474.046" y="-2790.95" width="1" height="5650" transform="rotate(-45 -474.046 -2790.95)" fill="#ECECEC"/>
<rect x="-469.096" y="-2795.9" width="1" height="5650" transform="rotate(-45 -469.096 -2795.9)" fill="#ECECEC"/>
<rect x="-464.146" y="-2800.85" width="1" height="5650" transform="rotate(-45 -464.146 -2800.85)" fill="#ECECEC"/>
<rect x="-459.197" y="-2805.8" width="1" height="5650" transform="rotate(-45 -459.197 -2805.8)" fill="#ECECEC"/>
<rect x="-454.247" y="-2810.75" width="1" height="5650" transform="rotate(-45 -454.247 -2810.75)" fill="#ECECEC"/>
<rect x="-449.297" y="-2815.7" width="1" height="5650" transform="rotate(-45 -449.297 -2815.7)" fill="#ECECEC"/>
<rect x="-444.348" y="-2820.65" width="1" height="5650" transform="rotate(-45 -444.348 -2820.65)" fill="#ECECEC"/>
<rect x="-439.398" y="-2825.6" width="1" height="5650" transform="rotate(-45 -439.398 -2825.6)" fill="#ECECEC"/>
<rect x="-434.448" y="-2830.55" width="1" height="5650" transform="rotate(-45 -434.448 -2830.55)" fill="#ECECEC"/>
<rect x="-429.498" y="-2835.5" width="1" height="5650" transform="rotate(-45 -429.498 -2835.5)" fill="#ECECEC"/>
<rect x="-424.548" y="-2840.45" width="1" height="5650" transform="rotate(-45 -424.548 -2840.45)" fill="#ECECEC"/>
<rect x="-419.599" y="-2845.4" width="1" height="5650" transform="rotate(-45 -419.599 -2845.4)" fill="#ECECEC"/>
<rect x="-414.649" y="-2850.35" width="1" height="5650" transform="rotate(-45 -414.649 -2850.35)" fill="#ECECEC"/>
<rect x="-409.699" y="-2855.3" width="1" height="5650" transform="rotate(-45 -409.699 -2855.3)" fill="#ECECEC"/>
<rect x="-404.75" y="-2860.25" width="1" height="5650" transform="rotate(-45 -404.75 -2860.25)" fill="#ECECEC"/>
<rect x="-399.8" y="-2865.2" width="1" height="5650" transform="rotate(-45 -399.8 -2865.2)" fill="#ECECEC"/>
<rect x="-394.85" y="-2870.15" width="1" height="5650" transform="rotate(-45 -394.85 -2870.15)" fill="#ECECEC"/>
<rect x="-389.9" y="-2875.1" width="1" height="5650" transform="rotate(-45 -389.9 -2875.1)" fill="#ECECEC"/>
<rect x="-384.951" y="-2880.05" width="1" height="5650" transform="rotate(-45 -384.951 -2880.05)" fill="#ECECEC"/>
<rect x="-380.001" y="-2885" width="1" height="5650" transform="rotate(-45 -380.001 -2885)" fill="#ECECEC"/>
<rect x="-375.051" y="-2889.95" width="1" height="5650" transform="rotate(-45 -375.051 -2889.95)" fill="#ECECEC"/>
<rect x="-370.101" y="-2894.9" width="1" height="5650" transform="rotate(-45 -370.101 -2894.9)" fill="#ECECEC"/>
<rect x="-365.151" y="-2899.85" width="1" height="5650" transform="rotate(-45 -365.151 -2899.85)" fill="#ECECEC"/>
<rect x="-360.202" y="-2904.8" width="1" height="5650" transform="rotate(-45 -360.202 -2904.8)" fill="#ECECEC"/>
<rect x="-355.252" y="-2909.75" width="1" height="5650" transform="rotate(-45 -355.252 -2909.75)" fill="#ECECEC"/>
<rect x="-350.302" y="-2914.7" width="1" height="5650" transform="rotate(-45 -350.302 -2914.7)" fill="#ECECEC"/>
<rect x="-345.353" y="-2919.65" width="1" height="5650" transform="rotate(-45 -345.353 -2919.65)" fill="#ECECEC"/>
<rect x="-340.403" y="-2924.6" width="1" height="5650" transform="rotate(-45 -340.403 -2924.6)" fill="#ECECEC"/>
<rect x="-335.453" y="-2929.55" width="1" height="5650" transform="rotate(-45 -335.453 -2929.55)" fill="#ECECEC"/>
<rect x="-330.503" y="-2934.5" width="1" height="5650" transform="rotate(-45 -330.503 -2934.5)" fill="#ECECEC"/>
<rect x="-325.554" y="-2939.45" width="1" height="5650" transform="rotate(-45 -325.554 -2939.45)" fill="#ECECEC"/>
<rect x="-320.604" y="-2944.4" width="1" height="5650" transform="rotate(-45 -320.604 -2944.4)" fill="#ECECEC"/>
<rect x="-315.654" y="-2949.35" width="1" height="5650" transform="rotate(-45 -315.654 -2949.35)" fill="#ECECEC"/>
<rect x="-310.705" y="-2954.3" width="1" height="5650" transform="rotate(-45 -310.705 -2954.3)" fill="#ECECEC"/>
<rect x="-305.754" y="-2959.25" width="1" height="5650" transform="rotate(-45 -305.754 -2959.25)" fill="#ECECEC"/>
<rect x="-300.805" y="-2964.2" width="1" height="5650" transform="rotate(-45 -300.805 -2964.2)" fill="#ECECEC"/>
<rect x="-295.855" y="-2969.15" width="1" height="5650" transform="rotate(-45 -295.855 -2969.15)" fill="#ECECEC"/>
<rect x="-290.905" y="-2974.09" width="1" height="5650" transform="rotate(-45 -290.905 -2974.09)" fill="#ECECEC"/>
<rect x="-285.956" y="-2979.04" width="1" height="5650" transform="rotate(-45 -285.956 -2979.04)" fill="#ECECEC"/>
<rect x="-281.006" y="-2983.99" width="1" height="5650" transform="rotate(-45 -281.006 -2983.99)" fill="#ECECEC"/>
<rect x="-276.056" y="-2988.94" width="1" height="5650" transform="rotate(-45 -276.056 -2988.94)" fill="#ECECEC"/>
<rect x="-271.106" y="-2993.89" width="1" height="5650" transform="rotate(-45 -271.106 -2993.89)" fill="#ECECEC"/>
<rect x="-266.157" y="-2998.84" width="1" height="5650" transform="rotate(-45 -266.157 -2998.84)" fill="#ECECEC"/>
<rect x="-261.207" y="-3003.79" width="1" height="5650" transform="rotate(-45 -261.207 -3003.79)" fill="#ECECEC"/>
<rect x="-256.257" y="-3008.74" width="1" height="5650" transform="rotate(-45 -256.257 -3008.74)" fill="#ECECEC"/>
<rect x="-251.308" y="-3013.69" width="1" height="5650" transform="rotate(-45 -251.308 -3013.69)" fill="#ECECEC"/>
<rect x="-246.357" y="-3018.64" width="1" height="5650" transform="rotate(-45 -246.357 -3018.64)" fill="#ECECEC"/>
<rect x="-241.408" y="-3023.59" width="1" height="5650" transform="rotate(-45 -241.408 -3023.59)" fill="#ECECEC"/>
<rect x="-236.458" y="-3028.54" width="1" height="5650" transform="rotate(-45 -236.458 -3028.54)" fill="#ECECEC"/>
<rect x="-231.508" y="-3033.49" width="1" height="5650" transform="rotate(-45 -231.508 -3033.49)" fill="#ECECEC"/>
<rect x="-226.559" y="-3038.44" width="1" height="5650" transform="rotate(-45 -226.559 -3038.44)" fill="#ECECEC"/>
<rect x="-221.609" y="-3043.39" width="1" height="5650" transform="rotate(-45 -221.609 -3043.39)" fill="#ECECEC"/>
<rect x="-216.659" y="-3048.34" width="1" height="5650" transform="rotate(-45 -216.659 -3048.34)" fill="#ECECEC"/>
<rect x="-211.709" y="-3053.29" width="1" height="5650" transform="rotate(-45 -211.709 -3053.29)" fill="#ECECEC"/>
<rect x="-206.76" y="-3058.24" width="1" height="5650" transform="rotate(-45 -206.76 -3058.24)" fill="#ECECEC"/>
<rect x="-201.81" y="-3063.19" width="1" height="5650" transform="rotate(-45 -201.81 -3063.19)" fill="#ECECEC"/>
<rect x="-196.86" y="-3068.14" width="1" height="5650" transform="rotate(-45 -196.86 -3068.14)" fill="#ECECEC"/>
<rect x="-191.911" y="-3073.09" width="1" height="5650" transform="rotate(-45 -191.911 -3073.09)" fill="#ECECEC"/>
<rect x="-186.96" y="-3078.04" width="1" height="5650" transform="rotate(-45 -186.96 -3078.04)" fill="#ECECEC"/>
<rect x="-182.011" y="-3082.99" width="1" height="5650" transform="rotate(-45 -182.011 -3082.99)" fill="#ECECEC"/>
<rect x="-177.061" y="-3087.94" width="1" height="5650" transform="rotate(-45 -177.061 -3087.94)" fill="#ECECEC"/>
<rect x="-172.111" y="-3092.89" width="1" height="5650" transform="rotate(-45 -172.111 -3092.89)" fill="#ECECEC"/>
<rect x="-167.162" y="-3097.84" width="1" height="5650" transform="rotate(-45 -167.162 -3097.84)" fill="#ECECEC"/>
<rect x="-162.212" y="-3102.79" width="1" height="5650" transform="rotate(-45 -162.212 -3102.79)" fill="#ECECEC"/>
<rect x="-157.262" y="-3107.74" width="1" height="5650" transform="rotate(-45 -157.262 -3107.74)" fill="#ECECEC"/>
<rect x="-152.312" y="-3112.69" width="1" height="5650" transform="rotate(-45 -152.312 -3112.69)" fill="#ECECEC"/>
<rect x="-147.363" y="-3117.64" width="1" height="5650" transform="rotate(-45 -147.363 -3117.64)" fill="#ECECEC"/>
<rect x="-142.413" y="-3122.59" width="1" height="5650" transform="rotate(-45 -142.413 -3122.59)" fill="#ECECEC"/>
<rect x="-137.463" y="-3127.54" width="1" height="5650" transform="rotate(-45 -137.463 -3127.54)" fill="#ECECEC"/>
<rect x="-132.514" y="-3132.49" width="1" height="5650" transform="rotate(-45 -132.514 -3132.49)" fill="#ECECEC"/>
<rect x="-127.563" y="-3137.44" width="1" height="5650" transform="rotate(-45 -127.563 -3137.44)" fill="#ECECEC"/>
<rect x="-122.614" y="-3142.39" width="1" height="5650" transform="rotate(-45 -122.614 -3142.39)" fill="#ECECEC"/>
<rect x="-117.664" y="-3147.34" width="1" height="5650" transform="rotate(-45 -117.664 -3147.34)" fill="#ECECEC"/>
<rect x="-112.714" y="-3152.29" width="1" height="5650" transform="rotate(-45 -112.714 -3152.29)" fill="#ECECEC"/>
<rect x="-107.765" y="-3157.24" width="1" height="5650" transform="rotate(-45 -107.765 -3157.24)" fill="#ECECEC"/>
<rect x="-102.815" y="-3162.19" width="1" height="5650" transform="rotate(-45 -102.815 -3162.19)" fill="#ECECEC"/>
<rect x="-97.8652" y="-3167.13" width="1" height="5650" transform="rotate(-45 -97.8652 -3167.13)" fill="#ECECEC"/>
<rect x="-92.9155" y="-3172.08" width="1" height="5650" transform="rotate(-45 -92.9155 -3172.08)" fill="#ECECEC"/>
<rect x="-87.9658" y="-3177.03" width="1" height="5650" transform="rotate(-45 -87.9658 -3177.03)" fill="#ECECEC"/>
<rect x="-83.0161" y="-3181.98" width="1" height="5650" transform="rotate(-45 -83.0161 -3181.98)" fill="#ECECEC"/>
<rect x="-78.0664" y="-3186.93" width="1" height="5650" transform="rotate(-45 -78.0664 -3186.93)" fill="#ECECEC"/>
<rect x="-73.1167" y="-3191.88" width="1" height="5650" transform="rotate(-45 -73.1167 -3191.88)" fill="#ECECEC"/>
<rect x="-68.1665" y="-3196.83" width="1" height="5650" transform="rotate(-45 -68.1665 -3196.83)" fill="#ECECEC"/>
<rect x="-63.2168" y="-3201.78" width="1" height="5650" transform="rotate(-45 -63.2168 -3201.78)" fill="#ECECEC"/>
<rect x="-58.2671" y="-3206.73" width="1" height="5650" transform="rotate(-45 -58.2671 -3206.73)" fill="#ECECEC"/>
<rect x="-53.3174" y="-3211.68" width="1" height="5650" transform="rotate(-45 -53.3174 -3211.68)" fill="#ECECEC"/>
<rect x="-48.3677" y="-3216.63" width="1" height="5650" transform="rotate(-45 -48.3677 -3216.63)" fill="#ECECEC"/>
<rect x="-43.418" y="-3221.58" width="1" height="5650" transform="rotate(-45 -43.418 -3221.58)" fill="#ECECEC"/>
<rect x="-38.4683" y="-3226.53" width="1" height="5650" transform="rotate(-45 -38.4683 -3226.53)" fill="#ECECEC"/>
<rect x="-33.5186" y="-3231.48" width="1" height="5650" transform="rotate(-45 -33.5186 -3231.48)" fill="#ECECEC"/>
<rect x="-28.5688" y="-3236.43" width="1" height="5650" transform="rotate(-45 -28.5688 -3236.43)" fill="#ECECEC"/>
<rect x="-23.6191" y="-3241.38" width="1" height="5650" transform="rotate(-45 -23.6191 -3241.38)" fill="#ECECEC"/>
<rect x="-18.6694" y="-3246.33" width="1" height="5650" transform="rotate(-45 -18.6694 -3246.33)" fill="#ECECEC"/>
<rect x="-13.7197" y="-3251.28" width="1" height="5650" transform="rotate(-45 -13.7197 -3251.28)" fill="#ECECEC"/>
<rect x="-8.76953" y="-3256.23" width="1" height="5650" transform="rotate(-45 -8.76953 -3256.23)" fill="#ECECEC"/>
<rect x="-3.81982" y="-3261.18" width="1" height="5650" transform="rotate(-45 -3.81982 -3261.18)" fill="#ECECEC"/>
<rect x="1.12988" y="-3266.13" width="1" height="5650" transform="rotate(-45 1.12988 -3266.13)" fill="#ECECEC"/>
<rect x="6.07959" y="-3271.08" width="1" height="5650" transform="rotate(-45 6.07959 -3271.08)" fill="#ECECEC"/>
<rect x="11.0293" y="-3276.03" width="1" height="5650" transform="rotate(-45 11.0293 -3276.03)" fill="#ECECEC"/>
<rect x="15.979" y="-3280.98" width="1" height="5650" transform="rotate(-45 15.979 -3280.98)" fill="#ECECEC"/>
<rect x="20.9287" y="-3285.93" width="1" height="5650" transform="rotate(-45 20.9287 -3285.93)" fill="#ECECEC"/>
<rect x="25.8784" y="-3290.88" width="1" height="5650" transform="rotate(-45 25.8784 -3290.88)" fill="#ECECEC"/>
<rect x="30.8281" y="-3295.83" width="1" height="5650" transform="rotate(-45 30.8281 -3295.83)" fill="#ECECEC"/>
<rect x="35.7778" y="-3300.78" width="1" height="5650" transform="rotate(-45 35.7778 -3300.78)" fill="#ECECEC"/>
<rect x="40.7275" y="-3305.73" width="1" height="5650" transform="rotate(-45 40.7275 -3305.73)" fill="#ECECEC"/>
<rect x="45.6772" y="-3310.68" width="1" height="5650" transform="rotate(-45 45.6772 -3310.68)" fill="#ECECEC"/>
<rect x="50.6274" y="-3315.63" width="1" height="5650" transform="rotate(-45 50.6274 -3315.63)" fill="#ECECEC"/>
<rect x="55.5771" y="-3320.58" width="1" height="5650" transform="rotate(-45 55.5771 -3320.58)" fill="#ECECEC"/>
<rect x="60.5269" y="-3325.53" width="1" height="5650" transform="rotate(-45 60.5269 -3325.53)" fill="#ECECEC"/>
<rect x="65.4766" y="-3330.48" width="1" height="5650" transform="rotate(-45 65.4766 -3330.48)" fill="#ECECEC"/>
<rect x="70.4263" y="-3335.43" width="1" height="5650" transform="rotate(-45 70.4263 -3335.43)" fill="#ECECEC"/>
<rect x="75.376" y="-3340.38" width="1" height="5650" transform="rotate(-45 75.376 -3340.38)" fill="#ECECEC"/>
<rect x="80.3257" y="-3345.33" width="1" height="5650" transform="rotate(-45 80.3257 -3345.33)" fill="#ECECEC"/>
<rect x="85.2754" y="-3350.28" width="1" height="5650" transform="rotate(-45 85.2754 -3350.28)" fill="#ECECEC"/>
<rect x="90.2251" y="-3355.23" width="1" height="5650" transform="rotate(-45 90.2251 -3355.23)" fill="#ECECEC"/>
<rect x="95.1748" y="-3360.17" width="1" height="5650" transform="rotate(-45 95.1748 -3360.17)" fill="#ECECEC"/>
<rect x="100.125" y="-3365.12" width="1" height="5650" transform="rotate(-45 100.125 -3365.12)" fill="#ECECEC"/>
<rect x="105.074" y="-3370.07" width="1" height="5650" transform="rotate(-45 105.074 -3370.07)" fill="#ECECEC"/>
<rect x="110.024" y="-3375.02" width="1" height="5650" transform="rotate(-45 110.024 -3375.02)" fill="#ECECEC"/>
<rect x="114.974" y="-3379.97" width="1" height="5650" transform="rotate(-45 114.974 -3379.97)" fill="#ECECEC"/>
<rect x="119.924" y="-3384.92" width="1" height="5650" transform="rotate(-45 119.924 -3384.92)" fill="#ECECEC"/>
<rect x="124.874" y="-3389.87" width="1" height="5650" transform="rotate(-45 124.874 -3389.87)" fill="#ECECEC"/>
<rect x="129.823" y="-3394.82" width="1" height="5650" transform="rotate(-45 129.823 -3394.82)" fill="#ECECEC"/>
<rect x="134.773" y="-3399.77" width="1" height="5650" transform="rotate(-45 134.773 -3399.77)" fill="#ECECEC"/>
<rect x="139.723" y="-3404.72" width="1" height="5650" transform="rotate(-45 139.723 -3404.72)" fill="#ECECEC"/>
<rect x="144.672" y="-3409.67" width="1" height="5650" transform="rotate(-45 144.672 -3409.67)" fill="#ECECEC"/>
<rect x="149.622" y="-3414.62" width="1" height="5650" transform="rotate(-45 149.622 -3414.62)" fill="#ECECEC"/>
<rect x="154.572" y="-3419.57" width="1" height="5650" transform="rotate(-45 154.572 -3419.57)" fill="#ECECEC"/>
<rect x="159.521" y="-3424.52" width="1" height="5650" transform="rotate(-45 159.521 -3424.52)" fill="#ECECEC"/>
<rect x="164.471" y="-3429.47" width="1" height="5650" transform="rotate(-45 164.471 -3429.47)" fill="#ECECEC"/>
<rect x="169.421" y="-3434.42" width="1" height="5650" transform="rotate(-45 169.421 -3434.42)" fill="#ECECEC"/>
<rect x="174.371" y="-3439.37" width="1" height="5650" transform="rotate(-45 174.371 -3439.37)" fill="#ECECEC"/>
<rect x="179.321" y="-3444.32" width="1" height="5650" transform="rotate(-45 179.321 -3444.32)" fill="#ECECEC"/>
<rect x="184.271" y="-3449.27" width="1" height="5650" transform="rotate(-45 184.271 -3449.27)" fill="#ECECEC"/>
<rect x="189.22" y="-3454.22" width="1" height="5650" transform="rotate(-45 189.22 -3454.22)" fill="#ECECEC"/>
<rect x="194.17" y="-3459.17" width="1" height="5650" transform="rotate(-45 194.17 -3459.17)" fill="#ECECEC"/>
<rect x="199.12" y="-3464.12" width="1" height="5650" transform="rotate(-45 199.12 -3464.12)" fill="#ECECEC"/>
<rect x="204.069" y="-3469.07" width="1" height="5650" transform="rotate(-45 204.069 -3469.07)" fill="#ECECEC"/>
<rect x="209.019" y="-3474.02" width="1" height="5650" transform="rotate(-45 209.019 -3474.02)" fill="#ECECEC"/>
<rect x="213.969" y="-3478.97" width="1" height="5650" transform="rotate(-45 213.969 -3478.97)" fill="#ECECEC"/>
<rect x="218.918" y="-3483.92" width="1" height="5650" transform="rotate(-45 218.918 -3483.92)" fill="#ECECEC"/>
<rect x="223.868" y="-3488.87" width="1" height="5650" transform="rotate(-45 223.868 -3488.87)" fill="#ECECEC"/>
<rect x="228.818" y="-3493.82" width="1" height="5650" transform="rotate(-45 228.818 -3493.82)" fill="#ECECEC"/>
<rect x="233.768" y="-3498.77" width="1" height="5650" transform="rotate(-45 233.768 -3498.77)" fill="#ECECEC"/>
<rect x="238.718" y="-3503.72" width="1" height="5650" transform="rotate(-45 238.718 -3503.72)" fill="#ECECEC"/>
<rect x="243.667" y="-3508.67" width="1" height="5650" transform="rotate(-45 243.667 -3508.67)" fill="#ECECEC"/>
<rect x="248.617" y="-3513.62" width="1" height="5650" transform="rotate(-45 248.617 -3513.62)" fill="#ECECEC"/>
<rect x="253.567" y="-3518.57" width="1" height="5650" transform="rotate(-45 253.567 -3518.57)" fill="#ECECEC"/>
<rect x="258.517" y="-3523.52" width="1" height="5650" transform="rotate(-45 258.517 -3523.52)" fill="#ECECEC"/>
<rect x="263.466" y="-3528.47" width="1" height="5650" transform="rotate(-45 263.466 -3528.47)" fill="#ECECEC"/>
<rect x="268.416" y="-3533.42" width="1" height="5650" transform="rotate(-45 268.416 -3533.42)" fill="#ECECEC"/>
<rect x="273.366" y="-3538.37" width="1" height="5650" transform="rotate(-45 273.366 -3538.37)" fill="#ECECEC"/>
<rect x="278.315" y="-3543.32" width="1" height="5650" transform="rotate(-45 278.315 -3543.32)" fill="#ECECEC"/>
<rect x="283.265" y="-3548.27" width="1" height="5650" transform="rotate(-45 283.265 -3548.27)" fill="#ECECEC"/>
<rect x="288.215" y="-3553.21" width="1" height="5650" transform="rotate(-45 288.215 -3553.21)" fill="#ECECEC"/>
<rect x="293.165" y="-3558.17" width="1" height="5650" transform="rotate(-45 293.165 -3558.17)" fill="#ECECEC"/>
<rect x="298.115" y="-3563.11" width="1" height="5650" transform="rotate(-45 298.115 -3563.11)" fill="#ECECEC"/>
<rect x="303.064" y="-3568.06" width="1" height="5650" transform="rotate(-45 303.064 -3568.06)" fill="#ECECEC"/>
<rect x="308.014" y="-3573.01" width="1" height="5650" transform="rotate(-45 308.014 -3573.01)" fill="#ECECEC"/>
<rect x="312.964" y="-3577.96" width="1" height="5650" transform="rotate(-45 312.964 -3577.96)" fill="#ECECEC"/>
<rect x="317.914" y="-3582.91" width="1" height="5650" transform="rotate(-45 317.914 -3582.91)" fill="#ECECEC"/>
<rect x="322.863" y="-3587.86" width="1" height="5650" transform="rotate(-45 322.863 -3587.86)" fill="#ECECEC"/>
<rect x="327.813" y="-3592.81" width="1" height="5650" transform="rotate(-45 327.813 -3592.81)" fill="#ECECEC"/>
<rect x="332.763" y="-3597.76" width="1" height="5650" transform="rotate(-45 332.763 -3597.76)" fill="#ECECEC"/>
<rect x="337.712" y="-3602.71" width="1" height="5650" transform="rotate(-45 337.712 -3602.71)" fill="#ECECEC"/>
<rect x="342.662" y="-3607.66" width="1" height="5650" transform="rotate(-45 342.662 -3607.66)" fill="#ECECEC"/>
<rect x="347.612" y="-3612.61" width="1" height="5650" transform="rotate(-45 347.612 -3612.61)" fill="#ECECEC"/>
<rect x="352.562" y="-3617.56" width="1" height="5650" transform="rotate(-45 352.562 -3617.56)" fill="#ECECEC"/>
<rect x="357.512" y="-3622.51" width="1" height="5650" transform="rotate(-45 357.512 -3622.51)" fill="#ECECEC"/>
<rect x="362.461" y="-3627.46" width="1" height="5650" transform="rotate(-45 362.461 -3627.46)" fill="#ECECEC"/>
<rect x="367.411" y="-3632.41" width="1" height="5650" transform="rotate(-45 367.411 -3632.41)" fill="#ECECEC"/>
<rect x="372.361" y="-3637.36" width="1" height="5650" transform="rotate(-45 372.361 -3637.36)" fill="#ECECEC"/>
<rect x="377.311" y="-3642.31" width="1" height="5650" transform="rotate(-45 377.311 -3642.31)" fill="#ECECEC"/>
<rect x="382.26" y="-3647.26" width="1" height="5650" transform="rotate(-45 382.26 -3647.26)" fill="#ECECEC"/>
<rect x="387.21" y="-3652.21" width="1" height="5650" transform="rotate(-45 387.21 -3652.21)" fill="#ECECEC"/>
<rect x="392.16" y="-3657.16" width="1" height="5650" transform="rotate(-45 392.16 -3657.16)" fill="#ECECEC"/>
<rect x="397.109" y="-3662.11" width="1" height="5650" transform="rotate(-45 397.109 -3662.11)" fill="#ECECEC"/>
<rect x="402.059" y="-3667.06" width="1" height="5650" transform="rotate(-45 402.059 -3667.06)" fill="#ECECEC"/>
<rect x="407.009" y="-3672.01" width="1" height="5650" transform="rotate(-45 407.009 -3672.01)" fill="#ECECEC"/>
<rect x="411.959" y="-3676.96" width="1" height="5650" transform="rotate(-45 411.959 -3676.96)" fill="#ECECEC"/>
<rect x="416.909" y="-3681.91" width="1" height="5650" transform="rotate(-45 416.909 -3681.91)" fill="#ECECEC"/>
<rect x="421.858" y="-3686.86" width="1" height="5650" transform="rotate(-45 421.858 -3686.86)" fill="#ECECEC"/>
<rect x="426.808" y="-3691.81" width="1" height="5650" transform="rotate(-45 426.808 -3691.81)" fill="#ECECEC"/>
<rect x="431.758" y="-3696.76" width="1" height="5650" transform="rotate(-45 431.758 -3696.76)" fill="#ECECEC"/>
<rect x="436.708" y="-3701.71" width="1" height="5650" transform="rotate(-45 436.708 -3701.71)" fill="#ECECEC"/>
<rect x="441.657" y="-3706.66" width="1" height="5650" transform="rotate(-45 441.657 -3706.66)" fill="#ECECEC"/>
<rect x="446.607" y="-3711.61" width="1" height="5650" transform="rotate(-45 446.607 -3711.61)" fill="#ECECEC"/>
<rect x="451.557" y="-3716.56" width="1" height="5650" transform="rotate(-45 451.557 -3716.56)" fill="#ECECEC"/>
<rect x="456.506" y="-3721.51" width="1" height="5650" transform="rotate(-45 456.506 -3721.51)" fill="#ECECEC"/>
<rect x="461.456" y="-3726.46" width="1" height="5650" transform="rotate(-45 461.456 -3726.46)" fill="#ECECEC"/>
<rect x="466.406" y="-3731.41" width="1" height="5650" transform="rotate(-45 466.406 -3731.41)" fill="#ECECEC"/>
<rect x="471.356" y="-3736.36" width="1" height="5650" transform="rotate(-45 471.356 -3736.36)" fill="#ECECEC"/>
<rect x="476.306" y="-3741.31" width="1" height="5650" transform="rotate(-45 476.306 -3741.31)" fill="#ECECEC"/>
<rect x="481.255" y="-3746.26" width="1" height="5650" transform="rotate(-45 481.255 -3746.26)" fill="#ECECEC"/>
<rect x="486.205" y="-3751.21" width="1" height="5650" transform="rotate(-45 486.205 -3751.21)" fill="#ECECEC"/>
<rect x="491.155" y="-3756.15" width="1" height="5650" transform="rotate(-45 491.155 -3756.15)" fill="#ECECEC"/>
<rect x="496.104" y="-3761.1" width="1" height="5650" transform="rotate(-45 496.104 -3761.1)" fill="#ECECEC"/>
<rect x="501.054" y="-3766.05" width="1" height="5650" transform="rotate(-45 501.054 -3766.05)" fill="#ECECEC"/>
<rect x="506.004" y="-3771" width="1" height="5650" transform="rotate(-45 506.004 -3771)" fill="#ECECEC"/>
<rect x="510.954" y="-3775.95" width="1" height="5650" transform="rotate(-45 510.954 -3775.95)" fill="#ECECEC"/>
<rect x="515.903" y="-3780.9" width="1" height="5650" transform="rotate(-45 515.903 -3780.9)" fill="#ECECEC"/>
<rect x="520.853" y="-3785.85" width="1" height="5650" transform="rotate(-45 520.853 -3785.85)" fill="#ECECEC"/>
<rect x="525.803" y="-3790.8" width="1" height="5650" transform="rotate(-45 525.803 -3790.8)" fill="#ECECEC"/>
<rect x="530.753" y="-3795.75" width="1" height="5650" transform="rotate(-45 530.753 -3795.75)" fill="#ECECEC"/>
<rect x="535.703" y="-3800.7" width="1" height="5650" transform="rotate(-45 535.703 -3800.7)" fill="#ECECEC"/>
<rect x="540.652" y="-3805.65" width="1" height="5650" transform="rotate(-45 540.652 -3805.65)" fill="#ECECEC"/>
<rect x="545.602" y="-3810.6" width="1" height="5650" transform="rotate(-45 545.602 -3810.6)" fill="#ECECEC"/>
<rect x="550.552" y="-3815.55" width="1" height="5650" transform="rotate(-45 550.552 -3815.55)" fill="#ECECEC"/>
<rect x="555.501" y="-3820.5" width="1" height="5650" transform="rotate(-45 555.501 -3820.5)" fill="#ECECEC"/>
<rect x="560.451" y="-3825.45" width="1" height="5650" transform="rotate(-45 560.451 -3825.45)" fill="#ECECEC"/>
<rect x="565.401" y="-3830.4" width="1" height="5650" transform="rotate(-45 565.401 -3830.4)" fill="#ECECEC"/>
<rect x="570.351" y="-3835.35" width="1" height="5650" transform="rotate(-45 570.351 -3835.35)" fill="#ECECEC"/>
<rect x="575.3" y="-3840.3" width="1" height="5650" transform="rotate(-45 575.3 -3840.3)" fill="#ECECEC"/>
<rect x="580.25" y="-3845.25" width="1" height="5650" transform="rotate(-45 580.25 -3845.25)" fill="#ECECEC"/>
<rect x="585.2" y="-3850.2" width="1" height="5650" transform="rotate(-45 585.2 -3850.2)" fill="#ECECEC"/>
<rect x="590.15" y="-3855.15" width="1" height="5650" transform="rotate(-45 590.15 -3855.15)" fill="#ECECEC"/>
<rect x="595.1" y="-3860.1" width="1" height="5650" transform="rotate(-45 595.1 -3860.1)" fill="#ECECEC"/>
<rect x="600.049" y="-3865.05" width="1" height="5650" transform="rotate(-45 600.049 -3865.05)" fill="#ECECEC"/>
<rect x="604.999" y="-3870" width="1" height="5650" transform="rotate(-45 604.999 -3870)" fill="#ECECEC"/>
<rect x="609.949" y="-3874.95" width="1" height="5650" transform="rotate(-45 609.949 -3874.95)" fill="#ECECEC"/>
<rect x="614.898" y="-3879.9" width="1" height="5650" transform="rotate(-45 614.898 -3879.9)" fill="#ECECEC"/>
<rect x="619.848" y="-3884.85" width="1" height="5650" transform="rotate(-45 619.848 -3884.85)" fill="#ECECEC"/>
<rect x="624.798" y="-3889.8" width="1" height="5650" transform="rotate(-45 624.798 -3889.8)" fill="#ECECEC"/>
<rect x="629.748" y="-3894.75" width="1" height="5650" transform="rotate(-45 629.748 -3894.75)" fill="#ECECEC"/>
<rect x="634.697" y="-3899.7" width="1" height="5650" transform="rotate(-45 634.697 -3899.7)" fill="#ECECEC"/>
<rect x="639.647" y="-3904.65" width="1" height="5650" transform="rotate(-45 639.647 -3904.65)" fill="#ECECEC"/>
<rect x="644.597" y="-3909.6" width="1" height="5650" transform="rotate(-45 644.597 -3909.6)" fill="#ECECEC"/>
<rect x="649.547" y="-3914.55" width="1" height="5650" transform="rotate(-45 649.547 -3914.55)" fill="#ECECEC"/>
<rect x="654.497" y="-3919.5" width="1" height="5650" transform="rotate(-45 654.497 -3919.5)" fill="#ECECEC"/>
<rect x="659.446" y="-3924.45" width="1" height="5650" transform="rotate(-45 659.446 -3924.45)" fill="#ECECEC"/>
</g>
</svg>
