<svg width="12" height="16" viewBox="0 0 12 16" fill="none" xmlns="http://www.w3.org/2000/svg">
<path d="M0.797277 1.59455C1.2376 1.59455 1.59455 1.2376 1.59455 0.797277C1.59455 0.356953 1.2376 0 0.797277 0C0.356953 0 0 0.356953 0 0.797277C0 1.2376 0.356953 1.59455 0.797277 1.59455Z" fill="#222222"/>
<path d="M3.16544 4.01057C3.60576 4.01057 3.96272 3.65362 3.96272 3.21329C3.96272 2.77297 3.60576 2.41602 3.16544 2.41602C2.72512 2.41602 2.36816 2.77297 2.36816 3.21329C2.36816 3.65362 2.72512 4.01057 3.16544 4.01057Z" fill="#222222"/>
<path d="M3.16544 1.59455C3.60576 1.59455 3.96272 1.2376 3.96272 0.797277C3.96272 0.356953 3.60576 0 3.16544 0C2.72512 0 2.36816 0.356953 2.36816 0.797277C2.36816 1.2376 2.72512 1.59455 3.16544 1.59455Z" fill="#222222"/>
<path d="M5.53263 4.01057C5.97295 4.01057 6.32991 3.65362 6.32991 3.21329C6.32991 2.77297 5.97295 2.41602 5.53263 2.41602C5.0923 2.41602 4.73535 2.77297 4.73535 3.21329C4.73535 3.65362 5.0923 4.01057 5.53263 4.01057Z" fill="#222222"/>
<path d="M5.53263 6.37776C5.97295 6.37776 6.32991 6.0208 6.32991 5.58048C6.32991 5.14016 5.97295 4.7832 5.53263 4.7832C5.0923 4.7832 4.73535 5.14016 4.73535 5.58048C4.73535 6.0208 5.0923 6.37776 5.53263 6.37776Z" fill="#222222"/>
<path d="M5.53268 11.162C5.97304 11.162 6.33001 10.8051 6.33001 10.3647C6.33001 9.92436 5.97304 9.56738 5.53268 9.56738C5.09233 9.56738 4.73535 9.92436 4.73535 10.3647C4.73535 10.8051 5.09233 11.162 5.53268 11.162Z" fill="#222222"/>
<path d="M3.16544 13.533C3.60576 13.533 3.96272 13.1761 3.96272 12.7358C3.96272 12.2954 3.60576 11.9385 3.16544 11.9385C2.72512 11.9385 2.36816 12.2954 2.36816 12.7358C2.36816 13.1761 2.72512 13.533 3.16544 13.533Z" fill="#222222"/>
<path d="M5.53263 13.533C5.97295 13.533 6.32991 13.1761 6.32991 12.7358C6.32991 12.2954 5.97295 11.9385 5.53263 11.9385C5.0923 11.9385 4.73535 12.2954 4.73535 12.7358C4.73535 13.1761 5.0923 13.533 5.53263 13.533Z" fill="#222222"/>
<path d="M8.0004 6.37776C8.44073 6.37776 8.79768 6.0208 8.79768 5.58048C8.79768 5.14016 8.44073 4.7832 8.0004 4.7832C7.56008 4.7832 7.20312 5.14016 7.20312 5.58048C7.20312 6.0208 7.56008 6.37776 8.0004 6.37776Z" fill="#222222"/>
<path d="M8.0004 8.74592C8.44073 8.74592 8.79768 8.38897 8.79768 7.94864C8.79768 7.50832 8.44073 7.15137 8.0004 7.15137C7.56008 7.15137 7.20312 7.50832 7.20312 7.94864C7.20312 8.38897 7.56008 8.74592 8.0004 8.74592Z" fill="#222222"/>
<path d="M8.00046 11.162C8.44081 11.162 8.79779 10.8051 8.79779 10.3647C8.79779 9.92436 8.44081 9.56738 8.00046 9.56738C7.5601 9.56738 7.20312 9.92436 7.20312 10.3647C7.20312 10.8051 7.5601 11.162 8.00046 11.162Z" fill="#222222"/>
<path d="M0.797331 15.9999C1.23768 15.9999 1.59466 15.643 1.59466 15.2026C1.59466 14.7623 1.23768 14.4053 0.797331 14.4053C0.356977 14.4053 0 14.7623 0 15.2026C0 15.643 0.356977 15.9999 0.797331 15.9999Z" fill="#222222"/>
<path d="M3.1655 15.9999C3.60585 15.9999 3.96283 15.643 3.96283 15.2026C3.96283 14.7623 3.60585 14.4053 3.1655 14.4053C2.72514 14.4053 2.36816 14.7623 2.36816 15.2026C2.36816 15.643 2.72514 15.9999 3.1655 15.9999Z" fill="#222222"/>
<path d="M10.3705 8.74592C10.8108 8.74592 11.1678 8.38897 11.1678 7.94864C11.1678 7.50832 10.8108 7.15137 10.3705 7.15137C9.9302 7.15137 9.57324 7.50832 9.57324 7.94864C9.57324 8.38897 9.9302 8.74592 10.3705 8.74592Z" fill="#222222"/>
</svg>
