<svg width="137" height="38" viewBox="0 0 137 38" fill="none" xmlns="http://www.w3.org/2000/svg">
<path d="M0.5 11.8387C0.5 8.8315 1.69461 5.94745 3.82103 3.82103C5.94745 1.69461 8.8315 0.5 11.8387 0.5H26.1613C29.1685 0.5 32.0525 1.69461 34.179 3.82103C36.3054 5.94745 37.5 8.8315 37.5 11.8387V26.1613C37.5 29.1685 36.3054 32.0525 34.179 34.179C32.0525 36.3054 29.1685 37.5 26.1613 37.5H11.8387C8.8315 37.5 5.94745 36.3054 3.82103 34.179C1.69461 32.0525 0.5 29.1685 0.5 26.1613V11.8387Z" fill="url(#paint0_radial_2037_3552)" stroke="url(#paint1_linear_2037_3552)"/>
<path d="M8.90005 22.7002C8.26352 22.7002 7.65305 22.4473 7.20296 21.9972C6.75286 21.5471 6.5 20.9367 6.5 20.3001C6.5 19.6636 6.75286 19.0532 7.20296 18.6031C7.65305 18.153 8.26352 17.9001 8.90005 17.9001M28.1004 22.7002C28.737 22.7002 29.3474 22.4473 29.7975 21.9972C30.2476 21.5471 30.5005 20.9367 30.5005 20.3001C30.5005 19.6636 30.2476 19.0532 29.7975 18.6031C29.3474 18.153 28.737 17.9001 28.1004 17.9001" stroke="white" stroke-width="1.5" stroke-linecap="round" stroke-linejoin="round"/>
<path d="M12.5 12.5001V8.90002M24.5002 12.5001V8.90002" stroke="white" stroke-width="1.5" stroke-linejoin="round"/>
<path d="M12.4998 8.90002C13.1626 8.90002 13.6999 8.36276 13.6999 7.70001C13.6999 7.03726 13.1626 6.5 12.4998 6.5C11.8371 6.5 11.2998 7.03726 11.2998 7.70001C11.2998 8.36276 11.8371 8.90002 12.4998 8.90002Z" stroke="white" stroke-width="1.5" stroke-linejoin="round"/>
<path d="M24.5008 8.90002C25.1636 8.90002 25.7008 8.36276 25.7008 7.70001C25.7008 7.03726 25.1636 6.5 24.5008 6.5C23.8381 6.5 23.3008 7.03726 23.3008 7.70001C23.3008 8.36276 23.8381 8.90002 24.5008 8.90002Z" stroke="white" stroke-width="1.5" stroke-linejoin="round"/>
<path d="M20.3002 12.5001H16.7001C13.3065 12.5001 11.6084 12.5001 10.5548 13.5909C9.5012 14.6817 9.5 16.4373 9.5 19.9485C9.5 23.4598 9.5 25.2154 10.5548 26.3062C11.6084 27.397 13.3065 27.397 16.7001 27.397H17.9302C18.8806 27.397 19.2154 27.5926 19.8706 28.3054C20.5942 29.0938 21.715 30.1462 22.7291 30.391C24.1703 30.7391 24.3323 30.2578 24.0107 28.8838C23.9195 28.4926 23.6903 27.8674 23.9315 27.5026C24.0671 27.2986 24.2915 27.2482 24.7415 27.1474C25.4507 26.989 26.0363 26.7298 26.4455 26.3062C27.5004 25.2142 27.5004 23.4598 27.5004 19.9485C27.5004 16.4373 27.5004 14.6817 26.4455 13.5909C25.3919 12.5001 23.6939 12.5001 20.3002 12.5001Z" stroke="white" stroke-width="1.5" stroke-linejoin="round"/>
<path d="M15.5 22.1002C16.184 22.8286 17.2736 23.3002 18.5001 23.3002C19.7265 23.3002 20.8161 22.8286 21.5001 22.1002" stroke="white" stroke-width="1.5" stroke-linecap="round" stroke-linejoin="round"/>
<path d="M14.9112 17.3001H14.9004M22.1113 17.3001H22.1005" stroke="white" stroke-width="2" stroke-linecap="round" stroke-linejoin="round"/>
<path d="M58.092 10.588L54.636 20.412H61.612L58.188 10.588H58.092ZM47.276 29.5L56.044 6.652H60.3L69.1 29.5H64.812L62.668 23.452H53.548L51.404 29.5H47.276ZM72.4093 29.436L66.1373 12.956H70.1373L74.4573 25.308H74.5213L78.7133 12.956H82.5213L76.0893 30.396C74.9053 33.372 74.0413 36.06 70.2333 36.06C69.3693 36.06 68.5373 35.996 67.7053 35.868V32.796C68.2813 32.892 68.8573 33.02 69.4333 33.02C71.1293 33.02 71.5453 32.124 71.9933 30.716L72.4093 29.436ZM81.739 15.836V12.956H95.179V15.516L85.707 26.62H95.659V29.5H81.099V26.94L90.251 15.836H81.739ZM111.083 22.172H98.923C98.923 24.764 100.331 27.068 103.371 27.068C105.483 27.068 106.763 26.14 107.403 24.316H110.859C110.059 27.932 106.987 29.948 103.371 29.948C98.187 29.948 95.275 26.332 95.275 21.244C95.275 16.54 98.347 12.508 103.275 12.508C108.491 12.508 111.691 17.212 111.083 22.172ZM98.923 19.772H107.435C107.307 17.468 105.739 15.388 103.275 15.388C100.747 15.388 99.019 17.308 98.923 19.772ZM111.616 29.5V12.956H115.072V15.388L115.136 15.452C116.224 13.628 118.112 12.508 120.288 12.508C123.872 12.508 126.144 14.428 126.144 18.14V29.5H122.496V19.1C122.432 16.508 121.408 15.388 119.264 15.388C116.832 15.388 115.264 17.308 115.264 19.74V29.5H111.616ZM126.087 15.676V12.956H128.839V7.996H132.487V12.956H135.783V15.676H132.487V24.508C132.487 26.012 132.615 26.78 134.247 26.78C134.759 26.78 135.271 26.78 135.783 26.652V29.468C134.983 29.532 134.215 29.66 133.415 29.66C129.607 29.66 128.903 28.188 128.839 25.436V15.676H126.087Z" fill="#121212"/>
<defs>
<radialGradient id="paint0_radial_2037_3552" cx="0" cy="0" r="1" gradientUnits="userSpaceOnUse" gradientTransform="translate(34.5161 2.8871) rotate(135) scale(46.4182 35.04)">
<stop stop-color="#FF9937"/>
<stop offset="0.895" stop-color="#FE6A2E"/>
</radialGradient>
<linearGradient id="paint1_linear_2037_3552" x1="35.1129" y1="1.09677" x2="1.09677" y2="36.3064" gradientUnits="userSpaceOnUse">
<stop stop-color="#FEB455"/>
<stop offset="1" stop-color="#ED5F26"/>
</linearGradient>
</defs>
</svg>
