<svg width="26" height="26" viewBox="0 0 26 26" fill="none" xmlns="http://www.w3.org/2000/svg">
<path d="M4.33366 16.7923C3.75902 16.7923 3.20792 16.564 2.80159 16.1577C2.39527 15.7514 2.16699 15.2003 2.16699 14.6257C2.16699 14.051 2.39527 13.4999 2.80159 13.0936C3.20792 12.6873 3.75902 12.459 4.33366 12.459M21.667 16.7923C22.2416 16.7923 22.7927 16.564 23.1991 16.1577C23.6054 15.7514 23.8337 15.2003 23.8337 14.6257C23.8337 14.051 23.6054 13.4999 23.1991 13.0936C22.7927 12.6873 22.2416 12.459 21.667 12.459" stroke="#111111" stroke-width="1.5" stroke-linecap="round" stroke-linejoin="round"/>
<path d="M7.58398 7.58398V4.33398M18.4173 7.58398V4.33398" stroke="#111111" stroke-width="1.5" stroke-linejoin="round"/>
<path d="M7.58333 4.33366C8.18164 4.33366 8.66667 3.84863 8.66667 3.25033C8.66667 2.65202 8.18164 2.16699 7.58333 2.16699C6.98502 2.16699 6.5 2.65202 6.5 3.25033C6.5 3.84863 6.98502 4.33366 7.58333 4.33366Z" stroke="#111111" stroke-width="1.5" stroke-linejoin="round"/>
<path d="M18.4173 4.33366C19.0156 4.33366 19.5007 3.84863 19.5007 3.25033C19.5007 2.65202 19.0156 2.16699 18.4173 2.16699C17.819 2.16699 17.334 2.65202 17.334 3.25033C17.334 3.84863 17.819 4.33366 18.4173 4.33366Z" stroke="#111111" stroke-width="1.5" stroke-linejoin="round"/>
<path d="M14.625 7.58398H11.375C8.31133 7.58398 6.77842 7.58398 5.82725 8.56873C4.87608 9.55348 4.875 11.1384 4.875 14.3082C4.875 17.4781 4.875 19.063 5.82725 20.0477C6.77842 21.0325 8.31133 21.0325 11.375 21.0325H12.4854C13.3434 21.0325 13.6457 21.2091 14.2372 21.8526C14.8904 22.5643 15.9023 23.5144 16.8177 23.7354C18.1188 24.0496 18.265 23.6152 17.9747 22.3747C17.8923 22.0216 17.6854 21.4572 17.9032 21.1278C18.0256 20.9437 18.2282 20.8982 18.6344 20.8072C19.2747 20.6642 19.8033 20.4302 20.1728 20.0477C21.125 19.0619 21.125 17.4781 21.125 14.3082C21.125 11.1384 21.125 9.55348 20.1728 8.56873C19.2216 7.58398 17.6887 7.58398 14.625 7.58398Z" stroke="#111111" stroke-width="1.5" stroke-linejoin="round"/>
<path d="M10.292 16.25C10.9095 16.9076 11.8932 17.3333 13.0003 17.3333C14.1075 17.3333 15.0912 16.9076 15.7087 16.25" stroke="#111111" stroke-width="1.5" stroke-linecap="round" stroke-linejoin="round"/>
<path d="M9.75975 11.917H9.75M16.2598 11.917H16.25" stroke="#111111" stroke-width="2" stroke-linecap="round" stroke-linejoin="round"/>
</svg>
