<svg width="38" height="45" viewBox="0 0 38 45" fill="none" xmlns="http://www.w3.org/2000/svg">
<path d="M1.60958e-07 8.4375C1.71295e-07 5.84867 2.12665 3.75 4.75 3.75L14.25 3.75C16.8734 3.75 19 5.84867 19 8.4375L19 17.643C19.0002 17.6993 19.0003 17.7558 19.0003 17.8125C19.0003 20.3976 21.1209 22.494 23.739 22.5C23.7427 22.5 23.7463 22.5 23.75 22.5L33.25 22.5C35.8734 22.5 38 24.5987 38 27.1875L38 36.5625C38 39.1513 35.8734 41.25 33.25 41.25L23.75 41.25C21.1266 41.25 19 39.1513 19 36.5625L19 27.1875C19 27.1745 19.0001 27.1615 19.0002 27.1485C18.9789 24.5776 16.8605 22.5 14.2503 22.5C14.238 22.5 14.2258 22.5 14.2135 22.5L4.75 22.5C2.12665 22.5 1.1319e-07 20.4013 1.23526e-07 17.8125L1.60958e-07 8.4375Z" fill="url(#paint0_linear_22_1996)"/>
<defs>
<linearGradient id="paint0_linear_22_1996" x1="19" y1="12" x2="19" y2="41" gradientUnits="userSpaceOnUse">
<stop stop-color="#F8F8F8" stop-opacity="0.9"/>
<stop offset="1" stop-color="#F8F8F8" stop-opacity="0.3"/>
</linearGradient>
</defs>
</svg>
