<svg width="46" height="46" viewBox="0 0 46 46" fill="none" xmlns="http://www.w3.org/2000/svg">
<path opacity="0.4" d="M43.892 20.3525C41.8998 22.3446 38.6699 22.3446 36.6777 20.3525C34.6856 18.3603 34.6856 15.1303 36.6777 13.1382C38.6699 11.146 41.8998 11.146 43.892 13.1382C45.8842 15.1303 45.8842 18.3603 43.892 20.3525Z" fill="#F8F8F8"/>
<path opacity="0.6" d="M43.8871 20.3508C41.8949 22.343 38.665 22.343 36.6728 20.3508L29.5483 13.2263C27.5561 11.2341 24.3261 11.2341 22.334 13.2263C20.3418 15.2185 20.3418 18.4484 22.334 20.4406L29.4585 27.5651C31.4507 29.5573 34.6806 29.5573 36.6728 27.5651L43.8871 20.3508Z" fill="#F8F8F8"/>
<path d="M36.6726 27.5666C34.6805 29.5588 31.4505 29.5588 29.4583 27.5666L15.631 13.7392C12.9747 11.083 8.66813 11.083 6.0119 13.7392L3.19583e-08 19.7511C1.99217 17.759 5.22212 17.759 7.21429 19.7511L22.2441 34.7809C24.2362 36.7731 27.4662 36.7731 29.4583 34.7809L36.6726 27.5666Z" fill="#F8F8F8" fill-opacity="0.8"/>
</svg>
