<svg width="38" height="38" viewBox="0 0 38 38" fill="none" xmlns="http://www.w3.org/2000/svg">
<path d="M32.5576 18.8862L26.256 21.1777C25.3426 21.5098 24.6378 22.2509 24.352 23.1798L21.9436 31.0071C21.8713 31.2419 21.5389 31.2419 21.4665 31.0071L19.0582 23.1798C18.7724 22.2509 18.0676 21.5098 17.1543 21.1777L10.8527 18.8862C10.5895 18.7905 10.5895 18.4181 10.8527 18.3225L17.1543 16.0309C18.0676 15.6988 18.7724 14.9577 19.0582 14.0288L21.4665 6.20155C21.5389 5.96667 21.8713 5.96667 21.9436 6.20155L24.352 14.0288C24.6378 14.9577 25.3426 15.6988 26.256 16.0309L32.5576 18.3225C32.8208 18.4181 32.8208 18.7905 32.5576 18.8862Z" fill="#F8F8F8" stroke="#F8F8F8" stroke-width="3.10069" stroke-linecap="round" stroke-linejoin="round"/>
<path d="M5.81451 8.13954C6.54649 8.38353 7.12086 8.9579 7.36485 9.68988C7.48901 10.0624 8.01587 10.0624 8.14003 9.68988C8.38402 8.9579 8.95839 8.38353 9.69037 8.13954C10.0628 8.01539 10.0628 7.48852 9.69037 7.36437C8.95839 7.12037 8.38402 6.546 8.14003 5.81402C8.01587 5.44155 7.48901 5.44155 7.36485 5.81402C7.12086 6.546 6.54649 7.12037 5.81451 7.36437C5.44204 7.48852 5.44204 8.01539 5.81451 8.13954Z" stroke="#F8F8F8" stroke-width="1.55034" stroke-linecap="round" stroke-linejoin="round"/>
<path d="M11.2402 29.8447C10.5082 30.0887 9.93382 30.6631 9.68983 31.395C9.56568 31.7676 9.03881 31.7676 8.91466 31.395C8.67067 30.6631 8.09629 30.0887 7.36431 29.8447C6.99184 29.7205 6.99184 29.1937 7.36431 29.0695C8.09629 28.8255 8.67067 28.2511 8.91466 27.5192C9.03881 27.1466 9.56568 27.1466 9.68983 27.5192C9.93382 28.2511 10.5082 28.8255 11.2402 29.0695C11.6126 29.1937 11.6126 29.7205 11.2402 29.8447Z" stroke="#F8F8F8" stroke-width="1.55034" stroke-linecap="round" stroke-linejoin="round"/>
</svg>
