<svg width="38" height="45" viewBox="0 0 38 45" fill="none" xmlns="http://www.w3.org/2000/svg">
<path d="M19 13.125C17.7524 13.125 16.5169 13.3677 15.3643 13.8389C14.2118 14.31 13.1643 15.0006 12.2822 15.8711C11.4003 16.7415 10.701 17.7749 10.2236 18.9121C9.74614 20.0495 9.5 21.2688 9.5 22.5C9.5 23.7312 9.74614 24.9505 10.2236 26.0879C10.701 27.2251 11.4003 28.2585 12.2822 29.1289C13.1643 29.9994 14.2118 30.69 15.3643 31.1611C16.5169 31.6323 17.7524 31.875 19 31.875C20.2476 31.875 21.4831 31.6323 22.6357 31.1611C23.7882 30.69 24.8357 29.9994 25.7178 29.1289C26.5997 28.2585 27.299 27.2251 27.7764 26.0879C28.2539 24.9505 28.5 23.7312 28.5 22.5H38C38 24.9622 37.5085 27.4009 36.5537 29.6758C35.5989 31.9503 34.1995 34.0168 32.4355 35.7578C30.6713 37.4987 28.5765 38.8799 26.2715 39.8223C23.9663 40.7645 21.4951 41.25 19 41.25C16.5049 41.25 14.0337 40.7645 11.7285 39.8223C9.42355 38.8799 7.3287 37.4987 5.56445 35.7578C3.80049 34.0168 2.40108 31.9503 1.44629 29.6758C0.491512 27.4009 0 24.9622 0 22.5C0 20.0378 0.491512 17.5991 1.44629 15.3242C2.40108 13.0497 3.80049 10.9832 5.56445 9.24219C7.3287 7.50126 9.42355 6.12005 11.7285 5.17773C14.0337 4.23552 16.5049 3.75 19 3.75V13.125ZM25.0381 22.8066C24.8762 25.9587 22.2353 28.4656 19.001 28.4658C15.7665 28.4658 13.1248 25.9589 12.9629 22.8066L12.9551 22.5C12.9553 19.2053 15.6623 16.5342 19.001 16.5342C22.3395 16.5344 25.0457 19.2054 25.0459 22.5L25.0381 22.8066Z" fill="url(#paint0_linear_22_1999)"/>
<defs>
<linearGradient id="paint0_linear_22_1999" x1="19" y1="35.5" x2="19" y2="8" gradientUnits="userSpaceOnUse">
<stop stop-color="#F8F8F8" stop-opacity="0.3"/>
<stop offset="1" stop-color="#F8F8F8" stop-opacity="0.9"/>
</linearGradient>
</defs>
</svg>
