<svg width="56" height="52" viewBox="0 0 56 52" fill="none" xmlns="http://www.w3.org/2000/svg">
<path fill-rule="evenodd" clip-rule="evenodd" d="M20.1529 8.44678H53.4617L33.678 22.0092L20.2209 12.7839C20.7332 11.412 20.7375 9.86124 20.1529 8.44678ZM11.4415 16.3185L16.2966 13.3623C17.7374 12.4851 18.2157 10.6133 17.3721 9.15237L12.989 1.56049C12.5393 0.781549 11.8587 0.280455 10.9814 0.0824083C10.1041 -0.115756 9.27437 0.0442052 8.53351 0.554322L0.539922 6.05792C-3.26504 19.4646 13.8337 48.4896 26.9474 51.7969L35.7105 47.6261C36.5226 47.2396 37.0761 46.6009 37.3431 45.7421C37.6102 44.8832 37.5166 44.0433 37.0668 43.2644L32.6836 35.6725C31.8402 34.2115 29.9801 33.6898 28.4999 34.499L23.5123 37.2255C18.5799 32.8388 12.7744 22.7835 11.4415 16.3185ZM55.8809 10.191L34.469 24.8697C33.968 25.2116 33.3243 25.1849 32.8587 24.8503L18.6439 15.1056C18.3746 15.3483 18.0796 15.5696 17.7592 15.7647L14.6884 17.6343C16.3018 22.8409 20.2937 29.7552 23.9962 33.7557L27.1507 32.0311C29.9693 30.4903 33.5131 31.4843 35.1191 34.2662L37.8374 38.9744H53.6704C54.9205 38.9744 55.9434 37.9515 55.9434 36.7014V10.7198C55.9435 10.5379 55.9217 10.3608 55.8809 10.191Z" fill="#046F36"/>
</svg>
