<svg width="42" height="42" viewBox="0 0 42 42" fill="none" xmlns="http://www.w3.org/2000/svg">
<path d="M12.25 24.5C11.4861 24.5011 10.7316 24.669 10.0393 24.9918C9.34695 25.3146 8.73339 25.7846 8.24143 26.369C7.74948 26.9534 7.39098 27.6381 7.19097 28.3754C6.99095 29.1126 6.95424 29.8846 7.08338 30.6375C7.21252 31.3905 7.50442 32.1061 7.93869 32.7346C8.37296 33.363 8.93914 33.8891 9.59773 34.2762C10.2563 34.6632 10.9914 34.9019 11.7518 34.9756C12.5121 35.0492 13.2794 34.956 14 34.7025" stroke="url(#paint0_linear_22_12698)" stroke-width="1.5" stroke-linecap="round" stroke-linejoin="round"/>
<path d="M7.46356 27.3085C6.41629 26.8043 5.51106 26.0473 4.82955 25.1058C4.14804 24.1642 3.71171 23.0678 3.55994 21.9154C3.40816 20.7631 3.54573 19.5911 3.96021 18.5052C4.37469 17.4193 5.05305 16.4537 5.93406 15.6955M5.98656 15.5538C5.41263 14.695 5.16108 13.6608 5.27644 12.6343C5.3918 11.6078 5.86663 10.6553 6.61687 9.94528C7.3671 9.23528 8.34435 8.81363 9.37562 8.75497C10.4069 8.69631 11.4257 9.00443 12.2516 9.62477M12.6681 9.73852C12.3889 9.14535 12.2466 8.49702 12.2517 7.84146C12.2568 7.1859 12.4092 6.53986 12.6975 5.9511C12.9859 5.36234 13.4029 4.84592 13.9177 4.44C14.4325 4.03408 15.0319 3.74904 15.6717 3.60596C16.3115 3.46288 16.9752 3.4654 17.6139 3.61336C18.2526 3.76131 18.8498 4.0509 19.3615 4.46073C19.8732 4.87055 20.2863 5.39014 20.5701 5.98108C20.854 6.57201 21.0015 7.21919 21.0016 7.87477V34.9998C21.0016 35.928 20.6328 36.8183 19.9764 37.4746C19.3201 38.131 18.4298 38.4998 17.5016 38.4998C16.5733 38.4998 15.6831 38.131 15.0267 37.4746C14.3703 36.8183 14.0016 35.928 14.0016 34.9998M21.0016 12.2498C21.0016 13.6422 21.5547 14.9775 22.5392 15.9621C23.5238 16.9467 24.8592 17.4998 26.2516 17.4998M29.7516 24.4998C30.5155 24.5009 31.2699 24.6687 31.9623 24.9915C32.6546 25.3144 33.2682 25.7844 33.7601 26.3688C34.2521 26.9532 34.6106 27.6379 34.8106 28.3751C35.0106 29.1124 35.0473 29.8844 34.9182 30.6373C34.789 31.3902 34.4971 32.1059 34.0629 32.7343C33.6286 33.3628 33.0624 33.8889 32.4038 34.276C31.7452 34.663 31.0101 34.9017 30.2498 34.9753C29.4894 35.049 28.7222 34.9558 28.0016 34.7023" stroke="url(#paint1_linear_22_12698)" stroke-width="1.5" stroke-linecap="round" stroke-linejoin="round"/>
<path d="M34.538 27.3085C35.5853 26.8043 36.4905 26.0473 37.172 25.1058C37.8535 24.1642 38.2898 23.0678 38.4416 21.9154C38.5934 20.7631 38.4558 19.5911 38.0413 18.5052C37.6269 17.4193 36.9485 16.4537 36.0675 15.6955M36.015 15.5538C36.5889 14.695 36.8405 13.6608 36.7251 12.6343C36.6098 11.6078 36.1349 10.6553 35.3847 9.94528C34.6345 9.23528 33.6572 8.81363 32.6259 8.75497C31.5947 8.69631 30.5759 9.00443 29.75 9.62477M21 7.87477C21.0001 7.21919 21.1475 6.57201 21.4314 5.98108C21.7153 5.39014 22.1283 4.87055 22.64 4.46073C23.1517 4.0509 23.749 3.76131 24.3877 3.61336C25.0263 3.4654 25.6901 3.46288 26.3299 3.60596C26.9696 3.74904 27.5691 4.03408 28.0839 4.44C28.5987 4.84592 29.0157 5.36234 29.304 5.9511C29.5924 6.53986 29.7448 7.1859 29.7499 7.84146C29.755 8.49702 29.6127 9.14535 29.3335 9.73852M28 34.9998C28 35.928 27.6312 36.8183 26.9749 37.4746C26.3185 38.131 25.4283 38.4998 24.5 38.4998C23.5717 38.4998 22.6815 38.131 22.0251 37.4746C21.3687 36.8183 21 35.928 21 34.9998" stroke="url(#paint2_linear_22_12698)" stroke-width="1.5" stroke-linecap="round" stroke-linejoin="round"/>
<defs>
<linearGradient id="paint0_linear_22_12698" x1="7.00781" y1="29.75" x2="14" y2="29.75" gradientUnits="userSpaceOnUse">
<stop stop-color="#CE0704"/>
<stop offset="1" stop-color="#046F36"/>
</linearGradient>
<linearGradient id="paint1_linear_22_12698" x1="3.5" y1="21.0001" x2="34.9937" y2="21.0001" gradientUnits="userSpaceOnUse">
<stop stop-color="#CE0704"/>
<stop offset="1" stop-color="#046F36"/>
</linearGradient>
<linearGradient id="paint2_linear_22_12698" x1="21" y1="21.0001" x2="38.5016" y2="21.0001" gradientUnits="userSpaceOnUse">
<stop stop-color="#CE0704"/>
<stop offset="1" stop-color="#046F36"/>
</linearGradient>
</defs>
</svg>
