<svg width="42" height="42" viewBox="0 0 42 42" fill="none" xmlns="http://www.w3.org/2000/svg">
<path d="M21 13.125C21 14.7495 20.3547 16.3074 19.206 17.456C18.0574 18.6047 16.4995 19.25 14.875 19.25C13.2505 19.25 11.6926 18.6047 10.544 17.456C9.39531 16.3074 8.75 14.7495 8.75 13.125C8.75 11.5005 9.39531 9.94263 10.544 8.79397C11.6926 7.64531 13.2505 7 14.875 7C16.4995 7 18.0574 7.64531 19.206 8.79397C20.3547 9.94263 21 11.5005 21 13.125Z" stroke="#046F36" stroke-width="2"/>
<path d="M23.625 19.25C25.2495 19.25 26.8074 18.6047 27.956 17.456C29.1047 16.3074 29.75 14.7495 29.75 13.125C29.75 11.5005 29.1047 9.94263 27.956 8.79397C26.8074 7.64531 25.2495 7 23.625 7" stroke="#046F36" stroke-width="2" stroke-linecap="round"/>
<path d="M23.0002 35.0001H6.74975C4.95425 35.0001 3.5 33.6578 3.5 32.0006C3.5 27.8583 7.13825 24.5001 11.6253 24.5001H18.1248C19.8644 24.4938 21.5648 25.0169 23.0002 25.9998" stroke="#046F36" stroke-width="2" stroke-linecap="round" stroke-linejoin="round"/>
<path d="M33.25 24.5V35M38.5 29.75H28" stroke="#046F36" stroke-width="2" stroke-linecap="round"/>
</svg>
