<svg width="42" height="42" viewBox="0 0 42 42" fill="none" xmlns="http://www.w3.org/2000/svg">
<path fill-rule="evenodd" clip-rule="evenodd" d="M25.1755 21.5836C24.9342 20.9011 24.4873 20.3101 23.8962 19.8922C23.3051 19.4742 22.5989 19.2499 21.875 19.25V18.375H20.125V19.25C19.1967 19.25 18.3065 19.6187 17.6501 20.2751C16.9937 20.9315 16.625 21.8217 16.625 22.75C16.625 23.6783 16.9937 24.5685 17.6501 25.2249C18.3065 25.8813 19.1967 26.25 20.125 26.25V29.75C19.3637 29.75 18.7154 29.2644 18.4739 28.5836C18.438 28.4723 18.3802 28.3692 18.3039 28.2805C18.2275 28.1919 18.1342 28.1195 18.0293 28.0675C17.9245 28.0156 17.8103 27.9852 17.6935 27.9782C17.5767 27.9711 17.4597 27.9876 17.3494 28.0266C17.2391 28.0656 17.1377 28.1263 17.0513 28.2051C16.9648 28.2839 16.8951 28.3793 16.8462 28.4856C16.7972 28.5918 16.7701 28.7068 16.7664 28.8238C16.7626 28.9407 16.7824 29.0572 16.8245 29.1664C17.0658 29.8489 17.5127 30.4399 18.1038 30.8578C18.6949 31.2758 19.4011 31.5001 20.125 31.5V32.375H21.875V31.5C22.8033 31.5 23.6935 31.1313 24.3499 30.4749C25.0063 29.8185 25.375 28.9283 25.375 28C25.375 27.0717 25.0063 26.1815 24.3499 25.5251C23.6935 24.8687 22.8033 24.5 21.875 24.5V21C22.2369 20.9999 22.59 21.112 22.8855 21.3209C23.181 21.5298 23.4046 21.8252 23.5252 22.1664C23.6025 22.3852 23.7636 22.5644 23.973 22.6645C24.0766 22.714 24.1891 22.7427 24.3038 22.7488C24.4186 22.7549 24.5334 22.7384 24.6418 22.7001C24.7501 22.6619 24.8499 22.6026 24.9353 22.5258C25.0208 22.449 25.0903 22.3561 25.1399 22.2524C25.1894 22.1487 25.2181 22.0363 25.2242 21.9216C25.2303 21.8068 25.2138 21.692 25.1755 21.5836ZM20.125 21C19.6609 21 19.2158 21.1844 18.8876 21.5126C18.5594 21.8408 18.375 22.2859 18.375 22.75C18.375 23.2141 18.5594 23.6592 18.8876 23.9874C19.2158 24.3156 19.6609 24.5 20.125 24.5V21ZM21.875 29.75C22.3391 29.75 22.7842 29.5656 23.1124 29.2374C23.4406 28.9092 23.625 28.4641 23.625 28C23.625 27.5359 23.4406 27.0908 23.1124 26.7626C22.7842 26.4344 22.3391 26.25 21.875 26.25V29.75Z" fill="#046F36"/>
<path fill-rule="evenodd" clip-rule="evenodd" d="M11.5108 7.54338C13.6581 6.4925 17.1808 5.25 21.0361 5.25C24.8108 5.25 28.2408 6.44087 30.3767 7.47775L30.4974 7.53638C31.1414 7.85487 31.6612 8.15588 32.0269 8.4L28.7947 13.125C36.2462 20.7428 42.0019 36.7474 21.0361 36.7474C0.0701857 36.7474 5.67106 21.0332 13.1873 13.125L9.97606 8.4C10.2237 8.23813 10.5378 8.05 10.9123 7.8505C11.0978 7.75075 11.2973 7.64779 11.5108 7.54338ZM26.7174 13.0629L29.3048 9.28025C26.8986 9.4535 24.0356 10.0188 21.2793 10.8168C19.3106 11.3855 17.1231 11.2989 15.0974 10.9253C14.587 10.8307 14.08 10.7181 13.5776 10.5875L15.2576 13.0611C18.8582 14.343 23.1159 14.343 26.7174 13.0629ZM14.2469 14.5512C18.4601 16.1787 23.5237 16.1788 27.7368 14.5495C29.495 16.4037 30.9661 18.5104 32.1013 20.7996C33.2843 23.2129 33.9283 25.6252 33.8233 27.7043C33.7218 29.7106 32.9326 31.4247 31.1301 32.6987C29.2514 34.0261 26.0918 34.9974 21.0352 34.9974C15.9733 34.9974 12.7988 34.0427 10.9027 32.7302C9.08706 31.4729 8.28994 29.7815 8.17706 27.8022C8.05894 25.746 8.68894 23.3459 9.86756 20.916C10.9919 18.599 12.5608 16.3686 14.2469 14.5512ZM13.2407 8.6765C13.9407 8.88475 14.6722 9.06587 15.4142 9.20325C17.2954 9.54975 19.1819 9.6005 20.7919 9.13413C22.6681 8.58734 24.5763 8.15747 26.5057 7.847C24.8957 7.36225 23.0127 7 21.0352 7C18.0208 7 15.2094 7.84088 13.2407 8.6765Z" fill="#046F36"/>
</svg>
