<svg width="42" height="42" viewBox="0 0 42 42" fill="none" xmlns="http://www.w3.org/2000/svg">
<path d="M14 22.75V7.875C14 7.17881 14.2766 6.51113 14.7688 6.01884C15.2611 5.52656 15.9288 5.25 16.625 5.25C17.3212 5.25 17.9889 5.52656 18.4812 6.01884C18.9734 6.51113 19.25 7.17881 19.25 7.875V21M19.25 20.125V16.625C19.25 15.9288 19.5266 15.2611 20.0188 14.7688C20.5111 14.2766 21.1788 14 21.875 14C22.5712 14 23.2389 14.2766 23.7312 14.7688C24.2234 15.2611 24.5 15.9288 24.5 16.625V21M24.5 18.375C24.5 17.6788 24.7766 17.0111 25.2688 16.5188C25.7611 16.0266 26.4288 15.75 27.125 15.75C27.8212 15.75 28.4889 16.0266 28.9812 16.5188C29.4734 17.0111 29.75 17.6788 29.75 18.375V21" stroke="#046F36" stroke-width="2" stroke-linecap="round" stroke-linejoin="round"/>
<path d="M29.7505 20.1248C29.7505 19.4286 30.0271 18.7609 30.5194 18.2686C31.0116 17.7763 31.6793 17.4998 32.3755 17.4998C33.0717 17.4998 33.7394 17.7763 34.2317 18.2686C34.724 18.7609 35.0005 19.4286 35.0005 20.1248V27.9998C35.0005 30.7845 33.8943 33.4553 31.9251 35.4244C29.956 37.3935 27.2853 38.4998 24.5005 38.4998H21.0005H21.3645C19.6256 38.5001 17.9138 38.0685 16.3829 37.2438C14.852 36.4191 13.5499 35.227 12.5935 33.7748L12.2505 33.2498C11.7045 32.4121 9.78768 29.0708 6.50002 23.2258C6.1648 22.6299 6.07526 21.9269 6.25043 21.266C6.42561 20.6052 6.85167 20.0388 7.43802 19.6873C8.06282 19.3134 8.79445 19.1586 9.51712 19.2474C10.2398 19.3361 10.9122 19.6634 11.428 20.1773L14.0005 22.7498M4.44727 9.78927C5.79034 8.8076 7.23334 7.97054 8.75227 7.29202M24.5005 6.05127C26.7798 6.6618 28.9539 7.61284 30.9493 8.87227" stroke="#046F36" stroke-width="2" stroke-linecap="round" stroke-linejoin="round"/>
</svg>
