<svg width="42" height="42" viewBox="0 0 42 42" fill="none" xmlns="http://www.w3.org/2000/svg">
<path d="M3.5 15.75C4.89239 15.75 6.22774 16.3031 7.21231 17.2877C8.19688 18.2723 8.75 19.6076 8.75 21C8.75 22.3924 8.19688 23.7277 7.21231 24.7123C6.22774 25.6969 4.89239 26.25 3.5 26.25V29.75C3.5 30.6783 3.86875 31.5685 4.52513 32.2249C5.1815 32.8813 6.07174 33.25 7 33.25H35C35.9283 33.25 36.8185 32.8813 37.4749 32.2249C38.1313 31.5685 38.5 30.6783 38.5 29.75V26.25C37.1076 26.25 35.7723 25.6969 34.7877 24.7123C33.8031 23.7277 33.25 22.3924 33.25 21C33.25 19.6076 33.8031 18.2723 34.7877 17.2877C35.7723 16.3031 37.1076 15.75 38.5 15.75V12.25C38.5 11.3217 38.1313 10.4315 37.4749 9.77513C36.8185 9.11875 35.9283 8.75 35 8.75H7C6.07174 8.75 5.1815 9.11875 4.52513 9.77513C3.86875 10.4315 3.5 11.3217 3.5 12.25V15.75Z" stroke="url(#paint0_linear_22_12615)" stroke-width="1.5" stroke-linecap="round" stroke-linejoin="round"/>
<path d="M15.75 21L19.25 24.5L26.25 17.5" stroke="url(#paint1_linear_22_12615)" stroke-width="1.5" stroke-linecap="round" stroke-linejoin="round"/>
<defs>
<linearGradient id="paint0_linear_22_12615" x1="3.5" y1="21" x2="38.5" y2="21" gradientUnits="userSpaceOnUse">
<stop stop-color="#CE0704"/>
<stop offset="1" stop-color="#046F36"/>
</linearGradient>
<linearGradient id="paint1_linear_22_12615" x1="15.75" y1="21" x2="26.25" y2="21" gradientUnits="userSpaceOnUse">
<stop stop-color="#CE0704"/>
<stop offset="1" stop-color="#046F36"/>
</linearGradient>
</defs>
</svg>
