<svg width="32" height="32" viewBox="0 0 32 32" fill="none" xmlns="http://www.w3.org/2000/svg">
<mask id="mask0_4001_3539" style="mask-type:alpha" maskUnits="userSpaceOnUse" x="0" y="0" width="32" height="32">
<rect width="32" height="32" fill="#D9D9D9"/>
</mask>
<g mask="url(#mask0_4001_3539)">
<path d="M2 10.5806C2 8.30492 2.90403 6.1224 4.51321 4.51321C6.1224 2.90403 8.30492 2 10.5806 2H21.4194C23.6951 2 25.8776 2.90403 27.4868 4.51321C29.096 6.1224 30 8.30492 30 10.5806V21.4194C30 23.6951 29.096 25.8776 27.4868 27.4868C25.8776 29.096 23.6951 30 21.4194 30H10.5806C8.30492 30 6.1224 29.096 4.51321 27.4868C2.90403 25.8776 2 23.6951 2 21.4194V10.5806Z" fill="url(#paint0_radial_4001_3539)" stroke="url(#paint1_linear_4001_3539)"/>
<path d="M8.35727 18.8001C7.87557 18.8001 7.4136 18.6088 7.07298 18.2682C6.73237 17.9276 6.54102 17.4656 6.54102 16.9839C6.54102 16.5022 6.73237 16.0402 7.07298 15.6996C7.4136 15.359 7.87557 15.1677 8.35727 15.1677M22.8873 18.8001C23.369 18.8001 23.831 18.6088 24.1716 18.2682C24.5122 17.9276 24.7035 17.4656 24.7035 16.9839C24.7035 16.5022 24.5122 16.0402 24.1716 15.6996C23.831 15.359 23.369 15.1677 22.8873 15.1677" stroke="white" stroke-width="1.5" stroke-linecap="round" stroke-linejoin="round"/>
<path d="M11.0811 11.0811V8.35678M20.1623 11.0811V8.35678" stroke="white" stroke-width="1.5" stroke-linejoin="round"/>
<path d="M11.081 8.35678C11.5825 8.35678 11.9891 7.9502 11.9891 7.44866C11.9891 6.94712 11.5825 6.54054 11.081 6.54054C10.5794 6.54054 10.1729 6.94712 10.1729 7.44866C10.1729 7.9502 10.5794 8.35678 11.081 8.35678Z" stroke="white" stroke-width="1.5" stroke-linejoin="round"/>
<path d="M20.163 8.35678C20.6646 8.35678 21.0711 7.9502 21.0711 7.44866C21.0711 6.94712 20.6646 6.54054 20.163 6.54054C19.6615 6.54054 19.2549 6.94712 19.2549 7.44866C19.2549 7.9502 19.6615 8.35678 20.163 8.35678Z" stroke="white" stroke-width="1.5" stroke-linejoin="round"/>
<path d="M16.9847 11.0811H14.2603C11.6921 11.0811 10.4071 11.0811 9.60977 11.9066C8.81243 12.7321 8.81152 14.0607 8.81152 16.7178C8.81152 19.375 8.81152 20.7035 9.60977 21.529C10.4071 22.3545 11.6921 22.3545 14.2603 22.3545H15.1911C15.9103 22.3545 16.1637 22.5025 16.6596 23.0419C17.2072 23.6386 18.0553 24.435 18.8227 24.6203C19.9134 24.8836 20.036 24.5195 19.7926 23.4797C19.7236 23.1836 19.5501 22.7105 19.7327 22.4344C19.8353 22.28 20.0051 22.2419 20.3456 22.1656C20.8823 22.0457 21.3255 21.8496 21.6352 21.529C22.4334 20.7026 22.4334 19.375 22.4334 16.7178C22.4334 14.0607 22.4334 12.7321 21.6352 11.9066C20.8378 11.0811 19.5528 11.0811 16.9847 11.0811Z" stroke="white" stroke-width="1.5" stroke-linejoin="round"/>
<path d="M13.3516 18.3461C13.8692 18.8973 14.6938 19.2542 15.6219 19.2542C16.55 19.2542 17.3746 18.8973 17.8922 18.3461" stroke="white" stroke-width="1.5" stroke-linecap="round" stroke-linejoin="round"/>
<path d="M12.9056 14.7136H12.8975M18.3544 14.7136H18.3462" stroke="white" stroke-width="2" stroke-linecap="round" stroke-linejoin="round"/>
</g>
<defs>
<radialGradient id="paint0_radial_4001_3539" cx="0" cy="0" r="1" gradientUnits="userSpaceOnUse" gradientTransform="translate(27.7419 3.80645) rotate(135) scale(35.1273 26.5167)">
<stop stop-color="#D30905"/>
<stop offset="0.895" stop-color="#05743A"/>
</radialGradient>
<linearGradient id="paint1_linear_4001_3539" x1="28.1935" y1="2.45161" x2="2.45161" y2="29.0968" gradientUnits="userSpaceOnUse">
<stop stop-color="#CE0704"/>
<stop offset="1" stop-color="#046F36"/>
</linearGradient>
</defs>
</svg>
