<svg width="26" height="26" viewBox="0 0 26 26" fill="none" xmlns="http://www.w3.org/2000/svg">
<path d="M5.05126 17.8719C3.51281 19.1642 3 23 3 23C3 23 6.83585 22.4872 8.12814 20.9487C8.85634 20.0872 8.84608 18.7642 8.03583 17.9642C7.63718 17.5837 7.11204 17.3638 6.56121 17.3468C6.01038 17.3297 5.47266 17.5167 5.05126 17.8719ZM12.7435 16.3334L9.66658 13.2565C10.2124 11.8406 10.8996 10.4833 11.7178 9.2053C12.9129 7.29454 14.5769 5.7213 16.5516 4.6352C18.5263 3.5491 20.7461 2.98628 22.9997 3.00025C22.9997 5.78996 22.1998 10.6925 16.846 14.2822C15.5503 15.1011 14.176 15.7882 12.7435 16.3334Z" stroke="white" stroke-width="1.5" stroke-linecap="round" stroke-linejoin="round"/>
<path d="M9.66623 13.2569H4.53809C4.53809 13.2569 5.10218 10.1493 6.58934 9.15441C8.25086 8.04673 11.7175 9.15441 11.7175 9.15441M12.7431 16.3338V21.4619C12.7431 21.4619 15.8508 20.8979 16.8456 19.4107C17.9533 17.7492 16.8456 14.2826 16.8456 14.2826" stroke="white" stroke-width="1.5" stroke-linecap="round" stroke-linejoin="round"/>
</svg>
