<svg width="26" height="26" viewBox="0 0 26 26" fill="none" xmlns="http://www.w3.org/2000/svg">
<path d="M9.88235 9.29412H9.89294M15.1765 9.29412H15.1871M18.8823 4C19.7248 4 20.5327 4.33466 21.1285 4.93037C21.7242 5.52607 22.0588 6.33402 22.0588 7.17647V15.6471C22.0588 16.4895 21.7242 17.2975 21.1285 17.8932C20.5327 18.4889 19.7248 18.8235 18.8823 18.8235H13.5882L8.29412 22V18.8235H6.17647C5.33402 18.8235 4.52607 18.4889 3.93037 17.8932C3.33466 17.2975 3 16.4895 3 15.6471V7.17647C3 6.33402 3.33466 5.52607 3.93037 4.93037C4.52607 4.33466 5.33402 4 6.17647 4H18.8823Z" stroke="white" stroke-width="1.5" stroke-linecap="round" stroke-linejoin="round"/>
<path d="M9.88379 13.5293C10.2288 13.8815 10.6407 14.1612 11.0952 14.3522C11.5497 14.5432 12.0378 14.6416 12.5308 14.6416C13.0239 14.6416 13.5119 14.5432 13.9665 14.3522C14.421 14.1612 14.8329 13.8815 15.1779 13.5293" stroke="white" stroke-width="1.5" stroke-linecap="round" stroke-linejoin="round"/>
</svg>
