<svg width="40" height="22" viewBox="0 0 40 22" fill="none" xmlns="http://www.w3.org/2000/svg">
<path opacity="0.4" d="M38.1663 7.57253C36.434 9.30486 33.6253 9.30486 31.893 7.57253C30.1607 5.84021 30.1607 3.03156 31.893 1.29924C33.6253 -0.43308 36.434 -0.433081 38.1663 1.29924C39.8986 3.03156 39.8986 5.84021 38.1663 7.57253Z" fill="#FF631A"/>
<path opacity="0.6" d="M38.1622 7.57096C36.4298 9.30328 33.6212 9.30328 31.8889 7.57096L25.6936 1.37572C23.9613 -0.356604 21.1527 -0.356603 19.4203 1.37572C17.688 3.10804 17.688 5.91669 19.4203 7.64901L25.6156 13.8442C27.3479 15.5766 30.1565 15.5766 31.8889 13.8442L38.1622 7.57096Z" fill="#FF631A"/>
<path d="M31.8892 13.8456C30.1569 15.578 27.3483 15.578 25.6159 13.8456L13.5921 1.82183C11.2824 -0.487933 7.5375 -0.487932 5.22774 1.82183L0 7.04957C1.73232 5.31725 4.54097 5.31725 6.27329 7.04957L19.3427 20.1189C21.075 21.8513 23.8836 21.8513 25.6159 20.1189L31.8892 13.8456Z" fill="#FF631A"/>
</svg>
