<svg width="1245" height="354" viewBox="0 0 1245 354" fill="none" xmlns="http://www.w3.org/2000/svg">
<path d="M4.65039 110.109C4.65039 82.1396 15.7612 55.3158 35.5385 35.5385C55.3158 15.7612 82.1396 4.65039 110.109 4.65039H243.32C271.289 4.65039 298.113 15.7612 317.89 35.5385C337.667 55.3158 348.778 82.1396 348.778 110.109V243.32C348.778 271.289 337.667 298.113 317.89 317.89C298.113 337.667 271.289 348.778 243.32 348.778H110.109C82.1396 348.778 55.3158 337.667 35.5385 317.89C15.7612 298.113 4.65039 271.289 4.65039 243.32V110.109Z" fill="url(#paint0_radial_2037_6323)" stroke="url(#paint1_linear_2037_6323)" stroke-width="9.30075"/>
<path d="M82.7773 211.131C76.8571 211.131 71.1793 208.78 66.9931 204.593C62.8069 200.407 60.4551 194.73 60.4551 188.809C60.4551 182.889 62.8069 177.211 66.9931 173.025C71.1793 168.839 76.8571 166.487 82.7773 166.487M261.355 211.131C267.276 211.131 272.953 208.78 277.14 204.593C281.326 200.407 283.678 194.73 283.678 188.809C283.678 182.889 281.326 177.211 277.14 173.025C272.953 168.839 267.276 166.487 261.355 166.487" stroke="white" stroke-width="13.9511" stroke-linecap="round" stroke-linejoin="round"/>
<path d="M116.261 116.263V82.7803M227.872 116.263V82.7803" stroke="white" stroke-width="13.9511" stroke-linejoin="round"/>
<path d="M116.261 82.7781C122.425 82.7781 127.422 77.7811 127.422 71.6171C127.422 65.453 122.425 60.4561 116.261 60.4561C110.097 60.4561 105.1 65.453 105.1 71.6171C105.1 77.7811 110.097 82.7781 116.261 82.7781Z" stroke="white" stroke-width="13.9511" stroke-linejoin="round"/>
<path d="M227.871 82.7781C234.035 82.7781 239.032 77.7811 239.032 71.6171C239.032 65.453 234.035 60.4561 227.871 60.4561C221.707 60.4561 216.71 65.453 216.71 71.6171C216.71 77.7811 221.707 82.7781 227.871 82.7781Z" stroke="white" stroke-width="13.9511" stroke-linejoin="round"/>
<path d="M188.808 116.26H155.324C123.761 116.26 107.968 116.26 98.1681 126.405C88.3686 136.55 88.3574 152.879 88.3574 185.536C88.3574 218.193 88.3574 234.522 98.1681 244.667C107.968 254.813 123.761 254.813 155.324 254.813H166.764C175.604 254.813 178.718 256.632 184.812 263.261C191.542 270.594 201.967 280.382 211.398 282.659C224.802 285.896 226.309 281.42 223.318 268.641C222.47 265.003 220.338 259.188 222.581 255.795C223.842 253.897 225.929 253.429 230.115 252.491C236.711 251.018 242.158 248.607 245.964 244.667C255.774 234.511 255.774 218.193 255.774 185.536C255.774 152.879 255.774 136.55 245.964 126.405C236.164 116.26 220.371 116.26 188.808 116.26Z" stroke="white" stroke-width="13.9511" stroke-linejoin="round"/>
<path d="M144.163 205.553C150.525 212.327 160.659 216.714 172.066 216.714C183.473 216.714 193.607 212.327 199.969 205.553" stroke="white" stroke-width="13.9511" stroke-linecap="round" stroke-linejoin="round"/>
<path d="M138.683 160.901H138.583M205.65 160.901H205.55" stroke="white" stroke-width="18.6015" stroke-linecap="round" stroke-linejoin="round"/>
<path d="M487.691 97.5603L455.548 188.931H520.43L488.584 97.5603H487.691ZM387.094 273.456L468.643 60.9525H508.227L590.074 273.456H550.192L530.252 217.205H445.429L425.488 273.456H387.094ZM620.852 272.861L562.518 119.584H599.721L639.9 234.467H640.496L679.484 119.584H714.902L655.079 281.79C644.067 309.469 636.031 334.469 600.614 334.469C592.578 334.469 584.84 333.874 577.102 332.683V304.111C582.459 305.004 587.816 306.195 593.173 306.195C608.947 306.195 612.817 297.861 616.983 284.766L620.852 272.861ZM707.626 146.371V119.584H832.628V143.394L744.532 246.67H837.093V273.456H701.674V249.646L786.794 146.371H707.626ZM980.547 205.3H867.45C867.45 229.408 880.546 250.837 908.82 250.837C928.463 250.837 940.368 242.206 946.321 225.241H978.464C971.023 258.872 942.451 277.623 908.82 277.623C860.605 277.623 833.521 243.991 833.521 196.669C833.521 152.918 862.093 115.418 907.927 115.418C956.44 115.418 986.202 159.168 980.547 205.3ZM867.45 182.978H946.618C945.428 161.549 930.844 142.204 907.927 142.204C884.415 142.204 868.343 160.061 867.45 182.978ZM985.507 273.456V119.584H1017.65V142.204L1018.25 142.799C1028.36 125.835 1045.92 115.418 1066.16 115.418C1099.5 115.418 1120.63 133.275 1120.63 167.8V273.456H1086.7V176.728C1086.1 152.621 1076.58 142.204 1056.64 142.204C1034.02 142.204 1019.44 160.061 1019.44 182.681V273.456H985.507ZM1120.1 144.882V119.584H1145.69V73.4527H1179.62V119.584H1210.28V144.882H1179.62V227.027C1179.62 241.015 1180.81 248.158 1195.99 248.158C1200.75 248.158 1205.52 248.158 1210.28 246.968V273.158C1202.84 273.754 1195.69 274.944 1188.25 274.944C1152.84 274.944 1146.29 261.253 1145.69 235.658V144.882H1120.1Z" fill="white"/>
<defs>
<radialGradient id="paint0_radial_2037_6323" cx="0" cy="0" r="1" gradientUnits="userSpaceOnUse" gradientTransform="translate(321.026 26.8522) rotate(135) scale(431.724 325.898)">
<stop stop-color="#D30905"/>
<stop offset="0.895" stop-color="#05743A"/>
</radialGradient>
<linearGradient id="paint1_linear_2037_6323" x1="326.576" y1="10.2008" x2="10.2008" y2="337.677" gradientUnits="userSpaceOnUse">
<stop stop-color="#CE0704"/>
<stop offset="1" stop-color="#046F36"/>
</linearGradient>
</defs>
</svg>
