<svg width="100" height="100" viewBox="0 0 100 100" fill="none" xmlns="http://www.w3.org/2000/svg">
<path d="M23.6849 0H23.6849C22.9582 0 22.3691 0.589099 22.3691 1.31579V98.6842C22.3691 99.4109 22.9582 100 23.6849 100C24.4116 100 25.0007 99.4109 25.0007 98.6842V1.31579C25.0007 0.589099 24.4116 0 23.6849 0Z" fill="#757575"/>
<path d="M23.6849 0H23.6849C22.9582 0 22.3691 0.589099 22.3691 1.31579V98.6842C22.3691 99.4109 22.9582 100 23.6849 100C24.4116 100 25.0007 99.4109 25.0007 98.6842V1.31579C25.0007 0.589099 24.4116 0 23.6849 0Z" fill="url(#paint0_linear_77_8314)" fill-opacity="0.3"/>
<path d="M28.9476 0H28.9476C28.2209 0 27.6318 0.589099 27.6318 1.31579V98.6842C27.6318 99.4109 28.2209 100 28.9476 100C29.6743 100 30.2634 99.4109 30.2634 98.6842V1.31579C30.2634 0.589099 29.6743 0 28.9476 0Z" fill="#757575"/>
<path d="M28.9476 0H28.9476C28.2209 0 27.6318 0.589099 27.6318 1.31579V98.6842C27.6318 99.4109 28.2209 100 28.9476 100C29.6743 100 30.2634 99.4109 30.2634 98.6842V1.31579C30.2634 0.589099 29.6743 0 28.9476 0Z" fill="url(#paint1_linear_77_8314)" fill-opacity="0.3"/>
<path d="M35.5261 1.31579C35.5261 0.589099 34.937 0 34.2103 0C33.4836 0 32.8945 0.589099 32.8945 1.31579V98.6842C32.8945 99.4109 33.4836 100 34.2103 100C34.937 100 35.5261 99.4109 35.5261 98.6842V1.31579Z" fill="#757575"/>
<path d="M35.5261 1.31579C35.5261 0.589099 34.937 0 34.2103 0C33.4836 0 32.8945 0.589099 32.8945 1.31579V98.6842C32.8945 99.4109 33.4836 100 34.2103 100C34.937 100 35.5261 99.4109 35.5261 98.6842V1.31579Z" fill="url(#paint2_linear_77_8314)" fill-opacity="0.3"/>
<path d="M39.474 0H39.474C38.7473 0 38.1582 0.589099 38.1582 1.31579V98.6842C38.1582 99.4109 38.7473 100 39.474 100C40.2007 100 40.7898 99.4109 40.7898 98.6842V1.31579C40.7898 0.589099 40.2007 0 39.474 0Z" fill="#757575"/>
<path d="M39.474 0H39.474C38.7473 0 38.1582 0.589099 38.1582 1.31579V98.6842C38.1582 99.4109 38.7473 100 39.474 100C40.2007 100 40.7898 99.4109 40.7898 98.6842V1.31579C40.7898 0.589099 40.2007 0 39.474 0Z" fill="url(#paint3_linear_77_8314)" fill-opacity="0.3"/>
<path d="M44.7386 0H44.7386C44.0119 0 43.4229 0.589099 43.4229 1.31579V98.6842C43.4229 99.4109 44.0119 100 44.7386 100C45.4653 100 46.0544 99.4109 46.0544 98.6842V1.31579C46.0544 0.589099 45.4653 0 44.7386 0Z" fill="#757575"/>
<path d="M44.7386 0H44.7386C44.0119 0 43.4229 0.589099 43.4229 1.31579V98.6842C43.4229 99.4109 44.0119 100 44.7386 100C45.4653 100 46.0544 99.4109 46.0544 98.6842V1.31579C46.0544 0.589099 45.4653 0 44.7386 0Z" fill="url(#paint4_linear_77_8314)" fill-opacity="0.3"/>
<path d="M50.0013 0H50.0013C49.2746 0 48.6855 0.589099 48.6855 1.31579V98.6842C48.6855 99.4109 49.2746 100 50.0013 100C50.728 100 51.3171 99.4109 51.3171 98.6842V1.31579C51.3171 0.589099 50.728 0 50.0013 0Z" fill="#757575"/>
<path d="M50.0013 0H50.0013C49.2746 0 48.6855 0.589099 48.6855 1.31579V98.6842C48.6855 99.4109 49.2746 100 50.0013 100C50.728 100 51.3171 99.4109 51.3171 98.6842V1.31579C51.3171 0.589099 50.728 0 50.0013 0Z" fill="url(#paint5_linear_77_8314)" fill-opacity="0.3"/>
<path d="M56.5798 1.31579C56.5798 0.589099 55.9907 0 55.264 0C54.5373 0 53.9482 0.589099 53.9482 1.31579V98.6842C53.9482 99.4109 54.5373 100 55.264 100C55.9907 100 56.5798 99.4109 56.5798 98.6842V1.31579Z" fill="#757575"/>
<path d="M56.5798 1.31579C56.5798 0.589099 55.9907 0 55.264 0C54.5373 0 53.9482 0.589099 53.9482 1.31579V98.6842C53.9482 99.4109 54.5373 100 55.264 100C55.9907 100 56.5798 99.4109 56.5798 98.6842V1.31579Z" fill="url(#paint6_linear_77_8314)" fill-opacity="0.3"/>
<path d="M61.8435 1.31579C61.8435 0.589099 61.2544 0 60.5277 0C59.801 0 59.2119 0.589099 59.2119 1.31579V98.6842C59.2119 99.4109 59.801 100 60.5277 100C61.2544 100 61.8435 99.4109 61.8435 98.6842V1.31579Z" fill="#757575"/>
<path d="M61.8435 1.31579C61.8435 0.589099 61.2544 0 60.5277 0C59.801 0 59.2119 0.589099 59.2119 1.31579V98.6842C59.2119 99.4109 59.801 100 60.5277 100C61.2544 100 61.8435 99.4109 61.8435 98.6842V1.31579Z" fill="url(#paint7_linear_77_8314)" fill-opacity="0.3"/>
<path d="M65.7904 0H65.7904C65.0637 0 64.4746 0.589099 64.4746 1.31579V98.6842C64.4746 99.4109 65.0637 100 65.7904 100C66.5171 100 67.1062 99.4109 67.1062 98.6842V1.31579C67.1062 0.589099 66.5171 0 65.7904 0Z" fill="#757575"/>
<path d="M65.7904 0H65.7904C65.0637 0 64.4746 0.589099 64.4746 1.31579V98.6842C64.4746 99.4109 65.0637 100 65.7904 100C66.5171 100 67.1062 99.4109 67.1062 98.6842V1.31579C67.1062 0.589099 66.5171 0 65.7904 0Z" fill="url(#paint8_linear_77_8314)" fill-opacity="0.3"/>
<path d="M71.0531 0H71.0531C70.3264 0 69.7373 0.589099 69.7373 1.31579V98.6842C69.7373 99.4109 70.3264 100 71.0531 100C71.7798 100 72.3689 99.4109 72.3689 98.6842V1.31579C72.3689 0.589099 71.7798 0 71.0531 0Z" fill="#757575"/>
<path d="M71.0531 0H71.0531C70.3264 0 69.7373 0.589099 69.7373 1.31579V98.6842C69.7373 99.4109 70.3264 100 71.0531 100C71.7798 100 72.3689 99.4109 72.3689 98.6842V1.31579C72.3689 0.589099 71.7798 0 71.0531 0Z" fill="url(#paint9_linear_77_8314)" fill-opacity="0.3"/>
<path d="M76.3168 0H76.3168C75.5901 0 75.001 0.589099 75.001 1.31579V98.6842C75.001 99.4109 75.5901 100 76.3168 100C77.0435 100 77.6326 99.4109 77.6326 98.6842V1.31579C77.6326 0.589099 77.0435 0 76.3168 0Z" fill="#757575"/>
<path d="M76.3168 0H76.3168C75.5901 0 75.001 0.589099 75.001 1.31579V98.6842C75.001 99.4109 75.5901 100 76.3168 100C77.0435 100 77.6326 99.4109 77.6326 98.6842V1.31579C77.6326 0.589099 77.0435 0 76.3168 0Z" fill="url(#paint10_linear_77_8314)" fill-opacity="0.3"/>
<path d="M98.6842 25.0017C99.4109 25.0017 100 24.4126 100 23.6859C100 22.9592 99.4109 22.3701 98.6842 22.3701L1.31579 22.3701C0.589104 22.3701 0 22.9592 0 23.6859C0 24.4126 0.589104 25.0017 1.31579 25.0017L98.6842 25.0017Z" fill="#757575"/>
<path d="M98.6842 30.2644C99.4109 30.2644 100 29.6753 100 28.9486C100 28.2219 99.4109 27.6328 98.6842 27.6328L1.31578 27.6328C0.589096 27.6328 7.62939e-06 28.2219 7.62939e-06 28.9486C7.62939e-06 29.6753 0.589096 30.2644 1.31578 30.2644L98.6842 30.2644Z" fill="#757575"/>
<path d="M98.6842 35.5281C99.4109 35.5281 100 34.939 100 34.2123C100 33.4856 99.4109 32.8965 98.6842 32.8965L1.31579 32.8965C0.589104 32.8965 0 33.4856 0 34.2123C0 34.939 0.589104 35.5281 1.31579 35.5281L98.6842 35.5281Z" fill="#757575"/>
<path d="M98.6842 40.7917C99.4109 40.7917 100 40.2026 100 39.4759C100 38.7493 99.4109 38.1602 98.6842 38.1602L1.31579 38.1602C0.589104 38.1602 0 38.7493 0 39.4759C0 40.2026 0.589104 40.7917 1.31579 40.7917L98.6842 40.7917Z" fill="#757575"/>
<path d="M98.6842 46.0535C99.4109 46.0535 100 45.4644 100 44.7377C100 44.011 99.4109 43.4219 98.6842 43.4219L1.31578 43.4219C0.589096 43.4219 7.62939e-06 44.011 7.62939e-06 44.7377C7.62939e-06 45.4644 0.589096 46.0535 1.31578 46.0535L98.6842 46.0535Z" fill="#757575"/>
<path d="M98.6842 51.3171C99.4109 51.3171 100 50.728 100 50.0013C100 49.2746 99.4109 48.6855 98.6842 48.6855L1.31579 48.6855C0.589104 48.6855 0 49.2746 0 50.0013C0 50.728 0.589104 51.3171 1.31579 51.3171L98.6842 51.3171Z" fill="#757575"/>
<path d="M98.6842 56.5798C99.4109 56.5798 100 55.9907 100 55.264C100 54.5373 99.4109 53.9482 98.6842 53.9482L1.31579 53.9482C0.589104 53.9482 0 54.5373 0 55.264C0 55.9907 0.589104 56.5798 1.31579 56.5798L98.6842 56.5798Z" fill="#757575"/>
<path d="M98.6842 61.8435C99.4109 61.8435 100 61.2544 100 60.5277C100 59.801 99.4109 59.2119 98.6842 59.2119L1.31578 59.2119C0.589096 59.2119 7.62939e-06 59.801 7.62939e-06 60.5277C7.62939e-06 61.2544 0.589096 61.8435 1.31578 61.8435L98.6842 61.8435Z" fill="#757575"/>
<path d="M98.6842 67.1072C99.4109 67.1072 100 66.5181 100 65.7914C100 65.0647 99.4109 64.4756 98.6842 64.4756H1.31579C0.589104 64.4756 0 65.0647 0 65.7914C0 66.5181 0.589104 67.1072 1.31579 67.1072H98.6842Z" fill="#757575"/>
<path d="M98.6842 72.3699C99.4109 72.3699 100 71.7808 100 71.0541C100 70.3274 99.4109 69.7383 98.6842 69.7383H1.3158C0.589111 69.7383 7.62939e-06 70.3274 7.62939e-06 71.0541C7.62939e-06 71.7808 0.589111 72.3699 1.3158 72.3699H98.6842Z" fill="#757575"/>
<path d="M98.6842 77.6326C99.4109 77.6326 100 77.0435 100 76.3168C100 75.5901 99.4109 75.001 98.6842 75.001H1.31579C0.589104 75.001 0 75.5901 0 76.3168C0 77.0435 0.589104 77.6326 1.31579 77.6326H98.6842Z" fill="#757575"/>
<g filter="url(#filter0_d_77_8314)">
<path d="M87.7932 7.93359H11.9567C9.64419 7.93359 7.76953 9.80825 7.76953 12.1208V87.9572C7.76953 90.2697 9.64419 92.1444 11.9567 92.1444H87.7932C90.1057 92.1444 91.9803 90.2697 91.9803 87.9572V12.1208C91.9803 9.80825 90.1057 7.93359 87.7932 7.93359Z" fill="#757575"/>
<path d="M87.7926 8.2832H11.9564C9.8366 8.2832 8.11816 10.0016 8.11816 12.1214V87.9576C8.11816 90.0774 9.8366 91.7959 11.9564 91.7959H87.7926C89.9124 91.7959 91.6308 90.0774 91.6308 87.9576V12.1214C91.6308 10.0016 89.9124 8.2832 87.7926 8.2832Z" stroke="url(#paint11_linear_77_8314)" stroke-opacity="0.6" stroke-width="0.697861"/>
<path style="mix-blend-mode:screen" d="M87.7926 8.2832H11.9564C9.8366 8.2832 8.11816 10.0016 8.11816 12.1214V87.9576C8.11816 90.0774 9.8366 91.7959 11.9564 91.7959H87.7926C89.9124 91.7959 91.6308 90.0774 91.6308 87.9576V12.1214C91.6308 10.0016 89.9124 8.2832 87.7926 8.2832Z" stroke="url(#paint12_linear_77_8314)" stroke-opacity="0.35" stroke-width="0.697861"/>
</g>
<path d="M34 57.0003C32.9392 57.0003 31.9217 56.5788 31.1716 55.8287C30.4214 55.0785 30 54.061 30 53.0001C30 51.9392 30.4214 50.9218 31.1716 50.1716C31.9217 49.4214 32.9392 49 34 49M66.0004 57.0003C67.0612 57.0003 68.0787 56.5788 68.8288 55.8287C69.579 55.0785 70.0004 54.061 70.0004 53.0001C70.0004 51.9392 69.579 50.9218 68.8288 50.1716C68.0787 49.4214 67.0612 49 66.0004 49" stroke="white" stroke-width="1.5" stroke-linecap="round" stroke-linejoin="round"/>
<path d="M40 40.0002V34M60.0002 40.0002V34" stroke="white" stroke-width="1.5" stroke-linejoin="round"/>
<path d="M40 34.0001C41.1046 34.0001 42 33.1047 42 32.0001C42 30.8955 41.1046 30 40 30C38.8954 30 38 30.8955 38 32.0001C38 33.1047 38.8954 34.0001 40 34.0001Z" stroke="white" stroke-width="1.5" stroke-linejoin="round"/>
<path d="M60 34.0001C61.1046 34.0001 62 33.1047 62 32.0001C62 30.8955 61.1046 30 60 30C58.8954 30 58 30.8955 58 32.0001C58 33.1047 58.8954 34.0001 60 34.0001Z" stroke="white" stroke-width="1.5" stroke-linejoin="round"/>
<path d="M53.0002 39.999H47.0001C41.3441 39.999 38.514 39.999 36.758 41.8171C35.002 43.6351 35 46.5612 35 52.4134C35 58.2656 35 61.1917 36.758 63.0098C38.514 64.8279 41.3441 64.8279 47.0001 64.8279H49.0501C50.6342 64.8279 51.1922 65.1539 52.2842 66.3419C53.4902 67.656 55.3582 69.41 57.0482 69.818C59.4502 70.3981 59.7202 69.596 59.1842 67.3059C59.0322 66.6539 58.6502 65.6119 59.0522 65.0039C59.2782 64.6639 59.6523 64.5799 60.4023 64.4118C61.5843 64.1478 62.5603 63.7158 63.2423 63.0098C65.0003 61.1897 65.0003 58.2656 65.0003 52.4134C65.0003 46.5612 65.0003 43.6351 63.2423 41.8171C61.4863 39.999 58.6562 39.999 53.0002 39.999Z" stroke="white" stroke-width="1.5" stroke-linejoin="round"/>
<path d="M45 56.002C46.14 57.216 47.956 58.002 50.0001 58.002C52.0441 58.002 53.8601 57.216 55.0001 56.002" stroke="white" stroke-width="1.5" stroke-linecap="round" stroke-linejoin="round"/>
<path d="M44.018 47.999H44M56.0181 47.999H56.0001" stroke="white" stroke-width="2" stroke-linecap="round" stroke-linejoin="round"/>
<defs>
<filter id="filter0_d_77_8314" x="3.58237" y="5.84001" width="92.5853" height="92.5853" filterUnits="userSpaceOnUse" color-interpolation-filters="sRGB">
<feFlood flood-opacity="0" result="BackgroundImageFix"/>
<feColorMatrix in="SourceAlpha" type="matrix" values="0 0 0 0 0 0 0 0 0 0 0 0 0 0 0 0 0 0 127 0" result="hardAlpha"/>
<feOffset dy="2.09358"/>
<feGaussianBlur stdDeviation="2.09358"/>
<feColorMatrix type="matrix" values="0 0 0 0 0 0 0 0 0 0 0 0 0 0 0 0 0 0 0.8 0"/>
<feBlend mode="normal" in2="BackgroundImageFix" result="effect1_dropShadow_77_8314"/>
<feBlend mode="normal" in="SourceGraphic" in2="effect1_dropShadow_77_8314" result="shape"/>
</filter>
<linearGradient id="paint0_linear_77_8314" x1="23.6851" y1="0" x2="23.6851" y2="100" gradientUnits="userSpaceOnUse">
<stop stop-color="#FCB961"/>
<stop offset="0.0625" stop-color="#FCB961" stop-opacity="0"/>
</linearGradient>
<linearGradient id="paint1_linear_77_8314" x1="28.9473" y1="0" x2="28.9473" y2="100" gradientUnits="userSpaceOnUse">
<stop stop-color="#FCB961"/>
<stop offset="0.0625" stop-color="#FCB961" stop-opacity="0"/>
</linearGradient>
<linearGradient id="paint2_linear_77_8314" x1="34.2105" y1="0" x2="34.2105" y2="100" gradientUnits="userSpaceOnUse">
<stop stop-color="#FCB961"/>
<stop offset="0.0625" stop-color="#FCB961" stop-opacity="0"/>
</linearGradient>
<linearGradient id="paint3_linear_77_8314" x1="39.4741" y1="0" x2="39.4741" y2="100" gradientUnits="userSpaceOnUse">
<stop stop-color="#FCB961"/>
<stop offset="0.0625" stop-color="#FCB961" stop-opacity="0"/>
</linearGradient>
<linearGradient id="paint4_linear_77_8314" x1="44.7388" y1="0" x2="44.7388" y2="100" gradientUnits="userSpaceOnUse">
<stop stop-color="#FCB961"/>
<stop offset="0.0625" stop-color="#FCB961" stop-opacity="0"/>
</linearGradient>
<linearGradient id="paint5_linear_77_8314" x1="50.001" y1="0" x2="50.001" y2="100" gradientUnits="userSpaceOnUse">
<stop stop-color="#FCB961"/>
<stop offset="0.0625" stop-color="#FCB961" stop-opacity="0"/>
</linearGradient>
<linearGradient id="paint6_linear_77_8314" x1="55.2642" y1="0" x2="55.2642" y2="100" gradientUnits="userSpaceOnUse">
<stop stop-color="#FCB961"/>
<stop offset="0.0625" stop-color="#FCB961" stop-opacity="0"/>
</linearGradient>
<linearGradient id="paint7_linear_77_8314" x1="60.5278" y1="0" x2="60.5278" y2="100" gradientUnits="userSpaceOnUse">
<stop stop-color="#FCB961"/>
<stop offset="0.0625" stop-color="#FCB961" stop-opacity="0"/>
</linearGradient>
<linearGradient id="paint8_linear_77_8314" x1="65.7905" y1="0" x2="65.7905" y2="100" gradientUnits="userSpaceOnUse">
<stop stop-color="#FCB961"/>
<stop offset="0.0625" stop-color="#FCB961" stop-opacity="0"/>
</linearGradient>
<linearGradient id="paint9_linear_77_8314" x1="71.0527" y1="0" x2="71.0527" y2="100" gradientUnits="userSpaceOnUse">
<stop stop-color="#FCB961"/>
<stop offset="0.0625" stop-color="#FCB961" stop-opacity="0"/>
</linearGradient>
<linearGradient id="paint10_linear_77_8314" x1="76.3164" y1="0" x2="76.3164" y2="100" gradientUnits="userSpaceOnUse">
<stop stop-color="#FCB961"/>
<stop offset="0.0625" stop-color="#FCB961" stop-opacity="0"/>
</linearGradient>
<linearGradient id="paint11_linear_77_8314" x1="49.8745" y1="7.93429" x2="49.8745" y2="92.1447" gradientUnits="userSpaceOnUse">
<stop stop-color="#2C333A"/>
<stop offset="1" stop-color="#262C32" stop-opacity="0"/>
</linearGradient>
<linearGradient id="paint12_linear_77_8314" x1="49.8745" y1="7.93429" x2="49.8745" y2="26.3554" gradientUnits="userSpaceOnUse">
<stop stop-color="#FCB961"/>
<stop offset="1" stop-color="#FCB961" stop-opacity="0"/>
</linearGradient>
</defs>
</svg>
