<svg width="33" height="34" viewBox="0 0 33 34" fill="none" xmlns="http://www.w3.org/2000/svg">
<path d="M10.1857 1.26867C12.1876 0.431143 14.3332 0 16.5 0V8.33333C15.4166 8.33333 14.3438 8.54886 13.3428 8.96771C12.3419 9.38648 11.4324 10.0003 10.6664 10.7741C9.90028 11.5479 9.29261 12.4666 8.87804 13.4776C8.46337 14.4887 8.25 15.5723 8.25 16.6667H0C0 14.478 0.426831 12.3107 1.25598 10.2886C2.08522 8.26648 3.30057 6.42924 4.83271 4.88152C6.36495 3.3339 8.18381 2.10629 10.1857 1.26867Z" fill="url(#paint0_linear_77_8520)"/>
<path d="M0 16.667C0 18.8557 0.426831 21.023 1.25598 23.0451C2.08522 25.0672 3.30057 26.9044 4.83271 28.4521C6.36495 29.9998 8.18381 31.2274 10.1857 32.065C12.1876 32.9025 14.3332 33.3337 16.5 33.3337C18.6668 33.3337 20.8124 32.9025 22.8143 32.065C24.8162 31.2274 26.6351 29.9998 28.1673 28.4521C29.6994 26.9044 30.9148 25.0672 31.744 23.0451C32.5732 21.023 33 18.8557 33 16.667H24.75C24.75 17.7614 24.5366 18.845 24.122 19.856C23.7074 20.8671 23.0997 21.7858 22.3336 22.5596C21.5676 23.3334 20.6581 23.9472 19.6572 24.3659C18.6562 24.7848 17.5834 25.0003 16.5 25.0003C15.4166 25.0003 14.3438 24.7848 13.3428 24.3659C12.3419 23.9472 11.4324 23.3334 10.6664 22.5596C9.90028 21.7858 9.29261 20.8671 8.87804 19.856C8.46337 18.845 8.25 17.7614 8.25 16.667H0Z" fill="url(#paint1_linear_77_8520)"/>
<path d="M16.5 11.3643C13.6005 11.3643 11.25 13.7385 11.25 16.6673H21.75C21.75 13.7385 19.3995 11.3643 16.5 11.3643Z" fill="url(#paint2_linear_77_8520)"/>
<path d="M16.5 21.9697C13.6005 21.9697 11.25 19.5955 11.25 16.6667H21.75C21.75 19.5955 19.3995 21.9697 16.5 21.9697Z" fill="url(#paint3_linear_77_8520)"/>
<defs>
<linearGradient id="paint0_linear_77_8520" x1="8.25" y1="0" x2="8.25" y2="16.6667" gradientUnits="userSpaceOnUse">
<stop stop-color="white" stop-opacity="0.8"/>
<stop offset="1" stop-color="#505050"/>
</linearGradient>
<linearGradient id="paint1_linear_77_8520" x1="16.5" y1="16.667" x2="16.5" y2="33.3337" gradientUnits="userSpaceOnUse">
<stop stop-color="white" stop-opacity="0.8"/>
<stop offset="1" stop-color="#505050"/>
</linearGradient>
<linearGradient id="paint2_linear_77_8520" x1="16.5" y1="11.3643" x2="16.5" y2="16.6673" gradientUnits="userSpaceOnUse">
<stop stop-color="white" stop-opacity="0.8"/>
<stop offset="1" stop-color="#505050"/>
</linearGradient>
<linearGradient id="paint3_linear_77_8520" x1="16.5" y1="21.9697" x2="16.5" y2="16.6667" gradientUnits="userSpaceOnUse">
<stop stop-color="white" stop-opacity="0.8"/>
<stop offset="1" stop-color="#505050"/>
</linearGradient>
</defs>
</svg>
