<svg width="39" height="40" viewBox="0 0 39 40" fill="none" xmlns="http://www.w3.org/2000/svg">
<path d="M26.0763 11.4592C33.094 11.5077 38.8729 17.3782 38.7759 24.3635C38.6844 31.3219 32.927 37.0146 25.974 37.0308C18.9941 37.0469 13.1667 31.1711 13.2151 24.175C13.2636 17.1089 19.0264 11.4161 26.0763 11.4592ZM35.7168 24.2558C35.7276 18.8269 31.3328 14.4214 25.9309 14.4429C20.6313 14.4645 16.2689 18.8431 16.215 24.1965C16.1558 29.48 20.5829 33.9555 25.8717 33.9717C31.3598 33.9932 35.7061 29.7062 35.7168 24.2558Z" fill="url(#paint0_linear_77_8480)"/>
<path d="M17.9107 39.0881C10.64 37.5208 5.03339 30.1423 4.80718 22.3599C4.57021 14.2974 10.0637 6.84892 17.8676 4.64076C25.0145 2.62111 33.7287 5.54018 36.7878 11.0875C28.636 3.50089 15.7495 4.58229 9.72976 14.249C5.23266 21.4712 6.36905 33.3361 17.9107 39.0881Z" fill="url(#paint1_linear_77_8480)"/>
<path d="M14.9463 40C6.65771 38.2133 0.266281 29.802 0.0084134 20.9301C-0.261734 11.7389 6.00076 3.24774 14.8972 0.730464C23.0446 -1.57192 32.9786 1.75579 36.466 8.07969C27.173 -0.568976 12.4825 0.663799 5.6201 11.6837C0.49345 19.917 1.78893 33.4428 14.9463 40Z" fill="url(#paint2_linear_77_8480)"/>
<path d="M36.4918 13.9156C28.3701 6.70942 18.5303 9.73621 14.3348 15.5798C11.6097 19.3821 10.8179 23.5668 11.9974 28.0532C13.1608 32.4641 16.0475 35.534 20.4908 37.7421C14.4587 36.6865 9.60077 30.7083 9.03526 24.1646C8.45899 17.4378 12.8322 10.8187 19.3598 8.54596C25.6449 6.35396 33.0126 8.63213 36.4918 13.9156Z" fill="url(#paint3_linear_77_8480)"/>
<path d="M25.9952 29.1193C28.6871 29.1193 30.8693 26.9371 30.8693 24.2452C30.8693 21.5533 28.6871 19.3711 25.9952 19.3711C23.3033 19.3711 21.1211 21.5533 21.1211 24.2452C21.1211 26.9371 23.3033 29.1193 25.9952 29.1193Z" fill="url(#paint4_linear_77_8480)"/>
<defs>
<linearGradient id="paint0_linear_77_8480" x1="25.996" y1="11.459" x2="25.996" y2="37.0308" gradientUnits="userSpaceOnUse">
<stop stop-color="white" stop-opacity="0.8"/>
<stop offset="1" stop-color="#505050"/>
</linearGradient>
<linearGradient id="paint1_linear_77_8480" x1="20.7938" y1="4" x2="20.7938" y2="39.0881" gradientUnits="userSpaceOnUse">
<stop stop-color="white" stop-opacity="0.8"/>
<stop offset="1" stop-color="#505050"/>
</linearGradient>
<linearGradient id="paint2_linear_77_8480" x1="18.233" y1="0" x2="18.233" y2="40" gradientUnits="userSpaceOnUse">
<stop stop-color="white" stop-opacity="0.8"/>
<stop offset="1" stop-color="#505050"/>
</linearGradient>
<linearGradient id="paint3_linear_77_8480" x1="22.7381" y1="7.7168" x2="22.7381" y2="37.7421" gradientUnits="userSpaceOnUse">
<stop stop-color="white" stop-opacity="0.8"/>
<stop offset="1" stop-color="#505050"/>
</linearGradient>
<linearGradient id="paint4_linear_77_8480" x1="25.9952" y1="19.3711" x2="25.9952" y2="29.1193" gradientUnits="userSpaceOnUse">
<stop stop-color="white" stop-opacity="0.8"/>
<stop offset="1" stop-color="#505050"/>
</linearGradient>
</defs>
</svg>
