<svg width="32" height="32" viewBox="0 0 32 32" fill="none" xmlns="http://www.w3.org/2000/svg">
<path d="M9.87703 1.21792C11.8182 0.413897 13.8989 0 16 0V8C14.9494 8 13.9091 8.2069 12.9385 8.60901C11.9679 9.01102 11.086 9.60028 10.3431 10.3431C9.60028 11.086 9.01102 11.9679 8.60901 12.9385C8.2069 13.9091 8 14.9494 8 16H0C0 13.8989 0.413897 11.8182 1.21792 9.87703C2.02203 7.93582 3.20055 6.17207 4.68626 4.68626C6.17207 3.20055 7.93582 2.02203 9.87703 1.21792Z" fill="#155EEF"/>
<path d="M0 16C0 18.1011 0.413897 20.1818 1.21792 22.123C2.02203 24.0642 3.20055 25.8279 4.68626 27.3137C6.17207 28.7995 7.93582 29.978 9.87703 30.7821C11.8182 31.5861 13.8989 32 16 32C18.1011 32 20.1818 31.5861 22.123 30.7821C24.0642 29.978 25.8279 28.7995 27.3137 27.3137C28.7995 25.8279 29.978 24.0642 30.7821 22.123C31.5861 20.1818 32 18.1011 32 16H24C24 17.0506 23.7931 18.0909 23.391 19.0615C22.989 20.0321 22.3997 20.914 21.6569 21.6569C20.914 22.3997 20.0321 22.989 19.0615 23.391C18.0909 23.7931 17.0506 24 16 24C14.9494 24 13.9091 23.7931 12.9385 23.391C11.9679 22.989 11.086 22.3997 10.3431 21.6569C9.60027 20.914 9.01102 20.0321 8.60901 19.0615C8.2069 18.0909 8 17.0506 8 16H0Z" fill="#84ADFF"/>
<path d="M16.0011 10.9094C13.1894 10.9094 10.9102 13.1886 10.9102 16.0003H21.092C21.092 13.1886 18.8127 10.9094 16.0011 10.9094Z" fill="#84ADFF"/>
<path d="M16.0011 21.0906C13.1894 21.0906 10.9102 18.8114 10.9102 15.9997H21.092C21.092 18.8114 18.8127 21.0906 16.0011 21.0906Z" fill="#155EEF"/>
</svg>
