<svg width="64" height="64" viewBox="0 0 64 64" fill="none" xmlns="http://www.w3.org/2000/svg">
<path d="M8.00006 42.5011C6.40875 42.5011 4.88261 41.8689 3.75738 40.7437C2.63215 39.6185 2 38.0924 2 36.501C2 34.9097 2.63215 33.3836 3.75738 32.2584C4.88261 31.1331 6.40875 30.501 8.00006 30.501M56.0005 42.5011C57.5919 42.5011 59.118 41.8689 60.2432 40.7437C61.3685 39.6185 62.0006 38.0924 62.0006 36.501C62.0006 34.9097 61.3685 33.3836 60.2432 32.2584C59.118 31.1331 57.5919 30.501 56.0005 30.501" stroke="white" stroke-width="4" stroke-linecap="round" stroke-linejoin="round"/>
<path d="M17 17.0011V8.00098M47.0003 17.0011V8.00098" stroke="white" stroke-width="4" stroke-linejoin="round"/>
<path d="M17 8.00006C18.6569 8.00006 20.0001 6.6569 20.0001 5.00003C20.0001 3.34316 18.6569 2 17 2C15.3432 2 14 3.34316 14 5.00003C14 6.6569 15.3432 8.00006 17 8.00006Z" stroke="white" stroke-width="4" stroke-linejoin="round"/>
<path d="M47 8.00006C48.6569 8.00006 50.0001 6.6569 50.0001 5.00003C50.0001 3.34316 48.6569 2 47 2C45.3432 2 44 3.34316 44 5.00003C44 6.6569 45.3432 8.00006 47 8.00006Z" stroke="white" stroke-width="4" stroke-linejoin="round"/>
<path d="M36.5003 17H27.5002C19.0161 17 14.7711 17 12.137 19.727C9.503 22.4541 9.5 26.8431 9.5 35.6212C9.5 44.3993 9.5 48.7883 12.137 51.5153C14.7711 54.2424 19.0161 54.2424 27.5002 54.2424H30.5752C32.9512 54.2424 33.7882 54.7314 35.4263 56.5134C37.2353 58.4844 40.0373 61.1154 42.5723 61.7274C46.1754 62.5975 46.5804 61.3944 45.7764 57.9594C45.5484 56.9814 44.9754 55.4184 45.5784 54.5064C45.9174 53.9964 46.4784 53.8704 47.6034 53.6184C49.3764 53.2224 50.8404 52.5744 51.8634 51.5153C54.5005 48.7853 54.5005 44.3993 54.5005 35.6212C54.5005 26.8431 54.5005 22.4541 51.8634 19.727C49.2294 17 44.9844 17 36.5003 17Z" stroke="white" stroke-width="4" stroke-linejoin="round"/>
<path d="M24.5 41.0015C26.21 42.8225 28.934 44.0015 32.0001 44.0015C35.0661 44.0015 37.7901 42.8225 39.5002 41.0015" stroke="white" stroke-width="4" stroke-linecap="round" stroke-linejoin="round"/>
<path d="M23.027 28.9995H23M41.0272 28.9995H41.0002" stroke="white" stroke-width="4" stroke-linecap="round" stroke-linejoin="round"/>
</svg>
