<svg width="33" height="34" viewBox="0 0 33 34" fill="none" xmlns="http://www.w3.org/2000/svg">
<path d="M0 4.16667C0 1.86548 1.84683 0 4.125 0H12.375C14.6532 0 16.5 1.86548 16.5 4.16667V12.3493C16.5002 12.3993 16.5003 12.4496 16.5003 12.5C16.5003 14.7979 18.3418 16.6613 20.6154 16.6667C20.6186 16.6667 20.6218 16.6667 20.625 16.6667H28.875C31.1532 16.6667 33 18.5321 33 20.8333V29.1667C33 31.4679 31.1532 33.3333 28.875 33.3333H20.625C18.3468 33.3333 16.5 31.4679 16.5 29.1667V20.8333C16.5 20.8218 16.5 20.8102 16.5001 20.7987C16.4817 18.5135 14.642 16.6667 12.3753 16.6667C12.3646 16.6667 12.354 16.6667 12.3433 16.6667H4.125C1.84683 16.6667 0 14.8012 0 12.5V4.16667Z" fill="white"/>
</svg>
