<svg width="40" height="22" viewBox="0 0 40 22" fill="none" xmlns="http://www.w3.org/2000/svg">
<path opacity="0.4" d="M38.1663 7.57253C36.434 9.30486 33.6253 9.30486 31.893 7.57253C30.1607 5.84021 30.1607 3.03156 31.893 1.29924C33.6253 -0.43308 36.434 -0.433081 38.1663 1.29924C39.8986 3.03156 39.8986 5.84021 38.1663 7.57253Z" fill="white"/>
<path opacity="0.6" d="M38.1622 7.57102C36.4298 9.30334 33.6212 9.30334 31.8889 7.57102L25.6936 1.37578C23.9613 -0.356543 21.1527 -0.356542 19.4203 1.37578C17.688 3.1081 17.688 5.91675 19.4203 7.64907L25.6156 13.8443C27.3479 15.5766 30.1565 15.5766 31.8889 13.8443L38.1622 7.57102Z" fill="white"/>
<path d="M31.8892 13.8457C30.1569 15.578 27.3483 15.578 25.6159 13.8457L13.5921 1.82186C11.2824 -0.487902 7.5375 -0.487902 5.22774 1.82186L0 7.04961C1.73232 5.31728 4.54097 5.31728 6.27329 7.0496L19.3427 20.119C21.075 21.8513 23.8836 21.8513 25.6159 20.119L31.8892 13.8457Z" fill="white"/>
</svg>
