<svg width="23" height="12" viewBox="0 0 23 12" fill="none" xmlns="http://www.w3.org/2000/svg">
<path d="M15.375 7.125L19.5 3M10.125 4.125L13.125 7.125M3 9L7.875 4.125" stroke="url(#paint0_linear_4002_4029)" stroke-width="1.5" stroke-linecap="round" stroke-linejoin="round"/>
<path d="M20.625 3C21.2463 3 21.75 2.49632 21.75 1.875C21.75 1.25368 21.2463 0.75 20.625 0.75C20.0037 0.75 19.5 1.25368 19.5 1.875C19.5 2.49632 20.0037 3 20.625 3Z" stroke="url(#paint1_linear_4002_4029)" stroke-width="1.5" stroke-linecap="round" stroke-linejoin="round"/>
<path d="M14.25 9.375C14.8713 9.375 15.375 8.87132 15.375 8.25C15.375 7.62868 14.8713 7.125 14.25 7.125C13.6287 7.125 13.125 7.62868 13.125 8.25C13.125 8.87132 13.6287 9.375 14.25 9.375Z" stroke="url(#paint2_linear_4002_4029)" stroke-width="1.5" stroke-linecap="round" stroke-linejoin="round"/>
<path d="M9 4.125C9.62132 4.125 10.125 3.62132 10.125 3C10.125 2.37868 9.62132 1.875 9 1.875C8.37868 1.875 7.875 2.37868 7.875 3C7.875 3.62132 8.37868 4.125 9 4.125Z" stroke="url(#paint3_linear_4002_4029)" stroke-width="1.5" stroke-linecap="round" stroke-linejoin="round"/>
<path d="M1.875 11.25C2.49632 11.25 3 10.7463 3 10.125C3 9.50368 2.49632 9 1.875 9C1.25368 9 0.75 9.50368 0.75 10.125C0.75 10.7463 1.25368 11.25 1.875 11.25Z" stroke="url(#paint4_linear_4002_4029)" stroke-width="1.5" stroke-linecap="round" stroke-linejoin="round"/>
<defs>
<linearGradient id="paint0_linear_4002_4029" x1="3" y1="6" x2="19.5" y2="6" gradientUnits="userSpaceOnUse">
<stop stop-color="#CE0704"/>
<stop offset="1" stop-color="#046F36"/>
</linearGradient>
<linearGradient id="paint1_linear_4002_4029" x1="19.5" y1="1.875" x2="21.75" y2="1.875" gradientUnits="userSpaceOnUse">
<stop stop-color="#CE0704"/>
<stop offset="1" stop-color="#046F36"/>
</linearGradient>
<linearGradient id="paint2_linear_4002_4029" x1="13.125" y1="8.25" x2="15.375" y2="8.25" gradientUnits="userSpaceOnUse">
<stop stop-color="#CE0704"/>
<stop offset="1" stop-color="#046F36"/>
</linearGradient>
<linearGradient id="paint3_linear_4002_4029" x1="7.875" y1="3" x2="10.125" y2="3" gradientUnits="userSpaceOnUse">
<stop stop-color="#CE0704"/>
<stop offset="1" stop-color="#046F36"/>
</linearGradient>
<linearGradient id="paint4_linear_4002_4029" x1="0.75" y1="10.125" x2="3" y2="10.125" gradientUnits="userSpaceOnUse">
<stop stop-color="#CE0704"/>
<stop offset="1" stop-color="#046F36"/>
</linearGradient>
</defs>
</svg>
