<svg width="24" height="24" viewBox="0 0 24 24" fill="none" xmlns="http://www.w3.org/2000/svg">
<g clip-path="url(#clip0_71_7640)">
<path d="M10.4492 10.4486C10.0361 10.8595 9.80293 11.4175 9.80078 12.0002C9.80078 12.5837 10.0326 13.1432 10.4451 13.5558C10.8577 13.9684 11.4173 14.2002 12.0008 14.2002C12.5834 14.198 13.1414 13.9648 13.5524 13.5518" stroke="url(#paint0_linear_71_7640)" stroke-width="1.5" stroke-linecap="round" stroke-linejoin="round"/>
<path d="M11.9984 5.39978C10.6931 5.39978 9.41704 5.78686 8.33168 6.51208C7.24631 7.2373 6.40037 8.26808 5.90084 9.47407C5.4013 10.6801 5.2706 12.0071 5.52526 13.2874C5.77992 14.5676 6.40851 15.7437 7.33154 16.6667C8.25456 17.5897 9.43057 18.2183 10.7108 18.473C11.9911 18.7276 13.3182 18.5969 14.5241 18.0974C15.7301 17.5978 16.7609 16.7519 17.4861 15.6665C18.2114 14.5812 18.5984 13.3051 18.5984 11.9998" stroke="url(#paint1_linear_71_7640)" stroke-width="1.5" stroke-linecap="round" stroke-linejoin="round"/>
<path d="M12 1C9.82441 1 7.69767 1.64514 5.88873 2.85383C4.07979 4.06253 2.66989 5.78049 1.83733 7.79048C1.00477 9.80047 0.78693 12.0122 1.21137 14.146C1.6358 16.2798 2.68345 18.2398 4.22183 19.7782C5.76021 21.3165 7.72022 22.3642 9.85401 22.7886C11.9878 23.2131 14.1995 22.9952 16.2095 22.1627C18.2195 21.3301 19.9375 19.9202 21.1462 18.1113C22.3549 16.3023 23 14.1756 23 12M16.0816 7.91958L13.1 10.9" stroke="url(#paint2_linear_71_7640)" stroke-width="1.5" stroke-linecap="round" stroke-linejoin="round"/>
<path d="M22.3525 4.87187L18.601 5.39987L19.129 1.64829C19.1328 1.60472 19.1236 1.56098 19.1025 1.52266C19.0814 1.48434 19.0494 1.45319 19.0105 1.43318C18.9716 1.41317 18.9276 1.40521 18.8841 1.41032C18.8407 1.41543 18.7997 1.43338 18.7666 1.46187L16.2794 3.93629C16.0239 4.1936 15.836 4.51006 15.7324 4.85752C15.6288 5.20498 15.6126 5.57267 15.6854 5.92787L16.0814 7.91945L18.073 8.31429C18.4282 8.38707 18.7959 8.37092 19.1433 8.26729C19.4908 8.16365 19.8072 7.97575 20.0646 7.72029L22.5378 5.23429C22.5664 5.20102 22.5844 5.15997 22.5895 5.1164C22.5946 5.07282 22.5865 5.02873 22.5664 4.98977C22.5462 4.95081 22.5148 4.91877 22.4763 4.89776C22.4378 4.87675 22.3939 4.86774 22.3502 4.87187" stroke="url(#paint3_linear_71_7640)" stroke-width="1.5" stroke-linecap="round" stroke-linejoin="round"/>
</g>
<defs>
<linearGradient id="paint0_linear_71_7640" x1="9.80078" y1="12.3244" x2="13.5524" y2="12.3244" gradientUnits="userSpaceOnUse">
<stop stop-color="#CE0704"/>
<stop offset="1" stop-color="#046F36"/>
</linearGradient>
<linearGradient id="paint1_linear_71_7640" x1="5.39844" y1="11.9998" x2="18.5984" y2="11.9998" gradientUnits="userSpaceOnUse">
<stop stop-color="#CE0704"/>
<stop offset="1" stop-color="#046F36"/>
</linearGradient>
<linearGradient id="paint2_linear_71_7640" x1="1" y1="12" x2="23" y2="12" gradientUnits="userSpaceOnUse">
<stop stop-color="#CE0704"/>
<stop offset="1" stop-color="#046F36"/>
</linearGradient>
<linearGradient id="paint3_linear_71_7640" x1="15.6406" y1="4.88394" x2="22.591" y2="4.88394" gradientUnits="userSpaceOnUse">
<stop stop-color="#CE0704"/>
<stop offset="1" stop-color="#046F36"/>
</linearGradient>
<clipPath id="clip0_71_7640">
<rect width="24" height="24" fill="white"/>
</clipPath>
</defs>
</svg>
