<svg width="625" height="283" viewBox="0 0 625 283" fill="none" xmlns="http://www.w3.org/2000/svg">
<path d="M126.8 278.4V210H0V172.8C3.73333 166.933 8.4 159.067 14 149.2C19.6 139.067 25.4667 127.733 31.6 115.2C37.7333 102.667 43.8667 89.6 50 76C56.4 62.1333 62.1333 48.6667 67.2 35.6C72.5333 22.5333 76.9333 10.6667 80.4 0H124.4C121.2 11.4667 116.933 23.8667 111.6 37.2C106.533 50.2667 100.667 63.6 94 77.2C87.6 90.8 80.9333 103.867 74 116.4C67.0667 128.667 60.2667 139.733 53.6 149.6C47.2 159.467 41.3333 167.333 36 173.2H126.8V98C128.933 94.8 131.333 90.6667 134 85.6C136.667 80.2667 139.2 74.8 141.6 69.2C144.267 63.6 146.667 58.1333 148.8 52.8C150.933 47.4667 152.533 42.9333 153.6 39.2H172.8V173.2H208.4V210H172.8V278.4H126.8Z" fill="#CACACA"/>
<path d="M308.644 282.4C291.31 282.4 275.577 278.4 261.444 270.4C247.31 262.4 236.11 251.333 227.844 237.2C219.844 223.067 215.844 206.933 215.844 188.8V93.6C215.844 75.4667 219.977 59.3333 228.244 45.2C236.777 31.0667 248.11 20 262.244 12C276.644 4 292.51 0 309.844 0H319.044C336.644 0 352.377 4 366.244 12C380.11 20 391.044 31.0667 399.044 45.2C407.044 59.3333 411.044 75.4667 411.044 93.6V188.8C411.044 206.933 406.91 223.067 398.644 237.2C390.377 251.333 379.177 262.4 365.044 270.4C351.177 278.4 335.444 282.4 317.844 282.4H308.644ZM313.444 246C323.044 246 331.577 243.733 339.044 239.2C346.777 234.667 352.777 228.533 357.044 220.8C361.577 213.067 363.844 204.4 363.844 194.8V87.6C363.844 77.7333 361.577 69.0667 357.044 61.6C352.777 53.8667 346.777 47.7333 339.044 43.2C331.577 38.6667 323.044 36.4 313.444 36.4C303.844 36.4 295.177 38.6667 287.444 43.2C279.977 47.7333 273.977 53.8667 269.444 61.6C265.177 69.0667 263.044 77.7333 263.044 87.6V194.8C263.044 204.4 265.177 213.067 269.444 220.8C273.977 228.533 279.977 234.667 287.444 239.2C295.177 243.733 303.844 246 313.444 246Z" fill="#CACACA"/>
<path d="M542.487 278.4V210H415.688V172.8C419.421 166.933 424.087 159.067 429.688 149.2C435.288 139.067 441.154 127.733 447.288 115.2C453.421 102.667 459.554 89.6 465.688 76C472.087 62.1333 477.821 48.6667 482.888 35.6C488.221 22.5333 492.621 10.6667 496.087 0H540.088C536.888 11.4667 532.621 23.8667 527.288 37.2C522.221 50.2667 516.354 63.6 509.688 77.2C503.287 90.8 496.621 103.867 489.688 116.4C482.754 128.667 475.954 139.733 469.288 149.6C462.888 159.467 457.021 167.333 451.688 173.2H542.487V98C544.621 94.8 547.021 90.6667 549.688 85.6C552.354 80.2667 554.887 74.8 557.287 69.2C559.954 63.6 562.354 58.1333 564.487 52.8C566.621 47.4667 568.221 42.9333 569.287 39.2H588.487V173.2H624.088V210H588.487V278.4H542.487Z" fill="#CACACA"/>
</svg>
