<svg width="42" height="42" viewBox="0 0 42 42" fill="none" xmlns="http://www.w3.org/2000/svg">
<path d="M33.1249 17.5V24.5M24.032 33.25L27.063 31.5L30.0939 29.75M17.97 33.25L14.9381 31.5L11.9071 29.75M8.87695 17.5V24.5M11.9071 12.25L14.939 10.5L17.97 8.75M24.032 8.75L27.063 10.5L30.0939 12.25" stroke="url(#paint0_linear_22_3492)" stroke-width="3.45679" stroke-linecap="round" stroke-linejoin="round"/>
<path d="M21 38.5C21.9283 38.5 22.8185 38.1313 23.4749 37.4749C24.1313 36.8185 24.5 35.9283 24.5 35C24.5 34.0717 24.1313 33.1815 23.4749 32.5251C22.8185 31.8688 21.9283 31.5 21 31.5C20.0717 31.5 19.1815 31.8688 18.5251 32.5251C17.8688 33.1815 17.5 34.0717 17.5 35C17.5 35.9283 17.8688 36.8185 18.5251 37.4749C19.1815 38.1313 20.0717 38.5 21 38.5ZM21 10.5C21.9283 10.5 22.8185 10.1313 23.4749 9.47487C24.1313 8.8185 24.5 7.92826 24.5 7C24.5 6.07174 24.1313 5.1815 23.4749 4.52513C22.8185 3.86875 21.9283 3.5 21 3.5C20.0717 3.5 19.1815 3.86875 18.5251 4.52513C17.8688 5.1815 17.5 6.07174 17.5 7C17.5 7.92826 17.8688 8.8185 18.5251 9.47487C19.1815 10.1313 20.0717 10.5 21 10.5ZM21 24.5C21.9283 24.5 22.8185 24.1313 23.4749 23.4749C24.1313 22.8185 24.5 21.9283 24.5 21C24.5 20.0717 24.1313 19.1815 23.4749 18.5251C22.8185 17.8688 21.9283 17.5 21 17.5C20.0717 17.5 19.1815 17.8688 18.5251 18.5251C17.8688 19.1815 17.5 20.0717 17.5 21C17.5 21.9283 17.8688 22.8185 18.5251 23.4749C19.1815 24.1313 20.0717 24.5 21 24.5ZM33.25 17.5C34.1783 17.5 35.0685 17.1313 35.7249 16.4749C36.3813 15.8185 36.75 14.9283 36.75 14C36.75 13.0717 36.3813 12.1815 35.7249 11.5251C35.0685 10.8687 34.1783 10.5 33.25 10.5C32.3217 10.5 31.4315 10.8687 30.7751 11.5251C30.1188 12.1815 29.75 13.0717 29.75 14C29.75 14.9283 30.1188 15.8185 30.7751 16.4749C31.4315 17.1313 32.3217 17.5 33.25 17.5ZM33.25 31.5C34.1783 31.5 35.0685 31.1313 35.7249 30.4749C36.3813 29.8185 36.75 28.9283 36.75 28C36.75 27.0717 36.3813 26.1815 35.7249 25.5251C35.0685 24.8688 34.1783 24.5 33.25 24.5C32.3217 24.5 31.4315 24.8688 30.7751 25.5251C30.1188 26.1815 29.75 27.0717 29.75 28C29.75 28.9283 30.1188 29.8185 30.7751 30.4749C31.4315 31.1313 32.3217 31.5 33.25 31.5ZM8.75 17.5C9.67826 17.5 10.5685 17.1313 11.2249 16.4749C11.8813 15.8185 12.25 14.9283 12.25 14C12.25 13.0717 11.8813 12.1815 11.2249 11.5251C10.5685 10.8687 9.67826 10.5 8.75 10.5C7.82174 10.5 6.9315 10.8687 6.27513 11.5251C5.61875 12.1815 5.25 13.0717 5.25 14C5.25 14.9283 5.61875 15.8185 6.27513 16.4749C6.9315 17.1313 7.82174 17.5 8.75 17.5ZM8.75 31.5C9.67826 31.5 10.5685 31.1313 11.2249 30.4749C11.8813 29.8185 12.25 28.9283 12.25 28C12.25 27.0717 11.8813 26.1815 11.2249 25.5251C10.5685 24.8688 9.67826 24.5 8.75 24.5C7.82174 24.5 6.9315 24.8688 6.27513 25.5251C5.61875 26.1815 5.25 27.0717 5.25 28C5.25 28.9283 5.61875 29.8185 6.27513 30.4749C6.9315 31.1313 7.82174 31.5 8.75 31.5Z" fill="url(#paint1_linear_22_3492)" stroke="url(#paint2_linear_22_3492)" stroke-width="3.45679" stroke-linecap="round" stroke-linejoin="round"/>
<defs>
<linearGradient id="paint0_linear_22_3492" x1="8.87695" y1="21" x2="33.125" y2="21" gradientUnits="userSpaceOnUse">
<stop stop-color="#CE0704"/>
<stop offset="1" stop-color="#046F36"/>
</linearGradient>
<linearGradient id="paint1_linear_22_3492" x1="5.25" y1="21" x2="36.75" y2="21" gradientUnits="userSpaceOnUse">
<stop stop-color="#CE0704"/>
<stop offset="1" stop-color="#046F36"/>
</linearGradient>
<linearGradient id="paint2_linear_22_3492" x1="5.25" y1="21" x2="36.75" y2="21" gradientUnits="userSpaceOnUse">
<stop stop-color="#CE0704"/>
<stop offset="1" stop-color="#046F36"/>
</linearGradient>
</defs>
</svg>
