<svg width="13" height="15" viewBox="0 0 13 15" fill="none" xmlns="http://www.w3.org/2000/svg">
<path d="M6.74927 0L4.87671 3.12256L3.7207 1.96777L3.28125 2.46704C1.10437 4.93454 0 7.17648 0 9.13086C0 12.2321 2.80375 14.7559 6.25 14.7559C9.69625 14.7559 12.5 12.2321 12.5 9.13086C12.5 6.15461 9.25192 2.48465 7.31567 0.561523L6.74927 0ZM6.99463 2.02026C8.60463 3.69901 11.25 6.81086 11.25 9.13086C11.25 10.6254 10.3877 11.946 9.07715 12.7356C9.26376 12.2897 9.375 11.798 9.375 11.2744C9.375 9.78629 8.32209 8.0211 7.43896 6.80298L6.91162 6.07422L5.52734 8.15063L4.64844 7.27173L4.23584 7.95288C3.49896 9.16913 3.125 10.2863 3.125 11.2744C3.125 11.798 3.23624 12.2897 3.42285 12.7356C2.11233 11.946 1.25 10.6254 1.25 9.13086C1.25 7.63773 2.12353 5.8038 3.7854 3.80005L5.12329 5.13916L6.99463 2.02026ZM6.9397 8.28613C7.70845 9.48426 8.125 10.5269 8.125 11.2744C8.125 12.505 7.28375 13.5059 6.25 13.5059C5.21625 13.5059 4.375 12.505 4.375 11.2744C4.375 10.6982 4.5564 10.0385 4.91577 9.30664L5.72266 10.1123L6.9397 8.28613Z" fill="url(#paint0_linear_4019_4120)"/>
<defs>
<linearGradient id="paint0_linear_4019_4120" x1="0" y1="7.37793" x2="12.5" y2="7.37793" gradientUnits="userSpaceOnUse">
<stop stop-color="#CE0704"/>
<stop offset="1" stop-color="#046F36"/>
</linearGradient>
</defs>
</svg>
