<svg width="12" height="16" viewBox="0 0 12 16" fill="none" xmlns="http://www.w3.org/2000/svg">
<path d="M0.797277 1.59455C1.2376 1.59455 1.59455 1.2376 1.59455 0.797277C1.59455 0.356953 1.2376 0 0.797277 0C0.356953 0 0 0.356953 0 0.797277C0 1.2376 0.356953 1.59455 0.797277 1.59455Z" fill="white"/>
<path d="M3.16544 4.0105C3.60576 4.0105 3.96272 3.65355 3.96272 3.21322C3.96272 2.7729 3.60576 2.41595 3.16544 2.41595C2.72512 2.41595 2.36816 2.7729 2.36816 3.21322C2.36816 3.65355 2.72512 4.0105 3.16544 4.0105Z" fill="white"/>
<path d="M3.16544 1.59455C3.60576 1.59455 3.96272 1.2376 3.96272 0.797277C3.96272 0.356953 3.60576 0 3.16544 0C2.72512 0 2.36816 0.356953 2.36816 0.797277C2.36816 1.2376 2.72512 1.59455 3.16544 1.59455Z" fill="white"/>
<path d="M5.53263 4.0105C5.97295 4.0105 6.32991 3.65355 6.32991 3.21322C6.32991 2.7729 5.97295 2.41595 5.53263 2.41595C5.0923 2.41595 4.73535 2.7729 4.73535 3.21322C4.73535 3.65355 5.0923 4.0105 5.53263 4.0105Z" fill="white"/>
<path d="M5.53263 6.37825C5.97295 6.37825 6.32991 6.02129 6.32991 5.58097C6.32991 5.14064 5.97295 4.78369 5.53263 4.78369C5.0923 4.78369 4.73535 5.14064 4.73535 5.58097C4.73535 6.02129 5.0923 6.37825 5.53263 6.37825Z" fill="white"/>
<path d="M5.53268 11.1619C5.97304 11.1619 6.33001 10.8049 6.33001 10.3646C6.33001 9.92422 5.97304 9.56725 5.53268 9.56725C5.09233 9.56725 4.73535 9.92422 4.73535 10.3646C4.73535 10.8049 5.09233 11.1619 5.53268 11.1619Z" fill="white"/>
<path d="M3.16544 13.5326C3.60576 13.5326 3.96272 13.1757 3.96272 12.7353C3.96272 12.295 3.60576 11.9381 3.16544 11.9381C2.72512 11.9381 2.36816 12.295 2.36816 12.7353C2.36816 13.1757 2.72512 13.5326 3.16544 13.5326Z" fill="white"/>
<path d="M5.53263 13.5326C5.97295 13.5326 6.32991 13.1757 6.32991 12.7353C6.32991 12.295 5.97295 11.9381 5.53263 11.9381C5.0923 11.9381 4.73535 12.295 4.73535 12.7353C4.73535 13.1757 5.0923 13.5326 5.53263 13.5326Z" fill="white"/>
<path d="M8.0004 6.37825C8.44073 6.37825 8.79768 6.02129 8.79768 5.58097C8.79768 5.14064 8.44073 4.78369 8.0004 4.78369C7.56008 4.78369 7.20312 5.14064 7.20312 5.58097C7.20312 6.02129 7.56008 6.37825 8.0004 6.37825Z" fill="white"/>
<path d="M8.0004 8.74599C8.44073 8.74599 8.79768 8.38904 8.79768 7.94871C8.79768 7.50839 8.44073 7.15144 8.0004 7.15144C7.56008 7.15144 7.20312 7.50839 7.20312 7.94871C7.20312 8.38904 7.56008 8.74599 8.0004 8.74599Z" fill="white"/>
<path d="M8.00046 11.1619C8.44081 11.1619 8.79779 10.8049 8.79779 10.3646C8.79779 9.92422 8.44081 9.56725 8.00046 9.56725C7.5601 9.56725 7.20312 9.92422 7.20312 10.3646C7.20312 10.8049 7.5601 11.1619 8.00046 11.1619Z" fill="white"/>
<path d="M0.797331 16C1.23768 16 1.59466 15.643 1.59466 15.2027C1.59466 14.7623 1.23768 14.4053 0.797331 14.4053C0.356977 14.4053 0 14.7623 0 15.2027C0 15.643 0.356977 16 0.797331 16Z" fill="white"/>
<path d="M3.1655 16C3.60585 16 3.96283 15.643 3.96283 15.2027C3.96283 14.7623 3.60585 14.4053 3.1655 14.4053C2.72514 14.4053 2.36816 14.7623 2.36816 15.2027C2.36816 15.643 2.72514 16 3.1655 16Z" fill="white"/>
<path d="M10.3705 8.74599C10.8108 8.74599 11.1678 8.38904 11.1678 7.94871C11.1678 7.50839 10.8108 7.15144 10.3705 7.15144C9.9302 7.15144 9.57324 7.50839 9.57324 7.94871C9.57324 8.38904 9.9302 8.74599 10.3705 8.74599Z" fill="white"/>
</svg>
