<svg width="24" height="24" viewBox="0 0 24 24" fill="none" xmlns="http://www.w3.org/2000/svg">
<path d="M16.125 13.125L20.25 9M10.875 10.125L13.875 13.125M3.75 15L8.625 10.125" stroke="url(#paint0_linear_22_2477)" stroke-width="1.5" stroke-linecap="round" stroke-linejoin="round"/>
<path d="M21.375 9C21.9963 9 22.5 8.49632 22.5 7.875C22.5 7.25368 21.9963 6.75 21.375 6.75C20.7537 6.75 20.25 7.25368 20.25 7.875C20.25 8.49632 20.7537 9 21.375 9Z" stroke="url(#paint1_linear_22_2477)" stroke-width="1.5" stroke-linecap="round" stroke-linejoin="round"/>
<path d="M15 15.375C15.6213 15.375 16.125 14.8713 16.125 14.25C16.125 13.6287 15.6213 13.125 15 13.125C14.3787 13.125 13.875 13.6287 13.875 14.25C13.875 14.8713 14.3787 15.375 15 15.375Z" stroke="url(#paint2_linear_22_2477)" stroke-width="1.5" stroke-linecap="round" stroke-linejoin="round"/>
<path d="M9.75 10.125C10.3713 10.125 10.875 9.62132 10.875 9C10.875 8.37868 10.3713 7.875 9.75 7.875C9.12868 7.875 8.625 8.37868 8.625 9C8.625 9.62132 9.12868 10.125 9.75 10.125Z" stroke="url(#paint3_linear_22_2477)" stroke-width="1.5" stroke-linecap="round" stroke-linejoin="round"/>
<path d="M2.625 17.25C3.24632 17.25 3.75 16.7463 3.75 16.125C3.75 15.5037 3.24632 15 2.625 15C2.00368 15 1.5 15.5037 1.5 16.125C1.5 16.7463 2.00368 17.25 2.625 17.25Z" stroke="url(#paint4_linear_22_2477)" stroke-width="1.5" stroke-linecap="round" stroke-linejoin="round"/>
<defs>
<linearGradient id="paint0_linear_22_2477" x1="3.75" y1="12" x2="20.25" y2="12" gradientUnits="userSpaceOnUse">
<stop stop-color="#CE0704"/>
<stop offset="1" stop-color="#046F36"/>
</linearGradient>
<linearGradient id="paint1_linear_22_2477" x1="20.25" y1="7.875" x2="22.5" y2="7.875" gradientUnits="userSpaceOnUse">
<stop stop-color="#CE0704"/>
<stop offset="1" stop-color="#046F36"/>
</linearGradient>
<linearGradient id="paint2_linear_22_2477" x1="13.875" y1="14.25" x2="16.125" y2="14.25" gradientUnits="userSpaceOnUse">
<stop stop-color="#CE0704"/>
<stop offset="1" stop-color="#046F36"/>
</linearGradient>
<linearGradient id="paint3_linear_22_2477" x1="8.625" y1="9" x2="10.875" y2="9" gradientUnits="userSpaceOnUse">
<stop stop-color="#CE0704"/>
<stop offset="1" stop-color="#046F36"/>
</linearGradient>
<linearGradient id="paint4_linear_22_2477" x1="1.5" y1="16.125" x2="3.75" y2="16.125" gradientUnits="userSpaceOnUse">
<stop stop-color="#CE0704"/>
<stop offset="1" stop-color="#046F36"/>
</linearGradient>
</defs>
</svg>
