<svg width="24" height="24" viewBox="0 0 24 24" fill="none" xmlns="http://www.w3.org/2000/svg">
<g clip-path="url(#clip0_22_2453)">
<path d="M10.4482 10.4487C10.0351 10.8597 9.80195 11.4177 9.7998 12.0003C9.7998 12.5838 10.0316 13.1434 10.4442 13.5559C10.8567 13.9685 11.4163 14.2003 11.9998 14.2003C12.5825 14.1982 13.1405 13.965 13.5514 13.5519" stroke="url(#paint0_linear_22_2453)" stroke-width="1.5" stroke-linecap="round" stroke-linejoin="round"/>
<path d="M12.0004 5.3999C10.695 5.3999 9.41899 5.78698 8.33363 6.5122C7.24827 7.23742 6.40233 8.2682 5.90279 9.47419C5.40325 10.6802 5.27255 12.0072 5.52721 13.2875C5.78187 14.5678 6.41046 15.7438 7.33349 16.6668C8.25651 17.5898 9.43252 18.2184 10.7128 18.4731C11.9931 18.7277 13.3201 18.597 14.5261 18.0975C15.7321 17.598 16.7629 16.752 17.4881 15.6667C18.2133 14.5813 18.6004 13.3053 18.6004 11.9999" stroke="url(#paint1_linear_22_2453)" stroke-width="1.5" stroke-linecap="round" stroke-linejoin="round"/>
<path d="M12 1C9.82441 1 7.69767 1.64514 5.88873 2.85383C4.07979 4.06253 2.66989 5.78049 1.83733 7.79048C1.00477 9.80047 0.78693 12.0122 1.21137 14.146C1.6358 16.2798 2.68345 18.2398 4.22183 19.7782C5.76021 21.3165 7.72022 22.3642 9.85401 22.7886C11.9878 23.2131 14.1995 22.9952 16.2095 22.1627C18.2195 21.3301 19.9375 19.9202 21.1462 18.1113C22.3549 16.3023 23 14.1756 23 12M16.0816 7.91958L13.1 10.9" stroke="url(#paint2_linear_22_2453)" stroke-width="1.5" stroke-linecap="round" stroke-linejoin="round"/>
<path d="M22.3516 4.87175L18.6 5.39975L19.128 1.64817C19.1319 1.6046 19.1227 1.56086 19.1016 1.52254C19.0804 1.48422 19.0484 1.45307 19.0095 1.43306C18.9706 1.41304 18.9266 1.40509 18.8832 1.4102C18.8397 1.41531 18.7988 1.43326 18.7656 1.46175L16.2784 3.93617C16.023 4.19348 15.8351 4.50994 15.7314 4.8574C15.6278 5.20486 15.6116 5.57254 15.6844 5.92775L16.0804 7.91933L18.072 8.31417C18.4272 8.38694 18.7949 8.3708 19.1423 8.26716C19.4898 8.16353 19.8063 7.97563 20.0636 7.72017L22.5368 5.23417C22.5654 5.2009 22.5834 5.15985 22.5885 5.11627C22.5936 5.0727 22.5855 5.0286 22.5654 4.98965C22.5452 4.95069 22.5139 4.91865 22.4754 4.89764C22.4368 4.87663 22.3929 4.86761 22.3493 4.87175" stroke="url(#paint3_linear_22_2453)" stroke-width="1.5" stroke-linecap="round" stroke-linejoin="round"/>
</g>
<defs>
<linearGradient id="paint0_linear_22_2453" x1="9.7998" y1="12.3245" x2="13.5514" y2="12.3245" gradientUnits="userSpaceOnUse">
<stop stop-color="#CE0704"/>
<stop offset="1" stop-color="#046F36"/>
</linearGradient>
<linearGradient id="paint1_linear_22_2453" x1="5.40039" y1="11.9999" x2="18.6004" y2="11.9999" gradientUnits="userSpaceOnUse">
<stop stop-color="#CE0704"/>
<stop offset="1" stop-color="#046F36"/>
</linearGradient>
<linearGradient id="paint2_linear_22_2453" x1="1" y1="12" x2="23" y2="12" gradientUnits="userSpaceOnUse">
<stop stop-color="#CE0704"/>
<stop offset="1" stop-color="#046F36"/>
</linearGradient>
<linearGradient id="paint3_linear_22_2453" x1="15.6396" y1="4.88381" x2="22.59" y2="4.88381" gradientUnits="userSpaceOnUse">
<stop stop-color="#CE0704"/>
<stop offset="1" stop-color="#046F36"/>
</linearGradient>
<clipPath id="clip0_22_2453">
<rect width="24" height="24" fill="white"/>
</clipPath>
</defs>
</svg>
