<svg width="26" height="26" viewBox="0 0 26 26" fill="none" xmlns="http://www.w3.org/2000/svg">
<path d="M3.15005 16.95C2.51352 16.95 1.90305 16.6971 1.45296 16.247C1.00286 15.7969 0.75 15.1865 0.75 14.5499C0.75 13.9134 1.00286 13.3029 1.45296 12.8529C1.90305 12.4028 2.51352 12.1499 3.15005 12.1499M22.3504 16.95C22.987 16.95 23.5974 16.6971 24.0475 16.247C24.4976 15.7969 24.7505 15.1865 24.7505 14.5499C24.7505 13.9134 24.4976 13.3029 24.0475 12.8529C23.5974 12.4028 22.987 12.1499 22.3504 12.1499" stroke="url(#paint0_linear_22_2437)" stroke-width="1.5" stroke-linecap="round" stroke-linejoin="round"/>
<path d="M6.75 6.74995V3.1499M18.7502 6.74995V3.1499" stroke="url(#paint1_linear_22_2437)" stroke-width="1.5" stroke-linejoin="round"/>
<path d="M6.74983 3.15003C7.41258 3.15003 7.94985 2.61277 7.94985 1.95002C7.94985 1.28727 7.41258 0.75 6.74983 0.75C6.08707 0.75 5.5498 1.28727 5.5498 1.95002C5.5498 2.61277 6.08707 3.15003 6.74983 3.15003Z" stroke="url(#paint2_linear_22_2437)" stroke-width="1.5" stroke-linejoin="round"/>
<path d="M18.7508 3.15003C19.4136 3.15003 19.9508 2.61277 19.9508 1.95002C19.9508 1.28727 19.4136 0.75 18.7508 0.75C18.0881 0.75 17.5508 1.28727 17.5508 1.95002C17.5508 2.61277 18.0881 3.15003 18.7508 3.15003Z" stroke="url(#paint3_linear_22_2437)" stroke-width="1.5" stroke-linejoin="round"/>
<path d="M14.5502 6.75H10.9501C7.55648 6.75 5.85844 6.75 4.80482 7.84081C3.7512 8.93163 3.75 10.6872 3.75 14.1985C3.75 17.7097 3.75 19.4654 4.80482 20.5562C5.85844 21.647 7.55648 21.647 10.9501 21.647H12.1802C13.1306 21.647 13.4654 21.8426 14.1206 22.5554C14.8442 23.3438 15.965 24.3962 16.9791 24.641C18.4203 24.989 18.5823 24.5078 18.2607 23.1338C18.1695 22.7426 17.9403 22.1174 18.1815 21.7526C18.3171 21.5486 18.5415 21.4982 18.9915 21.3974C19.7007 21.239 20.2863 20.9798 20.6955 20.5562C21.7504 19.4642 21.7504 17.7097 21.7504 14.1985C21.7504 10.6872 21.7504 8.93163 20.6955 7.84081C19.6419 6.75 17.9439 6.75 14.5502 6.75Z" stroke="url(#paint4_linear_22_2437)" stroke-width="1.5" stroke-linejoin="round"/>
<path d="M9.75 16.3501C10.434 17.0785 11.5236 17.5501 12.7501 17.5501C13.9765 17.5501 15.0661 17.0785 15.7501 16.3501" stroke="url(#paint5_linear_22_2437)" stroke-width="1.5" stroke-linecap="round" stroke-linejoin="round"/>
<path d="M9.16119 11.5503H9.15039M16.3613 11.5503H16.3505" stroke="url(#paint6_linear_22_2437)" stroke-width="2" stroke-linecap="round" stroke-linejoin="round"/>
<defs>
<linearGradient id="paint0_linear_22_2437" x1="0.75" y1="14.5499" x2="24.7505" y2="14.5499" gradientUnits="userSpaceOnUse">
<stop stop-color="#CE0704"/>
<stop offset="1" stop-color="#046F36"/>
</linearGradient>
<linearGradient id="paint1_linear_22_2437" x1="6.75" y1="4.94992" x2="18.7502" y2="4.94992" gradientUnits="userSpaceOnUse">
<stop stop-color="#CE0704"/>
<stop offset="1" stop-color="#046F36"/>
</linearGradient>
<linearGradient id="paint2_linear_22_2437" x1="5.5498" y1="1.95002" x2="7.94985" y2="1.95002" gradientUnits="userSpaceOnUse">
<stop stop-color="#CE0704"/>
<stop offset="1" stop-color="#046F36"/>
</linearGradient>
<linearGradient id="paint3_linear_22_2437" x1="17.5508" y1="1.95002" x2="19.9508" y2="1.95002" gradientUnits="userSpaceOnUse">
<stop stop-color="#CE0704"/>
<stop offset="1" stop-color="#046F36"/>
</linearGradient>
<linearGradient id="paint4_linear_22_2437" x1="3.75" y1="15.75" x2="21.7504" y2="15.75" gradientUnits="userSpaceOnUse">
<stop stop-color="#CE0704"/>
<stop offset="1" stop-color="#046F36"/>
</linearGradient>
<linearGradient id="paint5_linear_22_2437" x1="9.75" y1="16.9501" x2="15.7501" y2="16.9501" gradientUnits="userSpaceOnUse">
<stop stop-color="#CE0704"/>
<stop offset="1" stop-color="#046F36"/>
</linearGradient>
<linearGradient id="paint6_linear_22_2437" x1="9.15039" y1="12.0503" x2="16.3613" y2="12.0503" gradientUnits="userSpaceOnUse">
<stop stop-color="#CE0704"/>
<stop offset="1" stop-color="#046F36"/>
</linearGradient>
</defs>
</svg>
