<svg width="300" height="350" viewBox="0 0 300 350" fill="none" xmlns="http://www.w3.org/2000/svg">
<path d="M250 116.667H283.333C292.538 116.667 300 124.129 300 133.333V333.333C300 342.538 292.538 350 283.333 350H16.6667C7.462 350 0 342.538 0 333.333V133.333C0 124.129 7.462 116.667 16.6667 116.667H50V100C50 44.7715 94.7715 0 150 0C205.228 0 250 44.7715 250 100V116.667ZM133.333 245.54V283.333H166.667V245.54C176.63 239.777 183.333 229.005 183.333 216.667C183.333 198.257 168.41 183.333 150 183.333C131.59 183.333 116.667 198.257 116.667 216.667C116.667 229.005 123.37 239.777 133.333 245.54ZM216.667 116.667V100C216.667 63.181 186.818 33.3333 150 33.3333C113.181 33.3333 83.3333 63.181 83.3333 100V116.667H216.667Z" fill="url(#paint0_linear_22_8397)"/>
<defs>
<linearGradient id="paint0_linear_22_8397" x1="0" y1="175" x2="300" y2="175" gradientUnits="userSpaceOnUse">
<stop stop-color="#121212"/>
<stop offset="1" stop-color="#585858"/>
</linearGradient>
</defs>
</svg>
