<svg width="46" height="50" viewBox="0 0 46 50" fill="none" xmlns="http://www.w3.org/2000/svg">
<g filter="url(#filter0_i_22_1958)">
<path d="M22.9293 0L1.30893 12.3542C0.903472 12.5855 0.567928 12.9219 0.337657 13.3279C0.107387 13.734 -0.00906985 14.1946 0.000551337 14.6613C0.766035 43.589 22.9293 49.1768 22.9293 49.1768C22.9293 49.1768 45.0925 43.589 45.8589 14.6613C45.8683 14.1946 45.7518 13.7341 45.5215 13.3281C45.2913 12.9221 44.9559 12.5857 44.5505 12.3542L22.9293 0Z" fill="#FDFFFF"/>
<path d="M22.9312 0L1.3099 12.3542C0.904579 12.5857 0.569141 12.9221 0.338891 13.3281C0.108642 13.7341 -0.00790866 14.1946 0.00150482 14.6613C0.767956 43.589 22.9312 49.1768 22.9312 49.1768V0Z" fill="#F3F3F3"/>
</g>
<defs>
<filter id="filter0_i_22_1958" x="0" y="0" width="45.8594" height="51.8129" filterUnits="userSpaceOnUse" color-interpolation-filters="sRGB">
<feFlood flood-opacity="0" result="BackgroundImageFix"/>
<feBlend mode="normal" in="SourceGraphic" in2="BackgroundImageFix" result="shape"/>
<feColorMatrix in="SourceAlpha" type="matrix" values="0 0 0 0 0 0 0 0 0 0 0 0 0 0 0 0 0 0 127 0" result="hardAlpha"/>
<feOffset dy="2.6371"/>
<feGaussianBlur stdDeviation="1.31806"/>
<feComposite in2="hardAlpha" operator="arithmetic" k2="-1" k3="1"/>
<feColorMatrix type="matrix" values="0 0 0 0 0.4625 0 0 0 0 0.4625 0 0 0 0 0.4625 0 0 0 0.15 0"/>
<feBlend mode="normal" in2="shape" result="effect1_innerShadow_22_1958"/>
</filter>
</defs>
</svg>
