<svg width="110" height="30" viewBox="0 0 110 30" fill="none" xmlns="http://www.w3.org/2000/svg">
<path d="M9.01314 18.4499C9.01314 19.5777 9.92726 20.4917 11.0551 20.4918H19.8432V27.2008C19.8432 28.3286 18.9291 29.2426 17.8014 29.2427H2.18253C1.05479 29.2425 0.140625 28.3285 0.140625 27.2008V11.3964C0.14077 10.2688 1.05488 9.35467 2.18253 9.35449H9.01314V18.4499ZM26.6738 0.603638C27.8015 0.603757 28.7156 1.51788 28.7157 2.64555V18.4499C28.7157 19.5777 27.8016 20.4917 26.6738 20.4918H19.8432V11.3964C19.8431 10.2688 18.929 9.35467 17.8014 9.35449H9.01314V2.64555C9.01328 1.51789 9.92735 0.603783 11.0551 0.603638H26.6738Z" fill="#868686"/>
<path d="M48.3806 6.53108V21.6539H46.2492L38.5863 10.5706H38.434V21.6539H36.1504V6.53108H38.2615L45.9548 17.6347H46.0969V6.53108H48.3806ZM55.1305 21.8873C54.0208 21.8873 53.0599 21.6471 52.248 21.1667C51.436 20.6863 50.8101 20.0097 50.3703 19.1368C49.9373 18.2572 49.7208 17.232 49.7208 16.0615C49.7208 14.8977 49.9339 13.8726 50.3602 12.9862C50.7932 12.0998 51.3988 11.4096 52.1769 10.9157C52.9618 10.415 53.882 10.1646 54.9376 10.1646C55.5804 10.1646 56.2029 10.2695 56.8051 10.4792C57.4073 10.689 57.9487 11.0206 58.429 11.4739C58.9095 11.9272 59.2884 12.516 59.5658 13.24C59.85 13.964 59.9921 14.8368 59.9921 15.8585V16.6501H50.9691V14.9958H58.8553L57.8302 15.5439C57.8302 14.847 57.7219 14.2312 57.5055 13.6967C57.2889 13.1621 56.9641 12.746 56.5311 12.4482C56.1048 12.1438 55.5737 11.9915 54.9376 11.9915C54.3016 11.9915 53.7568 12.1438 53.3036 12.4482C52.8569 12.7528 52.5153 13.1553 52.2785 13.656C52.0416 14.1568 51.9232 14.7049 51.9232 15.3003V16.4269C51.9232 17.205 52.0586 17.8648 52.3292 18.406C52.5998 18.9473 52.9754 19.3601 53.4558 19.6443C53.9429 19.9285 54.5079 20.0706 55.1508 20.0706C55.5703 20.0706 55.9492 20.0097 56.2875 19.8879C56.6326 19.766 56.9303 19.5834 57.1807 19.3398C57.431 19.0962 57.6205 18.7951 57.749 18.4365L59.8398 18.8323C59.6707 19.4413 59.3729 19.9759 58.9467 20.436C58.5204 20.896 57.9825 21.2547 57.3329 21.5118C56.6901 21.7621 55.9559 21.8873 55.1305 21.8873ZM66.3968 10.3067V12.0829H60.2057V10.3067H66.3968ZM61.86 7.60693H64.0625V18.3249C64.0625 18.8459 64.1708 19.2281 64.3872 19.4718C64.6038 19.7086 64.9522 19.827 65.4327 19.827C65.5477 19.827 65.6695 19.8202 65.798 19.8067C65.9334 19.7931 66.0687 19.7729 66.204 19.7458L66.6201 21.5727C66.3969 21.6471 66.1533 21.7047 65.8894 21.7452C65.6255 21.7859 65.3616 21.8061 65.0978 21.8061C64.1166 21.8061 63.3317 21.5321 62.743 20.984C62.1543 20.4292 61.86 19.6917 61.86 18.7714V7.60693ZM75.8668 13.0877L73.8673 13.4328C73.7388 13.0539 73.4986 12.7054 73.1467 12.3874C72.8017 12.0693 72.284 11.9103 71.5938 11.9103C70.9713 11.9103 70.4503 12.0524 70.0308 12.3366C69.618 12.614 69.4117 12.9692 69.4117 13.4023C69.4117 13.7812 69.5504 14.0891 69.8278 14.326C70.112 14.5628 70.5619 14.7522 71.1777 14.8943L72.9945 15.3003C74.0298 15.5371 74.8045 15.9092 75.3187 16.4168C75.8329 16.9242 76.09 17.5738 76.09 18.3654C76.09 19.0489 75.8938 19.6579 75.5014 20.1923C75.1089 20.7201 74.5643 21.1362 73.8673 21.4408C73.1704 21.7385 72.3652 21.8873 71.4518 21.8873C70.1797 21.8873 69.1444 21.6133 68.3459 21.0652C67.5476 20.5171 67.0569 19.7458 66.8743 18.7511L68.9956 18.4263C69.1308 18.9812 69.4049 19.4007 69.8177 19.6849C70.2372 19.969 70.7785 20.1111 71.4416 20.1111C72.1588 20.1111 72.7339 19.959 73.167 19.6544C73.6068 19.35 73.8268 18.9812 73.8268 18.5481C73.8268 17.8309 73.2922 17.3471 72.2231 17.0968L70.3049 16.6705C69.2425 16.4269 68.4576 16.0446 67.9501 15.5236C67.4494 14.9958 67.1991 14.3327 67.1991 13.5342C67.1991 12.8644 67.3851 12.2757 67.7573 11.7682C68.1362 11.2608 68.6539 10.8683 69.3102 10.5909C69.9733 10.3067 70.7278 10.1646 71.5735 10.1646C72.805 10.1646 73.7692 10.4319 74.4661 10.9664C75.1698 11.501 75.6368 12.208 75.8668 13.0877ZM77.2171 25.8964V10.3067H79.3485V12.154H79.5312C79.6665 11.9171 79.8526 11.643 80.0894 11.3318C80.333 11.0206 80.6713 10.7499 81.1044 10.5199C81.5374 10.283 82.1024 10.1646 82.7993 10.1646C83.7128 10.1646 84.5248 10.3947 85.2352 10.8548C85.9525 11.3149 86.5175 11.9814 86.9302 12.8542C87.3429 13.7271 87.5493 14.7793 87.5493 16.0108C87.5493 17.2287 87.3463 18.2775 86.9403 19.1571C86.5344 20.03 85.9728 20.7032 85.2555 21.1769C84.545 21.6438 83.7297 21.8772 82.8095 21.8772C82.126 21.8772 81.5645 21.7621 81.1247 21.5321C80.6916 21.2953 80.3499 21.0212 80.0996 20.71C79.8559 20.3988 79.6665 20.1247 79.5312 19.8879H79.4094V25.8964H77.2171ZM82.3325 19.9995C82.9888 19.9995 83.5368 19.8236 83.9767 19.4718C84.4165 19.1199 84.748 18.6429 84.9713 18.0407C85.2014 17.4317 85.3164 16.7483 85.3164 15.9904C85.3164 15.2394 85.2048 14.5661 84.9815 13.9707C84.7582 13.3752 84.4267 12.905 83.9868 12.5599C83.547 12.2149 82.9956 12.0423 82.3325 12.0423C81.6897 12.0423 81.1483 12.208 80.7085 12.5396C80.2687 12.8644 79.9338 13.3245 79.7038 13.92C79.4804 14.5086 79.3688 15.1988 79.3688 15.9904C79.3688 16.7821 79.4838 17.479 79.7138 18.0812C79.9439 18.6835 80.2789 19.1537 80.7187 19.492C81.1652 19.8303 81.7032 19.9995 82.3325 19.9995ZM88.7372 21.6539V10.3067H90.9299V21.6539H88.7372ZM89.8435 8.56099C89.4579 8.56099 89.1297 8.43242 88.859 8.17531C88.5884 7.91818 88.453 7.61031 88.453 7.2517C88.453 6.88631 88.5884 6.57506 88.859 6.31793C89.1297 6.06081 89.4579 5.93225 89.8435 5.93225C90.2224 5.93225 90.5472 6.06081 90.8178 6.31793C91.0954 6.57506 91.2336 6.88631 91.2336 7.2517C91.2336 7.61031 91.0954 7.91818 90.8178 8.17531C90.5472 8.43242 90.2224 8.56099 89.8435 8.56099ZM92.6245 21.6539V10.3067H94.7463V12.1235H94.8681C95.0781 11.5145 95.4427 11.0341 95.9645 10.6822C96.4918 10.3236 97.0872 10.1443 97.7508 10.1443C97.8854 10.1443 98.0445 10.151 98.2272 10.1646C98.4172 10.1714 98.569 10.1815 98.6845 10.195V12.3061C98.5963 12.2791 98.4372 12.252 98.2072 12.225C97.9836 12.1979 97.7572 12.1844 97.5272 12.1844C97.0063 12.1844 96.539 12.296 96.1263 12.5193C95.7208 12.7359 95.399 13.037 95.1627 13.4226C94.9327 13.8015 94.8172 14.2413 94.8172 14.742V21.6539H92.6245ZM103.81 21.8873C102.701 21.8873 101.74 21.6471 100.927 21.1667C100.115 20.6863 99.4899 20.0097 99.0499 19.1368C98.6172 18.2572 98.3999 17.232 98.3999 16.0615C98.3999 14.8977 98.6136 13.8726 99.0399 12.9862C99.4727 12.0998 100.078 11.4096 100.856 10.9157C101.642 10.415 102.562 10.1646 103.617 10.1646C104.26 10.1646 104.883 10.2695 105.484 10.4792C106.087 10.689 106.628 11.0206 107.109 11.4739C107.589 11.9272 107.968 12.516 108.245 13.24C108.53 13.964 108.672 14.8368 108.672 15.8585V16.6501H99.649V14.9958H107.535L106.51 15.5439C106.51 14.847 106.402 14.2312 106.185 13.6967C105.968 13.1621 105.644 12.746 105.211 12.4482C104.784 12.1438 104.254 11.9915 103.617 11.9915C102.981 11.9915 102.436 12.1438 101.984 12.4482C101.536 12.7528 101.194 13.1553 100.958 13.656C100.721 14.1568 100.603 14.7049 100.603 15.3003V16.4269C100.603 17.205 100.738 17.8648 101.009 18.406C101.279 18.9473 101.655 19.3601 102.135 19.6443C102.623 19.9285 103.187 20.0706 103.831 20.0706C104.25 20.0706 104.629 20.0097 104.967 19.8879C105.313 19.766 105.61 19.5834 105.86 19.3398C106.111 19.0962 106.3 18.7951 106.429 18.4365L108.519 18.8323C108.35 19.4413 108.053 19.9759 107.626 20.436C107.2 20.896 106.662 21.2547 106.013 21.5118C105.37 21.7621 104.635 21.8873 103.81 21.8873Z" fill="#868686"/>
</svg>
