<svg width="114" height="30" viewBox="0 0 114 30" fill="none" xmlns="http://www.w3.org/2000/svg">
<path d="M0.712891 15.7081V28.0687H13.9067V15.7081H27.1994V1.86438H10.2858L0.712891 15.7081Z" fill="#868686"/>
<path d="M39.6975 15.6099H27.1982V28.0692H39.6975V15.6099Z" fill="#868686"/>
<path d="M52.2557 21.8985C51.1222 21.8985 50.1379 21.7225 49.3029 21.3707C48.4748 21.012 47.8266 20.5012 47.3582 19.8381C46.8899 19.175 46.6285 18.3867 46.5742 17.4732H48.8753C48.9228 18.0213 49.0993 18.478 49.4048 18.8434C49.7171 19.202 50.1209 19.4693 50.6165 19.6452C51.112 19.8212 51.655 19.9091 52.2456 19.9091C52.8905 19.9091 53.4674 19.8077 53.9765 19.6047C54.4856 19.4017 54.8827 19.1175 55.1678 18.7521C55.4597 18.3799 55.6057 17.9469 55.6057 17.4529C55.6057 17.0064 55.4766 16.641 55.2187 16.3568C54.9675 16.0726 54.6247 15.8392 54.1903 15.6565C53.7559 15.467 53.2671 15.3012 52.7241 15.1591L50.9422 14.6719C49.7204 14.3472 48.7565 13.8634 48.0506 13.2206C47.3446 12.571 46.9916 11.7219 46.9916 10.673C46.9916 9.80022 47.2258 9.03899 47.6942 8.38942C48.1694 7.73985 48.8108 7.23575 49.6186 6.87714C50.4332 6.51175 51.3462 6.32906 52.3576 6.32906C53.3893 6.32906 54.2956 6.51175 55.0762 6.87714C55.8636 7.23575 56.4847 7.7297 56.9395 8.35896C57.401 8.98147 57.6421 9.69531 57.6624 10.5005H55.4427C55.3612 9.80358 55.0354 9.26231 54.4652 8.87659C53.9019 8.49091 53.1823 8.29807 52.3067 8.29807C51.6957 8.29807 51.1595 8.39618 50.6979 8.59241C50.2431 8.78186 49.8902 9.04575 49.639 9.38404C49.3946 9.7224 49.2724 10.1115 49.2724 10.5513C49.2724 11.0249 49.4184 11.4106 49.7102 11.7083C50.0089 12.006 50.3687 12.2429 50.7896 12.4188C51.2172 12.5879 51.6279 12.7267 52.0216 12.8349L53.4979 13.2308C53.9799 13.3526 54.4754 13.5149 54.9845 13.7179C55.4937 13.9209 55.9654 14.1882 56.3998 14.5198C56.8411 14.8445 57.194 15.2505 57.4588 15.7377C57.7303 16.2181 57.8661 16.8 57.8661 17.4834C57.8661 18.3292 57.6454 19.087 57.2042 19.7569C56.763 20.42 56.1249 20.9444 55.29 21.33C54.4551 21.709 53.4437 21.8985 52.2557 21.8985ZM63.9145 21.8883C62.8489 21.8883 61.9155 21.6447 61.1145 21.1576C60.3203 20.6704 59.7026 19.9869 59.2614 19.1073C58.8269 18.2277 58.6097 17.2059 58.6097 16.0421C58.6097 14.8649 58.8269 13.8363 59.2614 12.9567C59.7026 12.0703 60.3203 11.3835 61.1145 10.8963C61.9155 10.4092 62.8489 10.1656 63.9145 10.1656C64.987 10.1656 65.9204 10.4092 66.7147 10.8963C67.5088 11.3835 68.1265 12.0703 68.5677 12.9567C69.009 13.8363 69.2296 14.8649 69.2296 16.0421C69.2296 17.2059 69.009 18.2277 68.5677 19.1073C68.1265 19.9869 67.5088 20.6704 66.7147 21.1576C65.9204 21.6447 64.987 21.8883 63.9145 21.8883ZM63.9145 20.0309C64.6138 20.0309 65.1907 19.8482 65.6455 19.4829C66.1003 19.1175 66.4363 18.6337 66.6535 18.0315C66.8775 17.4225 66.9895 16.7594 66.9895 16.0421C66.9895 15.3114 66.8775 14.6415 66.6535 14.0326C66.4363 13.4236 66.1003 12.9364 65.6455 12.571C65.1907 12.2057 64.6138 12.0229 63.9145 12.0229C63.2221 12.0229 62.6486 12.2057 62.1938 12.571C61.7458 12.9364 61.4098 13.4236 61.1858 14.0326C60.9618 14.6415 60.8498 15.3114 60.8498 16.0421C60.8498 16.7594 60.9618 17.4225 61.1858 18.0315C61.4098 18.6337 61.7458 19.1175 62.1938 19.4829C62.6486 19.8482 63.2221 20.0309 63.9145 20.0309ZM75.1865 21.8883C74.0936 21.8883 73.1501 21.6379 72.3558 21.1372C71.5617 20.6365 70.9507 19.9464 70.5231 19.0668C70.0954 18.1871 69.8817 17.1789 69.8817 16.0421C69.8817 14.8851 70.0989 13.8668 70.5333 12.9871C70.9745 12.1008 71.5888 11.4106 72.3762 10.9167C73.1704 10.4159 74.1004 10.1656 75.1661 10.1656C76.035 10.1656 76.8054 10.3246 77.4774 10.6426C78.1562 10.9539 78.7026 11.397 79.1167 11.9722C79.5375 12.5473 79.7853 13.2172 79.86 13.9819H77.7014C77.6267 13.6232 77.4808 13.295 77.2636 12.9973C77.0532 12.6996 76.7748 12.4628 76.4286 12.2869C76.0825 12.1109 75.6719 12.0229 75.1966 12.0229C74.5789 12.0229 74.0393 12.1853 73.5777 12.5101C73.1229 12.8281 72.7665 13.2849 72.5086 13.8803C72.2507 14.4758 72.1217 15.1795 72.1217 15.9914C72.1217 16.8101 72.2473 17.524 72.4984 18.1329C72.7495 18.7419 73.1059 19.2122 73.5675 19.5438C74.0359 19.8686 74.5789 20.0309 75.1966 20.0309C75.8347 20.0309 76.3777 19.855 76.8258 19.5031C77.2805 19.1513 77.5725 18.6709 77.7014 18.0619H79.86C79.7853 18.7995 79.5478 19.4558 79.1473 20.0309C78.7468 20.606 78.2105 21.0594 77.5385 21.3909C76.8665 21.7225 76.0825 21.8883 75.1865 21.8883ZM81.011 21.6549V10.3077H83.2103V21.6549H81.011ZM82.1208 8.56195C81.7339 8.56195 81.4047 8.4334 81.1332 8.17627C80.8617 7.91916 80.7259 7.61128 80.7259 7.25266C80.7259 6.88728 80.8617 6.57603 81.1332 6.31891C81.4047 6.06179 81.7339 5.93323 82.1208 5.93323C82.501 5.93323 82.8268 6.06179 83.0983 6.31891C83.3766 6.57603 83.5158 6.88728 83.5158 7.25266C83.5158 7.61128 83.3766 7.91916 83.0983 8.17627C82.8268 8.4334 82.501 8.56195 82.1208 8.56195ZM92.1197 16.9658V10.3077H94.3194V21.6549H92.1607V19.6859H92.0385C91.7667 20.288 91.3463 20.7921 90.7759 21.1981C90.2058 21.6041 89.493 21.8038 88.6378 21.7969C87.9046 21.7969 87.2564 21.6379 86.693 21.3199C86.1363 21.0019 85.6986 20.5249 85.3795 19.8889C85.0673 19.2528 84.9111 18.4645 84.9111 17.524V10.3077H87.1104V17.2703C87.1104 18.0349 87.3277 18.6472 87.7621 19.1073C88.1965 19.5674 88.7565 19.7941 89.4421 19.7873C89.8562 19.7873 90.2669 19.6859 90.6742 19.4829C91.0882 19.2799 91.4311 18.9686 91.7029 18.5491C91.9811 18.1296 92.1197 17.6019 92.1197 16.9658ZM96.0203 21.6549V10.3077H98.1279V12.1752H98.2802C98.5183 11.5459 98.905 11.0554 99.4412 10.7035C99.9839 10.3449 100.63 10.1656 101.376 10.1656C102.136 10.1656 102.771 10.3449 103.28 10.7035C103.796 11.0554 104.179 11.5459 104.431 12.1752H104.553C104.824 11.5595 105.255 11.0723 105.846 10.7137C106.436 10.3483 107.139 10.1656 107.954 10.1656C108.985 10.1656 109.831 10.4904 110.489 11.1399C111.147 11.7828 111.476 12.7538 111.476 14.0529V21.6549H109.257V14.2559C109.257 13.4845 109.046 12.9297 108.625 12.5913C108.205 12.2462 107.702 12.0737 107.118 12.0737C106.399 12.0737 105.839 12.2969 105.439 12.7436C105.045 13.1834 104.848 13.7416 104.848 14.4182V21.6549H102.629V14.1138C102.629 13.498 102.438 13.004 102.058 12.6319C101.678 12.2598 101.179 12.0737 100.561 12.0737C100.141 12.0737 99.7504 12.1853 99.3902 12.4087C99.0372 12.6251 98.7527 12.9297 98.5347 13.3221C98.3249 13.7078 98.2191 14.1544 98.2191 14.6619V21.6549H96.0203Z" fill="#868686"/>
</svg>
