<svg width="87" height="30" viewBox="0 0 87 30" fill="none" xmlns="http://www.w3.org/2000/svg">
<path d="M19.8056 22.3788C19.7884 22.3626 19.7714 22.3464 19.7543 22.3302C19.5771 22.1594 19.4006 21.9893 19.2245 21.8196C18.5218 21.1421 17.8273 20.4726 17.1313 19.8047C16.8283 19.5139 16.8219 19.4181 17.1217 19.1143C17.5255 18.7053 17.9124 18.2844 18.2162 17.7921C18.5774 17.2068 18.7797 16.5618 18.9589 15.9069C19.0331 15.6356 19.1615 15.5595 19.4296 15.6392C20.8077 16.0492 22.1934 16.4326 23.5791 16.816C24.0957 16.9589 24.6122 17.1018 25.1282 17.2461C25.2021 17.2667 25.276 17.2874 25.3498 17.3081C25.5885 17.3749 25.8272 17.4418 26.0663 17.5074C26.5574 17.6418 26.7917 17.9359 26.7794 18.4423C26.7501 19.6554 26.7149 20.8685 26.6748 22.0812C26.6652 22.3692 26.5251 22.6025 26.279 22.7547C25.225 23.4065 24.1704 24.0573 23.1099 24.6985C22.7481 24.9173 22.3395 24.8488 22.0263 24.5441C21.5462 24.0773 21.0672 23.6092 20.5882 23.1412C20.3641 22.9222 20.1399 22.7032 19.9157 22.4843C19.8794 22.4488 19.8424 22.4138 19.8056 22.3788Z" fill="#868686"/>
<path d="M17.5916 27.0374C17.7271 27.5817 17.5746 27.8939 17.0741 28.1656C16.7989 28.314 16.525 28.4613 16.2522 28.6079C15.5254 28.9987 14.8066 29.3852 14.0919 29.7792C13.7108 29.9893 13.3578 29.9908 12.9747 29.7796C12.3404 29.4299 11.702 29.0877 11.0636 28.7454C10.6847 28.5423 10.3057 28.3391 9.92761 28.1344C9.50148 27.9037 9.34212 27.5688 9.45712 27.1008C9.57461 26.6228 9.69908 26.1465 9.82347 25.6701C9.90788 25.3471 9.99221 25.0241 10.0745 24.7007C10.2944 23.8352 10.5116 22.9691 10.7289 22.103C10.7886 21.8645 10.8484 21.6262 10.9083 21.3877C10.9411 21.2573 10.973 21.1266 11.0049 20.9959C11.0572 20.7821 11.1094 20.5683 11.1653 20.3555C11.2261 20.1237 11.3455 20.0561 11.581 20.1068C11.719 20.1365 11.8561 20.1706 11.9931 20.2046C12.238 20.2655 12.483 20.3264 12.7337 20.3623C13.4434 20.4641 14.146 20.4292 14.8426 20.2621C14.9001 20.2483 14.9578 20.2343 15.0153 20.2203C15.1749 20.1815 15.3345 20.1427 15.4949 20.1077C15.7158 20.0597 15.8319 20.1268 15.8865 20.3422C15.9707 20.6741 16.0528 21.0065 16.1348 21.3391C16.2051 21.6236 16.2753 21.9081 16.3468 22.1923C16.5524 23.0084 16.7591 23.8243 16.9689 24.6393C17.0491 24.9507 17.131 25.2616 17.2129 25.5725C17.3413 26.0603 17.4698 26.548 17.5916 27.0374Z" fill="#868686"/>
<path d="M7.64173 15.6402C7.76247 15.6057 7.88243 15.5851 7.98969 15.6776C8.09508 15.8299 8.13403 15.9906 8.17209 16.1474C8.18019 16.1809 8.18826 16.2141 8.19691 16.247C8.48059 17.3274 9.04075 18.2425 9.84365 19.0162C9.90214 19.0726 9.95735 19.1324 10.0125 19.1923C10.0221 19.2028 10.0319 19.2133 10.0416 19.2239C10.2001 19.3952 10.1965 19.5489 10.0308 19.7082C9.78999 19.9396 9.54889 20.1709 9.30787 20.4021C8.78191 20.9067 8.25596 21.4113 7.7322 21.9181C7.07211 22.5568 6.41421 23.1979 5.75631 23.8388C5.53875 24.0508 5.32118 24.2628 5.10354 24.4747C4.68871 24.8785 4.31731 24.9267 3.82535 24.6271C3.23764 24.269 2.65097 23.9093 2.06429 23.5496C1.66243 23.3032 1.26056 23.0568 0.858362 22.8109C0.535285 22.6135 0.388619 22.33 0.380449 21.9518C0.365976 21.282 0.346365 20.6122 0.326754 19.9424C0.3124 19.4521 0.298046 18.9619 0.285708 18.4717C0.272278 17.9381 0.503825 17.647 1.0199 17.5032C2.71629 17.0305 4.41185 16.5547 6.10732 16.0787C6.43764 15.9859 6.7674 15.8911 7.09715 15.7963C7.27865 15.7441 7.46014 15.6919 7.64173 15.6402Z" fill="#868686"/>
<path d="M1.52508 6.73837C1.6289 6.67499 1.73274 6.61162 1.83647 6.5481C2.03264 6.42788 2.22747 6.30909 2.42116 6.19101C2.90519 5.89592 3.38202 5.60521 3.85435 5.30742C4.25445 5.05517 4.73496 5.11053 5.06359 5.43358C6.07338 6.42623 7.09051 7.41151 8.10762 8.39678C8.31213 8.59492 8.51665 8.79301 8.72114 8.99118C8.99264 9.25432 9.26639 9.51515 9.54023 9.77589C9.69364 9.92204 9.84705 10.0682 10.0001 10.2148C10.2088 10.4146 10.2117 10.5623 10.0032 10.7685C9.47976 11.2863 8.99419 11.8312 8.65679 12.4942C8.42664 12.9465 8.27738 13.426 8.13875 13.9101C8.00701 14.3701 7.96215 14.3979 7.50367 14.269C7.03748 14.138 6.57131 14.0068 6.10515 13.8757C5.04076 13.5763 3.97636 13.277 2.91172 12.9785C2.44726 12.8482 1.98222 12.7201 1.51719 12.5919C1.33643 12.5421 1.15567 12.4922 0.974932 12.4423C0.515195 12.3152 0.269362 11.9979 0.281692 11.5197C0.312842 10.3116 0.347454 9.10364 0.38831 7.89585C0.398589 7.59204 0.538299 7.34596 0.802559 7.1819C1.04264 7.03285 1.28386 6.88561 1.52508 6.73837Z" fill="#868686"/>
<path d="M18.6406 13.018C18.5297 12.7244 18.3889 12.4455 18.2274 12.1765C17.9142 11.6503 17.5116 11.2273 17.0988 10.8125C16.8312 10.5437 16.8391 10.429 17.1094 10.1701C17.9614 9.35429 18.8111 8.53622 19.6588 7.71604C20.0734 7.31491 20.4867 6.91248 20.9001 6.51004C21.2861 6.13413 21.6721 5.75822 22.0592 5.38339C22.3571 5.09497 22.7835 5.05516 23.1628 5.28409C23.5729 5.53171 23.9809 5.78297 24.3889 6.03423C24.5696 6.14551 24.7503 6.25679 24.9312 6.36775C25.0549 6.44365 25.1783 6.52001 25.3018 6.59636C25.599 6.78019 25.8963 6.96401 26.1972 7.14151C26.5277 7.33637 26.6718 7.61915 26.6805 7.99535C26.6935 8.55732 26.7097 9.11917 26.7259 9.68112C26.7429 10.2738 26.7601 10.8665 26.7733 11.4593C26.7863 12.039 26.5651 12.3034 26.0015 12.4572C25.2764 12.6551 24.553 12.8587 23.8296 13.0624C23.637 13.1165 23.4446 13.1707 23.2521 13.2248C22.0959 13.5495 20.94 13.8755 19.7842 14.2016C19.7219 14.2192 19.6602 14.2385 19.5984 14.2579C19.5282 14.2799 19.458 14.302 19.3871 14.3213C19.1651 14.3819 19.0413 14.3131 18.9762 14.0934C18.9519 14.0116 18.9282 13.9295 18.9045 13.8475C18.824 13.5687 18.7433 13.2899 18.6406 13.018Z" fill="#868686"/>
<path d="M16.9122 5.54621C16.8227 5.89294 16.7331 6.23968 16.6436 6.58641C16.4032 7.55118 16.1684 8.49033 15.9333 9.42943L15.9321 9.4344C15.9158 9.49954 15.8994 9.56477 15.8803 9.62914C15.8233 9.82071 15.6999 9.89151 15.5063 9.84857C15.3786 9.8202 15.2516 9.78934 15.1246 9.7584C14.8901 9.70123 14.6556 9.64414 14.4168 9.60351C13.6036 9.46509 12.8054 9.53143 12.0139 9.74237C11.8545 9.7848 11.694 9.82303 11.5327 9.85766C11.358 9.89528 11.2291 9.81608 11.1853 9.64097C11.0752 9.20177 10.966 8.76231 10.8567 8.3229C10.6799 7.6123 10.5033 6.90171 10.3232 6.19195C10.1864 5.6528 10.0453 5.11473 9.90434 4.57665C9.81734 4.24483 9.73034 3.913 9.64437 3.58092C9.57666 3.31971 9.50965 3.05811 9.4528 2.79445C9.36511 2.38756 9.52955 2.03573 9.90218 1.83477C10.9742 1.25674 12.0471 0.680575 13.1217 0.10735C13.3831 -0.03211 13.6651 -0.0364312 13.9212 0.0987308C15.0217 0.679726 16.1176 1.26987 17.2104 1.86541C17.5881 2.07127 17.7104 2.4574 17.5845 2.94401C17.3602 3.81135 17.1363 4.67878 16.9122 5.54621Z" fill="#868686"/>
<path d="M35.1026 7.0159L39.0936 18.6237H39.2475L43.2385 7.0159H45.5658L40.4208 21.2745H37.9203L32.7656 7.0159H35.1026ZM46.2393 21.2745V10.5758H48.3167V21.2745H46.2393ZM47.2876 8.9298C46.9222 8.9298 46.6112 8.8086 46.3548 8.56617C46.0983 8.32374 45.9701 8.03346 45.9701 7.69533C45.9701 7.35083 46.0983 7.05736 46.3548 6.81494C46.6112 6.57251 46.9222 6.45129 47.2876 6.45129C47.6467 6.45129 47.9544 6.57251 48.2109 6.81494C48.4737 7.05736 48.6051 7.35083 48.6051 7.69533C48.6051 8.03346 48.4737 8.32374 48.2109 8.56617C47.9544 8.8086 47.6467 8.9298 47.2876 8.9298ZM49.9231 21.2745V10.5758H51.933V12.2888H52.0484C52.2472 11.7146 52.5934 11.2616 53.087 10.9299C53.5871 10.5917 54.1513 10.4227 54.7796 10.4227C54.9078 10.4227 55.0585 10.429 55.2316 10.4418C55.4111 10.4481 55.5554 10.4577 55.6644 10.4705V12.461C55.581 12.4354 55.4303 12.41 55.2124 12.3844C55.0008 12.3589 54.786 12.3461 54.568 12.3461C54.0743 12.3461 53.632 12.4514 53.2409 12.662C52.8563 12.8661 52.5517 13.15 52.3273 13.5136C52.1093 13.8709 52.0003 14.2856 52.0003 14.7577V21.2745H49.9231ZM60.5213 21.4947C59.4699 21.4947 58.5594 21.2682 57.7901 20.8152C57.0207 20.3623 56.4277 19.7243 56.011 18.9013C55.6006 18.0719 55.3954 17.1054 55.3954 16.0017C55.3954 14.9044 55.5974 13.9379 56.0013 13.1021C56.4116 12.2664 56.9855 11.6157 57.7227 11.15C58.4665 10.6779 59.3384 10.4418 60.3386 10.4418C60.9477 10.4418 61.5375 10.5407 62.1081 10.7385C62.6787 10.9362 63.1916 11.2488 63.6468 11.6763C64.102 12.1037 64.461 12.6587 64.7239 13.3413C64.9932 14.024 65.1278 14.847 65.1278 15.8103V16.5567H56.5784V14.9969H64.0507L63.0794 15.5137C63.0794 14.8566 62.9768 14.276 62.7717 13.772C62.5665 13.2681 62.2588 12.8757 61.8484 12.5949C61.4445 12.3079 60.9412 12.1643 60.3386 12.1643C59.7359 12.1643 59.2198 12.3079 58.7903 12.5949C58.3671 12.8821 58.0433 13.2616 57.819 13.7337C57.5946 14.2059 57.4823 14.7226 57.4823 15.284V16.3462C57.4823 17.0799 57.6106 17.7019 57.867 18.2123C58.1235 18.7227 58.4793 19.1118 58.9345 19.3797C59.3962 19.6477 59.9314 19.7817 60.5405 19.7817C60.938 19.7817 61.2971 19.7243 61.6177 19.6095C61.9446 19.4946 62.2267 19.3224 62.4639 19.0927C62.7011 18.8631 62.8806 18.5791 63.0024 18.241L64.9835 18.6142C64.8233 19.1884 64.5412 19.6923 64.1373 20.1262C63.7333 20.56 63.2236 20.8982 62.6082 21.1406C61.9991 21.3766 61.3035 21.4947 60.5213 21.4947ZM70.7061 21.4947C69.6994 21.4947 68.8179 21.2649 68.0614 20.8057C67.3113 20.3463 66.7278 19.7019 66.3111 18.8726C65.9007 18.0432 65.6956 17.0799 65.6956 15.9825C65.6956 14.8725 65.9007 13.9028 66.3111 13.0734C66.7278 12.2377 67.3113 11.5901 68.0614 11.1308C68.8179 10.6715 69.6994 10.4418 70.7061 10.4418C71.719 10.4418 72.6006 10.6715 73.3507 11.1308C74.1008 11.5901 74.6842 12.2377 75.1009 13.0734C75.5177 13.9028 75.7261 14.8725 75.7261 15.9825C75.7261 17.0799 75.5177 18.0432 75.1009 18.8726C74.6842 19.7019 74.1008 20.3463 73.3507 20.8057C72.6006 21.2649 71.719 21.4947 70.7061 21.4947ZM70.7061 19.7434C71.3664 19.7434 71.9113 19.5711 72.3409 19.2267C72.7705 18.8822 73.0878 18.426 73.293 17.8582C73.5045 17.284 73.6103 16.6588 73.6103 15.9825C73.6103 15.2936 73.5045 14.6619 73.293 14.0878C73.0878 13.5136 72.7705 13.0543 72.3409 12.7098C71.9113 12.3653 71.3664 12.193 70.7061 12.193C70.0521 12.193 69.5103 12.3653 69.0808 12.7098C68.6576 13.0543 68.3403 13.5136 68.1287 14.0878C67.9171 14.6619 67.8113 15.2936 67.8113 15.9825C67.8113 16.6588 67.9171 17.284 68.1287 17.8582C68.3403 18.426 68.6576 18.8822 69.0808 19.2267C69.5103 19.5711 70.0521 19.7434 70.7061 19.7434ZM78.9193 14.93V21.2745H76.842V10.5758H78.8616V12.3366H79.0059C79.2495 11.7561 79.631 11.2967 80.1502 10.9586C80.6695 10.6141 81.3363 10.4418 82.1505 10.4418C82.8814 10.4418 83.5194 10.5949 84.0644 10.9011C84.6157 11.201 85.042 11.6508 85.3434 12.2505C85.6511 12.8501 85.805 13.5933 85.805 14.4801V21.2745H83.7277V14.729C83.7277 13.957 83.5225 13.3509 83.1123 12.9107C82.7019 12.4641 82.1441 12.2409 81.4389 12.2409C80.9581 12.2409 80.5253 12.3494 80.1407 12.5662C79.7623 12.7767 79.4642 13.0798 79.2463 13.4753C79.0283 13.8709 78.9193 14.3558 78.9193 14.93Z" fill="#868686"/>
</svg>
