<svg width="107" height="30" viewBox="0 0 107 30" fill="none" xmlns="http://www.w3.org/2000/svg">
<path d="M10.7932 28.9043L0.672852 11.7586H8.24363L14.4283 0.859375H27.0062L10.7932 28.9043Z" fill="#868686"/>
<path d="M33.4516 11.6211H20.6855L30.8272 29.0745L37.1973 18.0902L33.4516 11.6211Z" fill="#868686"/>
<path d="M49.6842 21.8984C48.5571 21.8984 47.5785 21.7224 46.7483 21.3706C45.9249 21.012 45.2803 20.5011 44.8147 19.838C44.349 19.175 44.0891 18.3866 44.0352 17.4731H46.3231C46.3704 18.0212 46.5458 18.478 46.8495 18.8433C47.16 19.202 47.5616 19.4692 48.0543 19.6451C48.5469 19.8211 49.0869 19.909 49.6741 19.909C50.3152 19.909 50.889 19.8076 51.3951 19.6046C51.9013 19.4016 52.2961 19.1174 52.5796 18.752C52.8698 18.3799 53.0149 17.9469 53.0149 17.4529C53.0149 17.0063 52.8867 16.641 52.6302 16.3567C52.3805 16.0725 52.0397 15.8391 51.6077 15.6564C51.1758 15.467 50.6898 15.3011 50.1498 15.159L48.3783 14.6719C47.1634 14.3471 46.205 13.8633 45.503 13.2205C44.8012 12.571 44.4502 11.7218 44.4502 10.673C44.4502 9.80013 44.6831 9.03891 45.1488 8.38933C45.6212 7.73976 46.259 7.23567 47.0622 6.87705C47.872 6.51167 48.7798 6.32898 49.7854 6.32898C50.8113 6.32898 51.7123 6.51167 52.4884 6.87705C53.2713 7.23567 53.8889 7.72962 54.3411 8.35888C54.8001 8.98139 55.0397 9.69523 55.0599 10.5004H52.853C52.772 9.8035 52.448 9.26222 51.8811 8.87651C51.3209 8.49082 50.6055 8.29799 49.7348 8.29799C49.1274 8.29799 48.5942 8.3961 48.1353 8.59232C47.683 8.78178 47.3321 9.04567 47.0824 9.38395C46.8395 9.72232 46.718 10.1114 46.718 10.5512C46.718 11.0249 46.863 11.4105 47.1533 11.7082C47.4502 12.006 47.8079 12.2428 48.2264 12.4187C48.6516 12.5879 49.0599 12.7266 49.4514 12.8349L50.9193 13.2307C51.3985 13.3525 51.8911 13.5149 52.3974 13.7179C52.9035 13.9209 53.3726 14.1881 53.8045 14.5197C54.2432 14.8444 54.5942 15.2504 54.8574 15.7376C55.1274 16.218 55.2624 16.8 55.2624 17.4833C55.2624 18.3291 55.043 19.087 54.6043 19.7569C54.1656 20.42 53.5312 20.9443 52.7011 21.33C51.8709 21.709 50.8653 21.8984 49.6842 21.8984ZM57.9051 25.8973C57.5744 25.904 57.274 25.8804 57.0041 25.8262C56.7409 25.7789 56.5384 25.7214 56.3966 25.6537L56.9332 23.8572L57.0851 23.8979C57.6452 24.04 58.1177 24.0298 58.5024 23.8674C58.8938 23.7118 59.2212 23.2753 59.4844 22.5581L59.7577 21.807L55.6272 10.3076H57.986L60.841 19.1174H60.9625L63.8274 10.3076H66.1863L61.5294 23.157C61.3134 23.7523 61.0401 24.253 60.7094 24.659C60.3787 25.0718 59.9804 25.3797 59.5148 25.5827C59.0558 25.7924 58.5192 25.8973 57.9051 25.8973ZM69.1732 14.9257V21.6548H66.9865V10.3076H69.1124V12.1751H69.2643C69.5207 11.5594 69.9224 11.0722 70.4691 10.7136C71.0158 10.3482 71.7176 10.1655 72.5748 10.1655C73.3442 10.1655 74.0157 10.3279 74.5894 10.6527C75.1698 10.9707 75.6187 11.4478 75.9358 12.0838C76.2598 12.7198 76.4218 13.508 76.4218 14.4486V21.6548H74.2351V14.7125C74.2351 13.8938 74.0191 13.251 73.5871 12.784C73.1552 12.3104 72.5681 12.0736 71.8256 12.0736C71.3194 12.0736 70.8639 12.1887 70.4589 12.4187C70.0607 12.642 69.7469 12.9634 69.5174 13.3829C69.288 13.8024 69.1732 14.3167 69.1732 14.9257ZM82.8609 21.8882C81.7742 21.8882 80.8362 21.6379 80.0465 21.1371C79.2568 20.6364 78.6494 19.9463 78.2242 19.0667C77.799 18.187 77.5865 17.1789 77.5865 16.042C77.5865 14.885 77.8024 13.8667 78.2344 12.987C78.673 12.1007 79.2839 11.4105 80.0668 10.9166C80.8564 10.4159 81.781 10.1655 82.8406 10.1655C83.7045 10.1655 84.4705 10.3245 85.1387 10.6425C85.8137 10.9538 86.3569 11.397 86.7687 11.9721C87.1871 12.5472 87.4334 13.2171 87.5077 13.9818H85.3615C85.2872 13.6231 85.1421 13.295 84.9261 12.9972C84.7169 12.6995 84.4402 12.4627 84.096 12.2868C83.7517 12.1109 83.3434 12.0229 82.871 12.0229C82.2568 12.0229 81.7203 12.1852 81.2614 12.51C80.8091 12.828 80.4548 13.2848 80.1983 13.8802C79.9419 14.4757 79.8137 15.1794 79.8137 15.9913C79.8137 16.81 79.9386 17.524 80.1882 18.1329C80.4379 18.7419 80.7923 19.2121 81.2512 19.5437C81.7169 19.8685 82.2568 20.0309 82.871 20.0309C83.5055 20.0309 84.0454 19.855 84.4909 19.503C84.943 19.1512 85.2332 18.6709 85.3615 18.0619H87.5077C87.4334 18.7994 87.1972 19.4557 86.7991 20.0309C86.4008 20.606 85.8676 21.0593 85.1995 21.3909C84.5313 21.7224 83.7517 21.8882 82.8609 21.8882ZM93.5218 21.8882C92.4147 21.8882 91.4562 21.648 90.6464 21.1676C89.8366 20.6872 89.2123 20.0106 88.7736 19.1377C88.3416 18.258 88.1257 17.233 88.1257 16.0624C88.1257 14.8986 88.3382 13.8735 88.7634 12.987C89.1954 12.1007 89.7994 11.4105 90.5756 10.9166C91.3583 10.4159 92.2759 10.1655 93.3296 10.1655C93.9707 10.1655 94.5909 10.2704 95.1921 10.4801C95.7924 10.6899 96.3329 11.0214 96.8116 11.4748C97.2913 11.9281 97.6685 12.5168 97.946 13.2408C98.2289 13.9648 98.3713 14.8377 98.3713 15.8594V16.651H89.3709V14.9967H97.2369L96.2141 15.5448C96.2141 14.8479 96.1062 14.232 95.8903 13.6975C95.6745 13.163 95.3508 12.7469 94.9183 12.4491C94.4939 12.1447 93.9634 11.9924 93.3296 11.9924C92.6949 11.9924 92.1517 12.1447 91.6992 12.4491C91.254 12.7537 90.913 13.1562 90.6768 13.657C90.4406 14.1577 90.3224 14.7058 90.3224 15.3011V16.4278C90.3224 17.2059 90.4575 17.8656 90.7271 18.407C90.9974 18.9482 91.3719 19.361 91.8515 19.6451C92.3367 19.9293 92.9007 20.0715 93.5418 20.0715C93.9607 20.0715 94.3379 20.0106 94.6753 19.8888C95.0198 19.767 95.3173 19.5843 95.5666 19.3407C95.816 19.0971 96.0055 18.796 96.1334 18.4374L98.219 18.8332C98.0503 19.4422 97.7529 19.9767 97.3285 20.4369C96.9032 20.897 96.3664 21.2556 95.7181 21.5127C95.077 21.763 94.3452 21.8882 93.5218 21.8882ZM101.682 6.53197V21.6548H99.4948V6.53197H101.682ZM105.559 6.53197V21.6548H103.373V6.53197H105.559Z" fill="#868686"/>
</svg>
