<svg width="114" height="30" viewBox="0 0 114 30" fill="none" xmlns="http://www.w3.org/2000/svg">
<path d="M9.28655 2.41833L0.776367 14.8431V27.5156H13.4602L21.806 14.8431V2.41833H9.28655Z" fill="#868686"/>
<path d="M30.3179 2.41833L21.8076 14.8431V27.5156H34.4914L42.8372 14.8431V2.41833H30.3179Z" fill="#868686"/>
<path d="M50.3145 21.6549V6.53205H52.6054V19.696H59.4783V21.6549H50.3145ZM60.6293 21.6549V10.3077H62.8286V21.6549H60.6293ZM61.7391 8.56195C61.3522 8.56195 61.023 8.4334 60.7515 8.17627C60.48 7.91916 60.3442 7.61128 60.3442 7.25266C60.3442 6.88728 60.48 6.57603 60.7515 6.31891C61.023 6.06179 61.3522 5.93323 61.7391 5.93323C62.1192 5.93323 62.4451 6.06179 62.7166 6.31891C62.9949 6.57603 63.1341 6.88728 63.1341 7.25266C63.1341 7.61128 62.9949 7.91916 62.7166 8.17627C62.4451 8.4334 62.1192 8.56195 61.7391 8.56195ZM66.7287 14.9258V21.6549H64.5293V10.3077H66.6676V12.1752H66.8204C67.0783 11.5595 67.4821 11.0723 68.032 10.7137C68.5818 10.3483 69.2878 10.1656 70.1498 10.1656C70.9236 10.1656 71.5991 10.3279 72.1761 10.6528C72.7599 10.9708 73.2112 11.4479 73.5303 12.0839C73.8561 12.7199 74.0191 13.5081 74.0191 14.4487V21.6549H71.8197V14.7126C71.8197 13.8939 71.6024 13.251 71.1681 12.7841C70.7336 12.3105 70.1431 12.0737 69.3964 12.0737C68.8872 12.0737 68.4291 12.1888 68.0218 12.4188C67.6213 12.642 67.3057 12.9635 67.0749 13.3829C66.8441 13.8025 66.7287 14.3168 66.7287 14.9258ZM77.7563 17.8082L77.7257 15.1186H78.1228L82.6538 10.3077H85.3011L80.1389 15.7884H79.7722L77.7563 17.8082ZM75.7199 21.6549V6.53205H77.9191V21.6549H75.7199ZM82.888 21.6549L78.8152 16.2756L80.3425 14.7228L85.6168 21.6549H82.888ZM90.3416 21.8883C89.2759 21.8883 88.3426 21.6447 87.5416 21.1576C86.7474 20.6704 86.1297 19.9869 85.6885 19.1073C85.254 18.2277 85.0368 17.2059 85.0368 16.0421C85.0368 14.8649 85.254 13.8363 85.6885 12.9567C86.1297 12.0703 86.7474 11.3835 87.5416 10.8963C88.3426 10.4092 89.2759 10.1656 90.3416 10.1656C91.4139 10.1656 92.3478 10.4092 93.1412 10.8963C93.9356 11.3835 94.5539 12.0703 94.9944 12.9567C95.4358 13.8363 95.6565 14.8649 95.6565 16.0421C95.6565 17.2059 95.4358 18.2277 94.9944 19.1073C94.5539 19.9869 93.9356 20.6704 93.1412 21.1576C92.3478 21.6447 91.4139 21.8883 90.3416 21.8883ZM90.3416 20.0309C91.0408 20.0309 91.6182 19.8482 92.0724 19.4829C92.5275 19.1175 92.8631 18.6337 93.0801 18.0315C93.3045 17.4225 93.4167 16.7594 93.4167 16.0421C93.4167 15.3114 93.3045 14.6415 93.0801 14.0326C92.8631 13.4236 92.5275 12.9364 92.0724 12.571C91.6182 12.2057 91.0408 12.0229 90.3416 12.0229C89.6492 12.0229 89.0756 12.2057 88.6208 12.571C88.1729 12.9364 87.8369 13.4236 87.6128 14.0326C87.3888 14.6415 87.2768 15.3114 87.2768 16.0421C87.2768 16.7594 87.3888 17.4225 87.6128 18.0315C87.8369 18.6337 88.1729 19.1175 88.6208 19.4829C89.0756 19.8482 89.6492 20.0309 90.3416 20.0309ZM96.8385 21.6549V10.3077H98.9662V12.1245H99.0884C99.2991 11.5155 99.6657 11.035 100.188 10.6832C100.717 10.3246 101.315 10.1453 101.98 10.1453C102.116 10.1453 102.275 10.152 102.458 10.1656C102.649 10.1723 102.801 10.1825 102.917 10.196V12.3071C102.829 12.28 102.669 12.253 102.438 12.2259C102.214 12.1989 101.987 12.1853 101.756 12.1853C101.233 12.1853 100.765 12.2969 100.351 12.5203C99.9439 12.7368 99.621 13.0379 99.3839 13.4236C99.1531 13.8025 99.0373 14.2423 99.0373 14.743V21.6549H96.8385ZM106.766 21.8985C106.047 21.8985 105.395 21.7665 104.811 21.5026C104.228 21.2319 103.766 20.8395 103.427 20.3253C103.087 19.811 102.917 19.1851 102.917 18.4476C102.917 17.8048 103.039 17.2804 103.284 16.8744C103.535 16.4617 103.871 16.1335 104.291 15.8899C104.713 15.6463 105.181 15.4637 105.697 15.3419C106.213 15.22 106.742 15.1253 107.285 15.0577C107.971 14.9832 108.524 14.9189 108.945 14.8649C109.366 14.8107 109.671 14.7261 109.861 14.6111C110.058 14.4893 110.156 14.2965 110.156 14.0326V13.9819C110.156 13.339 109.973 12.8417 109.606 12.4899C109.247 12.1379 108.711 11.962 107.998 11.962C107.258 11.962 106.671 12.1245 106.237 12.4492C105.809 12.7672 105.513 13.1292 105.351 13.5352L103.264 13.0582C103.514 12.368 103.877 11.8132 104.352 11.3937C104.835 10.9674 105.385 10.6561 106.002 10.4599C106.627 10.2637 107.278 10.1656 107.958 10.1656C108.412 10.1656 108.894 10.2197 109.403 10.3279C109.912 10.4295 110.391 10.6223 110.839 10.9065C111.294 11.1839 111.664 11.5831 111.949 12.1041C112.234 12.6251 112.376 13.2984 112.376 14.1239V21.6549H110.208V20.1019H110.126C109.99 20.3794 109.776 20.6569 109.484 20.9342C109.2 21.2117 108.833 21.4418 108.385 21.6244C107.937 21.8071 107.398 21.8985 106.766 21.8985ZM107.244 20.1324C107.863 20.1324 108.388 20.014 108.823 19.7772C109.257 19.5336 109.59 19.2156 109.821 18.8231C110.052 18.4307 110.166 18.0146 110.166 17.5748V16.103C110.085 16.1775 109.933 16.2486 109.709 16.3162C109.484 16.3839 109.23 16.4414 108.945 16.4888C108.66 16.5361 108.382 16.5801 108.11 16.6207C107.838 16.6545 107.611 16.6816 107.428 16.7019C107 16.7628 106.61 16.8575 106.257 16.986C105.904 17.1079 105.619 17.2906 105.401 17.5341C105.192 17.7709 105.086 18.0856 105.086 18.478C105.086 19.0261 105.29 19.4389 105.697 19.7163C106.104 19.9938 106.62 20.1324 107.244 20.1324Z" fill="#868686"/>
</svg>
