<svg width="99" height="30" viewBox="0 0 99 30" fill="none" xmlns="http://www.w3.org/2000/svg">
<path d="M32.5243 1.20737C33.9495 1.20737 35.3729 1.19227 36.7964 1.20737C38.5874 1.23378 38.8816 1.77348 37.9653 3.38315C35.3259 8.02533 32.6795 12.6619 30.0262 17.2927C28.1735 20.536 26.3183 23.7799 24.4607 27.0243C23.2013 29.2114 22.2152 29.2303 20.9765 27.079C19.6738 24.8146 18.4389 22.5161 17.1003 20.2856C16.678 19.578 16.6705 19.0798 17.089 18.357C20.1834 13.0166 23.2427 7.65736 26.2668 2.27921C26.6966 1.52439 27.1736 1.14697 28.0748 1.19037C29.5548 1.25454 31.0404 1.20737 32.5243 1.20737Z" fill="#868686"/>
<path d="M6.38965 28.7231C4.96623 28.7231 3.54091 28.7589 2.11937 28.7117C0.382975 28.6551 -0.193938 27.7682 0.637495 26.2925C3.58491 21.0804 6.56688 15.8884 9.58344 10.7166C10.2942 9.49379 11.301 9.47115 12.0437 10.7053C13.6048 13.2925 15.0433 15.9552 16.5686 18.5631C16.9796 19.2632 16.7194 19.7972 16.3914 20.3765C15.0244 22.8052 13.6331 25.2187 12.3078 27.6701C11.8458 28.5249 11.2312 28.791 10.298 28.7419C9.00084 28.6702 7.69242 28.7231 6.38965 28.7231Z" fill="#868686"/>
<path d="M45.918 21.6549V6.53205H51.4647C52.5328 6.53205 53.4184 6.70797 54.1214 7.05983C54.8245 7.41167 55.3484 7.88871 55.6932 8.49091C56.0447 9.08636 56.2205 9.75622 56.2205 10.5005C56.2205 11.1298 56.1022 11.6609 55.8656 12.094C55.6357 12.527 55.3281 12.8721 54.9428 13.1292C54.5575 13.3864 54.1316 13.5759 53.6651 13.6976V13.8398C54.1721 13.8668 54.6657 14.0292 55.1456 14.3269C55.6256 14.6246 56.0211 15.0475 56.332 15.5956C56.6497 16.1369 56.8086 16.8 56.8086 17.5849C56.8086 18.3563 56.626 19.0499 56.261 19.6656C55.9027 20.2745 55.3484 20.7583 54.598 21.1169C53.8477 21.4756 52.8843 21.6549 51.7081 21.6549H45.918ZM48.1995 19.7061H51.4849C52.5801 19.7061 53.3643 19.493 53.8375 19.0668C54.3107 18.6405 54.5473 18.1093 54.5473 17.4732C54.5473 16.9929 54.4256 16.5564 54.1823 16.1639C53.9457 15.7648 53.6043 15.4468 53.1581 15.2099C52.7119 14.9731 52.1847 14.8547 51.5762 14.8547H48.1995V19.7061ZM48.1995 13.0785H51.2619C51.7689 13.0785 52.2286 12.9804 52.641 12.7841C53.0533 12.5879 53.3778 12.3105 53.6144 11.9519C53.8578 11.5865 53.9795 11.1636 53.9795 10.6832C53.9795 10.0607 53.7598 9.53967 53.3204 9.12022C52.8878 8.6939 52.2218 8.48076 51.3227 8.48076H48.1995V13.0785ZM58.0563 21.6549V10.3077H60.1756V12.1245H60.2972C60.5068 11.5155 60.8719 11.035 61.3924 10.6832C61.9197 10.3246 62.5145 10.1453 63.1771 10.1453C63.3123 10.1453 63.4711 10.152 63.6537 10.1656C63.843 10.1723 63.9951 10.1825 64.11 10.196V12.3071C64.0221 12.28 63.8632 12.253 63.6334 12.2259C63.4103 12.1989 63.1838 12.1853 62.954 12.1853C62.4334 12.1853 61.967 12.2969 61.5546 12.5203C61.1491 12.7368 60.8279 13.0379 60.5913 13.4236C60.3614 13.8025 60.2465 14.2423 60.2465 14.743V21.6549H58.0563ZM64.7594 21.6549V10.3077H66.9497V21.6549H64.7594ZM65.8646 8.56195C65.4793 8.56195 65.1515 8.4334 64.881 8.17627C64.6106 7.91916 64.4755 7.61128 64.4755 7.25266C64.4755 6.88728 64.6106 6.57603 64.881 6.31891C65.1515 6.06179 65.4793 5.93323 65.8646 5.93323C66.2432 5.93323 66.5677 6.06179 66.8381 6.31891C67.1152 6.57603 67.2538 6.88728 67.2538 7.25266C67.2538 7.61128 67.1152 7.91916 66.8381 8.17627C66.5677 8.4334 66.2432 8.56195 65.8646 8.56195ZM72.8618 21.8781C71.9424 21.8781 71.1245 21.6447 70.4078 21.1779C69.6913 20.7042 69.1302 20.0309 68.7246 19.158C68.3189 18.2785 68.1162 17.2297 68.1162 16.0118C68.1162 14.7802 68.3224 13.728 68.7347 12.8552C69.1471 11.9823 69.7116 11.3159 70.4282 10.8558C71.1447 10.3957 71.956 10.1656 72.8618 10.1656C73.5717 10.1656 74.1395 10.284 74.5654 10.5209C74.998 10.7509 75.3327 11.0215 75.5693 11.3328C75.8126 11.644 75.9985 11.918 76.127 12.1549H76.2587V6.53205H78.4491V21.6549H76.3095V19.8889H76.127C75.9985 20.1257 75.8092 20.3997 75.5591 20.7109C75.309 21.0222 74.9676 21.2962 74.535 21.533C74.1091 21.7631 73.5513 21.8781 72.8618 21.8781ZM73.3384 20.0005C73.9738 20.0005 74.5113 19.8313 74.9507 19.493C75.3901 19.1547 75.7213 18.6844 75.9444 18.0822C76.1743 17.48 76.2892 16.7831 76.2892 15.9914C76.2892 15.1998 76.1776 14.5096 75.9546 13.9209C75.7315 13.3255 75.4003 12.8654 74.9608 12.5406C74.5214 12.209 73.9806 12.0432 73.3384 12.0432C72.6759 12.0432 72.125 12.2158 71.6856 12.5609C71.2462 12.9059 70.9149 13.3762 70.6918 13.9717C70.4687 14.5671 70.3572 15.2404 70.3572 15.9914C70.3572 16.7492 70.4687 17.4327 70.6918 18.0417C70.9149 18.6439 71.2462 19.1209 71.6856 19.4727C72.1317 19.8246 72.6827 20.0005 73.3384 20.0005ZM84.8784 26.1409C83.5263 26.1409 82.4616 25.8872 81.6842 25.3798C80.9068 24.8723 80.3693 24.27 80.0719 23.5731L81.958 22.7916C82.0932 23.0081 82.2723 23.2382 82.4955 23.4818C82.7253 23.7254 83.0329 23.9318 83.4182 24.1009C83.8035 24.27 84.3004 24.3547 84.9088 24.3547C85.7403 24.3547 86.4299 24.1517 86.9774 23.7457C87.5249 23.3465 87.7988 22.7037 87.7988 21.8172V19.5945H87.6466C87.5249 19.8313 87.3391 20.0986 87.089 20.3963C86.8388 20.6873 86.4974 20.941 86.0648 21.1576C85.6321 21.374 85.0676 21.4823 84.3714 21.4823C83.479 21.4823 82.6746 21.2726 81.958 20.853C81.2482 20.4268 80.6803 19.8043 80.2544 18.9856C79.8353 18.16 79.6257 17.1451 79.6257 15.9407C79.6257 14.7362 79.8319 13.7044 80.2443 12.845C80.6634 11.9789 81.2313 11.3159 81.9479 10.8558C82.6644 10.3957 83.479 10.1656 84.3916 10.1656C85.0947 10.1656 85.6626 10.284 86.0953 10.5209C86.5346 10.7509 86.876 11.0215 87.1194 11.3328C87.3627 11.644 87.552 11.918 87.6872 12.1549H87.8495V10.3077H89.989V21.9086C89.989 22.8829 89.7626 23.6814 89.3097 24.3039C88.8635 24.9264 88.2551 25.3865 87.4844 25.6842C86.7138 25.9888 85.8451 26.1409 84.8784 26.1409ZM84.8581 19.6452C85.8112 19.6452 86.5414 19.3171 87.0484 18.6608C87.5622 17.9977 87.819 17.0808 87.819 15.9102C87.819 15.1456 87.7075 14.4758 87.4844 13.9006C87.2614 13.3187 86.9301 12.8654 86.4907 12.5406C86.0513 12.209 85.5071 12.0432 84.8581 12.0432C84.1956 12.0432 83.6412 12.2158 83.1951 12.5609C82.7557 12.8992 82.4244 13.3627 82.2014 13.9514C81.9783 14.5333 81.8668 15.1862 81.8668 15.9102C81.8668 16.6478 81.9783 17.3007 82.2014 17.8691C82.4244 18.4307 82.759 18.8671 83.2053 19.1784C83.6582 19.4897 84.2092 19.6452 84.8581 19.6452ZM91.6828 21.6549V10.3077H93.8026V12.1245H93.9234C94.1332 11.5155 94.4984 11.035 95.0188 10.6832C95.5465 10.3246 96.1414 10.1453 96.8035 10.1453C96.9388 10.1453 97.0978 10.152 97.2803 10.1656C97.4693 10.1723 97.6219 10.1825 97.7363 10.196V12.3071C97.6491 12.28 97.4902 12.253 97.2604 12.2259C97.0369 12.1989 96.8108 12.1853 96.581 12.1853C96.0596 12.1853 95.5937 12.2969 95.1814 12.5203C94.7754 12.7368 94.4548 13.0379 94.2177 13.4236C93.9879 13.8025 93.8735 14.2423 93.8735 14.743V21.6549H91.6828Z" fill="#868686"/>
</svg>
