<svg width="99" height="30" viewBox="0 0 99 30" fill="none" xmlns="http://www.w3.org/2000/svg">
<path d="M16.239 0.741377C16.1314 0.835575 16.0616 0.916879 15.9744 0.970424C14.1437 2.09683 12.7271 3.65456 11.4556 5.35359C10.474 6.67441 9.60524 8.07563 8.85864 9.5424V9.54585C8.8314 9.59149 8.61841 9.94749 8.29596 10.6158C8.22264 10.7685 8.14372 10.9377 8.05919 11.1234C7.85759 11.5671 7.62876 12.105 7.38506 12.7362C7.34345 12.8433 7.30184 12.9533 7.25924 13.0664C7.00762 13.7387 6.74263 14.5071 6.47763 15.3718H6.46624C6.40614 15.5809 6.34753 15.79 6.2904 15.9989C6.28594 16.0138 6.28198 16.0281 6.27801 16.0425C6.21857 16.2481 6.16905 16.4349 6.12942 16.6028C5.3369 19.6503 4.89409 22.7241 5.60536 25.9169C1.66409 22.8838 -0.976466 16.5428 1.26536 10.1879C1.26536 10.1879 1.98011 8.35849 2.60818 7.40312C4.8921 3.52566 10.1247 0.051752 16.239 0.741377Z" fill="#868686"/>
<path d="M6.27555 16.0449C6.22437 16.2316 6.17484 16.4184 6.12695 16.6052C6.16856 16.4373 6.2181 16.2506 6.27555 16.0449Z" fill="#868686"/>
<path d="M17.3134 22.0278C17.0866 22.9361 16.6407 23.7437 16.0399 24.4655C15.2683 25.3951 14.441 26.2667 13.4747 26.998C12.8124 27.4992 12.1012 27.9067 11.3072 28.1635C9.7558 28.6647 8.45312 28.1442 7.68191 26.7005C7.27921 25.9464 7.08257 25.1309 6.98846 24.2895C6.79627 22.5845 6.90276 20.8895 7.24652 19.2163C7.4496 18.2247 7.71608 17.2465 7.9677 16.2654V16.2624C8.01096 16.0952 8.0534 15.9281 8.095 15.7612C8.12225 15.6516 8.15098 15.5425 8.19407 15.3744H8.19011C8.33127 14.8971 8.55367 14.2307 8.89792 13.3824C10.4334 14.0354 11.9645 14.6908 13.5044 15.3308C14.4906 15.7409 15.408 16.2435 16.1271 17.0522C17.413 18.4964 17.7825 20.1686 17.3134 22.0278Z" fill="#868686"/>
<path d="M22.5734 8.1104C22.5318 9.03552 22.4451 9.95721 22.1222 10.8328C21.4208 12.735 20.1102 13.9725 18.11 14.4191C16.9625 14.6755 15.84 14.5089 14.7677 14.0746C13.089 13.3958 11.4272 12.673 9.75698 11.9676C9.71384 11.9492 9.67969 11.91 9.57715 11.8307C9.5905 11.8029 9.6044 11.7752 9.61775 11.7479V11.7449C9.78968 11.3929 9.95562 11.0468 10.1255 10.7038L10.1696 10.616L10.1899 10.5759C10.2193 10.5174 10.249 10.4589 10.279 10.4004C11.45 8.11487 12.8329 5.97509 14.6498 4.1427C15.3363 3.44862 16.0718 2.81452 16.9213 2.32569C17.6717 1.89386 18.4534 1.56219 19.3455 1.58202C20.1939 1.60185 20.8665 1.96872 21.3946 2.61076C21.7868 3.08819 22.0321 3.64594 22.2074 4.2364C22.5858 5.50559 22.6313 6.80205 22.5734 8.1104Z" fill="#868686"/>
<path d="M13.2031 29.2009C13.3517 29.0868 13.4221 29.0224 13.5003 28.9728C15.4212 27.7721 16.9165 26.136 18.2261 24.3164C18.5538 23.8617 18.8675 23.3973 19.1673 22.9234C19.9172 21.7434 20.9777 20.974 22.2972 20.562C23.4613 20.1985 24.6386 20.1931 25.7972 20.5857C26.3847 20.7841 26.9493 21.0513 27.5249 21.2878C25.3935 26.075 19.6671 29.8781 13.2031 29.2009Z" fill="#868686"/>
<path d="M23.9072 3.96924C26.1614 5.88294 27.6509 8.19772 28.4691 10.9493C29.424 14.1624 29.1021 17.5986 28.1828 19.7409C25.7646 18.9918 24.035 17.5664 23.4837 14.976C23.3381 14.2908 23.3553 13.6041 23.4837 12.913C23.716 11.6661 23.982 10.4218 24.1305 9.1645C24.3223 7.53834 24.3025 5.90475 23.93 4.29347C23.9137 4.21861 23.9186 4.13681 23.9072 3.96924Z" fill="#868686"/>
<path d="M6.27555 16.0449C6.22437 16.2316 6.17484 16.4184 6.12695 16.6052C6.16856 16.4373 6.2181 16.2506 6.27555 16.0449Z" fill="#868686"/>
<path d="M9.61648 11.7454L9.57715 11.8296C9.58914 11.8007 9.60303 11.7728 9.61648 11.7454Z" fill="#868686"/>
<path d="M48.7121 6.53113V21.6539H46.5827L38.9268 10.5706H38.7747V21.6539H36.4932V6.53113H38.6023L46.2886 17.6347H46.4306V6.53113H48.7121ZM55.4557 21.8874C54.3471 21.8874 53.3872 21.6472 52.5759 21.1667C51.7648 20.6864 51.1394 20.0097 50.7 19.1368C50.2673 18.2573 50.0511 17.2321 50.0511 16.0615C50.0511 14.8977 50.264 13.8726 50.6899 12.9863C51.1225 12.0998 51.7275 11.4096 52.505 10.9157C53.2892 10.415 54.2085 10.1646 55.2631 10.1646C55.9053 10.1646 56.5273 10.2695 57.1289 10.4793C57.7306 10.6891 58.2713 11.0206 58.7514 11.4739C59.2313 11.9273 59.6099 12.516 59.887 13.24C60.171 13.964 60.3129 14.8368 60.3129 15.8585V16.6502H51.2983V14.9958H59.1772L58.1531 15.5439C58.1531 14.847 58.0449 14.2313 57.8286 13.6967C57.6123 13.1622 57.2878 12.746 56.8551 12.4483C56.4292 12.1438 55.8986 11.9915 55.2631 11.9915C54.6277 11.9915 54.0835 12.1438 53.6305 12.4483C53.1844 12.7528 52.843 13.1554 52.6064 13.6561C52.3698 14.1568 52.2515 14.7049 52.2515 15.3004V16.4269C52.2515 17.2051 52.3867 17.8648 52.657 18.4061C52.9275 18.9474 53.3026 19.3602 53.7827 19.6444C54.2694 19.9285 54.8339 20.0706 55.4761 20.0706C55.8952 20.0706 56.2737 20.0097 56.6118 19.8879C56.9566 19.7661 57.254 19.5835 57.5041 19.3398C57.7543 19.0963 57.9436 18.7952 58.072 18.4365L60.1609 18.8324C59.9919 19.4414 59.6944 19.9759 59.2685 20.436C58.8426 20.8961 58.3052 21.2547 57.6562 21.5118C57.014 21.7622 56.2805 21.8874 55.4557 21.8874ZM62.7267 10.3067L65.2111 14.732L67.736 10.3067H70.1595L66.6308 15.9905L70.1798 21.6539H67.7765L65.2111 17.4115L62.6862 21.6539H60.2627L63.7813 15.9905L60.3032 10.3067H62.7267ZM75.4734 21.8874C74.4121 21.8874 73.4826 21.6438 72.6848 21.1566C71.8939 20.6695 71.2788 19.986 70.8394 19.1064C70.4067 18.2268 70.1903 17.2051 70.1903 16.0413C70.1903 14.8639 70.4067 13.8355 70.8394 12.9558C71.2788 12.0694 71.8939 11.3826 72.6848 10.8955C73.4826 10.4083 74.4121 10.1646 75.4734 10.1646C76.5415 10.1646 77.471 10.4083 78.262 10.8955C79.0529 11.3826 79.6681 12.0694 80.1075 12.9558C80.5469 13.8355 80.7666 14.8639 80.7666 16.0413C80.7666 17.2051 80.5469 18.2268 80.1075 19.1064C79.6681 19.986 79.0529 20.6695 78.262 21.1566C77.471 21.6438 76.5415 21.8874 75.4734 21.8874ZM75.4734 20.03C76.1697 20.03 76.7443 19.8474 77.1972 19.4819C77.6502 19.1165 77.9848 18.6327 78.2011 18.0305C78.4242 17.4215 78.5357 16.7585 78.5357 16.0413C78.5357 15.3105 78.4242 14.6406 78.2011 14.0316C77.9848 13.4226 77.6502 12.9355 77.1972 12.5701C76.7443 12.2047 76.1697 12.022 75.4734 12.022C74.7839 12.022 74.2126 12.2047 73.7597 12.5701C73.3135 12.9355 72.9789 13.4226 72.7559 14.0316C72.5327 14.6406 72.4212 15.3105 72.4212 16.0413C72.4212 16.7585 72.5327 17.4215 72.7559 18.0305C72.9789 18.6327 73.3135 19.1165 73.7597 19.4819C74.2126 19.8474 74.7839 20.03 75.4734 20.03ZM81.9432 21.6539V10.3067H84.0626V12.1235H84.1843C84.3938 11.5145 84.7588 11.0342 85.2795 10.6823C85.8067 10.3236 86.4016 10.1444 87.0641 10.1444C87.1993 10.1444 87.3582 10.1511 87.5407 10.1646C87.7299 10.1715 87.8821 10.1815 87.997 10.1951V12.3062C87.9091 12.2792 87.7503 12.2521 87.5204 12.225C87.2973 12.1979 87.0708 12.1845 86.841 12.1845C86.3205 12.1845 85.854 12.2961 85.4417 12.5194C85.036 12.7359 84.715 13.037 84.4784 13.4226C84.2485 13.8015 84.1336 14.2414 84.1336 14.7421V21.6539H81.9432ZM91.83 21.8975C91.1143 21.8975 90.4649 21.7655 89.8835 21.5017C89.3021 21.231 88.8425 20.8386 88.5044 20.3244C88.1664 19.8101 87.9974 19.1842 87.9974 18.4467C87.9974 17.8039 88.1191 17.2795 88.3624 16.8735C88.6126 16.4607 88.9472 16.1326 89.3663 15.889C89.7855 15.6455 90.2519 15.4627 90.7657 15.3409C91.2796 15.2191 91.8064 15.1244 92.3477 15.0567C93.0307 14.9823 93.5811 14.918 94.0007 14.8639C94.4194 14.8097 94.7237 14.7252 94.9126 14.6102C95.1088 14.4884 95.2069 14.2955 95.2069 14.0316V13.9809C95.2069 13.3381 95.0243 12.8407 94.6592 12.4889C94.3013 12.1371 93.7673 11.9611 93.057 11.9611C92.3204 11.9611 91.7355 12.1235 91.3032 12.4483C90.8772 12.7664 90.5831 13.1284 90.4209 13.5343L88.3422 13.0573C88.5923 12.3671 88.954 11.8123 89.4272 11.3927C89.9071 10.9665 90.4547 10.6552 91.0698 10.459C91.6919 10.2628 92.3404 10.1646 93.0171 10.1646C93.4694 10.1646 93.9499 10.2188 94.4567 10.3271C94.9635 10.4285 95.4403 10.6214 95.8863 10.9055C96.3395 11.183 96.7082 11.5822 96.9916 12.1032C97.2759 12.6243 97.4176 13.2975 97.4176 14.123V21.6539H95.2577V20.1011H95.1769C95.0416 20.3785 94.8281 20.6559 94.5375 20.9334C94.2541 21.2107 93.889 21.4408 93.4431 21.6235C92.9962 21.8062 92.4594 21.8975 91.83 21.8975ZM92.3068 20.1315C92.9226 20.1315 93.4458 20.0131 93.879 19.7763C94.3113 19.5327 94.6429 19.2146 94.8726 18.8222C95.1024 18.4297 95.2169 18.0136 95.2169 17.5738V16.1022C95.136 16.1765 94.9844 16.2476 94.7609 16.3153C94.5375 16.3829 94.2841 16.4405 94.0007 16.4878C93.7164 16.5352 93.4394 16.5792 93.1688 16.6197C92.8981 16.6536 92.6719 16.6806 92.4894 16.701C92.0634 16.7618 91.6747 16.8566 91.3232 16.9852C90.9717 17.1069 90.6879 17.2896 90.4716 17.5333C90.2621 17.7701 90.1572 18.0847 90.1572 18.4771C90.1572 19.0252 90.3601 19.438 90.7657 19.7154C91.1715 19.9928 91.6847 20.1315 92.3068 20.1315Z" fill="#868686"/>
</svg>
