<svg width="15" height="13" viewBox="0 0 15 13" fill="none" xmlns="http://www.w3.org/2000/svg">
<path d="M2.63457 12.67C2.52265 12.67 2.42868 12.632 2.35266 12.556C2.27664 12.48 2.23863 12.3857 2.23863 12.2733C2.23863 12.1608 2.27664 12.0669 2.35266 11.9914C2.42868 11.9159 2.52265 11.8781 2.63457 11.8781H11.6192C11.7316 11.8781 11.8256 11.9161 11.9011 11.9922C11.9766 12.0682 12.0146 12.1624 12.0151 12.2749C12.0156 12.3873 11.9776 12.4813 11.9011 12.5568C11.8245 12.6323 11.7306 12.67 11.6192 12.67H2.63457ZM3.24986 10.3862C2.93838 10.3862 2.66704 10.2886 2.43581 10.0932C2.20458 9.89791 2.05624 9.64979 1.99077 9.34888L1.04528 4.33552C1.01888 4.34607 0.989316 4.35188 0.956585 4.35294C0.923326 4.35452 0.893499 4.35531 0.867103 4.35531C0.618454 4.35531 0.411775 4.27085 0.247065 4.10191C0.082355 3.93298 0 3.72815 0 3.48742C0 3.23771 0.0826189 3.02549 0.247857 2.85075C0.412567 2.67654 0.61951 2.58943 0.868687 2.58943C1.11786 2.58943 1.32982 2.67654 1.50456 2.85075C1.67878 3.02549 1.76588 3.23771 1.76588 3.48742C1.76588 3.54232 1.76377 3.59326 1.75955 3.64025C1.75532 3.68723 1.73975 3.73369 1.71283 3.77962L3.8984 4.65939C3.99976 4.70004 4.10138 4.70532 4.20327 4.67523C4.30463 4.64461 4.39068 4.58364 4.46142 4.49231L6.60107 1.59404C6.48651 1.51908 6.39571 1.41983 6.32866 1.2963C6.26162 1.17329 6.2281 1.04052 6.2281 0.897986C6.2281 0.648809 6.31547 0.436851 6.49021 0.262111C6.66442 0.0873703 6.87638 0 7.12608 0C7.37526 0 7.58748 0.0871062 7.76275 0.261319C7.93802 0.435531 8.02565 0.646698 8.02565 0.894819C8.02565 1.04475 7.99213 1.17989 7.92509 1.30026C7.85804 1.42168 7.76724 1.51961 7.65268 1.59404L9.79233 4.49231C9.86307 4.58364 9.94912 4.64435 10.0505 4.67444C10.1524 4.70559 10.254 4.70083 10.3553 4.66018L12.5409 3.77962C12.5267 3.73739 12.5143 3.69119 12.5037 3.64104C12.4931 3.59036 12.4879 3.53915 12.4879 3.48742C12.4879 3.23771 12.5702 3.02549 12.7349 2.85075C12.8996 2.67654 13.1066 2.58943 13.3558 2.58943C13.6049 2.58943 13.8169 2.67654 13.9916 2.85075C14.1664 3.02549 14.2537 3.23771 14.2537 3.48742C14.2537 3.72709 14.1661 3.93166 13.9908 4.10112C13.8156 4.27058 13.6028 4.35531 13.3526 4.35531C13.3325 4.35531 13.3098 4.35215 13.2845 4.34581C13.2592 4.33948 13.2312 4.33604 13.2006 4.33552L12.263 9.34808C12.197 9.65005 12.0486 9.89844 11.8179 10.0932C11.5872 10.288 11.3159 10.3857 11.0039 10.3862H3.24986Z" fill="#FF5608"/>
</svg>
