<svg width="99" height="30" viewBox="0 0 99 30" fill="none" xmlns="http://www.w3.org/2000/svg">
<path d="M16.239 0.741255C16.1314 0.835453 16.0616 0.916757 15.9744 0.970302C14.1437 2.09671 12.7271 3.65444 11.4556 5.35347C10.474 6.67428 9.60524 8.07551 8.85864 9.54228V9.54573C8.8314 9.59137 8.61841 9.94737 8.29596 10.6156C8.22264 10.7684 8.14372 10.9375 8.05919 11.1233C7.85759 11.567 7.62876 12.1049 7.38506 12.7361C7.34345 12.8432 7.30184 12.9532 7.25924 13.0663C7.00762 13.7385 6.74263 14.507 6.47763 15.3716H6.46624C6.40614 15.5808 6.34753 15.7899 6.2904 15.9988C6.28594 16.0136 6.28198 16.028 6.27801 16.0424C6.21857 16.248 6.16905 16.4347 6.12942 16.6026C5.3369 19.6502 4.89409 22.724 5.60536 25.9168C1.66409 22.8836 -0.976466 16.5426 1.26536 10.1878C1.26536 10.1878 1.98011 8.35837 2.60818 7.403C4.8921 3.52554 10.1247 0.05163 16.239 0.741255Z" fill="#222222"/>
<path d="M6.27555 16.0449C6.22437 16.2316 6.17484 16.4184 6.12695 16.6052C6.16856 16.4373 6.2181 16.2506 6.27555 16.0449Z" fill="#222222"/>
<path d="M17.3144 22.0282C17.0876 22.9364 16.6417 23.7441 16.0409 24.4659C15.2693 25.3954 14.442 26.2671 13.4756 26.9984C12.8134 27.4995 12.1022 27.9071 11.3082 28.1639C9.75677 28.6651 8.4541 28.1445 7.68289 26.7009C7.28018 25.9468 7.08355 25.1313 6.98943 24.2899C6.79725 22.5849 6.90374 20.8899 7.2475 19.2166C7.45057 18.2251 7.71706 17.2469 7.96868 16.2657V16.2628C8.01194 16.0955 8.05437 15.9284 8.09598 15.7615C8.12323 15.652 8.15196 15.5429 8.19504 15.3748H8.19108C8.33225 14.8974 8.55465 14.2311 8.8989 13.3828C10.4344 14.0357 11.9655 14.6912 13.5054 15.3312C14.4916 15.7413 15.4089 16.2439 16.1281 17.0525C17.414 18.4967 17.7835 20.169 17.3144 22.0282Z" fill="#222222"/>
<path d="M22.5744 8.11028C22.5328 9.0354 22.4461 9.95709 22.1231 10.8326C21.4218 12.7349 20.1112 13.9724 18.111 14.419C16.9634 14.6754 15.841 14.5088 14.7686 14.0745C13.09 13.3957 11.4282 12.6729 9.75796 11.9675C9.71482 11.9491 9.68067 11.9099 9.57812 11.8305C9.59148 11.8028 9.60537 11.7751 9.61872 11.7478V11.7448C9.79066 11.3928 9.9566 11.0467 10.1264 10.7037L10.1706 10.6159L10.1908 10.5758C10.2203 10.5173 10.25 10.4588 10.28 10.4003C11.451 8.11475 12.8339 5.97497 14.6507 4.14258C15.3373 3.4485 16.0728 2.8144 16.9223 2.32556C17.6727 1.89374 18.4543 1.56206 19.3464 1.5819C20.1948 1.60173 20.8675 1.9686 21.3955 2.61064C21.7878 3.08806 22.0331 3.64582 22.2083 4.23628C22.5868 5.50547 22.6323 6.80193 22.5744 8.11028Z" fill="#222222"/>
<path d="M13.2031 29.2007C13.3517 29.0866 13.4221 29.0221 13.5003 28.9726C15.4212 27.7718 16.9165 26.1358 18.2261 24.3162C18.5538 23.8615 18.8675 23.397 19.1673 22.9231C19.9172 21.7431 20.9777 20.9738 22.2972 20.5618C23.4613 20.1983 24.6386 20.1928 25.7972 20.5855C26.3847 20.7838 26.9493 21.051 27.5249 21.2876C25.3935 26.0748 19.6671 29.8778 13.2031 29.2007Z" fill="#222222"/>
<path d="M23.9072 3.96973C26.1614 5.88343 27.6509 8.19821 28.4691 10.9498C29.424 14.1629 29.1021 17.5991 28.1828 19.7414C25.7646 18.9923 24.035 17.5669 23.4837 14.9764C23.3381 14.2913 23.3553 13.6046 23.4837 12.9135C23.716 11.6666 23.982 10.4223 24.1305 9.16499C24.3223 7.53883 24.3025 5.90524 23.93 4.29396C23.9137 4.2191 23.9186 4.1373 23.9072 3.96973Z" fill="#222222"/>
<path d="M6.27555 16.0449C6.22437 16.2316 6.17484 16.4184 6.12695 16.6052C6.16856 16.4373 6.2181 16.2506 6.27555 16.0449Z" fill="#222222"/>
<path d="M9.61745 11.7451L9.57812 11.8294C9.59011 11.8005 9.60401 11.7726 9.61745 11.7451Z" fill="#222222"/>
<path d="M48.7131 6.53125V21.654H46.5837L38.9278 10.5708H38.7757V21.654H36.4941V6.53125H38.6033L46.2896 17.6348H46.4316V6.53125H48.7131ZM55.4567 21.8875C54.3481 21.8875 53.3882 21.6473 52.5769 21.1668C51.7658 20.6865 51.1404 20.0098 50.701 19.1369C50.2683 18.2574 50.0521 17.2322 50.0521 16.0617C50.0521 14.8978 50.2649 13.8728 50.6908 12.9864C51.1235 12.0999 51.7285 11.4098 52.506 10.9159C53.2902 10.4151 54.2095 10.1648 55.2641 10.1648C55.9063 10.1648 56.5283 10.2697 57.1299 10.4794C57.7315 10.6892 58.2723 11.0208 58.7523 11.474C59.2323 11.9274 59.6109 12.5161 59.888 13.2401C60.1719 13.9641 60.3139 14.8369 60.3139 15.8587V16.6503H51.2993V14.9959H59.1782L58.1541 15.544C58.1541 14.8471 58.0459 14.2314 57.8295 13.6968C57.6133 13.1623 57.2888 12.7461 56.8561 12.4484C56.4302 12.1439 55.8996 11.9917 55.2641 11.9917C54.6287 11.9917 54.0844 12.1439 53.6315 12.4484C53.1854 12.7529 52.8439 13.1555 52.6073 13.6562C52.3707 14.1569 52.2525 14.705 52.2525 15.3005V16.427C52.2525 17.2052 52.3876 17.8649 52.658 18.4062C52.9285 18.9475 53.3036 19.3603 53.7836 19.6445C54.2704 19.9287 54.8348 20.0708 55.4771 20.0708C55.8961 20.0708 56.2747 20.0098 56.6128 19.888C56.9575 19.7662 57.255 19.5836 57.5051 19.3399C57.7553 19.0964 57.9445 18.7953 58.073 18.4367L60.1619 18.8325C59.9928 19.4415 59.6954 19.976 59.2695 20.4361C58.8436 20.8962 58.3062 21.2548 57.6572 21.5119C57.0149 21.7623 56.2815 21.8875 55.4567 21.8875ZM62.7277 10.3069L65.212 14.7321L67.737 10.3069H70.1605L66.6317 15.9906L70.1808 21.654H67.7775L65.212 17.4116L62.6872 21.654H60.2637L63.7823 15.9906L60.3042 10.3069H62.7277ZM75.4743 21.8875C74.413 21.8875 73.4835 21.6439 72.6858 21.1568C71.8949 20.6696 71.2797 19.9861 70.8403 19.1065C70.4076 18.2269 70.1913 17.2052 70.1913 16.0414C70.1913 14.864 70.4076 13.8356 70.8403 12.9559C71.2797 12.0695 71.8949 11.3828 72.6858 10.8956C73.4835 10.4084 74.413 10.1648 75.4743 10.1648C76.5425 10.1648 77.472 10.4084 78.263 10.8956C79.0539 11.3828 79.669 12.0695 80.1085 12.9559C80.5479 13.8356 80.7676 14.864 80.7676 16.0414C80.7676 17.2052 80.5479 18.2269 80.1085 19.1065C79.669 19.9861 79.0539 20.6696 78.263 21.1568C77.472 21.6439 76.5425 21.8875 75.4743 21.8875ZM75.4743 20.0301C76.1707 20.0301 76.7453 19.8475 77.1982 19.482C77.6512 19.1167 77.9858 18.6328 78.2021 18.0307C78.4252 17.4217 78.5367 16.7586 78.5367 16.0414C78.5367 15.3106 78.4252 14.6408 78.2021 14.0318C77.9858 13.4228 77.6512 12.9356 77.1982 12.5702C76.7453 12.2048 76.1707 12.0221 75.4743 12.0221C74.7849 12.0221 74.2136 12.2048 73.7607 12.5702C73.3145 12.9356 72.9799 13.4228 72.7568 14.0318C72.5337 14.6408 72.4221 15.3106 72.4221 16.0414C72.4221 16.7586 72.5337 17.4217 72.7568 18.0307C72.9799 18.6328 73.3145 19.1167 73.7607 19.482C74.2136 19.8475 74.7849 20.0301 75.4743 20.0301ZM81.9442 21.654V10.3069H84.0636V12.1237H84.1853C84.3948 11.5147 84.7598 11.0343 85.2804 10.6824C85.8077 10.3238 86.4026 10.1445 87.0651 10.1445C87.2003 10.1445 87.3592 10.1512 87.5416 10.1648C87.7309 10.1716 87.883 10.1817 87.9979 10.1952V12.3063C87.9101 12.2793 87.7513 12.2522 87.5214 12.2251C87.2983 12.198 87.0718 12.1846 86.842 12.1846C86.3215 12.1846 85.855 12.2962 85.4426 12.5195C85.037 12.736 84.716 13.0371 84.4794 13.4228C84.2495 13.8017 84.1346 14.2415 84.1346 14.7422V21.654H81.9442ZM91.831 21.8977C91.1153 21.8977 90.4659 21.7657 89.8845 21.5018C89.3031 21.2311 88.8434 20.8388 88.5054 20.3245C88.1674 19.8102 87.9984 19.1843 87.9984 18.4468C87.9984 17.804 88.1201 17.2796 88.3634 16.8737C88.6136 16.4608 88.9482 16.1328 89.3673 15.8891C89.7865 15.6456 90.2529 15.4628 90.7667 15.341C91.2806 15.2192 91.8074 15.1245 92.3487 15.0569C93.0317 14.9824 93.5821 14.9181 94.0017 14.864C94.4204 14.8098 94.7247 14.7253 94.9136 14.6103C95.1098 14.4885 95.2079 14.2957 95.2079 14.0318V13.981C95.2079 13.3382 95.0253 12.8408 94.6602 12.489C94.3023 12.1372 93.7683 11.9612 93.058 11.9612C92.3214 11.9612 91.7365 12.1237 91.3042 12.4484C90.8782 12.7665 90.5841 13.1285 90.4219 13.5344L88.3432 13.0574C88.5933 12.3672 88.955 11.8124 89.4282 11.3928C89.9081 10.9666 90.4557 10.6553 91.0708 10.4591C91.6929 10.2629 92.3414 10.1648 93.0181 10.1648C93.4704 10.1648 93.9508 10.2189 94.4576 10.3272C94.9645 10.4287 95.4413 10.6215 95.8872 10.9057C96.3405 11.1831 96.7092 11.5823 96.9926 12.1033C97.2769 12.6244 97.4186 13.2976 97.4186 14.1231V21.654H95.2587V20.1012H95.1779C95.0426 20.3786 94.8291 20.656 94.5385 20.9335C94.2551 21.2108 93.89 21.4409 93.444 21.6236C92.9972 21.8063 92.4604 21.8977 91.831 21.8977ZM92.3078 20.1317C92.9236 20.1317 93.4468 20.0132 93.88 19.7764C94.3123 19.5328 94.6438 19.2148 94.8736 18.8223C95.1034 18.4298 95.2178 18.0138 95.2178 17.5739V16.1023C95.137 16.1767 94.9853 16.2478 94.7619 16.3154C94.5385 16.383 94.2851 16.4406 94.0017 16.4879C93.7174 16.5353 93.4404 16.5793 93.1697 16.6198C92.8991 16.6538 92.6729 16.6808 92.4904 16.7011C92.0644 16.7619 91.6756 16.8568 91.3242 16.9853C90.9727 17.107 90.6889 17.2898 90.4726 17.5334C90.263 17.7702 90.1582 18.0848 90.1582 18.4772C90.1582 19.0253 90.361 19.4381 90.7667 19.7155C91.1725 19.9929 91.6856 20.1317 92.3078 20.1317Z" fill="#222222"/>
</svg>
