<svg width="114" height="30" viewBox="0 0 114 30" fill="none" xmlns="http://www.w3.org/2000/svg">
<path d="M9.28752 2.41797L0.777344 14.8427V27.5152H13.4612L21.807 14.8427V2.41797H9.28752Z" fill="#111111"/>
<path d="M30.3188 2.41797L21.8086 14.8427V27.5152H34.4924L42.8382 14.8427V2.41797H30.3188Z" fill="#111111"/>
<path d="M50.3145 21.6552V6.53242H52.6054V19.6964H59.4783V21.6552H50.3145ZM60.6293 21.6552V10.308H62.8286V21.6552H60.6293ZM61.7391 8.56232C61.3522 8.56232 61.023 8.43377 60.7515 8.17664C60.48 7.91952 60.3442 7.61165 60.3442 7.25303C60.3442 6.88765 60.48 6.57639 60.7515 6.31928C61.023 6.06216 61.3522 5.93359 61.7391 5.93359C62.1192 5.93359 62.4451 6.06216 62.7166 6.31928C62.9949 6.57639 63.1341 6.88765 63.1341 7.25303C63.1341 7.61165 62.9949 7.91952 62.7166 8.17664C62.4451 8.43377 62.1192 8.56232 61.7391 8.56232ZM66.7287 14.9261V21.6552H64.5293V10.308H66.6676V12.1756H66.8204C67.0783 11.5599 67.4821 11.0727 68.032 10.714C68.5818 10.3487 69.2878 10.1659 70.1498 10.1659C70.9236 10.1659 71.5991 10.3283 72.1761 10.6531C72.7599 10.9711 73.2112 11.4482 73.5303 12.0842C73.8561 12.7202 74.0191 13.5085 74.0191 14.449V21.6552H71.8197V14.7129C71.8197 13.8942 71.6024 13.2514 71.1681 12.7845C70.7336 12.3109 70.1431 12.074 69.3964 12.074C68.8872 12.074 68.4291 12.1891 68.0218 12.4191C67.6213 12.6424 67.3057 12.9639 67.0749 13.3833C66.8441 13.8029 66.7287 14.3171 66.7287 14.9261ZM77.7563 17.8086L77.7257 15.1189H78.1228L82.6538 10.308H85.3011L80.1389 15.7888H79.7722L77.7563 17.8086ZM75.7199 21.6552V6.53242H77.9191V21.6552H75.7199ZM82.888 21.6552L78.8152 16.2759L80.3425 14.7231L85.6168 21.6552H82.888ZM90.3416 21.8887C89.2759 21.8887 88.3426 21.645 87.5416 21.1579C86.7474 20.6708 86.1297 19.9873 85.6885 19.1077C85.254 18.228 85.0368 17.2063 85.0368 16.0425C85.0368 14.8652 85.254 13.8367 85.6885 12.957C86.1297 12.0707 86.7474 11.3839 87.5416 10.8967C88.3426 10.4096 89.2759 10.1659 90.3416 10.1659C91.4139 10.1659 92.3478 10.4096 93.1412 10.8967C93.9356 11.3839 94.5539 12.0707 94.9944 12.957C95.4358 13.8367 95.6565 14.8652 95.6565 16.0425C95.6565 17.2063 95.4358 18.228 94.9944 19.1077C94.5539 19.9873 93.9356 20.6708 93.1412 21.1579C92.3478 21.645 91.4139 21.8887 90.3416 21.8887ZM90.3416 20.0313C91.0408 20.0313 91.6182 19.8486 92.0724 19.4832C92.5275 19.1179 92.8631 18.634 93.0801 18.0319C93.3045 17.4229 93.4167 16.7598 93.4167 16.0425C93.4167 15.3118 93.3045 14.6419 93.0801 14.0329C92.8631 13.4239 92.5275 12.9368 92.0724 12.5714C91.6182 12.206 91.0408 12.0233 90.3416 12.0233C89.6492 12.0233 89.0756 12.206 88.6208 12.5714C88.1729 12.9368 87.8369 13.4239 87.6128 14.0329C87.3888 14.6419 87.2768 15.3118 87.2768 16.0425C87.2768 16.7598 87.3888 17.4229 87.6128 18.0319C87.8369 18.634 88.1729 19.1179 88.6208 19.4832C89.0756 19.8486 89.6492 20.0313 90.3416 20.0313ZM96.8385 21.6552V10.308H98.9662V12.1249H99.0884C99.2991 11.5159 99.6657 11.0354 100.188 10.6836C100.717 10.3249 101.315 10.1457 101.98 10.1457C102.116 10.1457 102.275 10.1524 102.458 10.1659C102.649 10.1727 102.801 10.1829 102.917 10.1964V12.3075C102.829 12.2804 102.669 12.2534 102.438 12.2263C102.214 12.1992 101.987 12.1857 101.756 12.1857C101.233 12.1857 100.765 12.2973 100.351 12.5207C99.9438 12.7371 99.621 13.0383 99.3839 13.4239C99.1531 13.8029 99.0373 14.2427 99.0373 14.7434V21.6552H96.8385ZM106.766 21.8989C106.047 21.8989 105.395 21.7669 104.811 21.5029C104.228 21.2323 103.766 20.8399 103.427 20.3257C103.087 19.8114 102.917 19.1855 102.917 18.4479C102.917 17.8051 103.039 17.2808 103.284 16.8748C103.535 16.462 103.871 16.1339 104.291 15.8903C104.713 15.6467 105.181 15.464 105.697 15.3422C106.213 15.2204 106.742 15.1257 107.285 15.058C107.971 14.9836 108.524 14.9193 108.945 14.8652C109.366 14.811 109.671 14.7265 109.861 14.6115C110.058 14.4897 110.156 14.2969 110.156 14.0329V13.9822C110.156 13.3394 109.973 12.842 109.606 12.4902C109.247 12.1383 108.711 11.9624 107.998 11.9624C107.258 11.9624 106.671 12.1249 106.237 12.4496C105.809 12.7676 105.513 13.1296 105.351 13.5356L103.264 13.0586C103.514 12.3684 103.877 11.8136 104.352 11.394C104.835 10.9678 105.385 10.6565 106.002 10.4603C106.627 10.264 107.278 10.1659 107.958 10.1659C108.412 10.1659 108.894 10.22 109.403 10.3283C109.912 10.4299 110.391 10.6227 110.839 10.9069C111.294 11.1843 111.664 11.5835 111.949 12.1045C112.234 12.6255 112.376 13.2988 112.376 14.1243V21.6552H110.208V20.1023H110.126C109.99 20.3798 109.776 20.6572 109.484 20.9346C109.2 21.212 108.833 21.4421 108.385 21.6248C107.937 21.8075 107.398 21.8989 106.766 21.8989ZM107.244 20.1328C107.863 20.1328 108.388 20.0144 108.823 19.7776C109.257 19.5339 109.59 19.2159 109.821 18.8235C110.052 18.431 110.166 18.0149 110.166 17.5751V16.1034C110.085 16.1779 109.933 16.2489 109.709 16.3166C109.484 16.3842 109.23 16.4418 108.945 16.4891C108.66 16.5365 108.382 16.5805 108.11 16.621C107.838 16.6549 107.611 16.6819 107.428 16.7022C107 16.7631 106.61 16.8579 106.257 16.9864C105.904 17.1082 105.619 17.2909 105.401 17.5345C105.191 17.7713 105.086 18.0859 105.086 18.4784C105.086 19.0265 105.29 19.4392 105.697 19.7167C106.104 19.9941 106.62 20.1328 107.244 20.1328Z" fill="#111111"/>
</svg>
