<svg width="99" height="30" viewBox="0 0 99 30" fill="none" xmlns="http://www.w3.org/2000/svg">
<path d="M32.5243 1.20688C33.9495 1.20688 35.3729 1.19178 36.7964 1.20688C38.5874 1.2333 38.8816 1.773 37.9653 3.38266C35.3259 8.02484 32.6795 12.6614 30.0262 17.2922C28.1735 20.5355 26.3183 23.7794 24.4607 27.0238C23.2013 29.2109 22.2152 29.2298 20.9765 27.0786C19.6738 24.8141 18.4389 22.5156 17.1003 20.2851C16.678 19.5775 16.6705 19.0793 17.089 18.3566C20.1834 13.0161 23.2427 7.65687 26.2668 2.27872C26.6966 1.5239 27.1736 1.14649 28.0748 1.18989C29.5548 1.25405 31.0404 1.20688 32.5243 1.20688Z" fill="#222222"/>
<path d="M6.38867 28.7235C4.96525 28.7235 3.53993 28.7594 2.11839 28.7122C0.381998 28.6555 -0.194915 27.7686 0.636518 26.293C3.58393 21.0809 6.5659 15.8889 9.58247 10.7171C10.2932 9.49428 11.3 9.47164 12.0428 10.7058C13.6039 13.293 15.0424 15.9556 16.5676 18.5635C16.9786 19.2636 16.7185 19.7976 16.3904 20.377C15.0235 22.8056 13.6321 25.2192 12.3068 27.6705C11.8448 28.5254 11.2302 28.7915 10.297 28.7424C8.99987 28.6706 7.69144 28.7235 6.38867 28.7235Z" fill="#222222"/>
<path d="M45.918 21.6552V6.53242H51.4647C52.5328 6.53242 53.4184 6.70834 54.1214 7.06019C54.8245 7.41204 55.3484 7.88908 55.6932 8.49128C56.0447 9.08672 56.2205 9.75658 56.2205 10.5009C56.2205 11.1301 56.1022 11.6613 55.8656 12.0944C55.6357 12.5274 55.3281 12.8725 54.9428 13.1296C54.5575 13.3868 54.1316 13.5762 53.6651 13.6979V13.8401C54.1721 13.8671 54.6657 14.0296 55.1456 14.3272C55.6256 14.6249 56.0211 15.0479 56.332 15.5959C56.6497 16.1372 56.8086 16.8004 56.8086 17.5853C56.8086 18.3567 56.626 19.0502 56.261 19.6659C55.9027 20.2749 55.3484 20.7587 54.598 21.1173C53.8477 21.4759 52.8843 21.6552 51.7081 21.6552H45.918ZM48.1995 19.7065H51.4849C52.5801 19.7065 53.3643 19.4934 53.8375 19.0671C54.3107 18.6409 54.5473 18.1097 54.5473 17.4736C54.5473 16.9932 54.4256 16.5568 54.1823 16.1643C53.9457 15.7651 53.6043 15.4471 53.1581 15.2103C52.7119 14.9735 52.1847 14.855 51.5762 14.855H48.1995V19.7065ZM48.1995 13.0789H51.2619C51.7689 13.0789 52.2286 12.9808 52.641 12.7845C53.0533 12.5883 53.3778 12.3109 53.6144 11.9523C53.8578 11.5869 53.9795 11.1639 53.9795 10.6836C53.9795 10.061 53.7598 9.54004 53.3204 9.12058C52.8878 8.69427 52.2218 8.48113 51.3227 8.48113H48.1995V13.0789ZM58.0563 21.6552V10.308H60.1756V12.1249H60.2972C60.5068 11.5159 60.8719 11.0354 61.3924 10.6836C61.9197 10.3249 62.5145 10.1457 63.1771 10.1457C63.3123 10.1457 63.4711 10.1524 63.6537 10.1659C63.843 10.1727 63.9951 10.1829 64.11 10.1964V12.3075C64.0221 12.2804 63.8632 12.2534 63.6334 12.2263C63.4103 12.1992 63.1838 12.1857 62.954 12.1857C62.4334 12.1857 61.967 12.2973 61.5546 12.5207C61.1491 12.7371 60.8279 13.0383 60.5913 13.4239C60.3614 13.8029 60.2465 14.2427 60.2465 14.7434V21.6552H58.0563ZM64.7594 21.6552V10.308H66.9497V21.6552H64.7594ZM65.8646 8.56232C65.4793 8.56232 65.1515 8.43377 64.881 8.17664C64.6106 7.91952 64.4755 7.61165 64.4755 7.25303C64.4755 6.88765 64.6106 6.57639 64.881 6.31928C65.1515 6.06216 65.4793 5.93359 65.8646 5.93359C66.2432 5.93359 66.5677 6.06216 66.8381 6.31928C67.1152 6.57639 67.2538 6.88765 67.2538 7.25303C67.2538 7.61165 67.1152 7.91952 66.8381 8.17664C66.5677 8.43377 66.2432 8.56232 65.8646 8.56232ZM72.8618 21.8785C71.9424 21.8785 71.1245 21.645 70.4078 21.1782C69.6913 20.7046 69.1302 20.0313 68.7246 19.1584C68.3189 18.2789 68.1162 17.23 68.1162 16.0121C68.1162 14.7806 68.3224 13.7284 68.7347 12.8556C69.1471 11.9827 69.7116 11.3162 70.4282 10.8561C71.1447 10.396 71.956 10.1659 72.8618 10.1659C73.5717 10.1659 74.1395 10.2844 74.5654 10.5212C74.998 10.7512 75.3327 11.0219 75.5693 11.3331C75.8126 11.6444 75.9985 11.9184 76.127 12.1552H76.2587V6.53242H78.4491V21.6552H76.3095V19.8892H76.127C75.9985 20.126 75.8092 20.4 75.5591 20.7113C75.309 21.0226 74.9676 21.2966 74.535 21.5334C74.1091 21.7635 73.5513 21.8785 72.8618 21.8785ZM73.3384 20.0009C73.9738 20.0009 74.5113 19.8317 74.9507 19.4934C75.3901 19.155 75.7213 18.6848 75.9444 18.0826C76.1743 17.4804 76.2892 16.7835 76.2892 15.9918C76.2892 15.2001 76.1776 14.5099 75.9546 13.9213C75.7315 13.3259 75.4003 12.8658 74.9608 12.5409C74.5214 12.2094 73.9806 12.0436 73.3384 12.0436C72.6759 12.0436 72.125 12.2161 71.6856 12.5612C71.2462 12.9063 70.9149 13.3766 70.6918 13.972C70.4687 14.5675 70.3572 15.2408 70.3572 15.9918C70.3572 16.7496 70.4687 17.433 70.6918 18.042C70.9149 18.6442 71.2462 19.1212 71.6856 19.473C72.1317 19.8249 72.6827 20.0009 73.3384 20.0009ZM84.8784 26.1413C83.5263 26.1413 82.4616 25.8876 81.6842 25.3801C80.9068 24.8727 80.3693 24.2704 80.0719 23.5735L81.958 22.7919C82.0932 23.0085 82.2723 23.2386 82.4955 23.4821C82.7253 23.7258 83.0329 23.9321 83.4182 24.1013C83.8035 24.2704 84.3004 24.355 84.9088 24.355C85.7403 24.355 86.4299 24.152 86.9774 23.746C87.5249 23.3469 87.7988 22.704 87.7988 21.8176V19.5949H87.6466C87.5249 19.8317 87.3391 20.0989 87.089 20.3967C86.8388 20.6877 86.4974 20.9414 86.0648 21.1579C85.6321 21.3744 85.0676 21.4827 84.3714 21.4827C83.479 21.4827 82.6746 21.2729 81.958 20.8534C81.2482 20.4271 80.6803 19.8047 80.2544 18.9859C79.8353 18.1604 79.6257 17.1455 79.6257 15.941C79.6257 14.7366 79.8319 13.7048 80.2443 12.8454C80.6634 11.9793 81.2313 11.3162 81.9479 10.8561C82.6644 10.396 83.479 10.1659 84.3916 10.1659C85.0947 10.1659 85.6626 10.2844 86.0953 10.5212C86.5346 10.7512 86.876 11.0219 87.1194 11.3331C87.3627 11.6444 87.552 11.9184 87.6872 12.1552H87.8495V10.308H89.989V21.9089C89.989 22.8833 89.7626 23.6818 89.3097 24.3042C88.8635 24.9268 88.2551 25.3869 87.4844 25.6846C86.7138 25.9891 85.8451 26.1413 84.8784 26.1413ZM84.8581 19.6456C85.8112 19.6456 86.5414 19.3175 87.0484 18.6611C87.5622 17.998 87.819 17.0811 87.819 15.9106C87.819 15.1459 87.7075 14.4761 87.4844 13.9009C87.2614 13.319 86.9301 12.8658 86.4907 12.5409C86.0513 12.2094 85.5071 12.0436 84.8581 12.0436C84.1956 12.0436 83.6412 12.2161 83.1951 12.5612C82.7557 12.8996 82.4244 13.363 82.2014 13.9518C81.9783 14.5337 81.8668 15.1866 81.8668 15.9106C81.8668 16.6481 81.9783 17.301 82.2014 17.8695C82.4244 18.431 82.759 18.8675 83.2053 19.1788C83.6582 19.49 84.2092 19.6456 84.8581 19.6456ZM91.6828 21.6552V10.308H93.8026V12.1249H93.9234C94.1332 11.5159 94.4984 11.0354 95.0188 10.6836C95.5465 10.3249 96.1414 10.1457 96.8035 10.1457C96.9388 10.1457 97.0978 10.1524 97.2803 10.1659C97.4693 10.1727 97.6219 10.1829 97.7363 10.1964V12.3075C97.6491 12.2804 97.4902 12.2534 97.2604 12.2263C97.0369 12.1992 96.8108 12.1857 96.581 12.1857C96.0596 12.1857 95.5937 12.2973 95.1814 12.5207C94.7754 12.7371 94.4548 13.0383 94.2177 13.4239C93.9879 13.8029 93.8735 14.2427 93.8735 14.7434V21.6552H91.6828Z" fill="#222222"/>
</svg>
