<svg width="114" height="30" viewBox="0 0 114 30" fill="none" xmlns="http://www.w3.org/2000/svg">
<path d="M0.712891 15.708V28.0685H13.9067V15.708H27.1994V1.86426H10.2858L0.712891 15.708Z" fill="#222222"/>
<path d="M39.6965 15.6104H27.1973V28.0697H39.6965V15.6104Z" fill="#222222"/>
<path d="M52.2557 21.8989C51.1222 21.8989 50.1379 21.7229 49.3029 21.371C48.4748 21.0124 47.8266 20.5016 47.3582 19.8385C46.8899 19.1754 46.6285 18.387 46.5742 17.4736H48.8753C48.9228 18.0217 49.0993 18.4784 49.4048 18.8438C49.7171 19.2024 50.1209 19.4697 50.6165 19.6456C51.112 19.8216 51.655 19.9095 52.2456 19.9095C52.8905 19.9095 53.4674 19.808 53.9765 19.605C54.4856 19.402 54.8827 19.1179 55.1678 18.7525C55.4597 18.3803 55.6057 17.9473 55.6057 17.4533C55.6057 17.0068 55.4766 16.6414 55.2187 16.3571C54.9675 16.0729 54.6247 15.8396 54.1903 15.6569C53.7559 15.4674 53.2671 15.3016 52.7241 15.1595L50.9422 14.6723C49.7204 14.3476 48.7565 13.8638 48.0506 13.2209C47.3446 12.5714 46.9916 11.7222 46.9916 10.6734C46.9916 9.80058 47.2258 9.03936 47.6942 8.38978C48.1694 7.74021 48.8108 7.23612 49.6186 6.8775C50.4332 6.51212 51.3462 6.32943 52.3576 6.32943C53.3893 6.32943 54.2956 6.51212 55.0762 6.8775C55.8636 7.23612 56.4847 7.73007 56.9395 8.35933C57.401 8.98184 57.6421 9.69568 57.6624 10.5009H55.4427C55.3612 9.80395 55.0354 9.26268 54.4652 8.87696C53.9019 8.49128 53.1823 8.29844 52.3067 8.29844C51.6957 8.29844 51.1595 8.39655 50.6979 8.59278C50.2431 8.78223 49.8902 9.04612 49.639 9.3844C49.3946 9.72277 49.2724 10.1119 49.2724 10.5517C49.2724 11.0253 49.4184 11.4109 49.7102 11.7087C50.0089 12.0064 50.3687 12.2432 50.7896 12.4191C51.2172 12.5883 51.6279 12.727 52.0216 12.8353L53.4979 13.2311C53.9799 13.3529 54.4754 13.5153 54.9845 13.7183C55.4937 13.9213 55.9654 14.1886 56.3998 14.5201C56.8411 14.8449 57.194 15.2509 57.4588 15.738C57.7303 16.2185 57.8661 16.8004 57.8661 17.4838C57.8661 18.3296 57.6454 19.0874 57.2042 19.7573C56.763 20.4204 56.1249 20.9448 55.29 21.3304C54.4551 21.7094 53.4437 21.8989 52.2557 21.8989ZM63.9145 21.8887C62.8489 21.8887 61.9155 21.645 61.1145 21.1579C60.3203 20.6708 59.7026 19.9873 59.2614 19.1077C58.8269 18.228 58.6097 17.2063 58.6097 16.0425C58.6097 14.8652 58.8269 13.8367 59.2614 12.957C59.7026 12.0707 60.3203 11.3839 61.1145 10.8967C61.9155 10.4096 62.8489 10.1659 63.9145 10.1659C64.987 10.1659 65.9204 10.4096 66.7147 10.8967C67.5088 11.3839 68.1265 12.0707 68.5677 12.957C69.009 13.8367 69.2296 14.8652 69.2296 16.0425C69.2296 17.2063 69.009 18.228 68.5677 19.1077C68.1265 19.9873 67.5088 20.6708 66.7147 21.1579C65.9204 21.645 64.987 21.8887 63.9145 21.8887ZM63.9145 20.0313C64.6138 20.0313 65.1907 19.8486 65.6455 19.4832C66.1003 19.1179 66.4363 18.634 66.6535 18.0319C66.8775 17.4229 66.9895 16.7598 66.9895 16.0425C66.9895 15.3118 66.8775 14.6419 66.6535 14.0329C66.4363 13.4239 66.1003 12.9368 65.6455 12.5714C65.1907 12.206 64.6138 12.0233 63.9145 12.0233C63.2221 12.0233 62.6486 12.206 62.1938 12.5714C61.7458 12.9368 61.4098 13.4239 61.1858 14.0329C60.9618 14.6419 60.8498 15.3118 60.8498 16.0425C60.8498 16.7598 60.9618 17.4229 61.1858 18.0319C61.4098 18.634 61.7458 19.1179 62.1938 19.4832C62.6486 19.8486 63.2221 20.0313 63.9145 20.0313ZM75.1865 21.8887C74.0936 21.8887 73.1501 21.6383 72.3558 21.1376C71.5617 20.6369 70.9507 19.9468 70.5231 19.0671C70.0954 18.1875 69.8817 17.1793 69.8817 16.0425C69.8817 14.8855 70.0989 13.8671 70.5333 12.9875C70.9745 12.1011 71.5888 11.4109 72.3762 10.917C73.1704 10.4163 74.1004 10.1659 75.1661 10.1659C76.035 10.1659 76.8054 10.3249 77.4774 10.6429C78.1562 10.9542 78.7026 11.3974 79.1167 11.9726C79.5375 12.5477 79.7853 13.2176 79.86 13.9822H77.7014C77.6267 13.6236 77.4808 13.2954 77.2636 12.9977C77.0532 12.6999 76.7748 12.4631 76.4286 12.2872C76.0825 12.1113 75.6719 12.0233 75.1966 12.0233C74.5789 12.0233 74.0393 12.1857 73.5777 12.5105C73.1229 12.8285 72.7665 13.2852 72.5086 13.8807C72.2507 14.4761 72.1217 15.1799 72.1217 15.9918C72.1217 16.8105 72.2473 17.5244 72.4984 18.1333C72.7495 18.7423 73.1059 19.2126 73.5675 19.5441C74.0359 19.8689 74.5789 20.0313 75.1966 20.0313C75.8347 20.0313 76.3777 19.8554 76.8258 19.5035C77.2805 19.1517 77.5725 18.6713 77.7014 18.0623H79.86C79.7853 18.7999 79.5478 19.4561 79.1473 20.0313C78.7468 20.6064 78.2105 21.0598 77.5385 21.3913C76.8665 21.7229 76.0825 21.8887 75.1865 21.8887ZM81.011 21.6552V10.308H83.2103V21.6552H81.011ZM82.1208 8.56232C81.7339 8.56232 81.4047 8.43377 81.1332 8.17664C80.8617 7.91952 80.7259 7.61165 80.7259 7.25303C80.7259 6.88765 80.8617 6.57639 81.1332 6.31928C81.4047 6.06216 81.7339 5.93359 82.1208 5.93359C82.501 5.93359 82.8268 6.06216 83.0983 6.31928C83.3766 6.57639 83.5158 6.88765 83.5158 7.25303C83.5158 7.61165 83.3766 7.91952 83.0983 8.17664C82.8268 8.43377 82.501 8.56232 82.1208 8.56232ZM92.1197 16.9661V10.308H94.3194V21.6552H92.1607V19.6862H92.0385C91.7667 20.2884 91.3463 20.7925 90.7759 21.1985C90.2058 21.6045 89.493 21.8041 88.6378 21.7973C87.9046 21.7973 87.2564 21.6383 86.693 21.3203C86.1363 21.0023 85.6986 20.5252 85.3795 19.8892C85.0673 19.2531 84.9111 18.4649 84.9111 17.5244V10.308H87.1104V17.2707C87.1104 18.0352 87.3277 18.6476 87.7621 19.1077C88.1965 19.5678 88.7565 19.7945 89.4421 19.7877C89.8562 19.7877 90.2669 19.6862 90.6742 19.4832C91.0882 19.2802 91.4311 18.9689 91.7029 18.5495C91.9811 18.1299 92.1197 17.6022 92.1197 16.9661ZM96.0203 21.6552V10.308H98.1279V12.1756H98.2802C98.5183 11.5463 98.905 11.0558 99.4412 10.7039C99.9839 10.3452 100.63 10.1659 101.376 10.1659C102.136 10.1659 102.771 10.3452 103.28 10.7039C103.796 11.0558 104.179 11.5463 104.431 12.1756H104.553C104.824 11.5599 105.255 11.0727 105.846 10.714C106.436 10.3487 107.139 10.1659 107.954 10.1659C108.985 10.1659 109.831 10.4908 110.489 11.1403C111.147 11.7831 111.476 12.7541 111.476 14.0532V21.6552H109.257V14.2562C109.257 13.4849 109.046 12.93 108.625 12.5917C108.205 12.2466 107.702 12.074 107.118 12.074C106.399 12.074 105.839 12.2973 105.439 12.7439C105.045 13.1838 104.848 13.7419 104.848 14.4186V21.6552H102.629V14.1141C102.629 13.4984 102.438 13.0044 102.058 12.6323C101.678 12.2601 101.179 12.074 100.561 12.074C100.141 12.074 99.7504 12.1857 99.3902 12.409C99.0372 12.6255 98.7527 12.93 98.5347 13.3225C98.3249 13.7081 98.2191 14.1548 98.2191 14.6622V21.6552H96.0203Z" fill="#222222"/>
</svg>
