<svg width="132" height="40" viewBox="0 0 132 40" fill="none" xmlns="http://www.w3.org/2000/svg">
<path d="M21.6526 0.98834C21.5092 1.11394 21.4161 1.22234 21.2998 1.29374C18.8589 2.79561 16.9701 4.87258 15.2748 7.13795C13.966 8.89904 12.8076 10.7673 11.8122 12.723V12.7276C11.7759 12.7885 11.4919 13.2632 11.0619 14.1542C10.9642 14.3578 10.8589 14.5834 10.7462 14.831C10.4774 15.4227 10.1723 16.1399 9.84739 16.9815C9.79191 17.1242 9.73644 17.2709 9.67964 17.4217C9.34414 18.3181 8.99082 19.3427 8.63748 20.4955H8.6223C8.54217 20.7744 8.46402 21.0532 8.38785 21.3318C8.3819 21.3515 8.37662 21.3707 8.37133 21.3898C8.29208 21.664 8.22604 21.913 8.17321 22.1369C7.11652 26.2002 6.5261 30.2987 7.47447 34.5558C2.21944 30.5115 -1.3013 22.0569 1.68779 13.5838C1.68779 13.5838 2.6408 11.1445 3.47822 9.87067C6.52345 4.70072 13.5002 0.06884 21.6526 0.98834Z" fill="#222222"/>
<path d="M8.36806 21.3931C8.29981 21.642 8.23377 21.891 8.16992 22.1401C8.2254 21.9162 8.29145 21.6672 8.36806 21.3931Z" fill="#222222"/>
<path d="M23.0845 29.3709C22.7821 30.5819 22.1877 31.6588 21.3866 32.6212C20.3577 33.8606 19.2547 35.0228 17.9662 35.9978C17.0833 36.6661 16.1349 37.2094 15.0763 37.5519C13.0077 38.2201 11.2708 37.5261 10.2425 35.6012C9.70561 34.5957 9.44343 33.5084 9.31794 32.3865C9.06169 30.1132 9.20368 27.8532 9.66203 25.6222C9.9328 24.3001 10.2881 22.9959 10.6236 21.6876V21.6837C10.6813 21.4607 10.7379 21.2379 10.7933 21.0154C10.8297 20.8693 10.868 20.7239 10.9254 20.4997H10.9201C11.1084 19.8633 11.4049 18.9748 11.8639 17.8438C13.9113 18.7143 15.9527 19.5882 18.0059 20.4416C19.3208 20.9884 20.544 21.6585 21.5028 22.7367C23.2174 24.6623 23.71 26.892 23.0845 29.3709Z" fill="#222222"/>
<path d="M30.0979 10.814C30.0424 12.0475 29.9269 13.2764 29.4962 14.4438C28.5611 16.9802 26.8136 18.6301 24.1467 19.2257C22.6166 19.5675 21.12 19.3454 19.6902 18.7663C17.452 17.8613 15.2362 16.8975 13.0093 15.9569C12.9518 15.9324 12.9063 15.8802 12.7695 15.7744C12.7873 15.7374 12.8059 15.7004 12.8237 15.6641V15.6601C13.0529 15.1908 13.2742 14.7293 13.5006 14.272L13.5595 14.1549L13.5865 14.1014C13.6257 14.0234 13.6653 13.9454 13.7054 13.8674C15.2666 10.82 17.1105 7.96696 19.533 5.52377C20.4484 4.59833 21.4291 3.75286 22.5618 3.10108C23.5623 2.52531 24.6045 2.08308 25.7939 2.10953C26.9251 2.13596 27.822 2.62513 28.5261 3.48117C29.0491 4.11774 29.3761 4.86142 29.6098 5.6487C30.1145 7.34096 30.1751 9.06956 30.0979 10.814Z" fill="#222222"/>
<path d="M17.6045 38.934C17.8026 38.7819 17.8965 38.696 18.0007 38.6299C20.5619 37.029 22.5557 34.8475 24.3019 32.4214C24.7387 31.8151 25.157 31.1959 25.5567 30.564C26.5566 28.9907 27.9706 27.9648 29.73 27.4155C31.282 26.9309 32.8518 26.9236 34.3966 27.4471C35.1799 27.7116 35.9328 28.0679 36.7002 28.3833C33.8583 34.7662 26.2231 39.837 17.6045 38.934Z" fill="#222222"/>
<path d="M31.8756 5.29297C34.8812 7.84457 36.8672 10.9309 37.9582 14.5997C39.2314 18.8839 38.8021 23.4654 37.5764 26.3218C34.3521 25.323 32.046 23.4225 31.3109 19.9686C31.1168 19.055 31.1398 18.1395 31.3109 17.218C31.6207 15.5555 31.9753 13.8964 32.1734 12.22C32.4291 10.0518 32.4027 7.87365 31.906 5.72528C31.8842 5.62547 31.8908 5.5164 31.8756 5.29297Z" fill="#222222"/>
<path d="M8.36806 21.3931C8.29981 21.642 8.23377 21.891 8.16992 22.1401C8.2254 21.9162 8.29145 21.6672 8.36806 21.3931Z" fill="#222222"/>
<path d="M12.822 15.6602L12.7695 15.7725C12.7855 15.734 12.804 15.6968 12.822 15.6602Z" fill="#222222"/>
<path d="M64.9502 8.70801V28.8717H62.1109L51.9031 14.094H51.7003V28.8717H48.6582V8.70801H51.4704L61.7188 23.5128H61.9081V8.70801H64.9502ZM73.9417 29.183C72.4635 29.183 71.1836 28.8627 70.1019 28.2221C69.0204 27.5817 68.1866 26.6795 67.6007 25.5156C67.0238 24.3429 66.7354 22.976 66.7354 21.4152C66.7354 19.8635 67.0193 18.4967 67.5871 17.3149C68.164 16.1329 68.9707 15.2127 70.0073 14.5541C71.0529 13.8865 72.2787 13.5527 73.6848 13.5527C74.5411 13.5527 75.3704 13.6926 76.1726 13.9722C76.9747 14.252 77.6958 14.694 78.3358 15.2984C78.9757 15.9029 79.4806 16.6878 79.85 17.6532C80.2286 18.6185 80.4179 19.7823 80.4179 21.1446V22.2001H68.3984V19.9943H78.9036L77.5381 20.725C77.5381 19.7958 77.3939 18.9749 77.1054 18.2621C76.8171 17.5494 76.3844 16.9945 75.8075 16.5975C75.2396 16.1916 74.5321 15.9886 73.6848 15.9886C72.8376 15.9886 72.1119 16.1916 71.508 16.5975C70.9132 17.0036 70.4579 17.5403 70.1425 18.208C69.827 18.8756 69.6693 19.6064 69.6693 20.4003V21.9024C69.6693 22.94 69.8495 23.8196 70.21 24.5413C70.5707 25.263 71.0708 25.8134 71.7109 26.1923C72.3598 26.5712 73.1125 26.7607 73.9688 26.7607C74.5275 26.7607 75.0323 26.6795 75.483 26.517C75.9427 26.3546 76.3393 26.1111 76.6728 25.7863C77.0064 25.4615 77.2587 25.0601 77.43 24.5819L80.2152 25.1097C79.9898 25.9217 79.5932 26.6344 79.0253 27.2478C78.4575 27.8613 77.741 28.3395 76.8756 28.6823C76.0193 29.0161 75.0414 29.183 73.9417 29.183ZM83.6363 13.7421L86.9487 19.6425L90.3153 13.7421H93.5467L88.8417 21.3204L93.5737 28.8717H90.3694L86.9487 23.2151L83.5823 28.8717H80.3509L85.0424 21.3204L80.4049 13.7421H83.6363ZM100.632 29.183C99.2167 29.183 97.9774 28.8583 96.9138 28.2087C95.8592 27.5591 95.039 26.6478 94.4531 25.475C93.8762 24.3023 93.5877 22.94 93.5877 21.3882C93.5877 19.8184 93.8762 18.4471 94.4531 17.2743C95.039 16.0923 95.8592 15.1767 96.9138 14.5271C97.9774 13.8775 99.2167 13.5527 100.632 13.5527C102.056 13.5527 103.295 13.8775 104.35 14.5271C105.405 15.1767 106.225 16.0923 106.811 17.2743C107.397 18.4471 107.689 19.8184 107.689 21.3882C107.689 22.94 107.397 24.3023 106.811 25.475C106.225 26.6478 105.405 27.5591 104.35 28.2087C103.295 28.8583 102.056 29.183 100.632 29.183ZM100.632 26.7065C101.56 26.7065 102.326 26.463 102.93 25.9757C103.534 25.4886 103.98 24.8435 104.269 24.0406C104.566 23.2286 104.715 22.3444 104.715 21.3882C104.715 20.4138 104.566 19.5207 104.269 18.7087C103.98 17.8967 103.534 17.2471 102.93 16.76C102.326 16.2728 101.56 16.0292 100.632 16.0292C99.7125 16.0292 98.9508 16.2728 98.3469 16.76C97.752 17.2471 97.3059 17.8967 97.0085 18.7087C96.7109 19.5207 96.5622 20.4138 96.5622 21.3882C96.5622 22.3444 96.7109 23.2286 97.0085 24.0406C97.3059 24.8435 97.752 25.4886 98.3469 25.9757C98.9508 26.463 99.7125 26.7065 100.632 26.7065ZM109.258 28.8717V13.7421H112.084V16.1646H112.246C112.526 15.3526 113.012 14.7121 113.707 14.2429C114.41 13.7647 115.203 13.5257 116.086 13.5257C116.266 13.5257 116.478 13.5346 116.722 13.5527C116.974 13.5618 117.177 13.5752 117.33 13.5933V16.4081C117.213 16.3721 117.001 16.336 116.695 16.2998C116.397 16.2637 116.095 16.2458 115.789 16.2458C115.095 16.2458 114.473 16.3946 113.923 16.6923C113.382 16.9811 112.954 17.3825 112.638 17.8967C112.332 18.4019 112.179 18.9883 112.179 19.656V28.8717H109.258ZM122.441 29.1966C121.486 29.1966 120.62 29.0206 119.845 28.6688C119.07 28.3078 118.457 27.7847 118.007 27.099C117.556 26.4133 117.331 25.5787 117.331 24.5955C117.331 23.7384 117.493 23.0391 117.817 22.4979C118.151 21.9475 118.597 21.51 119.156 21.1852C119.715 20.8604 120.337 20.6168 121.022 20.4544C121.707 20.292 122.409 20.1657 123.131 20.0755C124.042 19.9762 124.775 19.8905 125.335 19.8184C125.893 19.7461 126.299 19.6334 126.551 19.4801C126.812 19.3177 126.943 19.0606 126.943 18.7087V18.641C126.943 17.784 126.7 17.1208 126.213 16.6517C125.736 16.1826 125.024 15.948 124.077 15.948C123.095 15.948 122.315 16.1646 121.738 16.5975C121.17 17.0217 120.778 17.5043 120.562 18.0455L117.79 17.4095C118.124 16.4893 118.606 15.7495 119.237 15.1901C119.877 14.6218 120.607 14.2067 121.427 13.9452C122.257 13.6836 123.121 13.5527 124.023 13.5527C124.627 13.5527 125.267 13.6249 125.943 13.7693C126.619 13.9046 127.254 14.1617 127.849 14.5406C128.453 14.9105 128.945 15.4427 129.323 16.1374C129.702 16.8322 129.891 17.7298 129.891 18.8305V28.8717H127.011V26.8013H126.903C126.723 27.1711 126.438 27.541 126.051 27.911C125.673 28.2808 125.186 28.5876 124.591 28.8311C123.996 29.0747 123.28 29.1966 122.441 29.1966ZM123.076 26.8419C123.897 26.8419 124.595 26.684 125.173 26.3682C125.749 26.0435 126.191 25.6194 126.498 25.0961C126.804 24.5728 126.956 24.018 126.956 23.4316V21.4694C126.849 21.5686 126.646 21.6634 126.349 21.7535C126.051 21.8437 125.713 21.9204 125.335 21.9836C124.956 22.0467 124.587 22.1054 124.226 22.1595C123.865 22.2047 123.563 22.2407 123.32 22.2678C122.752 22.3489 122.234 22.4754 121.765 22.6467C121.296 22.809 120.918 23.0527 120.629 23.3775C120.35 23.6933 120.21 24.1128 120.21 24.636C120.21 25.3667 120.481 25.9172 121.022 26.287C121.563 26.6569 122.247 26.8419 123.076 26.8419Z" fill="#222222"/>
</svg>
