<svg width="132" height="40" viewBox="0 0 132 40" fill="none" xmlns="http://www.w3.org/2000/svg">
<path d="M43.3663 1.60917C45.2667 1.60917 47.1645 1.58904 49.0626 1.60917C51.4505 1.64439 51.8428 2.36399 50.621 4.51021C47.1018 10.6998 43.5733 16.8818 40.0356 23.0563C37.5654 27.3806 35.0918 31.7058 32.6149 36.0318C30.9357 38.9479 29.6209 38.9731 27.9693 36.1047C26.2324 33.0855 24.5859 30.0209 22.8011 27.0468C22.238 26.1033 22.2279 25.439 22.786 24.4754C26.9119 17.3548 30.9909 10.2092 35.0231 3.0383C35.5961 2.03187 36.2322 1.52865 37.4337 1.58652C39.4071 1.67207 41.3879 1.60917 43.3663 1.60917Z" fill="#222222"/>
<path d="M8.51888 38.2979C6.62099 38.2979 4.72056 38.3457 2.82518 38.2828C0.509982 38.2072 -0.259235 37.0247 0.849342 35.0572C4.77922 28.1077 8.75519 21.1851 12.7773 14.2893C13.7249 12.6589 15.0673 12.6287 16.0577 14.2743C18.1391 17.7238 20.0571 21.274 22.0908 24.7512C22.6388 25.6847 22.2919 26.3967 21.8545 27.1692C20.0319 30.4074 18.1768 33.6254 16.4097 36.8939C15.7938 38.0337 14.9743 38.3884 13.73 38.323C12.0005 38.2274 10.2559 38.2979 8.51888 38.2979Z" fill="#222222"/>
<path d="M61.2246 28.8738V8.71006H68.6202C70.0444 8.71006 71.2251 8.94462 72.1626 9.41375C73.1 9.88288 73.7985 10.5189 74.2582 11.3219C74.7269 12.1158 74.9613 13.0089 74.9613 14.0013C74.9613 14.8403 74.8035 15.5486 74.4881 16.126C74.1816 16.7034 73.7715 17.1635 73.2577 17.5063C72.744 17.8492 72.1761 18.1018 71.5542 18.2641V18.4537C72.2301 18.4897 72.8882 18.7063 73.5281 19.1031C74.1681 19.5001 74.6954 20.064 75.11 20.7948C75.5337 21.5165 75.7455 22.4007 75.7455 23.4472C75.7455 24.4757 75.502 25.4005 75.0153 26.2214C74.5376 27.0333 73.7985 27.6784 72.798 28.1566C71.7976 28.6348 70.513 28.8738 68.9448 28.8738H61.2246ZM64.2667 26.2755H68.6472C70.1075 26.2755 71.1531 25.9914 71.784 25.423C72.4149 24.8546 72.7304 24.1464 72.7304 23.2983C72.7304 22.6578 72.5681 22.0759 72.2437 21.5526C71.9282 21.0203 71.473 20.5963 70.8782 20.2806C70.2832 19.9648 69.5802 19.8069 68.769 19.8069H64.2667V26.2755ZM64.2667 17.4386H68.3498C69.0258 17.4386 69.6388 17.3079 70.1886 17.0462C70.7384 16.7846 71.1711 16.4146 71.4866 15.9366C71.811 15.4493 71.9733 14.8854 71.9733 14.2449C71.9733 13.4149 71.6803 12.7202 71.0945 12.1609C70.5177 11.5925 69.6297 11.3083 68.431 11.3083H64.2667V17.4386ZM77.409 28.8738V13.7442H80.2348V16.1666H80.3969C80.6764 15.3546 81.1632 14.714 81.8572 14.2449C82.5603 13.7668 83.3534 13.5277 84.2368 13.5277C84.417 13.5277 84.6288 13.5367 84.8722 13.5548C85.1246 13.5637 85.3274 13.5773 85.4806 13.5954V16.4102C85.3634 16.374 85.1516 16.338 84.8452 16.3019C84.5477 16.2658 84.2458 16.2477 83.9393 16.2477C83.2452 16.2477 82.6234 16.3966 82.0735 16.6944C81.5327 16.983 81.1045 17.3846 80.7891 17.8988C80.4826 18.404 80.3294 18.9904 80.3294 19.658V28.8738H77.409ZM86.3465 28.8738V13.7442H89.2669V28.8738H86.3465ZM87.8202 11.4166C87.3064 11.4166 86.8693 11.2452 86.5087 10.9023C86.1481 10.5595 85.968 10.149 85.968 9.67087C85.968 9.18369 86.1481 8.76869 86.5087 8.42586C86.8693 8.08304 87.3064 7.91162 87.8202 7.91162C88.3249 7.91162 88.7576 8.08304 89.1181 8.42586C89.4876 8.76869 89.6724 9.18369 89.6724 9.67087C89.6724 10.149 89.4876 10.5595 89.1181 10.9023C88.7576 11.2452 88.3249 11.4166 87.8202 11.4166ZM97.1497 29.1715C95.9239 29.1715 94.8333 28.8602 93.8778 28.2378C92.9224 27.6063 92.1743 26.7086 91.6334 25.5447C91.0926 24.372 90.8223 22.9735 90.8223 21.3497C90.8223 19.7076 91.0972 18.3047 91.647 17.1409C92.1968 15.9771 92.9494 15.0885 93.9049 14.475C94.8603 13.8615 95.9419 13.5548 97.1497 13.5548C98.0962 13.5548 98.8533 13.7127 99.4212 14.0285C99.998 14.3351 100.444 14.696 100.76 15.111C101.084 15.526 101.332 15.8914 101.503 16.2071H101.679V8.71006H104.599V28.8738H101.747V26.5191H101.503C101.332 26.8349 101.08 27.2002 100.746 27.6152C100.413 28.0303 99.9574 28.3956 99.3806 28.7114C98.8128 29.0182 98.0691 29.1715 97.1497 29.1715ZM97.7852 26.668C98.6324 26.668 99.349 26.4424 99.9349 25.9914C100.521 25.5402 100.962 24.9132 101.26 24.1103C101.566 23.3074 101.72 22.3782 101.72 21.3225C101.72 20.267 101.571 19.3468 101.273 18.5619C100.976 17.768 100.534 17.1545 99.9484 16.7214C99.3626 16.2794 98.6415 16.0583 97.7852 16.0583C96.9019 16.0583 96.1673 16.2883 95.5814 16.7485C94.9955 17.2086 94.5539 17.8356 94.2563 18.6295C93.9589 19.4235 93.8102 20.3212 93.8102 21.3225C93.8102 22.3329 93.9589 23.2442 94.2563 24.0562C94.5539 24.8591 94.9955 25.4951 95.5814 25.9642C96.1763 26.4334 96.9109 26.668 97.7852 26.668ZM113.172 34.8552C111.369 34.8552 109.949 34.5169 108.913 33.8403C107.876 33.1637 107.16 32.3607 106.763 31.4315L109.278 30.3894C109.458 30.6782 109.697 30.9849 109.995 31.3097C110.301 31.6345 110.711 31.9097 111.225 32.1352C111.739 32.3607 112.401 32.4735 113.212 32.4735C114.321 32.4735 115.24 32.2029 115.971 31.6615C116.701 31.1293 117.066 30.2722 117.066 29.0903V26.1266H116.863C116.701 26.4424 116.453 26.7988 116.119 27.1957C115.786 27.5837 115.331 27.922 114.754 28.2108C114.177 28.4994 113.424 28.6437 112.496 28.6437C111.306 28.6437 110.233 28.3641 109.278 27.8047C108.332 27.2363 107.574 26.4064 107.007 25.3148C106.448 24.214 106.168 22.8608 106.168 21.2549C106.168 19.6489 106.443 18.2732 106.993 17.1274C107.552 15.9726 108.309 15.0885 109.264 14.475C110.22 13.8615 111.306 13.5548 112.523 13.5548C113.46 13.5548 114.217 13.7127 114.794 14.0285C115.38 14.3351 115.835 14.696 116.16 15.111C116.484 15.526 116.737 15.8914 116.917 16.2071H117.133V13.7442H119.986V29.2121C119.986 30.5112 119.684 31.5759 119.08 32.4058C118.485 33.2359 117.674 33.8493 116.647 34.2463C115.619 34.6523 114.461 34.8552 113.172 34.8552ZM113.145 26.1943C114.416 26.1943 115.389 25.7568 116.065 24.8817C116.75 23.9975 117.093 22.775 117.093 21.2143C117.093 20.1948 116.944 19.3017 116.647 18.5348C116.349 17.7589 115.907 17.1545 115.322 16.7214C114.736 16.2794 114.01 16.0583 113.145 16.0583C112.262 16.0583 111.522 16.2883 110.927 16.7485C110.342 17.1996 109.9 17.8175 109.602 18.6025C109.305 19.3784 109.156 20.2489 109.156 21.2143C109.156 22.1977 109.305 23.0682 109.602 23.8262C109.9 24.5749 110.346 25.1568 110.941 25.5719C111.545 25.9869 112.28 26.1943 113.145 26.1943ZM122.244 28.8738V13.7442H125.071V16.1666H125.232C125.512 15.3546 125.998 14.714 126.692 14.2449C127.396 13.7668 128.189 13.5277 129.072 13.5277C129.252 13.5277 129.464 13.5367 129.708 13.5548C129.96 13.5637 130.163 13.5773 130.316 13.5954V16.4102C130.199 16.374 129.988 16.338 129.681 16.3019C129.383 16.2658 129.082 16.2477 128.775 16.2477C128.08 16.2477 127.459 16.3966 126.909 16.6944C126.368 16.983 125.94 17.3846 125.624 17.8988C125.318 18.404 125.165 18.9904 125.165 19.658V28.8738H122.244Z" fill="#222222"/>
</svg>
