<svg width="152" height="40" viewBox="0 0 152 40" fill="none" xmlns="http://www.w3.org/2000/svg">
<path d="M0.950195 20.9442V37.4249H18.5419V20.9442H36.2656V2.48584H13.7141L0.950195 20.9442Z" fill="#222222"/>
<path d="M52.9293 20.814H36.2637V37.4264H52.9293V20.814Z" fill="#222222"/>
<path d="M69.674 29.1986C68.1626 29.1986 66.8502 28.964 65.7369 28.4949C64.6328 28.0167 63.7684 27.3356 63.1439 26.4515C62.5195 25.5674 62.171 24.5162 62.0986 23.2983H65.1667C65.2301 24.0291 65.4654 24.638 65.8727 25.1252C66.2891 25.6034 66.8275 25.9597 67.4883 26.1943C68.149 26.4289 68.873 26.5462 69.6605 26.5462C70.5203 26.5462 71.2895 26.4109 71.9683 26.1402C72.6472 25.8695 73.1766 25.4906 73.5568 25.0035C73.9459 24.5072 74.1406 23.9299 74.1406 23.2712C74.1406 22.6758 73.9685 22.1887 73.6246 21.8097C73.2897 21.4308 72.8326 21.1196 72.2535 20.876C71.6741 20.6234 71.0225 20.4023 70.2985 20.2128L67.9227 19.5632C66.2936 19.1303 65.0084 18.4852 64.0671 17.6281C63.1258 16.762 62.6552 15.6298 62.6552 14.2314C62.6552 13.0676 62.9675 12.0526 63.5919 11.1865C64.2255 10.3204 65.0808 9.64832 66.1578 9.17017C67.2439 8.68299 68.4612 8.4394 69.8098 8.4394C71.1854 8.4394 72.3938 8.68299 73.4346 9.17017C74.4844 9.64832 75.3125 10.3069 75.919 11.1459C76.5344 11.9759 76.8558 12.9277 76.8829 14.0013H73.9233C73.8147 13.0721 73.3802 12.3504 72.62 11.8361C71.8688 11.3219 70.9094 11.0647 69.7419 11.0647C68.9273 11.0647 68.2123 11.1956 67.5969 11.4572C66.9905 11.7098 66.5199 12.0617 66.185 12.5127C65.8591 12.9639 65.6962 13.4826 65.6962 14.0691C65.6962 14.7006 65.8909 15.2148 66.28 15.6117C66.6782 16.0087 67.1579 16.3245 67.7191 16.559C68.2893 16.7846 68.8369 16.9695 69.3618 17.1139L71.3303 17.6417C71.9729 17.8041 72.6336 18.0206 73.3123 18.2912C73.9912 18.5619 74.6202 18.9183 75.1995 19.3603C75.7878 19.7933 76.2583 20.3346 76.6114 20.9842C76.9734 21.6248 77.1544 22.4007 77.1544 23.3119C77.1544 24.4396 76.8603 25.45 76.272 26.3432C75.6837 27.2274 74.8328 27.9265 73.7197 28.4407C72.6065 28.946 71.2579 29.1986 69.674 29.1986ZM85.2191 29.1851C83.7982 29.1851 82.5537 28.8602 81.4857 28.2108C80.4268 27.5612 79.6032 26.6499 79.0149 25.4771C78.4356 24.3042 78.1459 22.9419 78.1459 21.3902C78.1459 19.8205 78.4356 18.4491 79.0149 17.2762C79.6032 16.0944 80.4268 15.1786 81.4857 14.5291C82.5537 13.8796 83.7982 13.5548 85.2191 13.5548C86.6491 13.5548 87.8935 13.8796 88.9525 14.5291C90.0114 15.1786 90.835 16.0944 91.4233 17.2762C92.0116 18.4491 92.3058 19.8205 92.3058 21.3902C92.3058 22.9419 92.0116 24.3042 91.4233 25.4771C90.835 26.6499 90.0114 27.5612 88.9525 28.2108C87.8935 28.8602 86.6491 29.1851 85.2191 29.1851ZM85.2191 26.7086C86.1514 26.7086 86.9206 26.4649 87.527 25.9778C88.1334 25.4906 88.5814 24.8455 88.8711 24.0426C89.1697 23.2306 89.319 22.3465 89.319 21.3902C89.319 20.4158 89.1697 19.5226 88.8711 18.7108C88.5814 17.8988 88.1334 17.2492 87.527 16.762C86.9206 16.2749 86.1514 16.0312 85.2191 16.0312C84.2959 16.0312 83.5311 16.2749 82.9247 16.762C82.3274 17.2492 81.8794 17.8988 81.5808 18.7108C81.282 19.5226 81.1327 20.4158 81.1327 21.3902C81.1327 22.3465 81.282 23.2306 81.5808 24.0426C81.8794 24.8455 82.3274 25.4906 82.9247 25.9778C83.5311 26.4649 84.2959 26.7086 85.2191 26.7086ZM100.248 29.1851C98.7912 29.1851 97.5331 28.8512 96.4741 28.1836C95.4152 27.516 94.6006 26.5958 94.0304 25.423C93.4602 24.2502 93.1752 22.9059 93.1752 21.3902C93.1752 19.8475 93.4649 18.4897 94.0441 17.3168C94.6324 16.135 95.4514 15.2148 96.5013 14.5562C97.5602 13.8886 98.8002 13.5548 100.221 13.5548C101.38 13.5548 102.407 13.7668 103.303 14.1908C104.208 14.6058 104.936 15.1967 105.489 15.9636C106.05 16.7304 106.38 17.6236 106.48 18.6431H103.602C103.502 18.1649 103.307 17.7274 103.018 17.3304C102.737 16.9334 102.366 16.6177 101.905 16.3831C101.443 16.1486 100.895 16.0312 100.262 16.0312C99.4382 16.0312 98.7187 16.2477 98.1033 16.6808C97.4969 17.1048 97.0217 17.7138 96.6778 18.5077C96.3339 19.3017 96.162 20.24 96.162 21.3225C96.162 22.4142 96.3294 23.366 96.6642 24.1779C96.9991 24.9899 97.4743 25.6169 98.0897 26.059C98.7142 26.4921 99.4382 26.7086 100.262 26.7086C101.113 26.7086 101.837 26.474 102.434 26.0048C103.04 25.5357 103.43 24.8952 103.602 24.0832H106.48C106.38 25.0666 106.063 25.9417 105.529 26.7086C104.995 27.4754 104.28 28.0799 103.384 28.5219C102.488 28.964 101.443 29.1851 100.248 29.1851ZM108.014 28.8738V13.7442H110.947V28.8738H108.014ZM109.494 11.4166C108.978 11.4166 108.539 11.2452 108.177 10.9023C107.815 10.5595 107.634 10.149 107.634 9.67087C107.634 9.18369 107.815 8.76869 108.177 8.42586C108.539 8.08304 108.978 7.91162 109.494 7.91162C110.001 7.91162 110.435 8.08304 110.797 8.42586C111.168 8.76869 111.354 9.18369 111.354 9.67087C111.354 10.149 111.168 10.5595 110.797 10.9023C110.435 11.2452 110.001 11.4166 109.494 11.4166ZM122.826 22.6217V13.7442H125.759V28.8738H122.881V26.2485H122.718C122.355 27.0514 121.795 27.7235 121.034 28.2648C120.274 28.8062 119.324 29.0723 118.183 29.0632C117.206 29.0632 116.341 28.8512 115.59 28.4272C114.848 28.0032 114.264 27.3671 113.839 26.5191C113.423 25.671 113.215 24.62 113.215 23.366V13.7442H116.147V23.0277C116.147 24.0471 116.437 24.8636 117.016 25.4771C117.595 26.0905 118.342 26.3928 119.256 26.3837C119.808 26.3837 120.355 26.2485 120.899 25.9778C121.451 25.7071 121.908 25.2921 122.27 24.7328C122.641 24.1734 122.826 23.4698 122.826 22.6217ZM128.027 28.8738V13.7442H130.837V16.2343H131.04C131.357 15.3952 131.873 14.7412 132.588 14.272C133.311 13.7938 134.172 13.5548 135.167 13.5548C136.181 13.5548 137.028 13.7938 137.706 14.272C138.394 14.7412 138.905 15.3952 139.241 16.2343H139.404C139.765 15.4133 140.34 14.7637 141.128 14.2855C141.915 13.7984 142.851 13.5548 143.938 13.5548C145.313 13.5548 146.441 13.9879 147.319 14.8539C148.195 15.711 148.634 17.0057 148.634 18.7378V28.8738H145.676V19.0085C145.676 17.98 145.395 17.2402 144.833 16.7891C144.273 16.3289 143.603 16.0989 142.824 16.0989C141.865 16.0989 141.118 16.3966 140.584 16.9921C140.059 17.5785 139.796 18.3228 139.796 19.2249V28.8738H136.838V18.819C136.838 17.998 136.584 17.3394 136.077 16.8432C135.571 16.347 134.904 16.0989 134.081 16.0989C133.521 16.0989 133 16.2477 132.52 16.5455C132.049 16.8342 131.67 17.2402 131.379 17.7635C131.1 18.2777 130.959 18.8732 130.959 19.5498V28.8738H128.027Z" fill="#222222"/>
</svg>
