<svg width="152" height="40" viewBox="0 0 152 40" fill="none" xmlns="http://www.w3.org/2000/svg">
<path d="M12.3821 3.22461L1.03516 19.791V36.6876H17.947L29.0747 19.791V3.22461H12.3821Z" fill="#111111"/>
<path d="M40.4241 3.22461L29.0771 19.791V36.6876H45.9889L57.1166 19.791V3.22461H40.4241Z" fill="#111111"/>
<path d="M67.0869 28.8728V8.70908H70.1415V26.2611H79.3054V28.8728H67.0869ZM80.84 28.8728V13.7432H83.7724V28.8728H80.84ZM82.3197 11.4156C81.8039 11.4156 81.3649 11.2442 81.0029 10.9014C80.6409 10.5585 80.4599 10.1481 80.4599 9.66989C80.4599 9.18272 80.6409 8.76771 81.0029 8.42489C81.3649 8.08206 81.8039 7.91064 82.3197 7.91064C82.8266 7.91064 83.2611 8.08206 83.6231 8.42489C83.9942 8.76771 84.1797 9.18272 84.1797 9.66989C84.1797 10.1481 83.9942 10.5585 83.6231 10.9014C83.2611 11.2442 82.8266 11.4156 82.3197 11.4156ZM88.9726 19.9007V28.8728H86.0401V13.7432H88.8911V16.2333H89.0948C89.4387 15.4123 89.9771 14.7628 90.7103 14.2846C91.4434 13.7974 92.3847 13.5538 93.5341 13.5538C94.5658 13.5538 95.4664 13.7703 96.2358 14.2034C97.0141 14.6274 97.6159 15.2635 98.0414 16.1115C98.4758 16.9595 98.6931 18.0105 98.6931 19.2646V28.8728H95.7606V19.6164C95.7606 18.5248 95.4709 17.6677 94.8917 17.0452C94.3124 16.4137 93.5251 16.0979 92.5295 16.0979C91.8506 16.0979 91.2397 16.2514 90.6968 16.558C90.1627 16.8557 89.7418 17.2843 89.4342 17.8436C89.1264 18.403 88.9726 19.0887 88.9726 19.9007ZM103.676 23.744L103.635 20.1578H104.165L110.206 13.7432H113.736L106.853 21.0509H106.364L103.676 23.744ZM100.961 28.8728V8.70908H103.893V28.8728H100.961ZM110.518 28.8728L105.088 21.7004L107.124 19.63L114.157 28.8728H110.518ZM120.456 29.1841C119.036 29.1841 117.791 28.8592 116.723 28.2098C115.664 27.5602 114.841 26.6489 114.252 25.4761C113.673 24.3032 113.383 22.9409 113.383 21.3892C113.383 19.8195 113.673 18.4481 114.252 17.2752C114.841 16.0934 115.664 15.1777 116.723 14.5281C117.791 13.8786 119.036 13.5538 120.456 13.5538C121.886 13.5538 123.131 13.8786 124.189 14.5281C125.248 15.1777 126.073 16.0934 126.66 17.2752C127.249 18.4481 127.543 19.8195 127.543 21.3892C127.543 22.9409 127.249 24.3032 126.66 25.4761C126.073 26.6489 125.248 27.5602 124.189 28.2098C123.131 28.8592 121.886 29.1841 120.456 29.1841ZM120.456 26.7076C121.389 26.7076 122.159 26.464 122.764 25.9768C123.371 25.4897 123.818 24.8446 124.108 24.0417C124.407 23.2297 124.557 22.3455 124.557 21.3892C124.557 20.4149 124.407 19.5217 124.108 18.7098C123.818 17.8978 123.371 17.2482 122.764 16.7611C122.159 16.2739 121.389 16.0303 120.456 16.0303C119.533 16.0303 118.769 16.2739 118.162 16.7611C117.565 17.2482 117.117 17.8978 116.818 18.7098C116.519 19.5217 116.37 20.4149 116.37 21.3892C116.37 22.3455 116.519 23.2297 116.818 24.0417C117.117 24.8446 117.565 25.4897 118.162 25.9768C118.769 26.464 119.533 26.7076 120.456 26.7076ZM129.119 28.8728V13.7432H131.956V16.1657H132.119C132.4 15.3537 132.889 14.7131 133.585 14.244C134.291 13.7658 135.087 13.5268 135.975 13.5268C136.156 13.5268 136.368 13.5357 136.612 13.5538C136.866 13.5628 137.069 13.5763 137.224 13.5944V16.4092C137.106 16.3731 136.893 16.3371 136.585 16.3009C136.286 16.2648 135.983 16.2468 135.676 16.2468C134.979 16.2468 134.354 16.3956 133.802 16.6934C133.259 16.982 132.829 17.3836 132.513 17.8978C132.205 18.403 132.051 18.9894 132.051 19.6571V28.8728H129.119ZM142.355 29.1977C141.397 29.1977 140.527 29.0217 139.749 28.6698C138.971 28.3089 138.356 27.7857 137.903 27.1001C137.45 26.4144 137.224 25.5798 137.224 24.5964C137.224 23.7394 137.387 23.0402 137.712 22.4989C138.048 21.9486 138.496 21.511 139.056 21.1863C139.618 20.8614 140.243 20.6179 140.93 20.4555C141.618 20.2931 142.324 20.1668 143.048 20.0766C143.963 19.9773 144.7 19.8916 145.261 19.8195C145.822 19.7472 146.229 19.6345 146.482 19.4812C146.745 19.3188 146.876 19.0617 146.876 18.7098V18.6421C146.876 17.7851 146.632 17.1219 146.143 16.6528C145.664 16.1836 144.949 15.9491 143.998 15.9491C143.012 15.9491 142.229 16.1657 141.65 16.5986C141.08 17.0226 140.686 17.5053 140.469 18.0466L137.686 17.4106C138.02 16.4904 138.504 15.7506 139.138 15.1912C139.781 14.6229 140.514 14.2078 141.337 13.9463C142.17 13.6846 143.039 13.5538 143.944 13.5538C144.55 13.5538 145.193 13.6259 145.872 13.7703C146.55 13.9057 147.189 14.1628 147.786 14.5417C148.393 14.9116 148.886 15.4438 149.266 16.1385C149.646 16.8332 149.836 17.7309 149.836 18.8316V28.8728H146.944V26.8023H146.836C146.655 27.1722 146.369 27.5421 145.98 27.912C145.601 28.2819 145.112 28.5887 144.515 28.8322C143.916 29.0758 143.198 29.1977 142.355 29.1977ZM142.994 26.8429C143.818 26.8429 144.518 26.6851 145.098 26.3693C145.677 26.0444 146.121 25.6204 146.429 25.0972C146.736 24.5739 146.89 24.0191 146.89 23.4327V21.4704C146.781 21.5697 146.578 21.6644 146.279 21.7546C145.98 21.8448 145.641 21.9215 145.261 21.9847C144.881 22.0478 144.51 22.1065 144.148 22.1606C143.785 22.2057 143.482 22.2418 143.238 22.2688C142.668 22.35 142.147 22.4763 141.677 22.6477C141.206 22.8101 140.827 23.0538 140.536 23.3785C140.256 23.6943 140.115 24.1138 140.115 24.6371C140.115 25.3678 140.388 25.9181 140.93 26.2881C141.474 26.658 142.161 26.8429 142.994 26.8429Z" fill="#111111"/>
</svg>
