<svg width="256" height="256" viewBox="0 0 256 256" fill="none" xmlns="http://www.w3.org/2000/svg">
<mask id="mask0_4001_3581" style="mask-type:alpha" maskUnits="userSpaceOnUse" x="0" y="0" width="256" height="256">
<rect width="256" height="256" fill="#D9D9D9"/>
</mask>
<g mask="url(#mask0_4001_3581)">
<path d="M8 81.5484C8 62.0421 15.7488 43.3348 29.5418 29.5418C43.3348 15.7488 62.0421 8 81.5484 8H174.452C193.958 8 212.665 15.7488 226.458 29.5418C240.251 43.3348 248 62.0421 248 81.5484V174.452C248 193.958 240.251 212.665 226.458 226.458C212.665 240.251 193.958 248 174.452 248H81.5484C62.0421 248 43.3348 240.251 29.5418 226.458C15.7488 212.665 8 193.958 8 174.452V81.5484Z" fill="url(#paint0_radial_4001_3581)" stroke="url(#paint1_linear_4001_3581)"/>
<path d="M62.4868 152.001C58.358 152.001 54.3982 150.361 51.4787 147.441C48.5591 144.522 46.9189 140.562 46.9189 136.433C46.9189 132.305 48.5591 128.345 51.4787 125.425C54.3982 122.506 58.358 120.866 62.4868 120.866M187.03 152.001C191.159 152.001 195.119 150.361 198.038 147.441C200.958 144.522 202.598 140.562 202.598 136.433C202.598 132.305 200.958 128.345 198.038 125.425C195.119 122.506 191.159 120.866 187.03 120.866" stroke="white" stroke-width="1.5" stroke-linecap="round" stroke-linejoin="round"/>
<path d="M85.8379 85.8382V62.4866M163.677 85.8382V62.4866" stroke="white" stroke-width="1.5" stroke-linejoin="round"/>
<path d="M85.8367 62.4866C90.1356 62.4866 93.6206 59.0017 93.6206 54.7028C93.6206 50.4039 90.1356 46.9189 85.8367 46.9189C81.5377 46.9189 78.0527 50.4039 78.0527 54.7028C78.0527 59.0017 81.5377 62.4866 85.8367 62.4866Z" stroke="white" stroke-width="1.5" stroke-linejoin="round"/>
<path d="M163.68 62.4866C167.979 62.4866 171.464 59.0017 171.464 54.7028C171.464 50.4039 167.979 46.9189 163.68 46.9189C159.381 46.9189 155.896 50.4039 155.896 54.7028C155.896 59.0017 159.381 62.4866 163.68 62.4866Z" stroke="white" stroke-width="1.5" stroke-linejoin="round"/>
<path d="M136.433 85.8382H113.082C91.0686 85.8382 80.0543 85.8382 73.22 92.9138C66.3857 99.9893 66.3779 111.377 66.3779 134.153C66.3779 156.928 66.3779 168.316 73.22 175.392C80.0543 182.467 91.0686 182.467 113.082 182.467H121.06C127.225 182.467 129.397 183.736 133.647 188.359C138.34 193.473 145.611 200.3 152.188 201.888C161.537 204.145 162.587 201.024 160.501 192.111C159.91 189.574 158.423 185.518 159.988 183.152C160.867 181.829 162.323 181.502 165.242 180.848C169.842 179.821 173.641 178.139 176.295 175.392C183.137 168.308 183.137 156.928 183.137 134.153C183.137 111.377 183.137 99.9893 176.295 92.9138C169.461 85.8382 158.446 85.8382 136.433 85.8382Z" stroke="white" stroke-width="1.5" stroke-linejoin="round"/>
<path d="M105.297 148.109C109.734 152.834 116.802 155.893 124.757 155.893C132.712 155.893 139.78 152.834 144.217 148.109" stroke="white" stroke-width="1.5" stroke-linecap="round" stroke-linejoin="round"/>
<path d="M101.478 116.974H101.408M148.182 116.974H148.112" stroke="white" stroke-width="2" stroke-linecap="round" stroke-linejoin="round"/>
</g>
<defs>
<radialGradient id="paint0_radial_4001_3581" cx="0" cy="0" r="1" gradientUnits="userSpaceOnUse" gradientTransform="translate(228.645 23.4839) rotate(135) scale(301.091 227.286)">
<stop stop-color="#D30905"/>
<stop offset="0.895" stop-color="#05743A"/>
</radialGradient>
<linearGradient id="paint1_linear_4001_3581" x1="232.516" y1="11.871" x2="11.871" y2="240.258" gradientUnits="userSpaceOnUse">
<stop stop-color="#CE0704"/>
<stop offset="1" stop-color="#046F36"/>
</linearGradient>
</defs>
</svg>
